<?xml version="1.0" encoding="UTF-8" standalone="no"?>
<!DOCTYPE svg PUBLIC "-//W3C//DTD SVG 1.1//EN"
 "http://www.w3.org/Graphics/SVG/1.1/DTD/svg11.dtd">
<!-- Generated by graphviz version 2.38.0 (20140413.2041)
 -->
<!-- Title: TSetElementHashable.h Pages: 1 -->
<svg width="336pt" height="247pt"
 viewBox="0.00 0.00 336.00 247.00" xmlns="http://www.w3.org/2000/svg" xmlns:xlink="http://www.w3.org/1999/xlink">
<g id="graph0" class="graph" transform="scale(1 1) rotate(0) translate(4 243)">
<title>TSetElementHashable.h</title>
<!-- Node1 -->
<g id="Node000001" class="node"><title>Node1</title>
<g id="a_Node000001"><a xlink:title="Definice typu Hashable Basic SetElement a implementace API.">
<polygon fill="#999999" stroke="#666666" points="195,-239 73,-239 73,-220 195,-220 195,-239"/>
<text text-anchor="middle" x="134" y="-227" font-family="Helvetica,sans-Serif" font-size="10.00">TSetElementHashable.h</text>
</a>
</g>
</g>
<!-- Node2 -->
<g id="Node000002" class="node"><title>Node2</title>
<g id="a_Node000002"><a xlink:href="_t_set_element_hashable_8c.html" target="_top" xlink:title="Definice globální proměnné realizující počítadlo operací porovnání dvou hodnot typu Hashable SetEleme...">
<polygon fill="white" stroke="#666666" points="122,-184 7.10543e-015,-184 7.10543e-015,-165 122,-165 122,-184"/>
<text text-anchor="middle" x="61" y="-172" font-family="Helvetica,sans-Serif" font-size="10.00">TSetElementHashable.c</text>
</a>
</g>
</g>
<!-- Node1&#45;&gt;Node2 -->
<g id="edge1_Node000001_Node000002" class="edge"><title>Node1&#45;&gt;Node2</title>
<g id="a_edge1_Node000001_Node000002"><a xlink:title=" ">
<path fill="none" stroke="#63b8ff" d="M113.858,-213.877C100.721,-204.338 84.0179,-192.212 72.9421,-184.17"/>
<polygon fill="#63b8ff" stroke="#63b8ff" points="112.123,-216.942 122.271,-219.985 116.235,-211.277 112.123,-216.942"/>
</a>
</g>
</g>
<!-- Node3 -->
<g id="Node000003" class="node"><title>Node3</title>
<g id="a_Node000003"><a xlink:href="_t_set_hash_table_open_addr_8h.html" target="_top" xlink:title="Implementace typu SetHashTable &#45; (hašovací tabulka využívající otevřené adresování)">
<polygon fill="white" stroke="#666666" points="274,-184 140,-184 140,-165 274,-165 274,-184"/>
<text text-anchor="middle" x="207" y="-172" font-family="Helvetica,sans-Serif" font-size="10.00">TSetHashTableOpenAddr.h</text>
</a>
</g>
</g>
<!-- Node1&#45;&gt;Node3 -->
<g id="edge2_Node000001_Node000003" class="edge"><title>Node1&#45;&gt;Node3</title>
<g id="a_edge2_Node000001_Node000003"><a xlink:title=" ">
<path fill="none" stroke="#63b8ff" d="M154.142,-213.877C167.279,-204.338 183.982,-192.212 195.058,-184.17"/>
<polygon fill="#63b8ff" stroke="#63b8ff" points="151.765,-211.277 145.729,-219.985 155.877,-216.942 151.765,-211.277"/>
</a>
</g>
</g>
<!-- Node4 -->
<g id="Node000004" class="node"><title>Node4</title>
<g id="a_Node000004"><a xlink:href="_t_set_8h.html" target="_top" xlink:title="Definice typu Set &#45; (realizace unordered množiny pomocí hašovací tabulky)">
<polygon fill="white" stroke="#666666" points="175.5,-129 130.5,-129 130.5,-110 175.5,-110 175.5,-129"/>
<text text-anchor="middle" x="153" y="-117" font-family="Helvetica,sans-Serif" font-size="10.00">TSet.h</text>
</a>
</g>
</g>
<!-- Node3&#45;&gt;Node4 -->
<g id="edge3_Node000003_Node000004" class="edge"><title>Node3&#45;&gt;Node4</title>
<g id="a_edge3_Node000003_Node000004"><a xlink:title=" ">
<path fill="none" stroke="#63b8ff" d="M190.718,-157.519C181.2,-148.178 169.561,-136.754 161.751,-129.089"/>
<polygon fill="#63b8ff" stroke="#63b8ff" points="188.494,-160.241 198.083,-164.748 193.398,-155.246 188.494,-160.241"/>
</a>
</g>
</g>
<!-- Node9 -->
<g id="Node000009" class="node"><title>Node9</title>
<g id="a_Node000009"><a xlink:href="_t_set_hash_table_open_addr_8c.html" target="_top" xlink:title="Implementace API pro typ SetHashTable &#45; (hašovací tabulka využívající otevřené adresování)">
<polygon fill="white" stroke="#666666" points="328,-129 194,-129 194,-110 328,-110 328,-129"/>
<text text-anchor="middle" x="261" y="-117" font-family="Helvetica,sans-Serif" font-size="10.00">TSetHashTableOpenAddr.c</text>
</a>
</g>
</g>
<!-- Node3&#45;&gt;Node9 -->
<g id="edge9_Node000003_Node000009" class="edge"><title>Node3&#45;&gt;Node9</title>
<g id="a_edge9_Node000003_Node000009"><a xlink:title=" ">
<path fill="none" stroke="#63b8ff" d="M223.282,-157.519C232.8,-148.178 244.439,-136.754 252.249,-129.089"/>
<polygon fill="#63b8ff" stroke="#63b8ff" points="220.602,-155.246 215.917,-164.748 225.506,-160.241 220.602,-155.246"/>
</a>
</g>
</g>
<!-- Node5 -->
<g id="Node000005" class="node"><title>Node5</title>
<g id="a_Node000005"><a xlink:href="_t_set_8c.html" target="_top" xlink:title="Implementace API pro typ Set (realizace unordered množiny pomocí hašovací tabulky)">
<polygon fill="white" stroke="#666666" points="124.5,-74 79.5,-74 79.5,-55 124.5,-55 124.5,-74"/>
<text text-anchor="middle" x="102" y="-62" font-family="Helvetica,sans-Serif" font-size="10.00">TSet.c</text>
</a>
</g>
</g>
<!-- Node4&#45;&gt;Node5 -->
<g id="edge4_Node000004_Node000005" class="edge"><title>Node4&#45;&gt;Node5</title>
<g id="a_edge4_Node000004_Node000005"><a xlink:title=" ">
<path fill="none" stroke="#63b8ff" d="M137.622,-102.519C128.633,-93.1775 117.641,-81.7541 110.265,-74.089"/>
<polygon fill="#63b8ff" stroke="#63b8ff" points="135.123,-104.969 144.578,-109.748 140.167,-100.116 135.123,-104.969"/>
</a>
</g>
</g>
<!-- Node6 -->
<g id="Node000006" class="node"><title>Node6</title>
<g id="a_Node000006"><a xlink:href="main_8c.html" target="_top" xlink:title="Hlavní program pro testování ADT TSet &#45; (realizace unordered množiny pomocí hašovací tabulky)">
<polygon fill="white" stroke="#666666" points="176,-19 130,-19 130,-0 176,-0 176,-19"/>
<text text-anchor="middle" x="153" y="-7" font-family="Helvetica,sans-Serif" font-size="10.00">main.c</text>
</a>
</g>
</g>
<!-- Node4&#45;&gt;Node6 -->
<g id="edge5_Node000004_Node000006" class="edge"><title>Node4&#45;&gt;Node6</title>
<g id="a_edge5_Node000004_Node000006"><a xlink:title=" ">
<path fill="none" stroke="#63b8ff" d="M153,-99.4835C153,-75.8433 153,-36.498 153,-19.1584"/>
<polygon fill="#63b8ff" stroke="#63b8ff" points="149.5,-99.6619 153,-109.662 156.5,-99.6619 149.5,-99.6619"/>
</a>
</g>
</g>
<!-- Node7 -->
<g id="Node000007" class="node"><title>Node7</title>
<g id="a_Node000007"><a xlink:href="testbench_8h.html" target="_top" xlink:title="Definice testbench API pro testování operací zvoleného ADT.">
<polygon fill="white" stroke="#666666" points="249,-74 181,-74 181,-55 249,-55 249,-74"/>
<text text-anchor="middle" x="215" y="-62" font-family="Helvetica,sans-Serif" font-size="10.00">testbench.h</text>
</a>
</g>
</g>
<!-- Node4&#45;&gt;Node7 -->
<g id="edge6_Node000004_Node000007" class="edge"><title>Node4&#45;&gt;Node7</title>
<g id="a_edge6_Node000004_Node000007"><a xlink:title=" ">
<path fill="none" stroke="#63b8ff" d="M170.754,-103.324C181.808,-93.8734 195.631,-82.057 204.857,-74.1703"/>
<polygon fill="#63b8ff" stroke="#63b8ff" points="168.288,-100.826 162.961,-109.985 172.837,-106.147 168.288,-100.826"/>
</a>
</g>
</g>
<!-- Node7&#45;&gt;Node6 -->
<g id="edge7_Node000007_Node000006" class="edge"><title>Node7&#45;&gt;Node6</title>
<g id="a_edge7_Node000007_Node000006"><a xlink:title=" ">
<path fill="none" stroke="#63b8ff" d="M197.246,-48.3236C186.192,-38.8734 172.369,-27.057 163.143,-19.1703"/>
<polygon fill="#63b8ff" stroke="#63b8ff" points="195.163,-51.1472 205.039,-54.9846 199.712,-45.8264 195.163,-51.1472"/>
</a>
</g>
</g>
<!-- Node8 -->
<g id="Node000008" class="node"><title>Node8</title>
<g id="a_Node000008"><a xlink:href="testbench_8c.html" target="_top" xlink:title="Implementace testbench API pro testování operací zvoleného ADT.">
<polygon fill="white" stroke="#666666" points="262,-19 194,-19 194,-0 262,-0 262,-19"/>
<text text-anchor="middle" x="228" y="-7" font-family="Helvetica,sans-Serif" font-size="10.00">testbench.c</text>
</a>
</g>
</g>
<!-- Node7&#45;&gt;Node8 -->
<g id="edge8_Node000007_Node000008" class="edge"><title>Node7&#45;&gt;Node8</title>
<g id="a_edge8_Node000007_Node000008"><a xlink:title=" ">
<path fill="none" stroke="#63b8ff" d="M219.55,-44.9505C221.708,-36.1517 224.182,-26.0643 225.893,-19.089"/>
<polygon fill="#63b8ff" stroke="#63b8ff" points="216.13,-44.2022 217.147,-54.7481 222.928,-45.8698 216.13,-44.2022"/>
</a>
</g>
</g>
</g>
</svg>
