<?xml version="1.0" encoding="UTF-8" standalone="no"?>
<!DOCTYPE svg PUBLIC "-//W3C//DTD SVG 1.1//EN"
 "http://www.w3.org/Graphics/SVG/1.1/DTD/svg11.dtd">
<!-- Generated by graphviz version 2.38.0 (20140413.2041)
 -->
<!-- Title: TSetHashTableOpenAddr.c Pages: 1 -->
<svg width="404pt" height="192pt"
 viewBox="0.00 0.00 403.50 192.00" xmlns="http://www.w3.org/2000/svg" xmlns:xlink="http://www.w3.org/1999/xlink">
<g id="graph0" class="graph" transform="scale(1 1) rotate(0) translate(4 188)">
<title>TSetHashTableOpenAddr.c</title>
<!-- Node1 -->
<g id="Node000001" class="node"><title>Node1</title>
<g id="a_Node000001"><a xlink:title="Implementace API pro typ SetHashTable &#45; (hašovací tabulka využívající otevřené adresování)">
<polygon fill="#999999" stroke="#666666" points="211,-184 77,-184 77,-165 211,-165 211,-184"/>
<text text-anchor="middle" x="144" y="-172" font-family="Helvetica,sans-Serif" font-size="10.00">TSetHashTableOpenAddr.c</text>
</a>
</g>
</g>
<!-- Node2 -->
<g id="Node000002" class="node"><title>Node2</title>
<g id="a_Node000002"><a xlink:title=" ">
<polygon fill="#e0e0e0" stroke="#999999" points="48,-19 0,-19 0,-0 48,-0 48,-19"/>
<text text-anchor="middle" x="24" y="-7" font-family="Helvetica,sans-Serif" font-size="10.00">stdlib.h</text>
</a>
</g>
</g>
<!-- Node1&#45;&gt;Node2 -->
<g id="edge1_Node000001_Node000002" class="edge"><title>Node1&#45;&gt;Node2</title>
<g id="a_edge1_Node000001_Node000002"><a xlink:title=" ">
<path fill="none" stroke="#63b8ff" d="M137.548,-164.736C118.422,-138.756 61.7865,-61.8266 36.4709,-27.4397"/>
<polygon fill="#63b8ff" stroke="#63b8ff" points="39.2309,-25.2849 30.4836,-19.3069 33.5937,-29.435 39.2309,-25.2849"/>
</a>
</g>
</g>
<!-- Node3 -->
<g id="Node000003" class="node"><title>Node3</title>
<g id="a_Node000003"><a xlink:title=" ">
<polygon fill="#e0e0e0" stroke="#999999" points="118,-19 66,-19 66,-0 118,-0 118,-19"/>
<text text-anchor="middle" x="92" y="-7" font-family="Helvetica,sans-Serif" font-size="10.00">assert.h</text>
</a>
</g>
</g>
<!-- Node1&#45;&gt;Node3 -->
<g id="edge2_Node000001_Node000003" class="edge"><title>Node1&#45;&gt;Node3</title>
<g id="a_edge2_Node000001_Node000003"><a xlink:title=" ">
<path fill="none" stroke="#63b8ff" d="M139.595,-164.804C135.231,-155.955 128.559,-141.762 124,-129 111.68,-94.5081 101.478,-52.9159 96.1043,-29.3051"/>
<polygon fill="#63b8ff" stroke="#63b8ff" points="99.4589,-28.2669 93.8658,-19.2687 92.6267,-29.7908 99.4589,-28.2669"/>
</a>
</g>
</g>
<!-- Node4 -->
<g id="Node000004" class="node"><title>Node4</title>
<g id="a_Node000004"><a xlink:href="_t_set_hash_table_open_addr_8h.html" target="_top" xlink:title="Implementace typu SetHashTable &#45; (hašovací tabulka využívající otevřené adresování)">
<polygon fill="white" stroke="#666666" points="267,-129 133,-129 133,-110 267,-110 267,-129"/>
<text text-anchor="middle" x="200" y="-117" font-family="Helvetica,sans-Serif" font-size="10.00">TSetHashTableOpenAddr.h</text>
</a>
</g>
</g>
<!-- Node1&#45;&gt;Node4 -->
<g id="edge3_Node000001_Node000004" class="edge"><title>Node1&#45;&gt;Node4</title>
<g id="a_edge3_Node000001_Node000004"><a xlink:title=" ">
<path fill="none" stroke="#63b8ff" d="M152.997,-164.985C161.194,-157.227 173.506,-145.575 183.472,-136.143"/>
<polygon fill="#63b8ff" stroke="#63b8ff" points="185.982,-138.586 190.839,-129.17 181.17,-133.502 185.982,-138.586"/>
</a>
</g>
</g>
<!-- Node10 -->
<g id="Node000010" class="node"><title>Node10</title>
<g id="a_Node000010"><a xlink:title=" ">
<polygon fill="#e0e0e0" stroke="#999999" points="395.5,-19 344.5,-19 344.5,-0 395.5,-0 395.5,-19"/>
<text text-anchor="middle" x="370" y="-7" font-family="Helvetica,sans-Serif" font-size="10.00">check.h</text>
</a>
</g>
</g>
<!-- Node1&#45;&gt;Node10 -->
<g id="edge13_Node000001_Node000010" class="edge"><title>Node1&#45;&gt;Node10</title>
<g id="a_edge13_Node000001_Node000010"><a xlink:title=" ">
<path fill="none" stroke="#63b8ff" d="M193.991,-164.944C243.867,-153.528 318.214,-128.084 355,-74 364.058,-60.6821 367.682,-42.5691 369.113,-29.096"/>
<polygon fill="#63b8ff" stroke="#63b8ff" points="372.607,-29.3126 369.871,-19.077 365.627,-28.7845 372.607,-29.3126"/>
</a>
</g>
</g>
<!-- Node5 -->
<g id="Node000005" class="node"><title>Node5</title>
<g id="a_Node000005"><a xlink:title=" ">
<polygon fill="#e0e0e0" stroke="#999999" points="192,-19 136,-19 136,-0 192,-0 192,-19"/>
<text text-anchor="middle" x="164" y="-7" font-family="Helvetica,sans-Serif" font-size="10.00">stdbool.h</text>
</a>
</g>
</g>
<!-- Node4&#45;&gt;Node5 -->
<g id="edge4_Node000004_Node000005" class="edge"><title>Node4&#45;&gt;Node5</title>
<g id="a_edge4_Node000004_Node000005"><a xlink:title=" ">
<path fill="none" stroke="#63b8ff" d="M183.111,-109.952C170.293,-102.426 153.619,-90.1509 146,-74 138.988,-59.1349 145.484,-40.9926 152.553,-27.9122"/>
<polygon fill="#63b8ff" stroke="#63b8ff" points="155.733,-29.4144 157.856,-19.0345 149.723,-25.8247 155.733,-29.4144"/>
</a>
</g>
</g>
<!-- Node6 -->
<g id="Node000006" class="node"><title>Node6</title>
<g id="a_Node000006"><a xlink:title=" ">
<polygon fill="#e0e0e0" stroke="#999999" points="346.5,-74 295.5,-74 295.5,-55 346.5,-55 346.5,-74"/>
<text text-anchor="middle" x="321" y="-62" font-family="Helvetica,sans-Serif" font-size="10.00">stddef.h</text>
</a>
</g>
</g>
<!-- Node4&#45;&gt;Node6 -->
<g id="edge5_Node000004_Node000006" class="edge"><title>Node4&#45;&gt;Node6</title>
<g id="a_edge5_Node000004_Node000006"><a xlink:title=" ">
<path fill="none" stroke="#63b8ff" d="M219.441,-109.985C238.994,-101.42 269.38,-88.1104 291.824,-78.2795"/>
<polygon fill="#63b8ff" stroke="#63b8ff" points="293.45,-81.3885 301.206,-74.1703 290.641,-74.9766 293.45,-81.3885"/>
</a>
</g>
</g>
<!-- Node7 -->
<g id="Node000007" class="node"><title>Node7</title>
<g id="a_Node000007"><a xlink:href="_t_set_element_hashable_8h.html" target="_top" xlink:title="Definice typu Hashable Basic SetElement a implementace API.">
<polygon fill="white" stroke="#666666" points="277,-74 155,-74 155,-55 277,-55 277,-74"/>
<text text-anchor="middle" x="216" y="-62" font-family="Helvetica,sans-Serif" font-size="10.00">TSetElementHashable.h</text>
</a>
</g>
</g>
<!-- Node4&#45;&gt;Node7 -->
<g id="edge6_Node000004_Node000007" class="edge"><title>Node4&#45;&gt;Node7</title>
<g id="a_edge6_Node000004_Node000007"><a xlink:title=" ">
<path fill="none" stroke="#63b8ff" d="M202.642,-109.748C204.762,-102.725 207.812,-92.6235 210.462,-83.845"/>
<polygon fill="#63b8ff" stroke="#63b8ff" points="213.868,-84.6738 213.407,-74.089 207.166,-82.6508 213.868,-84.6738"/>
</a>
</g>
</g>
<!-- Node7&#45;&gt;Node2 -->
<g id="edge8_Node000007_Node000002" class="edge"><title>Node7&#45;&gt;Node2</title>
<g id="a_edge8_Node000007_Node000002"><a xlink:title=" ">
<path fill="none" stroke="#63b8ff" d="M185.152,-54.9846C150.419,-45.3969 94.1428,-29.8623 58.1212,-19.9189"/>
<polygon fill="#63b8ff" stroke="#63b8ff" points="58.657,-16.4359 48.0861,-17.1488 56.7943,-23.1836 58.657,-16.4359"/>
</a>
</g>
</g>
<!-- Node7&#45;&gt;Node3 -->
<g id="edge11_Node000007_Node000003" class="edge"><title>Node7&#45;&gt;Node3</title>
<g id="a_edge11_Node000007_Node000003"><a xlink:title=" ">
<path fill="none" stroke="#63b8ff" d="M196.077,-54.9846C175.95,-46.3818 144.62,-32.991 121.59,-23.1475"/>
<polygon fill="#63b8ff" stroke="#63b8ff" points="122.856,-19.8823 112.285,-19.1703 120.105,-26.319 122.856,-19.8823"/>
</a>
</g>
</g>
<!-- Node7&#45;&gt;Node5 -->
<g id="edge9_Node000007_Node000005" class="edge"><title>Node7&#45;&gt;Node5</title>
<g id="a_edge9_Node000007_Node000005"><a xlink:title=" ">
<path fill="none" stroke="#63b8ff" d="M207.413,-54.7481C199.841,-47.0303 188.622,-35.5953 179.486,-26.2835"/>
<polygon fill="#63b8ff" stroke="#63b8ff" points="181.929,-23.7759 172.427,-19.089 176.932,-28.6783 181.929,-23.7759"/>
</a>
</g>
</g>
<!-- Node8 -->
<g id="Node000008" class="node"><title>Node8</title>
<g id="a_Node000008"><a xlink:title=" ">
<polygon fill="#e0e0e0" stroke="#999999" points="256,-19 210,-19 210,-0 256,-0 256,-19"/>
<text text-anchor="middle" x="233" y="-7" font-family="Helvetica,sans-Serif" font-size="10.00">stdio.h</text>
</a>
</g>
</g>
<!-- Node7&#45;&gt;Node8 -->
<g id="edge7_Node000007_Node000008" class="edge"><title>Node7&#45;&gt;Node8</title>
<g id="a_edge7_Node000007_Node000008"><a xlink:title=" ">
<path fill="none" stroke="#63b8ff" d="M218.807,-54.7481C221.06,-47.7249 224.3,-37.6235 227.116,-28.845"/>
<polygon fill="#63b8ff" stroke="#63b8ff" points="230.523,-29.6802 230.245,-19.089 223.858,-27.5422 230.523,-29.6802"/>
</a>
</g>
</g>
<!-- Node9 -->
<g id="Node000009" class="node"><title>Node9</title>
<g id="a_Node000009"><a xlink:title=" ">
<polygon fill="#e0e0e0" stroke="#999999" points="323.5,-19 274.5,-19 274.5,-0 323.5,-0 323.5,-19"/>
<text text-anchor="middle" x="299" y="-7" font-family="Helvetica,sans-Serif" font-size="10.00">stdint.h</text>
</a>
</g>
</g>
<!-- Node7&#45;&gt;Node9 -->
<g id="edge10_Node000007_Node000009" class="edge"><title>Node7&#45;&gt;Node9</title>
<g id="a_edge10_Node000007_Node000009"><a xlink:title=" ">
<path fill="none" stroke="#63b8ff" d="M229.335,-54.9846C242.086,-46.8426 261.553,-34.4119 276.67,-24.7587"/>
<polygon fill="#63b8ff" stroke="#63b8ff" points="278.877,-27.5021 285.422,-19.1703 275.11,-21.6024 278.877,-27.5021"/>
</a>
</g>
</g>
<!-- Node7&#45;&gt;Node10 -->
<g id="edge12_Node000007_Node000010" class="edge"><title>Node7&#45;&gt;Node10</title>
<g id="a_edge12_Node000007_Node000010"><a xlink:title=" ">
<path fill="none" stroke="#63b8ff" d="M240.743,-54.9846C266.374,-46.1636 306.632,-32.3086 335.407,-22.4054"/>
<polygon fill="#63b8ff" stroke="#63b8ff" points="336.747,-25.6459 345.063,-19.0821 334.469,-19.0269 336.747,-25.6459"/>
</a>
</g>
</g>
</g>
</svg>
