<?xml version="1.0" encoding="UTF-8" standalone="no"?>
<!DOCTYPE svg PUBLIC "-//W3C//DTD SVG 1.1//EN"
 "http://www.w3.org/Graphics/SVG/1.1/DTD/svg11.dtd">
<!-- Generated by graphviz version 2.38.0 (20140413.2041)
 -->
<!-- Title: TSet.c Pages: 1 -->
<svg width="402pt" height="247pt"
 viewBox="0.00 0.00 401.50 247.00" xmlns="http://www.w3.org/2000/svg" xmlns:xlink="http://www.w3.org/1999/xlink">
<g id="graph0" class="graph" transform="scale(1 1) rotate(0) translate(4 243)">
<title>TSet.c</title>
<!-- Node1 -->
<g id="Node000001" class="node"><title>Node1</title>
<g id="a_Node000001"><a xlink:title="Implementace API pro typ Set (realizace unordered množiny pomocí hašovací tabulky)">
<polygon fill="#999999" stroke="#666666" points="289.5,-239 244.5,-239 244.5,-220 289.5,-220 289.5,-239"/>
<text text-anchor="middle" x="267" y="-227" font-family="Helvetica,sans-Serif" font-size="10.00">TSet.c</text>
</a>
</g>
</g>
<!-- Node2 -->
<g id="Node000002" class="node"><title>Node2</title>
<g id="a_Node000002"><a xlink:href="_t_set_8h.html" target="_top" xlink:title="Definice typu Set &#45; (realizace unordered množiny pomocí hašovací tabulky)">
<polygon fill="white" stroke="#666666" points="202.5,-184 157.5,-184 157.5,-165 202.5,-165 202.5,-184"/>
<text text-anchor="middle" x="180" y="-172" font-family="Helvetica,sans-Serif" font-size="10.00">TSet.h</text>
</a>
</g>
</g>
<!-- Node1&#45;&gt;Node2 -->
<g id="edge1_Node000001_Node000002" class="edge"><title>Node1&#45;&gt;Node2</title>
<g id="a_edge1_Node000001_Node000002"><a xlink:title=" ">
<path fill="none" stroke="#63b8ff" d="M253.022,-219.985C239.531,-211.766 218.866,-199.177 202.959,-189.486"/>
<polygon fill="#63b8ff" stroke="#63b8ff" points="204.593,-186.384 194.232,-184.17 200.952,-192.362 204.593,-186.384"/>
</a>
</g>
</g>
<!-- Node11 -->
<g id="Node000011" class="node"><title>Node11</title>
<g id="a_Node000011"><a xlink:title=" ">
<polygon fill="#e0e0e0" stroke="#999999" points="393.5,-19 342.5,-19 342.5,-0 393.5,-0 393.5,-19"/>
<text text-anchor="middle" x="368" y="-7" font-family="Helvetica,sans-Serif" font-size="10.00">check.h</text>
</a>
</g>
</g>
<!-- Node1&#45;&gt;Node11 -->
<g id="edge15_Node000001_Node000011" class="edge"><title>Node1&#45;&gt;Node11</title>
<g id="a_edge15_Node000001_Node000011"><a xlink:title=" ">
<path fill="none" stroke="#63b8ff" d="M270.959,-219.954C285.883,-187.742 338.936,-73.2324 359.639,-28.5463"/>
<polygon fill="#63b8ff" stroke="#63b8ff" points="362.93,-29.7685 363.958,-19.2237 356.579,-26.8258 362.93,-29.7685"/>
</a>
</g>
</g>
<!-- Node3 -->
<g id="Node000003" class="node"><title>Node3</title>
<g id="a_Node000003"><a xlink:title=" ">
<polygon fill="#e0e0e0" stroke="#999999" points="56,-19 3.55271e-015,-19 3.55271e-015,-0 56,-0 56,-19"/>
<text text-anchor="middle" x="28" y="-7" font-family="Helvetica,sans-Serif" font-size="10.00">stdbool.h</text>
</a>
</g>
</g>
<!-- Node2&#45;&gt;Node3 -->
<g id="edge2_Node000002_Node000003" class="edge"><title>Node2&#45;&gt;Node3</title>
<g id="a_edge2_Node000002_Node000003"><a xlink:title=" ">
<path fill="none" stroke="#63b8ff" d="M157.153,-165.746C137.818,-158.401 110.121,-145.968 90,-129 66.8939,-109.514 63.9885,-100.794 50,-74 42.4068,-59.4558 36.5173,-41.7293 32.7509,-28.7054"/>
<polygon fill="#63b8ff" stroke="#63b8ff" points="36.1208,-27.7594 30.0958,-19.0444 29.3711,-29.6144 36.1208,-27.7594"/>
</a>
</g>
</g>
<!-- Node4 -->
<g id="Node000004" class="node"><title>Node4</title>
<g id="a_Node000004"><a xlink:title=" ">
<polygon fill="#e0e0e0" stroke="#999999" points="110.5,-74 59.5,-74 59.5,-55 110.5,-55 110.5,-74"/>
<text text-anchor="middle" x="85" y="-62" font-family="Helvetica,sans-Serif" font-size="10.00">stddef.h</text>
</a>
</g>
</g>
<!-- Node2&#45;&gt;Node4 -->
<g id="edge3_Node000002_Node000004" class="edge"><title>Node2&#45;&gt;Node4</title>
<g id="a_edge3_Node000002_Node000004"><a xlink:title=" ">
<path fill="none" stroke="#63b8ff" d="M157.251,-165.489C140.259,-158.395 117.696,-146.434 104,-129 93.8921,-116.134 89.1511,-97.9707 86.9335,-84.3638"/>
<polygon fill="#63b8ff" stroke="#63b8ff" points="90.3739,-83.6811 85.6017,-74.2219 83.4335,-84.5925 90.3739,-83.6811"/>
</a>
</g>
</g>
<!-- Node5 -->
<g id="Node000005" class="node"><title>Node5</title>
<g id="a_Node000005"><a xlink:href="_t_set_hash_table_open_addr_8h.html" target="_top" xlink:title="Implementace typu SetHashTable &#45; (hašovací tabulka využívající otevřené adresování)">
<polygon fill="white" stroke="#666666" points="247,-129 113,-129 113,-110 247,-110 247,-129"/>
<text text-anchor="middle" x="180" y="-117" font-family="Helvetica,sans-Serif" font-size="10.00">TSetHashTableOpenAddr.h</text>
</a>
</g>
</g>
<!-- Node2&#45;&gt;Node5 -->
<g id="edge4_Node000002_Node000005" class="edge"><title>Node2&#45;&gt;Node5</title>
<g id="a_edge4_Node000002_Node000005"><a xlink:title=" ">
<path fill="none" stroke="#63b8ff" d="M180,-164.748C180,-157.802 180,-147.845 180,-139.135"/>
<polygon fill="#63b8ff" stroke="#63b8ff" points="183.5,-139.089 180,-129.089 176.5,-139.089 183.5,-139.089"/>
</a>
</g>
</g>
<!-- Node2&#45;&gt;Node11 -->
<g id="edge14_Node000002_Node000011" class="edge"><title>Node2&#45;&gt;Node11</title>
<g id="a_edge14_Node000002_Node000011"><a xlink:title=" ">
<path fill="none" stroke="#63b8ff" d="M197.803,-164.914C213.809,-156.78 237.568,-143.652 256,-129 296.063,-97.152 335.401,-51.1841 355.055,-26.9251"/>
<polygon fill="#63b8ff" stroke="#63b8ff" points="357.853,-29.0302 361.37,-19.0362 352.388,-24.6555 357.853,-29.0302"/>
</a>
</g>
</g>
<!-- Node5&#45;&gt;Node3 -->
<g id="edge5_Node000005_Node000003" class="edge"><title>Node5&#45;&gt;Node3</title>
<g id="a_edge5_Node000005_Node000003"><a xlink:title=" ">
<path fill="none" stroke="#63b8ff" d="M173.29,-109.759C162.827,-96.5731 141.479,-71.3946 119,-55 101.017,-41.8843 78.5732,-30.8605 60.4746,-23.0658"/>
<polygon fill="#63b8ff" stroke="#63b8ff" points="61.4991,-19.7007 50.9227,-19.0749 58.8004,-26.1596 61.4991,-19.7007"/>
</a>
</g>
</g>
<!-- Node5&#45;&gt;Node4 -->
<g id="edge6_Node000005_Node000004" class="edge"><title>Node5&#45;&gt;Node4</title>
<g id="a_edge6_Node000005_Node000004"><a xlink:title=" ">
<path fill="none" stroke="#63b8ff" d="M164.737,-109.985C149.867,-101.689 127.017,-88.9413 109.584,-79.2153"/>
<polygon fill="#63b8ff" stroke="#63b8ff" points="110.979,-75.9859 100.541,-74.1703 107.569,-82.0989 110.979,-75.9859"/>
</a>
</g>
</g>
<!-- Node6 -->
<g id="Node000006" class="node"><title>Node6</title>
<g id="a_Node000006"><a xlink:href="_t_set_element_hashable_8h.html" target="_top" xlink:title="Definice typu Hashable Basic SetElement a implementace API.">
<polygon fill="white" stroke="#666666" points="289,-74 167,-74 167,-55 289,-55 289,-74"/>
<text text-anchor="middle" x="228" y="-62" font-family="Helvetica,sans-Serif" font-size="10.00">TSetElementHashable.h</text>
</a>
</g>
</g>
<!-- Node5&#45;&gt;Node6 -->
<g id="edge7_Node000005_Node000006" class="edge"><title>Node5&#45;&gt;Node6</title>
<g id="a_edge7_Node000005_Node000006"><a xlink:title=" ">
<path fill="none" stroke="#63b8ff" d="M187.926,-109.748C194.846,-102.107 205.065,-90.8237 213.452,-81.5634"/>
<polygon fill="#63b8ff" stroke="#63b8ff" points="216.103,-83.8506 220.221,-74.089 210.914,-79.1516 216.103,-83.8506"/>
</a>
</g>
</g>
<!-- Node6&#45;&gt;Node3 -->
<g id="edge10_Node000006_Node000003" class="edge"><title>Node6&#45;&gt;Node3</title>
<g id="a_edge10_Node000006_Node000003"><a xlink:title=" ">
<path fill="none" stroke="#63b8ff" d="M195.867,-54.9846C160.541,-45.6232 103.82,-30.5924 66.2348,-20.6322"/>
<polygon fill="#63b8ff" stroke="#63b8ff" points="66.7377,-17.1447 56.1748,-17.9663 64.9445,-23.9112 66.7377,-17.1447"/>
</a>
</g>
</g>
<!-- Node7 -->
<g id="Node000007" class="node"><title>Node7</title>
<g id="a_Node000007"><a xlink:title=" ">
<polygon fill="#e0e0e0" stroke="#999999" points="120,-19 74,-19 74,-0 120,-0 120,-19"/>
<text text-anchor="middle" x="97" y="-7" font-family="Helvetica,sans-Serif" font-size="10.00">stdio.h</text>
</a>
</g>
</g>
<!-- Node6&#45;&gt;Node7 -->
<g id="edge8_Node000006_Node000007" class="edge"><title>Node6&#45;&gt;Node7</title>
<g id="a_edge8_Node000006_Node000007"><a xlink:title=" ">
<path fill="none" stroke="#63b8ff" d="M206.953,-54.9846C185.594,-46.3434 152.295,-32.8713 127.935,-23.0158"/>
<polygon fill="#63b8ff" stroke="#63b8ff" points="129.013,-19.6763 118.43,-19.1703 126.388,-26.1654 129.013,-19.6763"/>
</a>
</g>
</g>
<!-- Node8 -->
<g id="Node000008" class="node"><title>Node8</title>
<g id="a_Node000008"><a xlink:title=" ">
<polygon fill="#e0e0e0" stroke="#999999" points="186,-19 138,-19 138,-0 186,-0 186,-19"/>
<text text-anchor="middle" x="162" y="-7" font-family="Helvetica,sans-Serif" font-size="10.00">stdlib.h</text>
</a>
</g>
</g>
<!-- Node6&#45;&gt;Node8 -->
<g id="edge9_Node000006_Node000008" class="edge"><title>Node6&#45;&gt;Node8</title>
<g id="a_edge9_Node000006_Node000008"><a xlink:title=" ">
<path fill="none" stroke="#63b8ff" d="M217.396,-54.9846C207.544,-47.0731 192.649,-35.1121 180.785,-25.5848"/>
<polygon fill="#63b8ff" stroke="#63b8ff" points="182.786,-22.7027 172.797,-19.1703 178.403,-28.1607 182.786,-22.7027"/>
</a>
</g>
</g>
<!-- Node9 -->
<g id="Node000009" class="node"><title>Node9</title>
<g id="a_Node000009"><a xlink:title=" ">
<polygon fill="#e0e0e0" stroke="#999999" points="253.5,-19 204.5,-19 204.5,-0 253.5,-0 253.5,-19"/>
<text text-anchor="middle" x="229" y="-7" font-family="Helvetica,sans-Serif" font-size="10.00">stdint.h</text>
</a>
</g>
</g>
<!-- Node6&#45;&gt;Node9 -->
<g id="edge11_Node000006_Node000009" class="edge"><title>Node6&#45;&gt;Node9</title>
<g id="a_edge11_Node000006_Node000009"><a xlink:title=" ">
<path fill="none" stroke="#63b8ff" d="M228.165,-54.7481C228.296,-47.8021 228.484,-37.8451 228.648,-29.1349"/>
<polygon fill="#63b8ff" stroke="#63b8ff" points="232.149,-29.1533 228.838,-19.089 225.15,-29.0212 232.149,-29.1533"/>
</a>
</g>
</g>
<!-- Node10 -->
<g id="Node000010" class="node"><title>Node10</title>
<g id="a_Node000010"><a xlink:title=" ">
<polygon fill="#e0e0e0" stroke="#999999" points="324,-19 272,-19 272,-0 324,-0 324,-19"/>
<text text-anchor="middle" x="298" y="-7" font-family="Helvetica,sans-Serif" font-size="10.00">assert.h</text>
</a>
</g>
</g>
<!-- Node6&#45;&gt;Node10 -->
<g id="edge12_Node000006_Node000010" class="edge"><title>Node6&#45;&gt;Node10</title>
<g id="a_edge12_Node000006_Node000010"><a xlink:title=" ">
<path fill="none" stroke="#63b8ff" d="M239.247,-54.9846C249.797,-46.9963 265.801,-34.8795 278.442,-25.308"/>
<polygon fill="#63b8ff" stroke="#63b8ff" points="280.689,-27.9971 286.549,-19.1703 276.463,-22.4163 280.689,-27.9971"/>
</a>
</g>
</g>
<!-- Node6&#45;&gt;Node11 -->
<g id="edge13_Node000006_Node000011" class="edge"><title>Node6&#45;&gt;Node11</title>
<g id="a_edge13_Node000006_Node000011"><a xlink:title=" ">
<path fill="none" stroke="#63b8ff" d="M250.493,-54.9846C273.522,-46.2665 309.54,-32.6314 335.631,-22.7539"/>
<polygon fill="#63b8ff" stroke="#63b8ff" points="336.984,-25.9842 345.097,-19.1703 334.506,-19.4376 336.984,-25.9842"/>
</a>
</g>
</g>
</g>
</svg>
