<?xml version="1.0" encoding="UTF-8" standalone="no"?>
<!DOCTYPE svg PUBLIC "-//W3C//DTD SVG 1.1//EN"
 "http://www.w3.org/Graphics/SVG/1.1/DTD/svg11.dtd">
<!-- Generated by graphviz version 2.38.0 (20140413.2041)
 -->
<!-- Title: TSet.h Pages: 1 -->
<svg width="402pt" height="192pt"
 viewBox="0.00 0.00 401.50 192.00" xmlns="http://www.w3.org/2000/svg" xmlns:xlink="http://www.w3.org/1999/xlink">
<g id="graph0" class="graph" transform="scale(1 1) rotate(0) translate(4 188)">
<title>TSet.h</title>
<!-- Node1 -->
<g id="Node000001" class="node"><title>Node1</title>
<g id="a_Node000001"><a xlink:title="Definice typu Set &#45; (realizace unordered množiny pomocí hašovací tabulky)">
<polygon fill="#999999" stroke="#666666" points="143.5,-184 98.5,-184 98.5,-165 143.5,-165 143.5,-184"/>
<text text-anchor="middle" x="121" y="-172" font-family="Helvetica,sans-Serif" font-size="10.00">TSet.h</text>
</a>
</g>
</g>
<!-- Node2 -->
<g id="Node000002" class="node"><title>Node2</title>
<g id="a_Node000002"><a xlink:title=" ">
<polygon fill="#e0e0e0" stroke="#999999" points="56,-19 3.55271e-015,-19 3.55271e-015,-0 56,-0 56,-19"/>
<text text-anchor="middle" x="28" y="-7" font-family="Helvetica,sans-Serif" font-size="10.00">stdbool.h</text>
</a>
</g>
</g>
<!-- Node1&#45;&gt;Node2 -->
<g id="edge1_Node000001_Node000002" class="edge"><title>Node1&#45;&gt;Node2</title>
<g id="a_edge1_Node000001_Node000002"><a xlink:title=" ">
<path fill="none" stroke="#63b8ff" d="M112.749,-164.96C97.4551,-148.654 64.6602,-111.371 47,-74 40.1552,-59.5157 35.136,-42.0054 31.9811,-29.0441"/>
<polygon fill="#63b8ff" stroke="#63b8ff" points="35.3292,-27.9842 29.6895,-19.0152 28.5051,-29.5436 35.3292,-27.9842"/>
</a>
</g>
</g>
<!-- Node3 -->
<g id="Node000003" class="node"><title>Node3</title>
<g id="a_Node000003"><a xlink:title=" ">
<polygon fill="#e0e0e0" stroke="#999999" points="107.5,-74 56.5,-74 56.5,-55 107.5,-55 107.5,-74"/>
<text text-anchor="middle" x="82" y="-62" font-family="Helvetica,sans-Serif" font-size="10.00">stddef.h</text>
</a>
</g>
</g>
<!-- Node1&#45;&gt;Node3 -->
<g id="edge2_Node000001_Node000003" class="edge"><title>Node1&#45;&gt;Node3</title>
<g id="a_edge2_Node000001_Node000003"><a xlink:title=" ">
<path fill="none" stroke="#63b8ff" d="M114.104,-164.848C107.623,-156.259 98.1691,-142.464 93,-129 87.4791,-114.62 84.715,-97.3418 83.3392,-84.4415"/>
<polygon fill="#63b8ff" stroke="#63b8ff" points="86.82,-84.0678 82.4533,-74.4147 79.8471,-84.684 86.82,-84.0678"/>
</a>
</g>
</g>
<!-- Node4 -->
<g id="Node000004" class="node"><title>Node4</title>
<g id="a_Node000004"><a xlink:href="_t_set_hash_table_open_addr_8h.html" target="_top" xlink:title="Implementace typu SetHashTable &#45; (hašovací tabulka využívající otevřené adresování)">
<polygon fill="white" stroke="#666666" points="236,-129 102,-129 102,-110 236,-110 236,-129"/>
<text text-anchor="middle" x="169" y="-117" font-family="Helvetica,sans-Serif" font-size="10.00">TSetHashTableOpenAddr.h</text>
</a>
</g>
</g>
<!-- Node1&#45;&gt;Node4 -->
<g id="edge3_Node000001_Node000004" class="edge"><title>Node1&#45;&gt;Node4</title>
<g id="a_edge3_Node000001_Node000004"><a xlink:title=" ">
<path fill="none" stroke="#63b8ff" d="M128.926,-164.748C135.846,-157.107 146.065,-145.824 154.452,-136.563"/>
<polygon fill="#63b8ff" stroke="#63b8ff" points="157.103,-138.851 161.221,-129.089 151.914,-134.152 157.103,-138.851"/>
</a>
</g>
</g>
<!-- Node10 -->
<g id="Node000010" class="node"><title>Node10</title>
<g id="a_Node000010"><a xlink:title=" ">
<polygon fill="#e0e0e0" stroke="#999999" points="393.5,-19 342.5,-19 342.5,-0 393.5,-0 393.5,-19"/>
<text text-anchor="middle" x="368" y="-7" font-family="Helvetica,sans-Serif" font-size="10.00">check.h</text>
</a>
</g>
</g>
<!-- Node1&#45;&gt;Node10 -->
<g id="edge13_Node000001_Node000010" class="edge"><title>Node1&#45;&gt;Node10</title>
<g id="a_edge13_Node000001_Node000010"><a xlink:title=" ">
<path fill="none" stroke="#63b8ff" d="M143.775,-168.41C169.669,-161.947 212.55,-149.149 245,-129 290.97,-100.456 333.902,-52.3934 354.768,-27.1426"/>
<polygon fill="#63b8ff" stroke="#63b8ff" points="357.607,-29.1996 361.198,-19.2319 352.175,-24.7847 357.607,-29.1996"/>
</a>
</g>
</g>
<!-- Node4&#45;&gt;Node2 -->
<g id="edge4_Node000004_Node000002" class="edge"><title>Node4&#45;&gt;Node2</title>
<g id="a_edge4_Node000004_Node000002"><a xlink:title=" ">
<path fill="none" stroke="#63b8ff" d="M163.403,-109.727C154.614,-96.498 136.457,-71.2647 116,-55 99.1529,-41.6052 77.6298,-30.6345 60.0864,-22.9374"/>
<polygon fill="#63b8ff" stroke="#63b8ff" points="61.3775,-19.6832 50.8045,-19.0034 58.6458,-26.1283 61.3775,-19.6832"/>
</a>
</g>
</g>
<!-- Node4&#45;&gt;Node3 -->
<g id="edge5_Node000004_Node000003" class="edge"><title>Node4&#45;&gt;Node3</title>
<g id="a_edge5_Node000004_Node000003"><a xlink:title=" ">
<path fill="none" stroke="#63b8ff" d="M155.022,-109.985C141.531,-101.766 120.866,-89.177 104.959,-79.4863"/>
<polygon fill="#63b8ff" stroke="#63b8ff" points="106.593,-76.3839 96.2324,-74.1703 102.952,-82.362 106.593,-76.3839"/>
</a>
</g>
</g>
<!-- Node5 -->
<g id="Node000005" class="node"><title>Node5</title>
<g id="a_Node000005"><a xlink:href="_t_set_element_hashable_8h.html" target="_top" xlink:title="Definice typu Hashable Basic SetElement a implementace API.">
<polygon fill="white" stroke="#666666" points="286,-74 164,-74 164,-55 286,-55 286,-74"/>
<text text-anchor="middle" x="225" y="-62" font-family="Helvetica,sans-Serif" font-size="10.00">TSetElementHashable.h</text>
</a>
</g>
</g>
<!-- Node4&#45;&gt;Node5 -->
<g id="edge6_Node000004_Node000005" class="edge"><title>Node4&#45;&gt;Node5</title>
<g id="a_edge6_Node000004_Node000005"><a xlink:title=" ">
<path fill="none" stroke="#63b8ff" d="M177.997,-109.985C186.194,-102.227 198.506,-90.5751 208.472,-81.1425"/>
<polygon fill="#63b8ff" stroke="#63b8ff" points="210.982,-83.5862 215.839,-74.1703 206.17,-78.5021 210.982,-83.5862"/>
</a>
</g>
</g>
<!-- Node5&#45;&gt;Node2 -->
<g id="edge9_Node000005_Node000002" class="edge"><title>Node5&#45;&gt;Node2</title>
<g id="a_edge9_Node000005_Node000002"><a xlink:title=" ">
<path fill="none" stroke="#63b8ff" d="M193.349,-54.9846C158.652,-45.65 103.002,-30.6783 65.979,-20.7177"/>
<polygon fill="#63b8ff" stroke="#63b8ff" points="66.6294,-17.2683 56.0634,-18.0501 64.8107,-24.0279 66.6294,-17.2683"/>
</a>
</g>
</g>
<!-- Node6 -->
<g id="Node000006" class="node"><title>Node6</title>
<g id="a_Node000006"><a xlink:title=" ">
<polygon fill="#e0e0e0" stroke="#999999" points="120,-19 74,-19 74,-0 120,-0 120,-19"/>
<text text-anchor="middle" x="97" y="-7" font-family="Helvetica,sans-Serif" font-size="10.00">stdio.h</text>
</a>
</g>
</g>
<!-- Node5&#45;&gt;Node6 -->
<g id="edge7_Node000005_Node000006" class="edge"><title>Node5&#45;&gt;Node6</title>
<g id="a_edge7_Node000005_Node000006"><a xlink:title=" ">
<path fill="none" stroke="#63b8ff" d="M204.435,-54.9846C183.565,-46.3434 151.029,-32.8713 127.227,-23.0158"/>
<polygon fill="#63b8ff" stroke="#63b8ff" points="128.518,-19.7623 117.94,-19.1703 125.84,-26.2298 128.518,-19.7623"/>
</a>
</g>
</g>
<!-- Node7 -->
<g id="Node000007" class="node"><title>Node7</title>
<g id="a_Node000007"><a xlink:title=" ">
<polygon fill="#e0e0e0" stroke="#999999" points="186,-19 138,-19 138,-0 186,-0 186,-19"/>
<text text-anchor="middle" x="162" y="-7" font-family="Helvetica,sans-Serif" font-size="10.00">stdlib.h</text>
</a>
</g>
</g>
<!-- Node5&#45;&gt;Node7 -->
<g id="edge8_Node000005_Node000007" class="edge"><title>Node5&#45;&gt;Node7</title>
<g id="a_edge8_Node000005_Node000007"><a xlink:title=" ">
<path fill="none" stroke="#63b8ff" d="M214.878,-54.9846C205.565,-47.1499 191.532,-35.344 180.262,-25.863"/>
<polygon fill="#63b8ff" stroke="#63b8ff" points="182.212,-22.9297 172.306,-19.1703 177.705,-28.2863 182.212,-22.9297"/>
</a>
</g>
</g>
<!-- Node8 -->
<g id="Node000008" class="node"><title>Node8</title>
<g id="a_Node000008"><a xlink:title=" ">
<polygon fill="#e0e0e0" stroke="#999999" points="253.5,-19 204.5,-19 204.5,-0 253.5,-0 253.5,-19"/>
<text text-anchor="middle" x="229" y="-7" font-family="Helvetica,sans-Serif" font-size="10.00">stdint.h</text>
</a>
</g>
</g>
<!-- Node5&#45;&gt;Node8 -->
<g id="edge10_Node000005_Node000008" class="edge"><title>Node5&#45;&gt;Node8</title>
<g id="a_edge10_Node000005_Node000008"><a xlink:title=" ">
<path fill="none" stroke="#63b8ff" d="M225.661,-54.7481C226.185,-47.8021 226.936,-37.8451 227.594,-29.1349"/>
<polygon fill="#63b8ff" stroke="#63b8ff" points="231.089,-29.3241 228.352,-19.089 224.109,-28.7972 231.089,-29.3241"/>
</a>
</g>
</g>
<!-- Node9 -->
<g id="Node000009" class="node"><title>Node9</title>
<g id="a_Node000009"><a xlink:title=" ">
<polygon fill="#e0e0e0" stroke="#999999" points="324,-19 272,-19 272,-0 324,-0 324,-19"/>
<text text-anchor="middle" x="298" y="-7" font-family="Helvetica,sans-Serif" font-size="10.00">assert.h</text>
</a>
</g>
</g>
<!-- Node5&#45;&gt;Node9 -->
<g id="edge11_Node000005_Node000009" class="edge"><title>Node5&#45;&gt;Node9</title>
<g id="a_edge11_Node000005_Node000009"><a xlink:title=" ">
<path fill="none" stroke="#63b8ff" d="M236.729,-54.9846C247.732,-46.9963 264.421,-34.8795 277.604,-25.308"/>
<polygon fill="#63b8ff" stroke="#63b8ff" points="280.022,-27.8777 286.058,-19.1703 275.909,-22.2132 280.022,-27.8777"/>
</a>
</g>
</g>
<!-- Node5&#45;&gt;Node10 -->
<g id="edge12_Node000005_Node000010" class="edge"><title>Node5&#45;&gt;Node10</title>
<g id="a_edge12_Node000005_Node000010"><a xlink:title=" ">
<path fill="none" stroke="#63b8ff" d="M247.975,-54.9846C271.498,-46.2665 308.287,-32.6314 334.938,-22.7539"/>
<polygon fill="#63b8ff" stroke="#63b8ff" points="336.446,-25.9275 344.607,-19.1703 334.013,-19.3638 336.446,-25.9275"/>
</a>
</g>
</g>
</g>
</svg>
