<?xml version="1.0" encoding="UTF-8" standalone="no"?>
<!DOCTYPE svg PUBLIC "-//W3C//DTD SVG 1.1//EN"
 "http://www.w3.org/Graphics/SVG/1.1/DTD/svg11.dtd">
<!-- Generated by graphviz version 2.38.0 (20140413.2041)
 -->
<!-- Title: calc_erased_bucket_marker Pages: 1 -->
<svg width="1082pt" height="478pt"
 viewBox="0.00 0.00 1082.00 478.00" xmlns="http://www.w3.org/2000/svg" xmlns:xlink="http://www.w3.org/1999/xlink">
<g id="graph0" class="graph" transform="scale(1 1) rotate(0) translate(4 474)">
<title>calc_erased_bucket_marker</title>
<!-- Node1 -->
<g id="Node000001" class="node"><title>Node1</title>
<g id="a_Node000001"><a xlink:title="Funkce vracející hodnotu reprezentující smazanou přihrádku.">
<polygon fill="#999999" stroke="#666666" points="1074,-209.5 970,-209.5 970,-179.5 1074,-179.5 1074,-209.5"/>
<text text-anchor="start" x="978" y="-197.5" font-family="Helvetica,sans-Serif" font-size="10.00">calc_erased_bucket</text>
<text text-anchor="middle" x="1022" y="-186.5" font-family="Helvetica,sans-Serif" font-size="10.00">_marker</text>
</a>
</g>
</g>
<!-- Node2 -->
<g id="Node000002" class="node"><title>Node2</title>
<g id="a_Node000002"><a xlink:href="group___t_set_hash_table.html#ga6ae8410d0c50fb9f3104838bafdbc906" target="_top" xlink:title="Výpočet první platné pozice v hašovací tabulce.">
<polygon fill="white" stroke="#666666" points="758,-451 626,-451 626,-432 758,-432 758,-451"/>
<text text-anchor="middle" x="692" y="-439" font-family="Helvetica,sans-Serif" font-size="10.00">set_hash_table_begin_pos</text>
</a>
</g>
</g>
<!-- Node1&#45;&gt;Node2 -->
<g id="edge1_Node000001_Node000002" class="edge"><title>Node1&#45;&gt;Node2</title>
<g id="a_edge1_Node000001_Node000002"><a xlink:title=" ">
<path fill="none" stroke="#63b8ff" d="M1016.61,-219.519C1008.14,-260.101 985.614,-340.01 934,-382.5 884.447,-423.292 810.936,-436.587 758.142,-440.574"/>
<polygon fill="#63b8ff" stroke="#63b8ff" points="1020.06,-220.123 1018.56,-209.636 1013.19,-218.772 1020.06,-220.123"/>
</a>
</g>
</g>
<!-- Node8 -->
<g id="Node000008" class="node"><title>Node8</title>
<g id="a_Node000008"><a xlink:href="group___t_set_hash_table.html#ga1562a195e21d46896e078ba7e555042b" target="_top" xlink:title="Deinicializace hašovací tabulky.">
<polygon fill="white" stroke="#666666" points="590,-19 470,-19 470,-0 590,-0 590,-19"/>
<text text-anchor="middle" x="530" y="-7" font-family="Helvetica,sans-Serif" font-size="10.00">set_hash_table_destroy</text>
</a>
</g>
</g>
<!-- Node1&#45;&gt;Node8 -->
<g id="edge8_Node000001_Node000008" class="edge"><title>Node1&#45;&gt;Node8</title>
<g id="a_edge8_Node000001_Node000008"><a xlink:title=" ">
<path fill="none" stroke="#63b8ff" d="M1008.13,-170.648C993.525,-146.007 967.345,-108.423 934,-88.5 825.055,-23.4095 672.778,-10.6422 590.097,-8.90474"/>
<polygon fill="#63b8ff" stroke="#63b8ff" points="1005.14,-172.464 1013.15,-179.394 1011.21,-168.979 1005.14,-172.464"/>
</a>
</g>
</g>
<!-- Node11 -->
<g id="Node000011" class="node"><title>Node11</title>
<g id="a_Node000011"><a xlink:href="group___t_set_hash_table.html#gaee3600d3134fc51a78e4142bbdc0ba2b" target="_top" xlink:title="Odstranění elementu z hašovací tabulky.">
<polygon fill="white" stroke="#666666" points="586,-56 474,-56 474,-37 586,-37 586,-56"/>
<text text-anchor="middle" x="530" y="-44" font-family="Helvetica,sans-Serif" font-size="10.00">set_hash_table_erase</text>
</a>
</g>
</g>
<!-- Node1&#45;&gt;Node11 -->
<g id="edge14_Node000001_Node000011" class="edge"><title>Node1&#45;&gt;Node11</title>
<g id="a_edge14_Node000001_Node000011"><a xlink:title=" ">
<path fill="none" stroke="#63b8ff" d="M994.336,-173.408C977.807,-161.284 955.66,-146.684 934,-137.5 815.631,-87.309 665.445,-62.7901 586.031,-52.5997"/>
<polygon fill="#63b8ff" stroke="#63b8ff" points="992.334,-176.282 1002.43,-179.481 996.534,-170.682 992.334,-176.282"/>
</a>
</g>
</g>
<!-- Node12 -->
<g id="Node000012" class="node"><title>Node12</title>
<g id="a_Node000012"><a xlink:href="group___t_set_hash_table.html#ga891b531cc6373331e55101f2dd75ac4a" target="_top" xlink:title="Zjištění platnosti pozice v hašovací tabulce.">
<polygon fill="white" stroke="#666666" points="934,-318 794,-318 794,-299 934,-299 934,-318"/>
<text text-anchor="middle" x="864" y="-306" font-family="Helvetica,sans-Serif" font-size="10.00">set_hash_table_is_valid_pos</text>
</a>
</g>
</g>
<!-- Node1&#45;&gt;Node12 -->
<g id="edge16_Node000001_Node000012" class="edge"><title>Node1&#45;&gt;Node12</title>
<g id="a_edge16_Node000001_Node000012"><a xlink:title=" ">
<path fill="none" stroke="#63b8ff" d="M992.115,-215.608C958.078,-240.481 903.004,-280.728 878.042,-298.97"/>
<polygon fill="#63b8ff" stroke="#63b8ff" points="994.276,-218.364 1000.28,-209.638 990.145,-212.713 994.276,-218.364"/>
</a>
</g>
</g>
<!-- Node21 -->
<g id="Node000021" class="node"><title>Node21</title>
<g id="a_Node000021"><a xlink:href="group___t_set_hash_table.html#ga9218e24d2cc5a61596c4a45ef76f4c75" target="_top" xlink:title="Výpočet následující pozice platné přihrádky v hašovací tabulce.">
<polygon fill="white" stroke="#666666" points="928,-374 800,-374 800,-355 928,-355 928,-374"/>
<text text-anchor="middle" x="864" y="-362" font-family="Helvetica,sans-Serif" font-size="10.00">set_hash_table_next_pos</text>
</a>
</g>
</g>
<!-- Node1&#45;&gt;Node21 -->
<g id="edge37_Node000001_Node000021" class="edge"><title>Node1&#45;&gt;Node21</title>
<g id="a_edge37_Node000001_Node000021"><a xlink:title=" ">
<path fill="none" stroke="#63b8ff" d="M1009.51,-218.935C995.096,-247.545 968.087,-295.015 934,-326.5 920.84,-338.656 903.08,-348.321 888.874,-354.862"/>
<polygon fill="#63b8ff" stroke="#63b8ff" points="1012.8,-220.177 1014.07,-209.659 1006.52,-217.087 1012.8,-220.177"/>
</a>
</g>
</g>
<!-- Node22 -->
<g id="Node000022" class="node"><title>Node22</title>
<g id="a_Node000022"><a xlink:href="group___t_set_hash_table.html#ga69c2697abdd49b443ea76077058df6b0" target="_top" xlink:title="Vyhledání elementu o zadané hodnotě v hašovací tabulce využívající otevřené adresování">
<polygon fill="white" stroke="#666666" points="750.5,-130 633.5,-130 633.5,-111 750.5,-111 750.5,-130"/>
<text text-anchor="middle" x="692" y="-118" font-family="Helvetica,sans-Serif" font-size="10.00">set_hash_table_search</text>
</a>
</g>
</g>
<!-- Node1&#45;&gt;Node22 -->
<g id="edge39_Node000001_Node000022" class="edge"><title>Node1&#45;&gt;Node22</title>
<g id="a_edge39_Node000001_Node000022"><a xlink:title=" ">
<path fill="none" stroke="#63b8ff" d="M959.917,-177.115C951.24,-174.801 942.41,-172.53 934,-170.5 868.785,-154.757 792.917,-139.518 743.991,-130.086"/>
<polygon fill="#63b8ff" stroke="#63b8ff" points="959.052,-180.506 969.619,-179.734 960.877,-173.748 959.052,-180.506"/>
</a>
</g>
</g>
<!-- Node27 -->
<g id="Node000027" class="node"><title>Node27</title>
<g id="a_Node000027"><a xlink:href="group___t_set_hash_table.html#gaf6b548ed4295b1a4789d073b8a43db58" target="_top" xlink:title="Přečtení hodnoty elementu z platné přihrádky v hašovací tabulce.">
<polygon fill="white" stroke="#666666" points="919,-209.5 809,-209.5 809,-179.5 919,-179.5 919,-209.5"/>
<text text-anchor="start" x="817" y="-197.5" font-family="Helvetica,sans-Serif" font-size="10.00">set_hash_table_value</text>
<text text-anchor="middle" x="864" y="-186.5" font-family="Helvetica,sans-Serif" font-size="10.00">_at_pos</text>
</a>
</g>
</g>
<!-- Node1&#45;&gt;Node27 -->
<g id="edge47_Node000001_Node000027" class="edge"><title>Node1&#45;&gt;Node27</title>
<g id="a_edge47_Node000001_Node000027"><a xlink:title=" ">
<path fill="none" stroke="#63b8ff" d="M959.818,-194.5C946.394,-194.5 932.272,-194.5 919.147,-194.5"/>
<polygon fill="#63b8ff" stroke="#63b8ff" points="959.92,-198 969.92,-194.5 959.92,-191 959.92,-198"/>
</a>
</g>
</g>
<!-- Node3 -->
<g id="Node000003" class="node"><title>Node3</title>
<g id="a_Node000003"><a xlink:href="group___t_set_iterator.html#gab11bafbe7585e4bb0bd9ff2353d77765" target="_top" xlink:title="Vytvoření nového iterátoru ukazujícího na první element množiny.">
<polygon fill="white" stroke="#666666" points="424.5,-470 330.5,-470 330.5,-451 424.5,-451 424.5,-470"/>
<text text-anchor="middle" x="377.5" y="-458" font-family="Helvetica,sans-Serif" font-size="10.00">set_iterator_begin</text>
</a>
</g>
</g>
<!-- Node2&#45;&gt;Node3 -->
<g id="edge2_Node000002_Node000003" class="edge"><title>Node2&#45;&gt;Node3</title>
<g id="a_edge2_Node000002_Node000003"><a xlink:title=" ">
<path fill="none" stroke="#63b8ff" d="M615.772,-446.074C556.273,-449.691 475.105,-454.626 424.789,-457.686"/>
<polygon fill="#63b8ff" stroke="#63b8ff" points="616.101,-449.56 625.87,-445.46 615.676,-442.573 616.101,-449.56"/>
</a>
</g>
</g>
<!-- Node4 -->
<g id="Node000004" class="node"><title>Node4</title>
<g id="a_Node000004"><a xlink:href="testbench_8c.html#a068734a4e1d6209769e0c6b1675ca02b" target="_top" xlink:title="Provedení jednoho test z testovacího plánu na předaném ADT.">
<polygon fill="white" stroke="#666666" points="262.5,-339 210.5,-339 210.5,-320 262.5,-320 262.5,-339"/>
<text text-anchor="middle" x="236.5" y="-327" font-family="Helvetica,sans-Serif" font-size="10.00">test_run</text>
</a>
</g>
</g>
<!-- Node3&#45;&gt;Node4 -->
<g id="edge3_Node000003_Node000004" class="edge"><title>Node3&#45;&gt;Node4</title>
<g id="a_edge3_Node000003_Node000004"><a xlink:title=" ">
<path fill="none" stroke="#63b8ff" d="M329.433,-446.726C326.476,-445.157 323.633,-443.42 321,-441.5 281.805,-412.922 252.888,-360.638 242.112,-339.131"/>
<polygon fill="#63b8ff" stroke="#63b8ff" points="328.014,-449.926 338.56,-450.949 330.953,-443.573 328.014,-449.926"/>
</a>
</g>
</g>
<!-- Node7 -->
<g id="Node000007" class="node"><title>Node7</title>
<g id="a_Node000007"><a xlink:href="group___main_program.html#ga2762b0417283abc168151cbffee8216c" target="_top" xlink:title=" ">
<polygon fill="white" stroke="#666666" points="285,-189 188,-189 188,-170 285,-170 285,-189"/>
<text text-anchor="middle" x="236.5" y="-177" font-family="Helvetica,sans-Serif" font-size="10.00">testset_hardcoded</text>
</a>
</g>
</g>
<!-- Node3&#45;&gt;Node7 -->
<g id="edge6_Node000003_Node000007" class="edge"><title>Node3&#45;&gt;Node7</title>
<g id="a_edge6_Node000003_Node000007"><a xlink:title=" ">
<path fill="none" stroke="#63b8ff" d="M325.4,-445.519C323.835,-444.284 322.36,-442.947 321,-441.5 279.641,-397.509 303.306,-368.039 285,-310.5 270.405,-264.624 249.798,-210.912 241.345,-189.268"/>
<polygon fill="#63b8ff" stroke="#63b8ff" points="323.532,-448.478 333.85,-450.884 327.284,-442.569 323.532,-448.478"/>
</a>
</g>
</g>
<!-- Node5 -->
<g id="Node000005" class="node"><title>Node5</title>
<g id="a_Node000005"><a xlink:href="testbench_8c.html#a2fa1559684d267665b1c2433208511d3" target="_top" xlink:title="Provedení všech testů zadaného testovacího plánu na předaném ADT.">
<polygon fill="white" stroke="#666666" points="152,-292 74,-292 74,-273 152,-273 152,-292"/>
<text text-anchor="middle" x="113" y="-280" font-family="Helvetica,sans-Serif" font-size="10.00">testbench_run</text>
</a>
</g>
</g>
<!-- Node4&#45;&gt;Node5 -->
<g id="edge4_Node000004_Node000005" class="edge"><title>Node4&#45;&gt;Node5</title>
<g id="a_edge4_Node000004_Node000005"><a xlink:title=" ">
<path fill="none" stroke="#63b8ff" d="M201.322,-316.279C181.499,-308.611 156.975,-299.124 138.968,-292.158"/>
<polygon fill="#63b8ff" stroke="#63b8ff" points="200.323,-319.645 210.913,-319.989 202.849,-313.117 200.323,-319.645"/>
</a>
</g>
</g>
<!-- Node6 -->
<g id="Node000006" class="node"><title>Node6</title>
<g id="a_Node000006"><a xlink:href="group___main_program.html#ga0ddf1224851353fc92bfbff6f499fa97" target="_top" xlink:title=" ">
<polygon fill="white" stroke="#666666" points="38,-189 0,-189 0,-170 38,-170 38,-189"/>
<text text-anchor="middle" x="19" y="-177" font-family="Helvetica,sans-Serif" font-size="10.00">main</text>
</a>
</g>
</g>
<!-- Node5&#45;&gt;Node6 -->
<g id="edge5_Node000005_Node000006" class="edge"><title>Node5&#45;&gt;Node6</title>
<g id="a_edge5_Node000005_Node000006"><a xlink:title=" ">
<path fill="none" stroke="#63b8ff" d="M96.7915,-265.473C77.3633,-243.722 44.3851,-206.801 28.7381,-189.283"/>
<polygon fill="#63b8ff" stroke="#63b8ff" points="94.2378,-267.868 103.51,-272.995 99.4585,-263.205 94.2378,-267.868"/>
</a>
</g>
</g>
<!-- Node7&#45;&gt;Node6 -->
<g id="edge7_Node000007_Node000006" class="edge"><title>Node7&#45;&gt;Node6</title>
<g id="a_edge7_Node000007_Node000006"><a xlink:title=" ">
<path fill="none" stroke="#63b8ff" d="M177.663,-179.5C131.065,-179.5 68.4795,-179.5 38.0818,-179.5"/>
<polygon fill="#63b8ff" stroke="#63b8ff" points="177.941,-183 187.941,-179.5 177.941,-176 177.941,-183"/>
</a>
</g>
</g>
<!-- Node9 -->
<g id="Node000009" class="node"><title>Node9</title>
<g id="a_Node000009"><a xlink:href="group___t_set.html#ga8094d1ab68434b8413cd905895ff37ae" target="_top" xlink:title="Deinicializace množiny.">
<polygon fill="white" stroke="#666666" points="411.5,-19 343.5,-19 343.5,-0 411.5,-0 411.5,-19"/>
<text text-anchor="middle" x="377.5" y="-7" font-family="Helvetica,sans-Serif" font-size="10.00">set_destroy</text>
</a>
</g>
</g>
<!-- Node8&#45;&gt;Node9 -->
<g id="edge9_Node000008_Node000009" class="edge"><title>Node8&#45;&gt;Node9</title>
<g id="a_edge9_Node000008_Node000009"><a xlink:title=" ">
<path fill="none" stroke="#63b8ff" d="M459.65,-9.5C442.98,-9.5 425.921,-9.5 411.772,-9.5"/>
<polygon fill="#63b8ff" stroke="#63b8ff" points="459.95,-13.0001 469.95,-9.5 459.95,-6.0001 459.95,-13.0001"/>
</a>
</g>
</g>
<!-- Node10 -->
<g id="Node000010" class="node"><title>Node10</title>
<g id="a_Node000010"><a xlink:href="group___t_set.html#ga2a711b02282ff309c0d6a4fdcfbac738" target="_top" xlink:title="Odstranění elementu z množiny.">
<polygon fill="white" stroke="#666666" points="407,-56 348,-56 348,-37 407,-37 407,-56"/>
<text text-anchor="middle" x="377.5" y="-44" font-family="Helvetica,sans-Serif" font-size="10.00">set_erase</text>
</a>
</g>
</g>
<!-- Node8&#45;&gt;Node10 -->
<g id="edge12_Node000008_Node000010" class="edge"><title>Node8&#45;&gt;Node10</title>
<g id="a_edge12_Node000008_Node000010"><a xlink:title=" ">
<path fill="none" stroke="#63b8ff" d="M480.509,-21.4213C456.299,-27.3733 427.841,-34.3697 407.143,-39.4583"/>
<polygon fill="#63b8ff" stroke="#63b8ff" points="481.367,-24.8147 490.243,-19.0284 479.696,-18.0171 481.367,-24.8147"/>
</a>
</g>
</g>
<!-- Node9&#45;&gt;Node6 -->
<g id="edge10_Node000009_Node000006" class="edge"><title>Node9&#45;&gt;Node6</title>
<g id="a_edge10_Node000009_Node000006"><a xlink:title=" ">
<path fill="none" stroke="#63b8ff" d="M334.7,-22.2878C330.04,-23.9404 325.393,-25.6908 321,-27.5 208.947,-73.6418 81.3036,-144.545 36.5455,-169.997"/>
<polygon fill="#63b8ff" stroke="#63b8ff" points="335.871,-25.5865 344.206,-19.0457 333.611,-18.9612 335.871,-25.5865"/>
</a>
</g>
</g>
<!-- Node9&#45;&gt;Node7 -->
<g id="edge11_Node000009_Node000007" class="edge"><title>Node9&#45;&gt;Node7</title>
<g id="a_edge11_Node000009_Node000007"><a xlink:title=" ">
<path fill="none" stroke="#63b8ff" d="M334.146,-19.216C329.4,-21.4355 324.884,-24.159 321,-27.5 293.877,-50.8311 302.144,-68.098 285,-99.5 270.913,-125.303 252.848,-154.852 243.581,-169.779"/>
<polygon fill="#63b8ff" stroke="#63b8ff" points="335.437,-22.469 343.451,-15.539 332.865,-15.9588 335.437,-22.469"/>
</a>
</g>
</g>
<!-- Node10&#45;&gt;Node7 -->
<g id="edge13_Node000010_Node000007" class="edge"><title>Node10&#45;&gt;Node7</title>
<g id="a_edge13_Node000010_Node000007"><a xlink:title=" ">
<path fill="none" stroke="#63b8ff" d="M338.32,-59.9175C332.223,-62.9118 326.214,-66.4314 321,-70.5 283.789,-99.5364 254.189,-148.862 242.686,-169.722"/>
<polygon fill="#63b8ff" stroke="#63b8ff" points="340.175,-62.9219 347.871,-55.6409 337.314,-56.533 340.175,-62.9219"/>
</a>
</g>
</g>
<!-- Node11&#45;&gt;Node10 -->
<g id="edge15_Node000011_Node000010" class="edge"><title>Node11&#45;&gt;Node10</title>
<g id="a_edge15_Node000011_Node000010"><a xlink:title=" ">
<path fill="none" stroke="#63b8ff" d="M463.584,-46.5C443.804,-46.5 423.101,-46.5 407.071,-46.5"/>
<polygon fill="#63b8ff" stroke="#63b8ff" points="463.814,-50.0001 473.814,-46.5 463.814,-43.0001 463.814,-50.0001"/>
</a>
</g>
</g>
<!-- Node13 -->
<g id="Node000013" class="node"><title>Node13</title>
<g id="a_Node000013"><a xlink:href="group___t_set_iterator.html#ga089f24c81ac3da7d1ac7ca24cc078dd8" target="_top" xlink:title="Zjištění platnosti iterátoru.">
<polygon fill="white" stroke="#666666" points="743,-318 641,-318 641,-299 743,-299 743,-318"/>
<text text-anchor="middle" x="692" y="-306" font-family="Helvetica,sans-Serif" font-size="10.00">set_iterator_is_valid</text>
</a>
</g>
</g>
<!-- Node12&#45;&gt;Node13 -->
<g id="edge17_Node000012_Node000013" class="edge"><title>Node12&#45;&gt;Node13</title>
<g id="a_edge17_Node000012_Node000013"><a xlink:title=" ">
<path fill="none" stroke="#63b8ff" d="M783.811,-308.5C769.938,-308.5 755.858,-308.5 743.057,-308.5"/>
<polygon fill="#63b8ff" stroke="#63b8ff" points="783.855,-312 793.854,-308.5 783.854,-305 783.855,-312"/>
</a>
</g>
</g>
<!-- Node18 -->
<g id="Node000018" class="node"><title>Node18</title>
<g id="a_Node000018"><a xlink:href="group___t_set_iterator.html#ga6723a05c864198597ff49718020bd0d6" target="_top" xlink:title="Posunutí iterátoru vpřed.">
<polygon fill="white" stroke="#666666" points="581.5,-394 478.5,-394 478.5,-375 581.5,-375 581.5,-394"/>
<text text-anchor="middle" x="530" y="-382" font-family="Helvetica,sans-Serif" font-size="10.00">set_iterator_to_next</text>
</a>
</g>
</g>
<!-- Node12&#45;&gt;Node18 -->
<g id="edge36_Node000012_Node000018" class="edge"><title>Node12&#45;&gt;Node18</title>
<g id="a_edge36_Node000012_Node000018"><a xlink:title=" ">
<path fill="none" stroke="#63b8ff" d="M811.136,-320.373C745.299,-335.444 633.031,-361.143 572.541,-374.991"/>
<polygon fill="#63b8ff" stroke="#63b8ff" points="812.321,-323.692 821.288,-318.048 810.759,-316.868 812.321,-323.692"/>
</a>
</g>
</g>
<!-- Node13&#45;&gt;Node7 -->
<g id="edge35_Node000013_Node000007" class="edge"><title>Node13&#45;&gt;Node7</title>
<g id="a_edge35_Node000013_Node000007"><a xlink:title=" ">
<path fill="none" stroke="#63b8ff" d="M658.308,-295.146C609.965,-275.808 516.252,-239.881 434,-217.5 383.876,-203.861 325.282,-193.193 285.204,-186.677"/>
<polygon fill="#63b8ff" stroke="#63b8ff" points="657.051,-298.413 667.635,-298.896 659.663,-291.918 657.051,-298.413"/>
</a>
</g>
</g>
<!-- Node14 -->
<g id="Node000014" class="node"><title>Node14</title>
<g id="a_Node000014"><a xlink:href="group___iterator_algorithms.html#ga1785c6060679dcab5e6781b66659dbf3" target="_top" xlink:title="Vyhledání prvního elementu množiny splňujícího zadaný predikát.">
<polygon fill="white" stroke="#666666" points="407.5,-283 347.5,-283 347.5,-264 407.5,-264 407.5,-283"/>
<text text-anchor="middle" x="377.5" y="-271" font-family="Helvetica,sans-Serif" font-size="10.00">set_find_if</text>
</a>
</g>
</g>
<!-- Node13&#45;&gt;Node14 -->
<g id="edge18_Node000013_Node000014" class="edge"><title>Node13&#45;&gt;Node14</title>
<g id="a_edge18_Node000013_Node000014"><a xlink:title=" ">
<path fill="none" stroke="#63b8ff" d="M630.809,-301.759C563.937,-294.269 458.708,-282.483 407.895,-276.792"/>
<polygon fill="#63b8ff" stroke="#63b8ff" points="630.464,-305.242 640.791,-302.877 631.243,-298.285 630.464,-305.242"/>
</a>
</g>
</g>
<!-- Node15 -->
<g id="Node000015" class="node"><title>Node15</title>
<g id="a_Node000015"><a xlink:href="group___iterator_algorithms.html#ga8ca52ed8ac7c0be83a19c7ed10f813cd" target="_top" xlink:title="Vyhledání prvního elementu množiny nesplňujícího zadaný predikát.">
<polygon fill="white" stroke="#666666" points="417,-357 338,-357 338,-338 417,-338 417,-357"/>
<text text-anchor="middle" x="377.5" y="-345" font-family="Helvetica,sans-Serif" font-size="10.00">set_find_if_not</text>
</a>
</g>
</g>
<!-- Node13&#45;&gt;Node15 -->
<g id="edge19_Node000013_Node000015" class="edge"><title>Node13&#45;&gt;Node15</title>
<g id="a_edge19_Node000013_Node000015"><a xlink:title=" ">
<path fill="none" stroke="#63b8ff" d="M630.883,-318.517C617.446,-320.618 603.252,-322.731 590,-324.5 529.776,-332.54 459.619,-339.744 417.162,-343.867"/>
<polygon fill="#63b8ff" stroke="#63b8ff" points="631.652,-321.939 640.982,-316.918 630.558,-315.025 631.652,-321.939"/>
</a>
</g>
</g>
<!-- Node16 -->
<g id="Node000016" class="node"><title>Node16</title>
<g id="a_Node000016"><a xlink:href="group___iterator_algorithms.html#gab8ba369b42eda61d010f35df73be73db" target="_top" xlink:title="Zavolání zvolené funkce na každý element množiny od pozice určené iterátorem až do posledního element...">
<polygon fill="white" stroke="#666666" points="413.5,-433 341.5,-433 341.5,-414 413.5,-414 413.5,-433"/>
<text text-anchor="middle" x="377.5" y="-421" font-family="Helvetica,sans-Serif" font-size="10.00">set_for_each</text>
</a>
</g>
</g>
<!-- Node13&#45;&gt;Node16 -->
<g id="edge20_Node000013_Node000016" class="edge"><title>Node13&#45;&gt;Node16</title>
<g id="a_edge20_Node000013_Node000016"><a xlink:title=" ">
<path fill="none" stroke="#63b8ff" d="M677.987,-326.301C660.669,-348.449 627.798,-385.428 590,-402.5 532.328,-428.549 457.007,-429.121 413.567,-426.661"/>
<polygon fill="#63b8ff" stroke="#63b8ff" points="680.969,-328.162 684.232,-318.082 675.395,-323.927 680.969,-328.162"/>
</a>
</g>
</g>
<!-- Node17 -->
<g id="Node000017" class="node"><title>Node17</title>
<g id="a_Node000017"><a xlink:href="group___iterator_algorithms.html#gadbab6630263afa4c69e0c78118fa56df" target="_top" xlink:title="Zavolání zvolené funkce na prvních N elementů množiny od pozice určené iterátorem.">
<polygon fill="white" stroke="#666666" points="405.5,-320 349.5,-320 349.5,-301 405.5,-301 405.5,-320"/>
<text text-anchor="middle" x="377.5" y="-308" font-family="Helvetica,sans-Serif" font-size="10.00">set_for_n</text>
</a>
</g>
</g>
<!-- Node13&#45;&gt;Node17 -->
<g id="edge23_Node000013_Node000017" class="edge"><title>Node13&#45;&gt;Node17</title>
<g id="a_edge23_Node000013_Node000017"><a xlink:title=" ">
<path fill="none" stroke="#63b8ff" d="M630.674,-308.886C562.875,-309.32 455.772,-310.005 405.828,-310.325"/>
<polygon fill="#63b8ff" stroke="#63b8ff" points="630.814,-312.385 640.791,-308.821 630.769,-305.386 630.814,-312.385"/>
</a>
</g>
</g>
<!-- Node13&#45;&gt;Node18 -->
<g id="edge24_Node000013_Node000018" class="edge"><title>Node13&#45;&gt;Node18</title>
<g id="a_edge24_Node000013_Node000018"><a xlink:title=" ">
<path fill="none" stroke="#63b8ff" d="M649.465,-321.663C641.478,-324.794 633.325,-328.428 626,-332.5 608.284,-342.349 607.553,-350.364 590,-360.5 580.328,-366.085 569.104,-370.999 559.059,-374.902"/>
<polygon fill="#63b8ff" stroke="#63b8ff" points="650.905,-324.861 659.058,-318.096 648.465,-318.3 650.905,-324.861"/>
</a>
</g>
</g>
<!-- Node19 -->
<g id="Node000019" class="node"><title>Node19</title>
<g id="a_Node000019"><a xlink:href="group___t_set_iterator.html#ga3928a980e2759ba130ce333e77f15fab" target="_top" xlink:title="Přečtení hodnoty elementu z množiny pomocí iterátoru.">
<polygon fill="white" stroke="#666666" points="576,-204 484,-204 484,-185 576,-185 576,-204"/>
<text text-anchor="middle" x="530" y="-192" font-family="Helvetica,sans-Serif" font-size="10.00">set_iterator_value</text>
</a>
</g>
</g>
<!-- Node13&#45;&gt;Node19 -->
<g id="edge30_Node000013_Node000019" class="edge"><title>Node13&#45;&gt;Node19</title>
<g id="a_edge30_Node000013_Node000019"><a xlink:title=" ">
<path fill="none" stroke="#63b8ff" d="M675.524,-291.566C656.817,-271.891 623.64,-239.455 590,-218.5 580.802,-212.77 570,-207.91 560.17,-204.094"/>
<polygon fill="#63b8ff" stroke="#63b8ff" points="673.007,-293.998 682.395,-298.908 678.118,-289.215 673.007,-293.998"/>
</a>
</g>
</g>
<!-- Node16&#45;&gt;Node4 -->
<g id="edge21_Node000016_Node000004" class="edge"><title>Node16&#45;&gt;Node4</title>
<g id="a_edge21_Node000016_Node000004"><a xlink:title=" ">
<path fill="none" stroke="#63b8ff" d="M341.12,-410.03C334.262,-406.915 327.265,-403.366 321,-399.5 291.702,-381.419 261.858,-353.667 247.053,-339.133"/>
<polygon fill="#63b8ff" stroke="#63b8ff" points="339.736,-413.245 350.304,-413.999 342.512,-406.819 339.736,-413.245"/>
</a>
</g>
</g>
<!-- Node16&#45;&gt;Node7 -->
<g id="edge22_Node000016_Node000007" class="edge"><title>Node16&#45;&gt;Node7</title>
<g id="a_edge22_Node000016_Node000007"><a xlink:title=" ">
<path fill="none" stroke="#63b8ff" d="M333.56,-409.255C328.948,-406.519 324.624,-403.292 321,-399.5 317.057,-395.374 256.354,-230.766 241.005,-189.038"/>
<polygon fill="#63b8ff" stroke="#63b8ff" points="332.183,-412.482 342.677,-413.935 335.379,-406.255 332.183,-412.482"/>
</a>
</g>
</g>
<!-- Node18&#45;&gt;Node7 -->
<g id="edge29_Node000018_Node000007" class="edge"><title>Node18&#45;&gt;Node7</title>
<g id="a_edge29_Node000018_Node000007"><a xlink:title=" ">
<path fill="none" stroke="#63b8ff" d="M468.18,-394.246C423.441,-398.036 363.303,-395.698 321,-365.5 289.598,-343.084 251.127,-223.966 240.398,-189.096"/>
<polygon fill="#63b8ff" stroke="#63b8ff" points="468.725,-397.71 478.339,-393.259 468.048,-390.742 468.725,-397.71"/>
</a>
</g>
</g>
<!-- Node18&#45;&gt;Node14 -->
<g id="edge25_Node000018_Node000014" class="edge"><title>Node18&#45;&gt;Node14</title>
<g id="a_edge25_Node000018_Node000014"><a xlink:title=" ">
<path fill="none" stroke="#63b8ff" d="M515.33,-366.851C498.356,-346.058 467.52,-311.784 434,-291.5 425.94,-286.623 416.412,-282.914 407.546,-280.168"/>
<polygon fill="#63b8ff" stroke="#63b8ff" points="512.748,-369.227 521.723,-374.857 518.218,-364.859 512.748,-369.227"/>
</a>
</g>
</g>
<!-- Node18&#45;&gt;Node15 -->
<g id="edge26_Node000018_Node000015" class="edge"><title>Node18&#45;&gt;Node15</title>
<g id="a_edge26_Node000018_Node000015"><a xlink:title=" ">
<path fill="none" stroke="#63b8ff" d="M480.455,-372.565C459.955,-367.526 436.417,-361.739 417.126,-356.996"/>
<polygon fill="#63b8ff" stroke="#63b8ff" points="479.696,-375.983 490.243,-374.972 481.367,-369.185 479.696,-375.983"/>
</a>
</g>
</g>
<!-- Node18&#45;&gt;Node16 -->
<g id="edge27_Node000018_Node000016" class="edge"><title>Node18&#45;&gt;Node16</title>
<g id="a_edge27_Node000018_Node000016"><a xlink:title=" ">
<path fill="none" stroke="#63b8ff" d="M482.307,-396.6C460.144,-402.343 434.099,-409.092 413.642,-414.393"/>
<polygon fill="#63b8ff" stroke="#63b8ff" points="483.381,-399.937 492.184,-394.04 481.625,-393.161 483.381,-399.937"/>
</a>
</g>
</g>
<!-- Node18&#45;&gt;Node17 -->
<g id="edge28_Node000018_Node000017" class="edge"><title>Node18&#45;&gt;Node17</title>
<g id="a_edge28_Node000018_Node000017"><a xlink:title=" ">
<path fill="none" stroke="#63b8ff" d="M506.592,-369.387C487.803,-357.187 459.953,-340.188 434,-328.5 425.041,-324.465 414.903,-320.904 405.766,-318.036"/>
<polygon fill="#63b8ff" stroke="#63b8ff" points="504.763,-372.373 515.041,-374.946 508.611,-366.525 504.763,-372.373"/>
</a>
</g>
</g>
<!-- Node19&#45;&gt;Node7 -->
<g id="edge34_Node000019_Node000007" class="edge"><title>Node19&#45;&gt;Node7</title>
<g id="a_edge34_Node000019_Node000007"><a xlink:title=" ">
<path fill="none" stroke="#63b8ff" d="M473.468,-187.906C460.531,-186.578 446.797,-185.335 434,-184.5 383.261,-181.189 325.019,-180.039 285.196,-179.655"/>
<polygon fill="#63b8ff" stroke="#63b8ff" points="473.327,-191.411 483.64,-188.984 474.064,-184.45 473.327,-191.411"/>
</a>
</g>
</g>
<!-- Node20 -->
<g id="Node000020" class="node"><title>Node20</title>
<g id="a_Node000020"><a xlink:href="testbench_8c.html#ae7a610c069c6000940838c6a1e11bb42" target="_top" xlink:title="Vytisknutí hodnoty v ADT pomocí iterátoru.">
<polygon fill="white" stroke="#666666" points="434,-246 321,-246 321,-227 434,-227 434,-246"/>
<text text-anchor="middle" x="377.5" y="-234" font-family="Helvetica,sans-Serif" font-size="10.00">print_value_by_iterator</text>
</a>
</g>
</g>
<!-- Node19&#45;&gt;Node20 -->
<g id="edge31_Node000019_Node000020" class="edge"><title>Node19&#45;&gt;Node20</title>
<g id="a_edge31_Node000019_Node000020"><a xlink:title=" ">
<path fill="none" stroke="#63b8ff" d="M484.974,-206.786C461.948,-213.212 434.18,-220.961 412.776,-226.935"/>
<polygon fill="#63b8ff" stroke="#63b8ff" points="486.158,-210.09 494.849,-204.03 484.276,-203.347 486.158,-210.09"/>
</a>
</g>
</g>
<!-- Node20&#45;&gt;Node4 -->
<g id="edge32_Node000020_Node000004" class="edge"><title>Node20&#45;&gt;Node4</title>
<g id="a_edge32_Node000020_Node000004"><a xlink:title=" ">
<path fill="none" stroke="#63b8ff" d="M330.418,-249.749C327.16,-251.198 323.987,-252.779 321,-254.5 289.596,-272.594 259.747,-303.987 245.771,-319.802"/>
<polygon fill="#63b8ff" stroke="#63b8ff" points="331.758,-252.982 339.737,-246.012 329.153,-246.485 331.758,-252.982"/>
</a>
</g>
</g>
<!-- Node20&#45;&gt;Node7 -->
<g id="edge33_Node000020_Node000007" class="edge"><title>Node20&#45;&gt;Node7</title>
<g id="a_edge33_Node000020_Node000007"><a xlink:title=" ">
<path fill="none" stroke="#63b8ff" d="M343.967,-223.159C318.474,-212.705 283.62,-198.413 260.841,-189.072"/>
<polygon fill="#63b8ff" stroke="#63b8ff" points="342.654,-226.404 353.235,-226.959 345.31,-219.927 342.654,-226.404"/>
</a>
</g>
</g>
<!-- Node21&#45;&gt;Node18 -->
<g id="edge38_Node000021_Node000018" class="edge"><title>Node21&#45;&gt;Node18</title>
<g id="a_edge38_Node000021_Node000018"><a xlink:title=" ">
<path fill="none" stroke="#63b8ff" d="M789.477,-368.929C726.31,-372.734 636.906,-378.12 581.513,-381.457"/>
<polygon fill="#63b8ff" stroke="#63b8ff" points="790,-372.404 799.772,-368.309 789.579,-365.417 790,-372.404"/>
</a>
</g>
</g>
<!-- Node22&#45;&gt;Node11 -->
<g id="edge41_Node000022_Node000011" class="edge"><title>Node22&#45;&gt;Node11</title>
<g id="a_edge41_Node000022_Node000011"><a xlink:title=" ">
<path fill="none" stroke="#63b8ff" d="M667.37,-105.528C647.343,-93.3023 617.566,-76.1933 590,-64.5 582.606,-61.3635 574.48,-58.5198 566.686,-56.0666"/>
<polygon fill="#63b8ff" stroke="#63b8ff" points="665.757,-108.646 676.103,-110.929 669.439,-102.693 665.757,-108.646"/>
</a>
</g>
</g>
<!-- Node23 -->
<g id="Node000023" class="node"><title>Node23</title>
<g id="a_Node000023"><a xlink:href="group___t_set.html#ga1dab52afdffe1147063314f7cdc5a7c8" target="_top" xlink:title="Získání nového iterátoru ukazujícího na první element se zadanou hodnotou v množině nalezen,...">
<polygon fill="white" stroke="#666666" points="555,-93 505,-93 505,-74 555,-74 555,-93"/>
<text text-anchor="middle" x="530" y="-81" font-family="Helvetica,sans-Serif" font-size="10.00">set_find</text>
</a>
</g>
</g>
<!-- Node22&#45;&gt;Node23 -->
<g id="edge40_Node000022_Node000023" class="edge"><title>Node22&#45;&gt;Node23</title>
<g id="a_edge40_Node000022_Node000023"><a xlink:title=" ">
<path fill="none" stroke="#63b8ff" d="M640.012,-108.709C611.605,-102.14 577.552,-94.2652 555.154,-89.0856"/>
<polygon fill="#63b8ff" stroke="#63b8ff" points="639.265,-112.128 649.796,-110.972 640.842,-105.308 639.265,-112.128"/>
</a>
</g>
</g>
<!-- Node24 -->
<g id="Node000024" class="node"><title>Node24</title>
<g id="a_Node000024"><a xlink:href="group___t_set_hash_table.html#gaa4327c29b178abf7b79112463e1f9fb0" target="_top" xlink:title="Vložení elementu do hašovací tabulky.">
<polygon fill="white" stroke="#666666" points="586,-167 474,-167 474,-148 586,-148 586,-167"/>
<text text-anchor="middle" x="530" y="-155" font-family="Helvetica,sans-Serif" font-size="10.00">set_hash_table_insert</text>
</a>
</g>
</g>
<!-- Node22&#45;&gt;Node24 -->
<g id="edge42_Node000022_Node000024" class="edge"><title>Node22&#45;&gt;Node24</title>
<g id="a_edge42_Node000022_Node000024"><a xlink:title=" ">
<path fill="none" stroke="#63b8ff" d="M640.023,-132.288C618.18,-137.34 592.998,-143.163 572.342,-147.94"/>
<polygon fill="#63b8ff" stroke="#63b8ff" points="640.842,-135.692 649.796,-130.028 639.265,-128.872 640.842,-135.692"/>
</a>
</g>
</g>
<!-- Node26 -->
<g id="Node000026" class="node"><title>Node26</title>
<g id="a_Node000026"><a xlink:href="group___t_set.html#ga768d36614713a921e88985484ac63cc1" target="_top" xlink:title="Zjištění, zda množina obsahuje zadanou hodnotu elementu.">
<polygon fill="white" stroke="#666666" points="577.5,-130 482.5,-130 482.5,-111 577.5,-111 577.5,-130"/>
<text text-anchor="middle" x="530" y="-118" font-family="Helvetica,sans-Serif" font-size="10.00">set_is_element_of</text>
</a>
</g>
</g>
<!-- Node22&#45;&gt;Node26 -->
<g id="edge45_Node000022_Node000026" class="edge"><title>Node22&#45;&gt;Node26</title>
<g id="a_edge45_Node000022_Node000026"><a xlink:title=" ">
<path fill="none" stroke="#63b8ff" d="M622.816,-120.5C607.589,-120.5 591.777,-120.5 577.655,-120.5"/>
<polygon fill="#63b8ff" stroke="#63b8ff" points="623.236,-124 633.236,-120.5 623.236,-117 623.236,-124"/>
</a>
</g>
</g>
<!-- Node25 -->
<g id="Node000025" class="node"><title>Node25</title>
<g id="a_Node000025"><a xlink:href="group___t_set.html#ga0d1464cea78691ff9ad3dd1e32b55c60" target="_top" xlink:title="Vložení elementu do množiny.">
<polygon fill="white" stroke="#666666" points="407,-132 348,-132 348,-113 407,-113 407,-132"/>
<text text-anchor="middle" x="377.5" y="-120" font-family="Helvetica,sans-Serif" font-size="10.00">set_insert</text>
</a>
</g>
</g>
<!-- Node24&#45;&gt;Node25 -->
<g id="edge43_Node000024_Node000025" class="edge"><title>Node24&#45;&gt;Node25</title>
<g id="a_edge43_Node000024_Node000025"><a xlink:title=" ">
<path fill="none" stroke="#63b8ff" d="M477.998,-145.639C454.369,-140.144 427.167,-133.818 407.184,-129.171"/>
<polygon fill="#63b8ff" stroke="#63b8ff" points="477.342,-149.08 487.875,-147.936 478.928,-142.262 477.342,-149.08"/>
</a>
</g>
</g>
<!-- Node25&#45;&gt;Node7 -->
<g id="edge44_Node000025_Node000007" class="edge"><title>Node25&#45;&gt;Node7</title>
<g id="a_edge44_Node000025_Node000007"><a xlink:title=" ">
<path fill="none" stroke="#63b8ff" d="M343.967,-135.841C318.474,-146.295 283.62,-160.587 260.841,-169.928"/>
<polygon fill="#63b8ff" stroke="#63b8ff" points="345.31,-139.073 353.235,-132.041 342.654,-132.596 345.31,-139.073"/>
</a>
</g>
</g>
<!-- Node26&#45;&gt;Node7 -->
<g id="edge46_Node000026_Node000007" class="edge"><title>Node26&#45;&gt;Node7</title>
<g id="a_edge46_Node000026_Node000007"><a xlink:title=" ">
<path fill="none" stroke="#63b8ff" d="M492.309,-108.074C449.631,-95.7246 377.777,-81.5301 321,-103.5 286.083,-117.011 256.788,-152.667 244.163,-169.902"/>
<polygon fill="#63b8ff" stroke="#63b8ff" points="491.404,-111.457 501.988,-110.989 493.422,-104.754 491.404,-111.457"/>
</a>
</g>
</g>
<!-- Node27&#45;&gt;Node19 -->
<g id="edge48_Node000027_Node000019" class="edge"><title>Node27&#45;&gt;Node19</title>
<g id="a_edge48_Node000027_Node000019"><a xlink:title=" ">
<path fill="none" stroke="#63b8ff" d="M798.735,-194.5C733.371,-194.5 633.755,-194.5 576.252,-194.5"/>
<polygon fill="#63b8ff" stroke="#63b8ff" points="798.92,-198 808.92,-194.5 798.92,-191 798.92,-198"/>
</a>
</g>
</g>
</g>
</svg>
