<?xml version="1.0" encoding="UTF-8" standalone="no"?>
<!DOCTYPE svg PUBLIC "-//W3C//DTD SVG 1.1//EN"
 "http://www.w3.org/Graphics/SVG/1.1/DTD/svg11.dtd">
<!-- Generated by graphviz version 2.38.0 (20140413.2041)
 -->
<!-- Title: TSetElementHashable.c Pages: 1 -->
<svg width="402pt" height="137pt"
 viewBox="0.00 0.00 401.50 137.00" xmlns="http://www.w3.org/2000/svg" xmlns:xlink="http://www.w3.org/1999/xlink">
<g id="graph0" class="graph" transform="scale(1 1) rotate(0) translate(4 133)">
<title>TSetElementHashable.c</title>
<!-- Node1 -->
<g id="Node000001" class="node"><title>Node1</title>
<g id="a_Node000001"><a xlink:title="Definice globální proměnné realizující počítadlo operací porovnání dvou hodnot typu Hashable SetEleme...">
<polygon fill="#999999" stroke="#666666" points="254,-129 132,-129 132,-110 254,-110 254,-129"/>
<text text-anchor="middle" x="193" y="-117" font-family="Helvetica,sans-Serif" font-size="10.00">TSetElementHashable.c</text>
</a>
</g>
</g>
<!-- Node2 -->
<g id="Node000002" class="node"><title>Node2</title>
<g id="a_Node000002"><a xlink:href="_t_set_element_hashable_8h.html" target="_top" xlink:title="Definice typu Hashable Basic SetElement a implementace API.">
<polygon fill="white" stroke="#666666" points="254,-74 132,-74 132,-55 254,-55 254,-74"/>
<text text-anchor="middle" x="193" y="-62" font-family="Helvetica,sans-Serif" font-size="10.00">TSetElementHashable.h</text>
</a>
</g>
</g>
<!-- Node1&#45;&gt;Node2 -->
<g id="edge1_Node000001_Node000002" class="edge"><title>Node1&#45;&gt;Node2</title>
<g id="a_edge1_Node000001_Node000002"><a xlink:title=" ">
<path fill="none" stroke="#63b8ff" d="M193,-109.748C193,-102.802 193,-92.8451 193,-84.1349"/>
<polygon fill="#63b8ff" stroke="#63b8ff" points="196.5,-84.089 193,-74.089 189.5,-84.0891 196.5,-84.089"/>
</a>
</g>
</g>
<!-- Node3 -->
<g id="Node000003" class="node"><title>Node3</title>
<g id="a_Node000003"><a xlink:title=" ">
<polygon fill="#e0e0e0" stroke="#999999" points="46,-19 0,-19 0,-0 46,-0 46,-19"/>
<text text-anchor="middle" x="23" y="-7" font-family="Helvetica,sans-Serif" font-size="10.00">stdio.h</text>
</a>
</g>
</g>
<!-- Node2&#45;&gt;Node3 -->
<g id="edge2_Node000002_Node000003" class="edge"><title>Node2&#45;&gt;Node3</title>
<g id="a_edge2_Node000002_Node000003"><a xlink:title=" ">
<path fill="none" stroke="#63b8ff" d="M165.687,-54.9846C135.79,-45.6641 87.8673,-30.7233 55.9183,-20.7628"/>
<polygon fill="#63b8ff" stroke="#63b8ff" points="56.7381,-17.3523 46.1496,-17.7172 54.6546,-24.035 56.7381,-17.3523"/>
</a>
</g>
</g>
<!-- Node4 -->
<g id="Node000004" class="node"><title>Node4</title>
<g id="a_Node000004"><a xlink:title=" ">
<polygon fill="#e0e0e0" stroke="#999999" points="112,-19 64,-19 64,-0 112,-0 112,-19"/>
<text text-anchor="middle" x="88" y="-7" font-family="Helvetica,sans-Serif" font-size="10.00">stdlib.h</text>
</a>
</g>
</g>
<!-- Node2&#45;&gt;Node4 -->
<g id="edge3_Node000002_Node000004" class="edge"><title>Node2&#45;&gt;Node4</title>
<g id="a_edge3_Node000002_Node000004"><a xlink:title=" ">
<path fill="none" stroke="#63b8ff" d="M176.13,-54.9846C159.391,-46.5354 133.502,-33.4677 114.108,-23.6781"/>
<polygon fill="#63b8ff" stroke="#63b8ff" points="115.681,-20.5519 105.177,-19.1703 112.527,-26.801 115.681,-20.5519"/>
</a>
</g>
</g>
<!-- Node5 -->
<g id="Node000005" class="node"><title>Node5</title>
<g id="a_Node000005"><a xlink:title=" ">
<polygon fill="#e0e0e0" stroke="#999999" points="186,-19 130,-19 130,-0 186,-0 186,-19"/>
<text text-anchor="middle" x="158" y="-7" font-family="Helvetica,sans-Serif" font-size="10.00">stdbool.h</text>
</a>
</g>
</g>
<!-- Node2&#45;&gt;Node5 -->
<g id="edge4_Node000002_Node000005" class="edge"><title>Node2&#45;&gt;Node5</title>
<g id="a_edge4_Node000002_Node000005"><a xlink:title=" ">
<path fill="none" stroke="#63b8ff" d="M187.22,-54.7481C182.379,-47.4162 175.321,-36.7295 169.355,-27.6954"/>
<polygon fill="#63b8ff" stroke="#63b8ff" points="172.103,-25.505 163.672,-19.089 166.262,-29.3624 172.103,-25.505"/>
</a>
</g>
</g>
<!-- Node6 -->
<g id="Node000006" class="node"><title>Node6</title>
<g id="a_Node000006"><a xlink:title=" ">
<polygon fill="#e0e0e0" stroke="#999999" points="253.5,-19 204.5,-19 204.5,-0 253.5,-0 253.5,-19"/>
<text text-anchor="middle" x="229" y="-7" font-family="Helvetica,sans-Serif" font-size="10.00">stdint.h</text>
</a>
</g>
</g>
<!-- Node2&#45;&gt;Node6 -->
<g id="edge5_Node000002_Node000006" class="edge"><title>Node2&#45;&gt;Node6</title>
<g id="a_edge5_Node000002_Node000006"><a xlink:title=" ">
<path fill="none" stroke="#63b8ff" d="M198.945,-54.7481C203.977,-47.339 211.337,-36.5042 217.513,-27.4107"/>
<polygon fill="#63b8ff" stroke="#63b8ff" points="220.442,-29.3278 223.166,-19.089 214.652,-25.3946 220.442,-29.3278"/>
</a>
</g>
</g>
<!-- Node7 -->
<g id="Node000007" class="node"><title>Node7</title>
<g id="a_Node000007"><a xlink:title=" ">
<polygon fill="#e0e0e0" stroke="#999999" points="324,-19 272,-19 272,-0 324,-0 324,-19"/>
<text text-anchor="middle" x="298" y="-7" font-family="Helvetica,sans-Serif" font-size="10.00">assert.h</text>
</a>
</g>
</g>
<!-- Node2&#45;&gt;Node7 -->
<g id="edge6_Node000002_Node000007" class="edge"><title>Node2&#45;&gt;Node7</title>
<g id="a_edge6_Node000002_Node000007"><a xlink:title=" ">
<path fill="none" stroke="#63b8ff" d="M209.87,-54.9846C226.609,-46.5354 252.498,-33.4677 271.892,-23.6781"/>
<polygon fill="#63b8ff" stroke="#63b8ff" points="273.473,-26.801 280.823,-19.1703 270.319,-20.5519 273.473,-26.801"/>
</a>
</g>
</g>
<!-- Node8 -->
<g id="Node000008" class="node"><title>Node8</title>
<g id="a_Node000008"><a xlink:title=" ">
<polygon fill="#e0e0e0" stroke="#999999" points="393.5,-19 342.5,-19 342.5,-0 393.5,-0 393.5,-19"/>
<text text-anchor="middle" x="368" y="-7" font-family="Helvetica,sans-Serif" font-size="10.00">check.h</text>
</a>
</g>
</g>
<!-- Node2&#45;&gt;Node8 -->
<g id="edge7_Node000002_Node000008" class="edge"><title>Node2&#45;&gt;Node8</title>
<g id="a_edge7_Node000002_Node000008"><a xlink:title=" ">
<path fill="none" stroke="#63b8ff" d="M221.117,-54.9846C251.413,-45.8093 299.691,-31.1877 332.564,-21.2321"/>
<polygon fill="#63b8ff" stroke="#63b8ff" points="333.678,-24.5518 342.234,-18.3034 331.649,-17.8523 333.678,-24.5518"/>
</a>
</g>
</g>
</g>
</svg>
