<?xml version="1.0" encoding="UTF-8" standalone="no"?>
<!DOCTYPE svg PUBLIC "-//W3C//DTD SVG 1.1//EN"
 "http://www.w3.org/Graphics/SVG/1.1/DTD/svg11.dtd">
<!-- Generated by graphviz version 2.38.0 (20140413.2041)
 -->
<!-- Title: TSetHashTableOpenAddr.h Pages: 1 -->
<svg width="402pt" height="137pt"
 viewBox="0.00 0.00 401.50 137.00" xmlns="http://www.w3.org/2000/svg" xmlns:xlink="http://www.w3.org/1999/xlink">
<g id="graph0" class="graph" transform="scale(1 1) rotate(0) translate(4 133)">
<title>TSetHashTableOpenAddr.h</title>
<!-- Node1 -->
<g id="Node000001" class="node"><title>Node1</title>
<g id="a_Node000001"><a xlink:title="Implementace typu SetHashTable &#45; (hašovací tabulka využívající otevřené adresování)">
<polygon fill="#999999" stroke="#666666" points="149,-129 15,-129 15,-110 149,-110 149,-129"/>
<text text-anchor="middle" x="82" y="-117" font-family="Helvetica,sans-Serif" font-size="10.00">TSetHashTableOpenAddr.h</text>
</a>
</g>
</g>
<!-- Node2 -->
<g id="Node000002" class="node"><title>Node2</title>
<g id="a_Node000002"><a xlink:title=" ">
<polygon fill="#e0e0e0" stroke="#999999" points="56,-19 3.55271e-015,-19 3.55271e-015,-0 56,-0 56,-19"/>
<text text-anchor="middle" x="28" y="-7" font-family="Helvetica,sans-Serif" font-size="10.00">stdbool.h</text>
</a>
</g>
</g>
<!-- Node1&#45;&gt;Node2 -->
<g id="edge1_Node000001_Node000002" class="edge"><title>Node1&#45;&gt;Node2</title>
<g id="a_edge1_Node000001_Node000002"><a xlink:title=" ">
<path fill="none" stroke="#63b8ff" d="M73.684,-109.989C65.808,-101.505 54.152,-87.7849 47,-74 39.6221,-59.7798 34.6496,-42.2464 31.6483,-29.209"/>
<polygon fill="#63b8ff" stroke="#63b8ff" points="35.0043,-28.1626 29.5072,-19.1055 28.1564,-29.6138 35.0043,-28.1626"/>
</a>
</g>
</g>
<!-- Node3 -->
<g id="Node000003" class="node"><title>Node3</title>
<g id="a_Node000003"><a xlink:title=" ">
<polygon fill="#e0e0e0" stroke="#999999" points="107.5,-74 56.5,-74 56.5,-55 107.5,-55 107.5,-74"/>
<text text-anchor="middle" x="82" y="-62" font-family="Helvetica,sans-Serif" font-size="10.00">stddef.h</text>
</a>
</g>
</g>
<!-- Node1&#45;&gt;Node3 -->
<g id="edge2_Node000001_Node000003" class="edge"><title>Node1&#45;&gt;Node3</title>
<g id="a_edge2_Node000001_Node000003"><a xlink:title=" ">
<path fill="none" stroke="#63b8ff" d="M82,-109.748C82,-102.802 82,-92.8451 82,-84.1349"/>
<polygon fill="#63b8ff" stroke="#63b8ff" points="85.5001,-84.089 82,-74.089 78.5001,-84.0891 85.5001,-84.089"/>
</a>
</g>
</g>
<!-- Node4 -->
<g id="Node000004" class="node"><title>Node4</title>
<g id="a_Node000004"><a xlink:href="_t_set_element_hashable_8h.html" target="_top" xlink:title="Definice typu Hashable Basic SetElement a implementace API.">
<polygon fill="white" stroke="#666666" points="248,-74 126,-74 126,-55 248,-55 248,-74"/>
<text text-anchor="middle" x="187" y="-62" font-family="Helvetica,sans-Serif" font-size="10.00">TSetElementHashable.h</text>
</a>
</g>
</g>
<!-- Node1&#45;&gt;Node4 -->
<g id="edge3_Node000001_Node000004" class="edge"><title>Node1&#45;&gt;Node4</title>
<g id="a_edge3_Node000001_Node000004"><a xlink:title=" ">
<path fill="none" stroke="#63b8ff" d="M98.8701,-109.985C115.609,-101.535 141.498,-88.4677 160.892,-78.6781"/>
<polygon fill="#63b8ff" stroke="#63b8ff" points="162.473,-81.801 169.823,-74.1703 159.319,-75.5519 162.473,-81.801"/>
</a>
</g>
</g>
<!-- Node4&#45;&gt;Node2 -->
<g id="edge6_Node000004_Node000002" class="edge"><title>Node4&#45;&gt;Node2</title>
<g id="a_edge6_Node000004_Node000002"><a xlink:title=" ">
<path fill="none" stroke="#63b8ff" d="M161.454,-54.9846C134.875,-46.125 93.0625,-32.1875 63.3278,-22.2759"/>
<polygon fill="#63b8ff" stroke="#63b8ff" points="64.34,-18.9241 53.7463,-19.0821 62.1263,-25.5648 64.34,-18.9241"/>
</a>
</g>
</g>
<!-- Node5 -->
<g id="Node000005" class="node"><title>Node5</title>
<g id="a_Node000005"><a xlink:title=" ">
<polygon fill="#e0e0e0" stroke="#999999" points="120,-19 74,-19 74,-0 120,-0 120,-19"/>
<text text-anchor="middle" x="97" y="-7" font-family="Helvetica,sans-Serif" font-size="10.00">stdio.h</text>
</a>
</g>
</g>
<!-- Node4&#45;&gt;Node5 -->
<g id="edge4_Node000004_Node000005" class="edge"><title>Node4&#45;&gt;Node5</title>
<g id="a_edge4_Node000004_Node000005"><a xlink:title=" ">
<path fill="none" stroke="#63b8ff" d="M172.54,-54.9846C158.583,-46.7658 137.206,-34.177 120.75,-24.4863"/>
<polygon fill="#63b8ff" stroke="#63b8ff" points="122.116,-21.2288 111.723,-19.1703 118.564,-27.2607 122.116,-21.2288"/>
</a>
</g>
</g>
<!-- Node6 -->
<g id="Node000006" class="node"><title>Node6</title>
<g id="a_Node000006"><a xlink:title=" ">
<polygon fill="#e0e0e0" stroke="#999999" points="186,-19 138,-19 138,-0 186,-0 186,-19"/>
<text text-anchor="middle" x="162" y="-7" font-family="Helvetica,sans-Serif" font-size="10.00">stdlib.h</text>
</a>
</g>
</g>
<!-- Node4&#45;&gt;Node6 -->
<g id="edge5_Node000004_Node000006" class="edge"><title>Node4&#45;&gt;Node6</title>
<g id="a_edge5_Node000004_Node000006"><a xlink:title=" ">
<path fill="none" stroke="#63b8ff" d="M182.872,-54.7481C179.486,-47.5705 174.584,-37.178 170.381,-28.2682"/>
<polygon fill="#63b8ff" stroke="#63b8ff" points="173.483,-26.6402 166.051,-19.089 167.152,-29.6265 173.483,-26.6402"/>
</a>
</g>
</g>
<!-- Node7 -->
<g id="Node000007" class="node"><title>Node7</title>
<g id="a_Node000007"><a xlink:title=" ">
<polygon fill="#e0e0e0" stroke="#999999" points="253.5,-19 204.5,-19 204.5,-0 253.5,-0 253.5,-19"/>
<text text-anchor="middle" x="229" y="-7" font-family="Helvetica,sans-Serif" font-size="10.00">stdint.h</text>
</a>
</g>
</g>
<!-- Node4&#45;&gt;Node7 -->
<g id="edge7_Node000004_Node000007" class="edge"><title>Node4&#45;&gt;Node7</title>
<g id="a_edge7_Node000004_Node000007"><a xlink:title=" ">
<path fill="none" stroke="#63b8ff" d="M193.935,-54.7481C199.868,-47.2618 208.572,-36.2781 215.824,-27.1271"/>
<polygon fill="#63b8ff" stroke="#63b8ff" points="218.726,-29.1003 222.194,-19.089 213.24,-24.7527 218.726,-29.1003"/>
</a>
</g>
</g>
<!-- Node8 -->
<g id="Node000008" class="node"><title>Node8</title>
<g id="a_Node000008"><a xlink:title=" ">
<polygon fill="#e0e0e0" stroke="#999999" points="324,-19 272,-19 272,-0 324,-0 324,-19"/>
<text text-anchor="middle" x="298" y="-7" font-family="Helvetica,sans-Serif" font-size="10.00">assert.h</text>
</a>
</g>
</g>
<!-- Node4&#45;&gt;Node8 -->
<g id="edge8_Node000004_Node000008" class="edge"><title>Node4&#45;&gt;Node8</title>
<g id="a_edge8_Node000004_Node000008"><a xlink:title=" ">
<path fill="none" stroke="#63b8ff" d="M204.834,-54.9846C222.61,-46.497 250.147,-33.3488 270.68,-23.5449"/>
<polygon fill="#63b8ff" stroke="#63b8ff" points="272.325,-26.6376 279.841,-19.1703 269.309,-20.3207 272.325,-26.6376"/>
</a>
</g>
</g>
<!-- Node9 -->
<g id="Node000009" class="node"><title>Node9</title>
<g id="a_Node000009"><a xlink:title=" ">
<polygon fill="#e0e0e0" stroke="#999999" points="393.5,-19 342.5,-19 342.5,-0 393.5,-0 393.5,-19"/>
<text text-anchor="middle" x="368" y="-7" font-family="Helvetica,sans-Serif" font-size="10.00">check.h</text>
</a>
</g>
</g>
<!-- Node4&#45;&gt;Node9 -->
<g id="edge9_Node000004_Node000009" class="edge"><title>Node4&#45;&gt;Node9</title>
<g id="a_edge9_Node000004_Node000009"><a xlink:title=" ">
<path fill="none" stroke="#63b8ff" d="M216.081,-54.9846C247.687,-45.7298 298.217,-30.9338 332.23,-20.9742"/>
<polygon fill="#63b8ff" stroke="#63b8ff" points="333.602,-24.2193 342.216,-18.0501 331.635,-17.5013 333.602,-24.2193"/>
</a>
</g>
</g>
</g>
</svg>
