<?xml version="1.0" encoding="UTF-8" standalone="no"?>
<!DOCTYPE svg PUBLIC "-//W3C//DTD SVG 1.1//EN"
 "http://www.w3.org/Graphics/SVG/1.1/DTD/svg11.dtd">
<!-- Generated by graphviz version 2.38.0 (20140413.2041)
 -->
<!-- Title: set_find_if_not Pages: 1 -->
<svg width="680pt" height="103pt"
 viewBox="0.00 0.00 680.00 103.00" xmlns="http://www.w3.org/2000/svg" xmlns:xlink="http://www.w3.org/1999/xlink">
<g id="graph0" class="graph" transform="scale(1 1) rotate(0) translate(4 99)">
<title>set_find_if_not</title>
<!-- Node1 -->
<g id="Node000001" class="node"><title>Node1</title>
<g id="a_Node000001"><a xlink:title="Vyhledání prvního elementu množiny nesplňujícího zadaný predikát.">
<polygon fill="#999999" stroke="#666666" points="79,-76 0,-76 0,-57 79,-57 79,-76"/>
<text text-anchor="middle" x="39.5" y="-64" font-family="Helvetica,sans-Serif" font-size="10.00">set_find_if_not</text>
</a>
</g>
</g>
<!-- Node2 -->
<g id="Node000002" class="node"><title>Node2</title>
<g id="a_Node000002"><a xlink:href="group___t_set_iterator.html#ga089f24c81ac3da7d1ac7ca24cc078dd8" target="_top" xlink:title="Zjištění platnosti iterátoru.">
<polygon fill="white" stroke="#666666" points="356,-95 254,-95 254,-76 356,-76 356,-95"/>
<text text-anchor="middle" x="305" y="-83" font-family="Helvetica,sans-Serif" font-size="10.00">set_iterator_is_valid</text>
</a>
</g>
</g>
<!-- Node1&#45;&gt;Node2 -->
<g id="edge1_Node000001_Node000002" class="edge"><title>Node1&#45;&gt;Node2</title>
<g id="a_edge1_Node000001_Node000002"><a xlink:title=" ">
<path fill="none" stroke="#63b8ff" d="M79.0974,-69.2831C122.294,-72.3978 192.843,-77.4849 243.41,-81.1311"/>
<polygon fill="#63b8ff" stroke="#63b8ff" points="243.336,-84.6347 253.562,-81.8631 243.839,-77.6529 243.336,-84.6347"/>
</a>
</g>
</g>
<!-- Node5 -->
<g id="Node000005" class="node"><title>Node5</title>
<g id="a_Node000005"><a xlink:href="group___t_set_iterator.html#ga6723a05c864198597ff49718020bd0d6" target="_top" xlink:title="Posunutí iterátoru vpřed.">
<polygon fill="white" stroke="#666666" points="218,-57 115,-57 115,-38 218,-38 218,-57"/>
<text text-anchor="middle" x="166.5" y="-45" font-family="Helvetica,sans-Serif" font-size="10.00">set_iterator_to_next</text>
</a>
</g>
</g>
<!-- Node1&#45;&gt;Node5 -->
<g id="edge4_Node000001_Node000005" class="edge"><title>Node1&#45;&gt;Node5</title>
<g id="a_edge4_Node000001_Node000005"><a xlink:title=" ">
<path fill="none" stroke="#63b8ff" d="M79.0241,-60.6443C87.259,-59.3926 96.1484,-58.0414 104.985,-56.6983"/>
<polygon fill="#63b8ff" stroke="#63b8ff" points="105.541,-60.1541 114.901,-55.191 104.489,-53.2336 105.541,-60.1541"/>
</a>
</g>
</g>
<!-- Node3 -->
<g id="Node000003" class="node"><title>Node3</title>
<g id="a_Node000003"><a xlink:href="group___t_set_hash_table.html#ga891b531cc6373331e55101f2dd75ac4a" target="_top" xlink:title="Zjištění platnosti pozice v hašovací tabulce.">
<polygon fill="white" stroke="#666666" points="532,-57 392,-57 392,-38 532,-38 532,-57"/>
<text text-anchor="middle" x="462" y="-45" font-family="Helvetica,sans-Serif" font-size="10.00">set_hash_table_is_valid_pos</text>
</a>
</g>
</g>
<!-- Node2&#45;&gt;Node3 -->
<g id="edge2_Node000002_Node000003" class="edge"><title>Node2&#45;&gt;Node3</title>
<g id="a_edge2_Node000002_Node000003"><a xlink:title=" ">
<path fill="none" stroke="#63b8ff" d="M345.113,-75.911C365.475,-70.9191 390.566,-64.7676 412.189,-59.4666"/>
<polygon fill="#63b8ff" stroke="#63b8ff" points="413.289,-62.8006 422.168,-57.0201 411.622,-56.0019 413.289,-62.8006"/>
</a>
</g>
</g>
<!-- Node4 -->
<g id="Node000004" class="node"><title>Node4</title>
<g id="a_Node000004"><a xlink:href="_t_set_hash_table_open_addr_8c.html#aa4a90f23bbdbe5bb71a49d7df2ee5fc1" target="_top" xlink:title="Funkce vracející hodnotu reprezentující smazanou přihrádku.">
<polygon fill="white" stroke="#666666" points="672,-43.5 568,-43.5 568,-13.5 672,-13.5 672,-43.5"/>
<text text-anchor="start" x="576" y="-31.5" font-family="Helvetica,sans-Serif" font-size="10.00">calc_erased_bucket</text>
<text text-anchor="middle" x="620" y="-20.5" font-family="Helvetica,sans-Serif" font-size="10.00">_marker</text>
</a>
</g>
</g>
<!-- Node3&#45;&gt;Node4 -->
<g id="edge3_Node000003_Node000004" class="edge"><title>Node3&#45;&gt;Node4</title>
<g id="a_edge3_Node000003_Node000004"><a xlink:title=" ">
<path fill="none" stroke="#63b8ff" d="M532.332,-39.0557C540.779,-38.0269 549.362,-36.9815 557.681,-35.9684"/>
<polygon fill="#63b8ff" stroke="#63b8ff" points="558.165,-39.4354 567.668,-34.7519 557.318,-32.4867 558.165,-39.4354"/>
</a>
</g>
</g>
<!-- Node5&#45;&gt;Node2 -->
<g id="edge8_Node000005_Node000002" class="edge"><title>Node5&#45;&gt;Node2</title>
<g id="a_edge8_Node000005_Node000002"><a xlink:title=" ">
<path fill="none" stroke="#63b8ff" d="M201.945,-57.089C219.485,-61.9719 241.01,-67.9643 259.763,-73.185"/>
<polygon fill="#63b8ff" stroke="#63b8ff" points="258.994,-76.6039 269.566,-75.9141 260.871,-69.8603 258.994,-76.6039"/>
</a>
</g>
</g>
<!-- Node5&#45;&gt;Node3 -->
<g id="edge5_Node000005_Node000003" class="edge"><title>Node5&#45;&gt;Node3</title>
<g id="a_edge5_Node000005_Node000003"><a xlink:title=" ">
<path fill="none" stroke="#63b8ff" d="M218.289,-47.5C263.28,-47.5 329.699,-47.5 381.689,-47.5"/>
<polygon fill="#63b8ff" stroke="#63b8ff" points="381.883,-51.0001 391.883,-47.5 381.883,-44.0001 381.883,-51.0001"/>
</a>
</g>
</g>
<!-- Node6 -->
<g id="Node000006" class="node"><title>Node6</title>
<g id="a_Node000006"><a xlink:href="group___t_set_hash_table.html#ga9218e24d2cc5a61596c4a45ef76f4c75" target="_top" xlink:title="Výpočet následující pozice platné přihrádky v hašovací tabulce.">
<polygon fill="white" stroke="#666666" points="526,-19 398,-19 398,-0 526,-0 526,-19"/>
<text text-anchor="middle" x="462" y="-7" font-family="Helvetica,sans-Serif" font-size="10.00">set_hash_table_next_pos</text>
</a>
</g>
</g>
<!-- Node5&#45;&gt;Node6 -->
<g id="edge6_Node000005_Node000006" class="edge"><title>Node5&#45;&gt;Node6</title>
<g id="a_edge6_Node000005_Node000006"><a xlink:title=" ">
<path fill="none" stroke="#63b8ff" d="M218.289,-40.9243C265.069,-34.8676 335.016,-25.8114 387.82,-18.9747"/>
<polygon fill="#63b8ff" stroke="#63b8ff" points="388.338,-22.437 397.806,-17.6819 387.439,-15.495 388.338,-22.437"/>
</a>
</g>
</g>
<!-- Node6&#45;&gt;Node4 -->
<g id="edge7_Node000006_Node000004" class="edge"><title>Node6&#45;&gt;Node4</title>
<g id="a_edge7_Node000006_Node000004"><a xlink:title=" ">
<path fill="none" stroke="#63b8ff" d="M526.002,-17.1733C536.403,-18.4401 547.174,-19.7519 557.536,-21.014"/>
<polygon fill="#63b8ff" stroke="#63b8ff" points="557.384,-24.5213 567.734,-22.2561 558.231,-17.5726 557.384,-24.5213"/>
</a>
</g>
</g>
</g>
</svg>
