<?xml version="1.0" encoding="UTF-8" standalone="no"?>
<!DOCTYPE svg PUBLIC "-//W3C//DTD SVG 1.1//EN"
 "http://www.w3.org/Graphics/SVG/1.1/DTD/svg11.dtd">
<!-- Generated by graphviz version 2.38.0 (20140413.2041)
 -->
<!-- Title: set_destroy Pages: 1 -->
<svg width="283pt" height="46pt"
 viewBox="0.00 0.00 283.00 46.00" xmlns="http://www.w3.org/2000/svg" xmlns:xlink="http://www.w3.org/1999/xlink">
<g id="graph0" class="graph" transform="scale(1 1) rotate(0) translate(4 42)">
<title>set_destroy</title>
<!-- Node1 -->
<g id="Node000001" class="node"><title>Node1</title>
<g id="a_Node000001"><a xlink:title="Deinicializace množiny.">
<polygon fill="#999999" stroke="#666666" points="275,-38 207,-38 207,-19 275,-19 275,-38"/>
<text text-anchor="middle" x="241" y="-26" font-family="Helvetica,sans-Serif" font-size="10.00">set_destroy</text>
</a>
</g>
</g>
<!-- Node2 -->
<g id="Node000002" class="node"><title>Node2</title>
<g id="a_Node000002"><a xlink:href="group___main_program.html#ga0ddf1224851353fc92bfbff6f499fa97" target="_top" xlink:title=" ">
<polygon fill="white" stroke="#666666" points="38,-38 0,-38 0,-19 38,-19 38,-38"/>
<text text-anchor="middle" x="19" y="-26" font-family="Helvetica,sans-Serif" font-size="10.00">main</text>
</a>
</g>
</g>
<!-- Node1&#45;&gt;Node2 -->
<g id="edge1_Node000001_Node000002" class="edge"><title>Node1&#45;&gt;Node2</title>
<g id="a_edge1_Node000001_Node000002"><a xlink:title=" ">
<path fill="none" stroke="#63b8ff" d="M196.429,-28.5C148.157,-28.5 72.5999,-28.5 38.179,-28.5"/>
<polygon fill="#63b8ff" stroke="#63b8ff" points="196.587,-32.0001 206.587,-28.5 196.587,-25.0001 196.587,-32.0001"/>
</a>
</g>
</g>
<!-- Node3 -->
<g id="Node000003" class="node"><title>Node3</title>
<g id="a_Node000003"><a xlink:href="group___main_program.html#ga2762b0417283abc168151cbffee8216c" target="_top" xlink:title=" ">
<polygon fill="white" stroke="#666666" points="171,-19 74,-19 74,-0 171,-0 171,-19"/>
<text text-anchor="middle" x="122.5" y="-7" font-family="Helvetica,sans-Serif" font-size="10.00">testset_hardcoded</text>
</a>
</g>
</g>
<!-- Node1&#45;&gt;Node3 -->
<g id="edge2_Node000001_Node000003" class="edge"><title>Node1&#45;&gt;Node3</title>
<g id="a_edge2_Node000001_Node000003"><a xlink:title=" ">
<path fill="none" stroke="#63b8ff" d="M196.913,-21.4729C188.474,-20.0966 179.579,-18.6459 171.006,-17.2477"/>
<polygon fill="#63b8ff" stroke="#63b8ff" points="196.494,-24.9508 206.927,-23.1062 197.621,-18.0421 196.494,-24.9508"/>
</a>
</g>
</g>
<!-- Node3&#45;&gt;Node2 -->
<g id="edge3_Node000003_Node000002" class="edge"><title>Node3&#45;&gt;Node2</title>
<g id="a_edge3_Node000003_Node000002"><a xlink:title=" ">
<path fill="none" stroke="#63b8ff" d="M63.7308,-20.3139C54.5822,-22.0265 45.7439,-23.681 38.4361,-25.0489"/>
<polygon fill="#63b8ff" stroke="#63b8ff" points="64.5369,-23.7239 73.7221,-18.4436 63.2488,-16.8434 64.5369,-23.7239"/>
</a>
</g>
</g>
</g>
</svg>
