<?xml version="1.0" encoding="UTF-8" standalone="no"?>
<!DOCTYPE svg PUBLIC "-//W3C//DTD SVG 1.1//EN"
 "http://www.w3.org/Graphics/SVG/1.1/DTD/svg11.dtd">
<!-- Generated by graphviz version 2.38.0 (20140413.2041)
 -->
<!-- Title: set_for_each Pages: 1 -->
<svg width="673pt" height="103pt"
 viewBox="0.00 0.00 673.00 103.00" xmlns="http://www.w3.org/2000/svg" xmlns:xlink="http://www.w3.org/1999/xlink">
<g id="graph0" class="graph" transform="scale(1 1) rotate(0) translate(4 99)">
<title>set_for_each</title>
<!-- Node1 -->
<g id="Node000001" class="node"><title>Node1</title>
<g id="a_Node000001"><a xlink:title="Zavolání zvolené funkce na každý element množiny od pozice určené iterátorem až do posledního element...">
<polygon fill="#999999" stroke="#666666" points="72,-76 0,-76 0,-57 72,-57 72,-76"/>
<text text-anchor="middle" x="36" y="-64" font-family="Helvetica,sans-Serif" font-size="10.00">set_for_each</text>
</a>
</g>
</g>
<!-- Node2 -->
<g id="Node000002" class="node"><title>Node2</title>
<g id="a_Node000002"><a xlink:href="group___t_set_iterator.html#ga089f24c81ac3da7d1ac7ca24cc078dd8" target="_top" xlink:title="Zjištění platnosti iterátoru.">
<polygon fill="white" stroke="#666666" points="349,-95 247,-95 247,-76 349,-76 349,-95"/>
<text text-anchor="middle" x="298" y="-83" font-family="Helvetica,sans-Serif" font-size="10.00">set_iterator_is_valid</text>
</a>
</g>
</g>
<!-- Node1&#45;&gt;Node2 -->
<g id="edge1_Node000001_Node000002" class="edge"><title>Node1&#45;&gt;Node2</title>
<g id="a_edge1_Node000001_Node000002"><a xlink:title=" ">
<path fill="none" stroke="#63b8ff" d="M72.0648,-69.0624C114.21,-72.1423 185.625,-77.3611 236.683,-81.0922"/>
<polygon fill="#63b8ff" stroke="#63b8ff" points="236.701,-84.6028 246.93,-81.841 237.211,-77.6214 236.701,-84.6028"/>
</a>
</g>
</g>
<!-- Node5 -->
<g id="Node000005" class="node"><title>Node5</title>
<g id="a_Node000005"><a xlink:href="group___t_set_iterator.html#ga6723a05c864198597ff49718020bd0d6" target="_top" xlink:title="Posunutí iterátoru vpřed.">
<polygon fill="white" stroke="#666666" points="211,-57 108,-57 108,-38 211,-38 211,-57"/>
<text text-anchor="middle" x="159.5" y="-45" font-family="Helvetica,sans-Serif" font-size="10.00">set_iterator_to_next</text>
</a>
</g>
</g>
<!-- Node1&#45;&gt;Node5 -->
<g id="edge4_Node000001_Node000005" class="edge"><title>Node1&#45;&gt;Node5</title>
<g id="a_edge4_Node000001_Node000005"><a xlink:title=" ">
<path fill="none" stroke="#63b8ff" d="M72.1428,-61.0044C80.1019,-59.7598 88.7787,-58.4029 97.4633,-57.0448"/>
<polygon fill="#63b8ff" stroke="#63b8ff" points="98.2802,-60.4597 107.619,-55.4566 97.1986,-53.5438 98.2802,-60.4597"/>
</a>
</g>
</g>
<!-- Node3 -->
<g id="Node000003" class="node"><title>Node3</title>
<g id="a_Node000003"><a xlink:href="group___t_set_hash_table.html#ga891b531cc6373331e55101f2dd75ac4a" target="_top" xlink:title="Zjištění platnosti pozice v hašovací tabulce.">
<polygon fill="white" stroke="#666666" points="525,-57 385,-57 385,-38 525,-38 525,-57"/>
<text text-anchor="middle" x="455" y="-45" font-family="Helvetica,sans-Serif" font-size="10.00">set_hash_table_is_valid_pos</text>
</a>
</g>
</g>
<!-- Node2&#45;&gt;Node3 -->
<g id="edge2_Node000002_Node000003" class="edge"><title>Node2&#45;&gt;Node3</title>
<g id="a_edge2_Node000002_Node000003"><a xlink:title=" ">
<path fill="none" stroke="#63b8ff" d="M338.113,-75.911C358.475,-70.9191 383.566,-64.7676 405.189,-59.4666"/>
<polygon fill="#63b8ff" stroke="#63b8ff" points="406.289,-62.8006 415.168,-57.0201 404.622,-56.0019 406.289,-62.8006"/>
</a>
</g>
</g>
<!-- Node4 -->
<g id="Node000004" class="node"><title>Node4</title>
<g id="a_Node000004"><a xlink:href="_t_set_hash_table_open_addr_8c.html#aa4a90f23bbdbe5bb71a49d7df2ee5fc1" target="_top" xlink:title="Funkce vracející hodnotu reprezentující smazanou přihrádku.">
<polygon fill="white" stroke="#666666" points="665,-43.5 561,-43.5 561,-13.5 665,-13.5 665,-43.5"/>
<text text-anchor="start" x="569" y="-31.5" font-family="Helvetica,sans-Serif" font-size="10.00">calc_erased_bucket</text>
<text text-anchor="middle" x="613" y="-20.5" font-family="Helvetica,sans-Serif" font-size="10.00">_marker</text>
</a>
</g>
</g>
<!-- Node3&#45;&gt;Node4 -->
<g id="edge3_Node000003_Node000004" class="edge"><title>Node3&#45;&gt;Node4</title>
<g id="a_edge3_Node000003_Node000004"><a xlink:title=" ">
<path fill="none" stroke="#63b8ff" d="M525.332,-39.0557C533.779,-38.0269 542.362,-36.9815 550.681,-35.9684"/>
<polygon fill="#63b8ff" stroke="#63b8ff" points="551.165,-39.4354 560.668,-34.7519 550.318,-32.4867 551.165,-39.4354"/>
</a>
</g>
</g>
<!-- Node5&#45;&gt;Node2 -->
<g id="edge8_Node000005_Node000002" class="edge"><title>Node5&#45;&gt;Node2</title>
<g id="a_edge8_Node000005_Node000002"><a xlink:title=" ">
<path fill="none" stroke="#63b8ff" d="M194.945,-57.089C212.485,-61.9719 234.01,-67.9643 252.763,-73.185"/>
<polygon fill="#63b8ff" stroke="#63b8ff" points="251.994,-76.6039 262.566,-75.9141 253.871,-69.8603 251.994,-76.6039"/>
</a>
</g>
</g>
<!-- Node5&#45;&gt;Node3 -->
<g id="edge5_Node000005_Node000003" class="edge"><title>Node5&#45;&gt;Node3</title>
<g id="a_edge5_Node000005_Node000003"><a xlink:title=" ">
<path fill="none" stroke="#63b8ff" d="M211.289,-47.5C256.28,-47.5 322.699,-47.5 374.689,-47.5"/>
<polygon fill="#63b8ff" stroke="#63b8ff" points="374.883,-51.0001 384.883,-47.5 374.883,-44.0001 374.883,-51.0001"/>
</a>
</g>
</g>
<!-- Node6 -->
<g id="Node000006" class="node"><title>Node6</title>
<g id="a_Node000006"><a xlink:href="group___t_set_hash_table.html#ga9218e24d2cc5a61596c4a45ef76f4c75" target="_top" xlink:title="Výpočet následující pozice platné přihrádky v hašovací tabulce.">
<polygon fill="white" stroke="#666666" points="519,-19 391,-19 391,-0 519,-0 519,-19"/>
<text text-anchor="middle" x="455" y="-7" font-family="Helvetica,sans-Serif" font-size="10.00">set_hash_table_next_pos</text>
</a>
</g>
</g>
<!-- Node5&#45;&gt;Node6 -->
<g id="edge6_Node000005_Node000006" class="edge"><title>Node5&#45;&gt;Node6</title>
<g id="a_edge6_Node000005_Node000006"><a xlink:title=" ">
<path fill="none" stroke="#63b8ff" d="M211.289,-40.9243C258.069,-34.8676 328.016,-25.8114 380.82,-18.9747"/>
<polygon fill="#63b8ff" stroke="#63b8ff" points="381.338,-22.437 390.806,-17.6819 380.439,-15.495 381.338,-22.437"/>
</a>
</g>
</g>
<!-- Node6&#45;&gt;Node4 -->
<g id="edge7_Node000006_Node000004" class="edge"><title>Node6&#45;&gt;Node4</title>
<g id="a_edge7_Node000006_Node000004"><a xlink:title=" ">
<path fill="none" stroke="#63b8ff" d="M519.002,-17.1733C529.403,-18.4401 540.174,-19.7519 550.536,-21.014"/>
<polygon fill="#63b8ff" stroke="#63b8ff" points="550.384,-24.5213 560.734,-22.2561 551.231,-17.5726 550.384,-24.5213"/>
</a>
</g>
</g>
</g>
</svg>
