<?xml version="1.0" encoding="UTF-8" standalone="no"?>
<!DOCTYPE svg PUBLIC "-//W3C//DTD SVG 1.1//EN"
 "http://www.w3.org/Graphics/SVG/1.1/DTD/svg11.dtd">
<!-- Generated by graphviz version 2.38.0 (20140413.2041)
 -->
<!-- Title: testset_hardcoded Pages: 1 -->
<svg width="894pt" height="474pt"
 viewBox="0.00 0.00 894.00 473.74" xmlns="http://www.w3.org/2000/svg" xmlns:xlink="http://www.w3.org/1999/xlink">
<g id="graph0" class="graph" transform="scale(1 1) rotate(0) translate(4 469.736)">
<title>testset_hardcoded</title>
<!-- Node1 -->
<g id="Node000001" class="node"><title>Node1</title>
<g id="a_Node000001"><a xlink:title=" ">
<polygon fill="#999999" stroke="#666666" points="97,-256 0,-256 0,-237 97,-237 97,-256"/>
<text text-anchor="middle" x="48.5" y="-244" font-family="Helvetica,sans-Serif" font-size="10.00">testset_hardcoded</text>
</a>
</g>
</g>
<!-- Node2 -->
<g id="Node000002" class="node"><title>Node2</title>
<g id="a_Node000002"><a xlink:href="testbench_8c.html#ae7a610c069c6000940838c6a1e11bb42" target="_top" xlink:title="Vytisknutí hodnoty v ADT pomocí iterátoru.">
<polygon fill="white" stroke="#666666" points="246,-427 133,-427 133,-408 246,-408 246,-427"/>
<text text-anchor="middle" x="189.5" y="-415" font-family="Helvetica,sans-Serif" font-size="10.00">print_value_by_iterator</text>
</a>
</g>
</g>
<!-- Node1&#45;&gt;Node2 -->
<g id="edge1_Node000001_Node000002" class="edge"><title>Node1&#45;&gt;Node2</title>
<g id="a_edge1_Node000001_Node000002"><a xlink:title=" ">
<path fill="none" stroke="#63b8ff" d="M52.5356,-256.136C61.0927,-281.857 87.7742,-352.93 133,-393.5 137.249,-397.312 142.197,-400.587 147.355,-403.381"/>
<polygon fill="#63b8ff" stroke="#63b8ff" points="146.232,-406.725 156.761,-407.905 149.266,-400.417 146.232,-406.725"/>
</a>
</g>
</g>
<!-- Node4 -->
<g id="Node000004" class="node"><title>Node4</title>
<g id="a_Node000004"><a xlink:href="group___t_set_iterator.html#ga3928a980e2759ba130ce333e77f15fab" target="_top" xlink:title="Přečtení hodnoty elementu z množiny pomocí iterátoru.">
<polygon fill="white" stroke="#666666" points="388,-389 296,-389 296,-370 388,-370 388,-389"/>
<text text-anchor="middle" x="342" y="-377" font-family="Helvetica,sans-Serif" font-size="10.00">set_iterator_value</text>
</a>
</g>
</g>
<!-- Node1&#45;&gt;Node4 -->
<g id="edge42_Node000001_Node000004" class="edge"><title>Node1&#45;&gt;Node4</title>
<g id="a_edge42_Node000001_Node000004"><a xlink:title=" ">
<path fill="none" stroke="#63b8ff" d="M53.6354,-256.158C63.6169,-278.147 91.3237,-331.859 133,-355.5 179.542,-381.901 241.33,-385.876 285.444,-384.486"/>
<polygon fill="#63b8ff" stroke="#63b8ff" points="285.851,-387.972 295.696,-384.057 285.558,-380.978 285.851,-387.972"/>
</a>
</g>
</g>
<!-- Node7 -->
<g id="Node000007" class="node"><title>Node7</title>
<g id="a_Node000007"><a xlink:href="group___t_set_iterator.html#ga089f24c81ac3da7d1ac7ca24cc078dd8" target="_top" xlink:title="Zjištění platnosti iterátoru.">
<polygon fill="white" stroke="#666666" points="555,-327 453,-327 453,-308 555,-308 555,-327"/>
<text text-anchor="middle" x="504" y="-315" font-family="Helvetica,sans-Serif" font-size="10.00">set_iterator_is_valid</text>
</a>
</g>
</g>
<!-- Node1&#45;&gt;Node7 -->
<g id="edge40_Node000001_Node000007" class="edge"><title>Node1&#45;&gt;Node7</title>
<g id="a_edge40_Node000001_Node000007"><a xlink:title=" ">
<path fill="none" stroke="#63b8ff" d="M56.4216,-256.174C69.2482,-273.177 98.5633,-307.906 133,-321.5 241.573,-364.36 382.421,-344.362 455.031,-329.145"/>
<polygon fill="#63b8ff" stroke="#63b8ff" points="455.775,-332.565 464.813,-327.037 454.3,-325.722 455.775,-332.565"/>
</a>
</g>
</g>
<!-- Node9 -->
<g id="Node000009" class="node"><title>Node9</title>
<g id="a_Node000009"><a xlink:href="group___t_set.html#ga8094d1ab68434b8413cd905895ff37ae" target="_top" xlink:title="Deinicializace množiny.">
<polygon fill="white" stroke="#666666" points="223.5,-237 155.5,-237 155.5,-218 223.5,-218 223.5,-237"/>
<text text-anchor="middle" x="189.5" y="-225" font-family="Helvetica,sans-Serif" font-size="10.00">set_destroy</text>
</a>
</g>
</g>
<!-- Node1&#45;&gt;Node9 -->
<g id="edge9_Node000001_Node000009" class="edge"><title>Node1&#45;&gt;Node9</title>
<g id="a_edge9_Node000001_Node000009"><a xlink:title=" ">
<path fill="none" stroke="#63b8ff" d="M97.3359,-239.961C112.905,-237.833 130.085,-235.485 145.294,-233.406"/>
<polygon fill="#63b8ff" stroke="#63b8ff" points="146.031,-236.838 155.465,-232.016 145.083,-229.902 146.031,-236.838"/>
</a>
</g>
</g>
<!-- Node11 -->
<g id="Node000011" class="node"><title>Node11</title>
<g id="a_Node000011"><a xlink:href="group___t_set.html#ga2a711b02282ff309c0d6a4fdcfbac738" target="_top" xlink:title="Odstranění elementu z množiny.">
<polygon fill="white" stroke="#666666" points="219,-163 160,-163 160,-144 219,-144 219,-163"/>
<text text-anchor="middle" x="189.5" y="-151" font-family="Helvetica,sans-Serif" font-size="10.00">set_erase</text>
</a>
</g>
</g>
<!-- Node1&#45;&gt;Node11 -->
<g id="edge12_Node000001_Node000011" class="edge"><title>Node1&#45;&gt;Node11</title>
<g id="a_edge12_Node000001_Node000011"><a xlink:title=" ">
<path fill="none" stroke="#63b8ff" d="M57.7712,-236.802C71.7471,-220.987 101.596,-189.594 133,-171.5 138.285,-168.455 144.155,-165.846 150.042,-163.637"/>
<polygon fill="#63b8ff" stroke="#63b8ff" points="151.528,-166.829 159.865,-160.291 149.27,-160.203 151.528,-166.829"/>
</a>
</g>
</g>
<!-- Node17 -->
<g id="Node000017" class="node"><title>Node17</title>
<g id="a_Node000017"><a xlink:href="group___iterator_algorithms.html#gab8ba369b42eda61d010f35df73be73db" target="_top" xlink:title="Zavolání zvolené funkce na každý element množiny od pozice určené iterátorem až do posledního element...">
<polygon fill="white" stroke="#666666" points="225.5,-313 153.5,-313 153.5,-294 225.5,-294 225.5,-313"/>
<text text-anchor="middle" x="189.5" y="-301" font-family="Helvetica,sans-Serif" font-size="10.00">set_for_each</text>
</a>
</g>
</g>
<!-- Node1&#45;&gt;Node17 -->
<g id="edge21_Node000001_Node000017" class="edge"><title>Node1&#45;&gt;Node17</title>
<g id="a_edge21_Node000001_Node000017"><a xlink:title=" ">
<path fill="none" stroke="#63b8ff" d="M72.7655,-256.041C95.5174,-265.37 130.368,-279.662 155.882,-290.124"/>
<polygon fill="#63b8ff" stroke="#63b8ff" points="154.578,-293.372 165.159,-293.928 157.234,-286.896 154.578,-293.372"/>
</a>
</g>
</g>
<!-- Node18 -->
<g id="Node000018" class="node"><title>Node18</title>
<g id="a_Node000018"><a xlink:href="group___t_set_iterator.html#ga6723a05c864198597ff49718020bd0d6" target="_top" xlink:title="Posunutí iterátoru vpřed.">
<polygon fill="white" stroke="#666666" points="393.5,-275 290.5,-275 290.5,-256 393.5,-256 393.5,-275"/>
<text text-anchor="middle" x="342" y="-263" font-family="Helvetica,sans-Serif" font-size="10.00">set_iterator_to_next</text>
</a>
</g>
</g>
<!-- Node1&#45;&gt;Node18 -->
<g id="edge41_Node000001_Node000018" class="edge"><title>Node1&#45;&gt;Node18</title>
<g id="a_edge41_Node000001_Node000018"><a xlink:title=" ">
<path fill="none" stroke="#63b8ff" d="M97.3089,-249.616C147.231,-252.87 225.686,-257.984 280.032,-261.526"/>
<polygon fill="#63b8ff" stroke="#63b8ff" points="280.019,-265.033 290.225,-262.19 280.474,-258.047 280.019,-265.033"/>
</a>
</g>
</g>
<!-- Node20 -->
<g id="Node000020" class="node"><title>Node20</title>
<g id="a_Node000020"><a xlink:href="group___t_set.html#ga674fb4a9d4cac982bca65b8b264b04b5" target="_top" xlink:title="Inicializace prázdné množiny.">
<polygon fill="white" stroke="#666666" points="213.5,-200 165.5,-200 165.5,-181 213.5,-181 213.5,-200"/>
<text text-anchor="middle" x="189.5" y="-188" font-family="Helvetica,sans-Serif" font-size="10.00">set_init</text>
</a>
</g>
</g>
<!-- Node1&#45;&gt;Node20 -->
<g id="edge28_Node000001_Node000020" class="edge"><title>Node1&#45;&gt;Node20</title>
<g id="a_edge28_Node000001_Node000020"><a xlink:title=" ">
<path fill="none" stroke="#63b8ff" d="M68.8035,-236.959C85.5582,-228.861 110.581,-217.205 133,-208.5 140.288,-205.67 148.226,-202.911 155.76,-200.436"/>
<polygon fill="#63b8ff" stroke="#63b8ff" points="156.887,-203.75 165.342,-197.366 154.751,-197.084 156.887,-203.75"/>
</a>
</g>
</g>
<!-- Node21 -->
<g id="Node000021" class="node"><title>Node21</title>
<g id="a_Node000021"><a xlink:href="group___t_set.html#ga0d1464cea78691ff9ad3dd1e32b55c60" target="_top" xlink:title="Vložení elementu do množiny.">
<polygon fill="white" stroke="#666666" points="219,-52 160,-52 160,-33 219,-33 219,-52"/>
<text text-anchor="middle" x="189.5" y="-40" font-family="Helvetica,sans-Serif" font-size="10.00">set_insert</text>
</a>
</g>
</g>
<!-- Node1&#45;&gt;Node21 -->
<g id="edge29_Node000001_Node000021" class="edge"><title>Node1&#45;&gt;Node21</title>
<g id="a_edge29_Node000001_Node000021"><a xlink:title=" ">
<path fill="none" stroke="#63b8ff" d="M51.026,-236.781C56.3421,-206.177 76.88,-110.847 133,-60.5 137.899,-56.1053 143.885,-52.7819 150.093,-50.2691"/>
<polygon fill="#63b8ff" stroke="#63b8ff" points="151.552,-53.4702 159.903,-46.9501 149.309,-46.8393 151.552,-53.4702"/>
</a>
</g>
</g>
<!-- Node24 -->
<g id="Node000024" class="node"><title>Node24</title>
<g id="a_Node000024"><a xlink:href="group___t_set.html#ga768d36614713a921e88985484ac63cc1" target="_top" xlink:title="Zjištění, zda množina obsahuje zadanou hodnotu elementu.">
<polygon fill="white" stroke="#666666" points="237,-89 142,-89 142,-70 237,-70 237,-89"/>
<text text-anchor="middle" x="189.5" y="-77" font-family="Helvetica,sans-Serif" font-size="10.00">set_is_element_of</text>
</a>
</g>
</g>
<!-- Node1&#45;&gt;Node24 -->
<g id="edge33_Node000001_Node000024" class="edge"><title>Node1&#45;&gt;Node24</title>
<g id="a_edge33_Node000001_Node000024"><a xlink:title=" ">
<path fill="none" stroke="#63b8ff" d="M52.1756,-236.874C59.9916,-210.529 85.3058,-136.609 133,-97.5 134.557,-96.2235 136.206,-95.0366 137.925,-93.9333"/>
<polygon fill="#63b8ff" stroke="#63b8ff" points="139.819,-96.8893 146.983,-89.0834 136.515,-90.7182 139.819,-96.8893"/>
</a>
</g>
</g>
<!-- Node25 -->
<g id="Node000025" class="node"><title>Node25</title>
<g id="a_Node000025"><a xlink:href="group___t_set.html#ga2f7fd9486a5c300158d70dc79c6c6c8f" target="_top" xlink:title="Zjištění, zda je množina prázdná">
<polygon fill="white" stroke="#666666" points="227,-126 152,-126 152,-107 227,-107 227,-126"/>
<text text-anchor="middle" x="189.5" y="-114" font-family="Helvetica,sans-Serif" font-size="10.00">set_is_empty</text>
</a>
</g>
</g>
<!-- Node1&#45;&gt;Node25 -->
<g id="edge35_Node000001_Node000025" class="edge"><title>Node1&#45;&gt;Node25</title>
<g id="a_edge35_Node000001_Node000025"><a xlink:title=" ">
<path fill="none" stroke="#63b8ff" d="M54.079,-236.823C64.7869,-215.223 93.5744,-162.759 133,-134.5 135.887,-132.431 139.024,-130.591 142.289,-128.956"/>
<polygon fill="#63b8ff" stroke="#63b8ff" points="143.938,-132.056 151.725,-124.872 141.158,-125.632 143.938,-132.056"/>
</a>
</g>
</g>
<!-- Node26 -->
<g id="Node000026" class="node"><title>Node26</title>
<g id="a_Node000026"><a xlink:href="group___t_set_iterator.html#gab11bafbe7585e4bb0bd9ff2353d77765" target="_top" xlink:title="Vytvoření nového iterátoru ukazujícího na první element množiny.">
<polygon fill="white" stroke="#666666" points="389,-464 295,-464 295,-445 389,-445 389,-464"/>
<text text-anchor="middle" x="342" y="-452" font-family="Helvetica,sans-Serif" font-size="10.00">set_iterator_begin</text>
</a>
</g>
</g>
<!-- Node1&#45;&gt;Node26 -->
<g id="edge37_Node000001_Node000026" class="edge"><title>Node1&#45;&gt;Node26</title>
<g id="a_edge37_Node000001_Node000026"><a xlink:title=" ">
<path fill="none" stroke="#63b8ff" d="M50.4193,-256.028C54.0404,-287.778 70.3615,-390.503 133,-435.5 176.579,-466.805 239.273,-468.268 284.425,-463.929"/>
<polygon fill="#63b8ff" stroke="#63b8ff" points="285.075,-467.379 294.639,-462.82 284.32,-460.42 285.075,-467.379"/>
</a>
</g>
</g>
<!-- Node3 -->
<g id="Node000003" class="node"><title>Node3</title>
<g id="a_Node000003"><a xlink:href="group___t_set_element_hashable.html#ga3473fca967dede884b1c910838f2d8df" target="_top" xlink:title="Uložení elementu do souboru.">
<polygon fill="white" stroke="#666666" points="399,-427 285,-427 285,-408 399,-408 399,-427"/>
<text text-anchor="middle" x="342" y="-415" font-family="Helvetica,sans-Serif" font-size="10.00">set_element_store_file</text>
</a>
</g>
</g>
<!-- Node2&#45;&gt;Node3 -->
<g id="edge2_Node000002_Node000003" class="edge"><title>Node2&#45;&gt;Node3</title>
<g id="a_edge2_Node000002_Node000003"><a xlink:title=" ">
<path fill="none" stroke="#63b8ff" d="M246.113,-417.5C255.398,-417.5 265.113,-417.5 274.634,-417.5"/>
<polygon fill="#63b8ff" stroke="#63b8ff" points="274.862,-421 284.862,-417.5 274.862,-414 274.862,-421"/>
</a>
</g>
</g>
<!-- Node2&#45;&gt;Node4 -->
<g id="edge3_Node000002_Node000004" class="edge"><title>Node2&#45;&gt;Node4</title>
<g id="a_edge3_Node000002_Node000004"><a xlink:title=" ">
<path fill="none" stroke="#63b8ff" d="M228.478,-407.911C248.159,-402.942 272.391,-396.823 293.321,-391.539"/>
<polygon fill="#63b8ff" stroke="#63b8ff" points="294.457,-394.862 303.296,-389.02 292.743,-388.075 294.457,-394.862"/>
</a>
</g>
</g>
<!-- Node5 -->
<g id="Node000005" class="node"><title>Node5</title>
<g id="a_Node000005"><a xlink:href="group___t_set_hash_table.html#gaf6b548ed4295b1a4789d073b8a43db58" target="_top" xlink:title="Přečtení hodnoty elementu z platné přihrádky v hašovací tabulce.">
<polygon fill="white" stroke="#666666" points="731,-357.5 621,-357.5 621,-327.5 731,-327.5 731,-357.5"/>
<text text-anchor="start" x="629" y="-345.5" font-family="Helvetica,sans-Serif" font-size="10.00">set_hash_table_value</text>
<text text-anchor="middle" x="676" y="-334.5" font-family="Helvetica,sans-Serif" font-size="10.00">_at_pos</text>
</a>
</g>
</g>
<!-- Node4&#45;&gt;Node5 -->
<g id="edge4_Node000004_Node000005" class="edge"><title>Node4&#45;&gt;Node5</title>
<g id="a_edge4_Node000004_Node000005"><a xlink:title=" ">
<path fill="none" stroke="#63b8ff" d="M388.121,-374.472C445.592,-368.067 545.284,-356.956 610.698,-349.666"/>
<polygon fill="#63b8ff" stroke="#63b8ff" points="611.34,-353.116 620.891,-348.53 610.565,-346.159 611.34,-353.116"/>
</a>
</g>
</g>
<!-- Node4&#45;&gt;Node7 -->
<g id="edge6_Node000004_Node000007" class="edge"><title>Node4&#45;&gt;Node7</title>
<g id="a_edge6_Node000004_Node000007"><a xlink:title=" ">
<path fill="none" stroke="#63b8ff" d="M367.649,-369.948C394.78,-359.435 438.57,-342.467 468.963,-330.689"/>
<polygon fill="#63b8ff" stroke="#63b8ff" points="470.263,-333.939 478.323,-327.062 467.734,-327.412 470.263,-333.939"/>
</a>
</g>
</g>
<!-- Node6 -->
<g id="Node000006" class="node"><title>Node6</title>
<g id="a_Node000006"><a xlink:href="_t_set_hash_table_open_addr_8c.html#aa4a90f23bbdbe5bb71a49d7df2ee5fc1" target="_top" xlink:title="Funkce vracející hodnotu reprezentující smazanou přihrádku.">
<polygon fill="white" stroke="#666666" points="886,-256.5 782,-256.5 782,-226.5 886,-226.5 886,-256.5"/>
<text text-anchor="start" x="790" y="-244.5" font-family="Helvetica,sans-Serif" font-size="10.00">calc_erased_bucket</text>
<text text-anchor="middle" x="834" y="-233.5" font-family="Helvetica,sans-Serif" font-size="10.00">_marker</text>
</a>
</g>
</g>
<!-- Node5&#45;&gt;Node6 -->
<g id="edge5_Node000005_Node000006" class="edge"><title>Node5&#45;&gt;Node6</title>
<g id="a_edge5_Node000005_Node000006"><a xlink:title=" ">
<path fill="none" stroke="#63b8ff" d="M700.355,-327.379C727.199,-309.999 771.397,-281.384 801.325,-262.007"/>
<polygon fill="#63b8ff" stroke="#63b8ff" points="803.249,-264.932 809.741,-256.559 799.444,-259.056 803.249,-264.932"/>
</a>
</g>
</g>
<!-- Node8 -->
<g id="Node000008" class="node"><title>Node8</title>
<g id="a_Node000008"><a xlink:href="group___t_set_hash_table.html#ga891b531cc6373331e55101f2dd75ac4a" target="_top" xlink:title="Zjištění platnosti pozice v hašovací tabulce.">
<polygon fill="white" stroke="#666666" points="746,-289 606,-289 606,-270 746,-270 746,-289"/>
<text text-anchor="middle" x="676" y="-277" font-family="Helvetica,sans-Serif" font-size="10.00">set_hash_table_is_valid_pos</text>
</a>
</g>
</g>
<!-- Node7&#45;&gt;Node8 -->
<g id="edge7_Node000007_Node000008" class="edge"><title>Node7&#45;&gt;Node8</title>
<g id="a_edge7_Node000007_Node000008"><a xlink:title=" ">
<path fill="none" stroke="#63b8ff" d="M547.898,-307.911C570.534,-302.851 598.498,-296.6 622.429,-291.251"/>
<polygon fill="#63b8ff" stroke="#63b8ff" points="623.415,-294.617 632.41,-289.02 621.888,-287.786 623.415,-294.617"/>
</a>
</g>
</g>
<!-- Node8&#45;&gt;Node6 -->
<g id="edge8_Node000008_Node000006" class="edge"><title>Node8&#45;&gt;Node6</title>
<g id="a_edge8_Node000008_Node000006"><a xlink:title=" ">
<path fill="none" stroke="#63b8ff" d="M716.365,-269.911C733.198,-265.811 753.241,-260.928 771.924,-256.377"/>
<polygon fill="#63b8ff" stroke="#63b8ff" points="772.951,-259.73 781.839,-253.962 771.294,-252.929 772.951,-259.73"/>
</a>
</g>
</g>
<!-- Node10 -->
<g id="Node000010" class="node"><title>Node10</title>
<g id="a_Node000010"><a xlink:href="group___t_set_hash_table.html#ga1562a195e21d46896e078ba7e555042b" target="_top" xlink:title="Deinicializace hašovací tabulky.">
<polygon fill="white" stroke="#666666" points="402,-213 282,-213 282,-194 402,-194 402,-213"/>
<text text-anchor="middle" x="342" y="-201" font-family="Helvetica,sans-Serif" font-size="10.00">set_hash_table_destroy</text>
</a>
</g>
</g>
<!-- Node9&#45;&gt;Node10 -->
<g id="edge10_Node000009_Node000010" class="edge"><title>Node9&#45;&gt;Node10</title>
<g id="a_edge10_Node000009_Node000010"><a xlink:title=" ">
<path fill="none" stroke="#63b8ff" d="M223.528,-222.233C237.85,-219.949 255.188,-217.184 272.096,-214.488"/>
<polygon fill="#63b8ff" stroke="#63b8ff" points="272.652,-217.944 281.976,-212.913 271.549,-211.031 272.652,-217.944"/>
</a>
</g>
</g>
<!-- Node10&#45;&gt;Node6 -->
<g id="edge11_Node000010_Node000006" class="edge"><title>Node10&#45;&gt;Node6</title>
<g id="a_edge11_Node000010_Node000006"><a xlink:title=" ">
<path fill="none" stroke="#63b8ff" d="M402.105,-208.084C495.676,-215.34 677.007,-229.403 771.843,-236.757"/>
<polygon fill="#63b8ff" stroke="#63b8ff" points="771.616,-240.25 781.856,-237.534 772.157,-233.271 771.616,-240.25"/>
</a>
</g>
</g>
<!-- Node11&#45;&gt;Node10 -->
<g id="edge13_Node000011_Node000010" class="edge"><title>Node11&#45;&gt;Node10</title>
<g id="a_edge13_Node000011_Node000010"><a xlink:title=" ">
<path fill="none" stroke="#63b8ff" d="M219.04,-162.688C227.705,-165.496 237.248,-168.607 246,-171.5 264.786,-177.71 285.622,-184.715 302.983,-190.585"/>
<polygon fill="#63b8ff" stroke="#63b8ff" points="302.167,-194.004 312.761,-193.895 304.411,-187.373 302.167,-194.004"/>
</a>
</g>
</g>
<!-- Node12 -->
<g id="Node000012" class="node"><title>Node12</title>
<g id="a_Node000012"><a xlink:href="group___t_set_hash_table.html#gaee3600d3134fc51a78e4142bbdc0ba2b" target="_top" xlink:title="Odstranění elementu z hašovací tabulky.">
<polygon fill="white" stroke="#666666" points="398,-169 286,-169 286,-150 398,-150 398,-169"/>
<text text-anchor="middle" x="342" y="-157" font-family="Helvetica,sans-Serif" font-size="10.00">set_hash_table_erase</text>
</a>
</g>
</g>
<!-- Node11&#45;&gt;Node12 -->
<g id="edge14_Node000011_Node000012" class="edge"><title>Node11&#45;&gt;Node12</title>
<g id="a_edge14_Node000011_Node000012"><a xlink:title=" ">
<path fill="none" stroke="#63b8ff" d="M219.162,-154.643C235.212,-155.283 255.925,-156.108 275.703,-156.897"/>
<polygon fill="#63b8ff" stroke="#63b8ff" points="275.8,-160.403 285.931,-157.305 276.079,-153.409 275.8,-160.403"/>
</a>
</g>
</g>
<!-- Node16 -->
<g id="Node000016" class="node"><title>Node16</title>
<g id="a_Node000016"><a xlink:href="group___t_set.html#ga213cfb714cece49d955fc452b2aeb186" target="_top" xlink:title="Přečtení počtu elementů množiny.">
<polygon fill="white" stroke="#666666" points="368.5,-132 315.5,-132 315.5,-113 368.5,-113 368.5,-132"/>
<text text-anchor="middle" x="342" y="-120" font-family="Helvetica,sans-Serif" font-size="10.00">set_size</text>
</a>
</g>
</g>
<!-- Node11&#45;&gt;Node16 -->
<g id="edge20_Node000011_Node000016" class="edge"><title>Node11&#45;&gt;Node16</title>
<g id="a_edge20_Node000011_Node000016"><a xlink:title=" ">
<path fill="none" stroke="#63b8ff" d="M219.162,-147.596C243.707,-142.54 279.154,-135.239 305.492,-129.814"/>
<polygon fill="#63b8ff" stroke="#63b8ff" points="306.364,-133.208 315.452,-127.762 304.952,-126.352 306.364,-133.208"/>
</a>
</g>
</g>
<!-- Node12&#45;&gt;Node6 -->
<g id="edge15_Node000012_Node000006" class="edge"><title>Node12&#45;&gt;Node6</title>
<g id="a_edge15_Node000012_Node000006"><a xlink:title=" ">
<path fill="none" stroke="#63b8ff" d="M398.014,-166.291C475.844,-176.247 622.395,-196.275 746,-220.5 754.329,-222.132 763.065,-224.024 771.655,-225.991"/>
<polygon fill="#63b8ff" stroke="#63b8ff" points="771.104,-229.456 781.638,-228.322 772.696,-222.64 771.104,-229.456"/>
</a>
</g>
</g>
<!-- Node13 -->
<g id="Node000013" class="node"><title>Node13</title>
<g id="a_Node000013"><a xlink:href="group___t_set_hash_table.html#ga69c2697abdd49b443ea76077058df6b0" target="_top" xlink:title="Vyhledání elementu o zadané hodnotě v hašovací tabulce využívající otevřené adresování">
<polygon fill="white" stroke="#666666" points="562.5,-94 445.5,-94 445.5,-75 562.5,-75 562.5,-94"/>
<text text-anchor="middle" x="504" y="-82" font-family="Helvetica,sans-Serif" font-size="10.00">set_hash_table_search</text>
</a>
</g>
</g>
<!-- Node12&#45;&gt;Node13 -->
<g id="edge16_Node000012_Node000013" class="edge"><title>Node12&#45;&gt;Node13</title>
<g id="a_edge16_Node000012_Node000013"><a xlink:title=" ">
<path fill="none" stroke="#63b8ff" d="M376.496,-149.962C384.94,-147.219 393.903,-144.008 402,-140.5 429.316,-128.663 458.923,-111.718 478.974,-99.5724"/>
<polygon fill="#63b8ff" stroke="#63b8ff" points="481.037,-102.413 487.734,-94.2024 477.379,-96.4447 481.037,-102.413"/>
</a>
</g>
</g>
<!-- Node13&#45;&gt;Node6 -->
<g id="edge17_Node000013_Node000006" class="edge"><title>Node13&#45;&gt;Node6</title>
<g id="a_edge17_Node000013_Node000006"><a xlink:title=" ">
<path fill="none" stroke="#63b8ff" d="M551.033,-94.0253C611.307,-107.019 713.163,-130.924 746,-150.5 774.912,-167.736 800.523,-197.166 816.341,-217.881"/>
<polygon fill="#63b8ff" stroke="#63b8ff" points="813.726,-220.23 822.502,-226.165 819.343,-216.052 813.726,-220.23"/>
</a>
</g>
</g>
<!-- Node14 -->
<g id="Node000014" class="node"><title>Node14</title>
<g id="a_Node000014"><a xlink:href="group___t_set_element_hashable.html#gad8cfc9a36f36c44c10b660c5b370f67e" target="_top" xlink:title="Porovnání dvou elementů">
<polygon fill="white" stroke="#666666" points="738,-95 614,-95 614,-76 738,-76 738,-95"/>
<text text-anchor="middle" x="676" y="-83" font-family="Helvetica,sans-Serif" font-size="10.00">set_element_comparator</text>
</a>
</g>
</g>
<!-- Node13&#45;&gt;Node14 -->
<g id="edge18_Node000013_Node000014" class="edge"><title>Node13&#45;&gt;Node14</title>
<g id="a_edge18_Node000013_Node000014"><a xlink:title=" ">
<path fill="none" stroke="#63b8ff" d="M562.554,-84.8386C575.68,-84.9158 589.784,-84.9987 603.416,-85.0789"/>
<polygon fill="#63b8ff" stroke="#63b8ff" points="603.703,-88.5806 613.724,-85.1396 603.744,-81.5807 603.703,-88.5806"/>
</a>
</g>
</g>
<!-- Node15 -->
<g id="Node000015" class="node"><title>Node15</title>
<g id="a_Node000015"><a xlink:href="group___t_set_element_hashable.html#ga4a88e3b3d94aa8fa572cf07764d843e0" target="_top" xlink:title="Výpočet hash hodnoty elementu.">
<polygon fill="white" stroke="#666666" points="737.5,-58 614.5,-58 614.5,-39 737.5,-39 737.5,-58"/>
<text text-anchor="middle" x="676" y="-46" font-family="Helvetica,sans-Serif" font-size="10.00">set_element_hash_value</text>
</a>
</g>
</g>
<!-- Node13&#45;&gt;Node15 -->
<g id="edge19_Node000013_Node000015" class="edge"><title>Node13&#45;&gt;Node15</title>
<g id="a_edge19_Node000013_Node000015"><a xlink:title=" ">
<path fill="none" stroke="#63b8ff" d="M550.111,-74.9472C571.618,-70.3927 597.531,-64.9051 620.166,-60.112"/>
<polygon fill="#63b8ff" stroke="#63b8ff" points="620.916,-63.5308 629.974,-58.0349 619.466,-56.6827 620.916,-63.5308"/>
</a>
</g>
</g>
<!-- Node17&#45;&gt;Node7 -->
<g id="edge22_Node000017_Node000007" class="edge"><title>Node17&#45;&gt;Node7</title>
<g id="a_edge22_Node000017_Node000007"><a xlink:title=" ">
<path fill="none" stroke="#63b8ff" d="M225.74,-305.079C278.468,-307.441 378.567,-311.925 442.965,-314.81"/>
<polygon fill="#63b8ff" stroke="#63b8ff" points="442.834,-318.308 452.981,-315.259 443.148,-311.315 442.834,-318.308"/>
</a>
</g>
</g>
<!-- Node17&#45;&gt;Node18 -->
<g id="edge23_Node000017_Node000018" class="edge"><title>Node17&#45;&gt;Node18</title>
<g id="a_edge23_Node000017_Node000018"><a xlink:title=" ">
<path fill="none" stroke="#63b8ff" d="M225.786,-294.591C245.977,-289.492 271.577,-283.029 293.515,-277.489"/>
<polygon fill="#63b8ff" stroke="#63b8ff" points="294.466,-280.859 303.305,-275.018 292.752,-274.072 294.466,-280.859"/>
</a>
</g>
</g>
<!-- Node18&#45;&gt;Node7 -->
<g id="edge27_Node000018_Node000007" class="edge"><title>Node18&#45;&gt;Node7</title>
<g id="a_edge27_Node000018_Node000007"><a xlink:title=" ">
<path fill="none" stroke="#63b8ff" d="M372.346,-275.038C398.09,-283.404 435.722,-295.635 463.994,-304.823"/>
<polygon fill="#63b8ff" stroke="#63b8ff" points="462.977,-308.173 473.569,-307.935 465.141,-301.515 462.977,-308.173"/>
</a>
</g>
</g>
<!-- Node18&#45;&gt;Node8 -->
<g id="edge24_Node000018_Node000008" class="edge"><title>Node18&#45;&gt;Node8</title>
<g id="a_edge24_Node000018_Node000008"><a xlink:title=" ">
<path fill="none" stroke="#63b8ff" d="M393.785,-267.642C447.47,-269.905 532.879,-273.507 595.5,-276.148"/>
<polygon fill="#63b8ff" stroke="#63b8ff" points="595.598,-279.655 605.737,-276.579 595.893,-272.661 595.598,-279.655"/>
</a>
</g>
</g>
<!-- Node19 -->
<g id="Node000019" class="node"><title>Node19</title>
<g id="a_Node000019"><a xlink:href="group___t_set_hash_table.html#ga9218e24d2cc5a61596c4a45ef76f4c75" target="_top" xlink:title="Výpočet následující pozice platné přihrádky v hašovací tabulce.">
<polygon fill="white" stroke="#666666" points="568,-251 440,-251 440,-232 568,-232 568,-251"/>
<text text-anchor="middle" x="504" y="-239" font-family="Helvetica,sans-Serif" font-size="10.00">set_hash_table_next_pos</text>
</a>
</g>
</g>
<!-- Node18&#45;&gt;Node19 -->
<g id="edge25_Node000018_Node000019" class="edge"><title>Node18&#45;&gt;Node19</title>
<g id="a_edge25_Node000018_Node000019"><a xlink:title=" ">
<path fill="none" stroke="#63b8ff" d="M393.625,-257.906C405.069,-256.19 417.445,-254.333 429.614,-252.508"/>
<polygon fill="#63b8ff" stroke="#63b8ff" points="430.394,-255.93 439.764,-250.985 429.355,-249.008 430.394,-255.93"/>
</a>
</g>
</g>
<!-- Node19&#45;&gt;Node6 -->
<g id="edge26_Node000019_Node000006" class="edge"><title>Node19&#45;&gt;Node6</title>
<g id="a_edge26_Node000019_Node000006"><a xlink:title=" ">
<path fill="none" stroke="#63b8ff" d="M568.242,-241.5C626.897,-241.5 713.627,-241.5 771.664,-241.5"/>
<polygon fill="#63b8ff" stroke="#63b8ff" points="771.795,-245 781.795,-241.5 771.795,-238 771.795,-245"/>
</a>
</g>
</g>
<!-- Node22 -->
<g id="Node000022" class="node"><title>Node22</title>
<g id="a_Node000022"><a xlink:href="group___t_set_hash_table.html#gaa2a0e99e7960542538a8d251c488b808" target="_top" xlink:title="Inicializace hašovací tabulky.">
<polygon fill="white" stroke="#666666" points="392.5,-56 291.5,-56 291.5,-37 392.5,-37 392.5,-56"/>
<text text-anchor="middle" x="342" y="-44" font-family="Helvetica,sans-Serif" font-size="10.00">set_hash_table_init</text>
</a>
</g>
</g>
<!-- Node21&#45;&gt;Node22 -->
<g id="edge30_Node000021_Node000022" class="edge"><title>Node21&#45;&gt;Node22</title>
<g id="a_edge30_Node000021_Node000022"><a xlink:title=" ">
<path fill="none" stroke="#63b8ff" d="M219.162,-43.2618C236.759,-43.7295 259.958,-44.3461 281.388,-44.9156"/>
<polygon fill="#63b8ff" stroke="#63b8ff" points="281.318,-48.4149 291.407,-45.1819 281.504,-41.4174 281.318,-48.4149"/>
</a>
</g>
</g>
<!-- Node23 -->
<g id="Node000023" class="node"><title>Node23</title>
<g id="a_Node000023"><a xlink:href="group___t_set_hash_table.html#gaa4327c29b178abf7b79112463e1f9fb0" target="_top" xlink:title="Vložení elementu do hašovací tabulky.">
<polygon fill="white" stroke="#666666" points="398,-19 286,-19 286,-0 398,-0 398,-19"/>
<text text-anchor="middle" x="342" y="-7" font-family="Helvetica,sans-Serif" font-size="10.00">set_hash_table_insert</text>
</a>
</g>
</g>
<!-- Node21&#45;&gt;Node23 -->
<g id="edge31_Node000021_Node000023" class="edge"><title>Node21&#45;&gt;Node23</title>
<g id="a_edge31_Node000021_Node000023"><a xlink:title=" ">
<path fill="none" stroke="#63b8ff" d="M219.162,-36.2153C238.478,-31.9799 264.546,-26.2641 287.612,-21.2063"/>
<polygon fill="#63b8ff" stroke="#63b8ff" points="288.605,-24.5717 297.624,-19.0111 287.106,-17.7342 288.605,-24.5717"/>
</a>
</g>
</g>
<!-- Node23&#45;&gt;Node13 -->
<g id="edge32_Node000023_Node000013" class="edge"><title>Node23&#45;&gt;Node13</title>
<g id="a_edge32_Node000023_Node000013"><a xlink:title=" ">
<path fill="none" stroke="#63b8ff" d="M378.704,-19.0248C386.497,-21.4804 394.618,-24.3356 402,-27.5 429.798,-39.4155 459.748,-56.9724 479.753,-69.448"/>
<polygon fill="#63b8ff" stroke="#63b8ff" points="478.138,-72.5678 488.462,-74.9503 481.878,-66.65 478.138,-72.5678"/>
</a>
</g>
</g>
<!-- Node24&#45;&gt;Node13 -->
<g id="edge34_Node000024_Node000013" class="edge"><title>Node24&#45;&gt;Node13</title>
<g id="a_edge34_Node000024_Node000013"><a xlink:title=" ">
<path fill="none" stroke="#63b8ff" d="M237.284,-80.2486C289.756,-81.0881 375.326,-82.4572 435.142,-83.4143"/>
<polygon fill="#63b8ff" stroke="#63b8ff" points="435.198,-86.9155 445.253,-83.576 435.31,-79.9164 435.198,-86.9155"/>
</a>
</g>
</g>
<!-- Node25&#45;&gt;Node16 -->
<g id="edge36_Node000025_Node000016" class="edge"><title>Node25&#45;&gt;Node16</title>
<g id="a_edge36_Node000025_Node000016"><a xlink:title=" ">
<path fill="none" stroke="#63b8ff" d="M227.316,-117.968C251.012,-118.912 281.658,-120.134 305.16,-121.071"/>
<polygon fill="#63b8ff" stroke="#63b8ff" points="305.273,-124.578 315.404,-121.48 305.552,-117.584 305.273,-124.578"/>
</a>
</g>
</g>
<!-- Node27 -->
<g id="Node000027" class="node"><title>Node27</title>
<g id="a_Node000027"><a xlink:href="group___t_set_hash_table.html#ga6ae8410d0c50fb9f3104838bafdbc906" target="_top" xlink:title="Výpočet první platné pozice v hašovací tabulce.">
<polygon fill="white" stroke="#666666" points="570,-437 438,-437 438,-418 570,-418 570,-437"/>
<text text-anchor="middle" x="504" y="-425" font-family="Helvetica,sans-Serif" font-size="10.00">set_hash_table_begin_pos</text>
</a>
</g>
</g>
<!-- Node26&#45;&gt;Node27 -->
<g id="edge38_Node000026_Node000027" class="edge"><title>Node26&#45;&gt;Node27</title>
<g id="a_edge38_Node000026_Node000027"><a xlink:title=" ">
<path fill="none" stroke="#63b8ff" d="M389.279,-446.69C403.966,-444.212 420.51,-441.42 436.337,-438.749"/>
<polygon fill="#63b8ff" stroke="#63b8ff" points="437.329,-442.131 446.608,-437.016 436.165,-435.229 437.329,-442.131"/>
</a>
</g>
</g>
<!-- Node27&#45;&gt;Node6 -->
<g id="edge39_Node000027_Node000006" class="edge"><title>Node27&#45;&gt;Node6</title>
<g id="a_edge39_Node000027_Node000006"><a xlink:title=" ">
<path fill="none" stroke="#63b8ff" d="M570.229,-423.407C621.864,-417.407 693.74,-402.664 746,-366.5 782.759,-341.063 808.91,-294.706 822.433,-266.154"/>
<polygon fill="#63b8ff" stroke="#63b8ff" points="825.707,-267.411 826.686,-256.861 819.342,-264.498 825.707,-267.411"/>
</a>
</g>
</g>
</g>
</svg>
