<?xml version="1.0" encoding="UTF-8" standalone="no"?>
<!DOCTYPE svg PUBLIC "-//W3C//DTD SVG 1.1//EN"
 "http://www.w3.org/Graphics/SVG/1.1/DTD/svg11.dtd">
<!-- Generated by graphviz version 2.38.0 (20140413.2041)
 -->
<!-- Title: set_for_each Pages: 1 -->
<svg width="375pt" height="65pt"
 viewBox="0.00 0.00 375.00 65.00" xmlns="http://www.w3.org/2000/svg" xmlns:xlink="http://www.w3.org/1999/xlink">
<g id="graph0" class="graph" transform="scale(1 1) rotate(0) translate(4 61)">
<title>set_for_each</title>
<!-- Node1 -->
<g id="Node000001" class="node"><title>Node1</title>
<g id="a_Node000001"><a xlink:title="Zavolání zvolené funkce na každý element množiny od pozice určené iterátorem až do posledního element...">
<polygon fill="#999999" stroke="#666666" points="367,-38 295,-38 295,-19 367,-19 367,-38"/>
<text text-anchor="middle" x="331" y="-26" font-family="Helvetica,sans-Serif" font-size="10.00">set_for_each</text>
</a>
</g>
</g>
<!-- Node2 -->
<g id="Node000002" class="node"><title>Node2</title>
<g id="a_Node000002"><a xlink:href="testbench_8c.html#a068734a4e1d6209769e0c6b1675ca02b" target="_top" xlink:title="Provedení jednoho test z testovacího plánu na předaném ADT.">
<polygon fill="white" stroke="#666666" points="259,-57 207,-57 207,-38 259,-38 259,-57"/>
<text text-anchor="middle" x="233" y="-45" font-family="Helvetica,sans-Serif" font-size="10.00">test_run</text>
</a>
</g>
</g>
<!-- Node1&#45;&gt;Node2 -->
<g id="edge1_Node000001_Node000002" class="edge"><title>Node1&#45;&gt;Node2</title>
<g id="a_edge1_Node000001_Node000002"><a xlink:title=" ">
<path fill="none" stroke="#63b8ff" d="M284.956,-37.4149C276.132,-39.1613 267.174,-40.9342 259.282,-42.4963"/>
<polygon fill="#63b8ff" stroke="#63b8ff" points="285.668,-40.842 294.798,-35.467 284.309,-33.9752 285.668,-40.842"/>
</a>
</g>
</g>
<!-- Node5 -->
<g id="Node000005" class="node"><title>Node5</title>
<g id="a_Node000005"><a xlink:href="group___main_program.html#ga2762b0417283abc168151cbffee8216c" target="_top" xlink:title=" ">
<polygon fill="white" stroke="#666666" points="171,-19 74,-19 74,-0 171,-0 171,-19"/>
<text text-anchor="middle" x="122.5" y="-7" font-family="Helvetica,sans-Serif" font-size="10.00">testset_hardcoded</text>
</a>
</g>
</g>
<!-- Node1&#45;&gt;Node5 -->
<g id="edge4_Node000001_Node000005" class="edge"><title>Node1&#45;&gt;Node5</title>
<g id="a_edge4_Node000001_Node000005"><a xlink:title=" ">
<path fill="none" stroke="#63b8ff" d="M284.944,-24.3544C251.287,-21.2576 205.377,-17.0335 171.118,-13.8813"/>
<polygon fill="#63b8ff" stroke="#63b8ff" points="284.691,-27.8459 294.97,-25.2769 285.333,-20.8753 284.691,-27.8459"/>
</a>
</g>
</g>
<!-- Node3 -->
<g id="Node000003" class="node"><title>Node3</title>
<g id="a_Node000003"><a xlink:href="testbench_8c.html#a2fa1559684d267665b1c2433208511d3" target="_top" xlink:title="Provedení všech testů zadaného testovacího plánu na předaném ADT.">
<polygon fill="white" stroke="#666666" points="161.5,-56 83.5,-56 83.5,-37 161.5,-37 161.5,-56"/>
<text text-anchor="middle" x="122.5" y="-44" font-family="Helvetica,sans-Serif" font-size="10.00">testbench_run</text>
</a>
</g>
</g>
<!-- Node2&#45;&gt;Node3 -->
<g id="edge2_Node000002_Node000003" class="edge"><title>Node2&#45;&gt;Node3</title>
<g id="a_edge2_Node000002_Node000003"><a xlink:title=" ">
<path fill="none" stroke="#63b8ff" d="M196.584,-47.1736C185.427,-47.0708 173.057,-46.9567 161.715,-46.8522"/>
<polygon fill="#63b8ff" stroke="#63b8ff" points="196.803,-50.6757 206.835,-47.2681 196.868,-43.676 196.803,-50.6757"/>
</a>
</g>
</g>
<!-- Node4 -->
<g id="Node000004" class="node"><title>Node4</title>
<g id="a_Node000004"><a xlink:href="group___main_program.html#ga0ddf1224851353fc92bfbff6f499fa97" target="_top" xlink:title=" ">
<polygon fill="white" stroke="#666666" points="38,-37 0,-37 0,-18 38,-18 38,-37"/>
<text text-anchor="middle" x="19" y="-25" font-family="Helvetica,sans-Serif" font-size="10.00">main</text>
</a>
</g>
</g>
<!-- Node3&#45;&gt;Node4 -->
<g id="edge3_Node000003_Node000004" class="edge"><title>Node3&#45;&gt;Node4</title>
<g id="a_edge3_Node000003_Node000004"><a xlink:title=" ">
<path fill="none" stroke="#63b8ff" d="M73.4255,-37.5008C60.8348,-35.144 48.0239,-32.7458 38.1041,-30.8889"/>
<polygon fill="#63b8ff" stroke="#63b8ff" points="72.9431,-40.9712 83.4164,-39.371 74.2311,-34.0908 72.9431,-40.9712"/>
</a>
</g>
</g>
<!-- Node5&#45;&gt;Node4 -->
<g id="edge5_Node000005_Node000004" class="edge"><title>Node5&#45;&gt;Node4</title>
<g id="a_edge5_Node000005_Node000004"><a xlink:title=" ">
<path fill="none" stroke="#63b8ff" d="M63.7308,-19.7448C54.5822,-21.3672 45.7439,-22.9346 38.4361,-24.2306"/>
<polygon fill="#63b8ff" stroke="#63b8ff" points="64.4869,-23.1654 73.7221,-17.9729 63.2646,-16.2729 64.4869,-23.1654"/>
</a>
</g>
</g>
</g>
</svg>
