<?xml version="1.0" encoding="UTF-8" standalone="no"?>
<!DOCTYPE svg PUBLIC "-//W3C//DTD SVG 1.1//EN"
 "http://www.w3.org/Graphics/SVG/1.1/DTD/svg11.dtd">
<!-- Generated by graphviz version 2.38.0 (20140413.2041)
 -->
<!-- Title: set_hash_table_value_at_pos Pages: 1 -->
<svg width="716pt" height="65pt"
 viewBox="0.00 0.00 716.00 65.00" xmlns="http://www.w3.org/2000/svg" xmlns:xlink="http://www.w3.org/1999/xlink">
<g id="graph0" class="graph" transform="scale(1 1) rotate(0) translate(4 61)">
<title>set_hash_table_value_at_pos</title>
<!-- Node1 -->
<g id="Node000001" class="node"><title>Node1</title>
<g id="a_Node000001"><a xlink:title="Přečtení hodnoty elementu z platné přihrádky v hašovací tabulce.">
<polygon fill="#999999" stroke="#666666" points="708,-43.5 598,-43.5 598,-13.5 708,-13.5 708,-43.5"/>
<text text-anchor="start" x="606" y="-31.5" font-family="Helvetica,sans-Serif" font-size="10.00">set_hash_table_value</text>
<text text-anchor="middle" x="653" y="-20.5" font-family="Helvetica,sans-Serif" font-size="10.00">_at_pos</text>
</a>
</g>
</g>
<!-- Node2 -->
<g id="Node000002" class="node"><title>Node2</title>
<g id="a_Node000002"><a xlink:href="group___t_set_iterator.html#ga3928a980e2759ba130ce333e77f15fab" target="_top" xlink:title="Přečtení hodnoty elementu z množiny pomocí iterátoru.">
<polygon fill="white" stroke="#666666" points="562,-38 470,-38 470,-19 562,-19 562,-38"/>
<text text-anchor="middle" x="516" y="-26" font-family="Helvetica,sans-Serif" font-size="10.00">set_iterator_value</text>
</a>
</g>
</g>
<!-- Node1&#45;&gt;Node2 -->
<g id="edge1_Node000001_Node000002" class="edge"><title>Node1&#45;&gt;Node2</title>
<g id="a_edge1_Node000001_Node000002"><a xlink:title=" ">
<path fill="none" stroke="#63b8ff" d="M587.739,-28.5C579.054,-28.5 570.296,-28.5 562.044,-28.5"/>
<polygon fill="#63b8ff" stroke="#63b8ff" points="587.868,-32.0001 597.868,-28.5 587.868,-25.0001 587.868,-32.0001"/>
</a>
</g>
</g>
<!-- Node3 -->
<g id="Node000003" class="node"><title>Node3</title>
<g id="a_Node000003"><a xlink:href="testbench_8c.html#ae7a610c069c6000940838c6a1e11bb42" target="_top" xlink:title="Vytisknutí hodnoty v ADT pomocí iterátoru.">
<polygon fill="white" stroke="#666666" points="434,-57 321,-57 321,-38 434,-38 434,-57"/>
<text text-anchor="middle" x="377.5" y="-45" font-family="Helvetica,sans-Serif" font-size="10.00">print_value_by_iterator</text>
</a>
</g>
</g>
<!-- Node2&#45;&gt;Node3 -->
<g id="edge2_Node000002_Node000003" class="edge"><title>Node2&#45;&gt;Node3</title>
<g id="a_edge2_Node000002_Node000003"><a xlink:title=" ">
<path fill="none" stroke="#63b8ff" d="M459.888,-36.1713C451.517,-37.3365 442.872,-38.5398 434.483,-39.7075"/>
<polygon fill="#63b8ff" stroke="#63b8ff" points="460.505,-39.6193 469.926,-34.774 459.539,-32.6861 460.505,-39.6193"/>
</a>
</g>
</g>
<!-- Node7 -->
<g id="Node000007" class="node"><title>Node7</title>
<g id="a_Node000007"><a xlink:href="group___main_program.html#ga2762b0417283abc168151cbffee8216c" target="_top" xlink:title=" ">
<polygon fill="white" stroke="#666666" points="285,-19 188,-19 188,-0 285,-0 285,-19"/>
<text text-anchor="middle" x="236.5" y="-7" font-family="Helvetica,sans-Serif" font-size="10.00">testset_hardcoded</text>
</a>
</g>
</g>
<!-- Node2&#45;&gt;Node7 -->
<g id="edge8_Node000002_Node000007" class="edge"><title>Node2&#45;&gt;Node7</title>
<g id="a_edge8_Node000002_Node000007"><a xlink:title=" ">
<path fill="none" stroke="#63b8ff" d="M459.594,-24.7064C408.493,-21.2077 333.432,-16.0683 285.008,-12.7528"/>
<polygon fill="#63b8ff" stroke="#63b8ff" points="459.581,-28.2137 469.797,-25.405 460.06,-21.23 459.581,-28.2137"/>
</a>
</g>
</g>
<!-- Node4 -->
<g id="Node000004" class="node"><title>Node4</title>
<g id="a_Node000004"><a xlink:href="testbench_8c.html#a068734a4e1d6209769e0c6b1675ca02b" target="_top" xlink:title="Provedení jednoho test z testovacího plánu na předaném ADT.">
<polygon fill="white" stroke="#666666" points="262.5,-57 210.5,-57 210.5,-38 262.5,-38 262.5,-57"/>
<text text-anchor="middle" x="236.5" y="-45" font-family="Helvetica,sans-Serif" font-size="10.00">test_run</text>
</a>
</g>
</g>
<!-- Node3&#45;&gt;Node4 -->
<g id="edge3_Node000003_Node000004" class="edge"><title>Node3&#45;&gt;Node4</title>
<g id="a_edge3_Node000003_Node000004"><a xlink:title=" ">
<path fill="none" stroke="#63b8ff" d="M310.299,-47.5C293.38,-47.5 276.199,-47.5 262.78,-47.5"/>
<polygon fill="#63b8ff" stroke="#63b8ff" points="310.764,-51.0001 320.764,-47.5 310.764,-44.0001 310.764,-51.0001"/>
</a>
</g>
</g>
<!-- Node3&#45;&gt;Node7 -->
<g id="edge6_Node000003_Node000007" class="edge"><title>Node3&#45;&gt;Node7</title>
<g id="a_edge6_Node000003_Node000007"><a xlink:title=" ">
<path fill="none" stroke="#63b8ff" d="M331.705,-35.2538C312.545,-30.016 290.506,-23.9909 272.564,-19.0859"/>
<polygon fill="#63b8ff" stroke="#63b8ff" points="330.855,-38.65 341.424,-37.911 332.701,-31.8978 330.855,-38.65"/>
</a>
</g>
</g>
<!-- Node5 -->
<g id="Node000005" class="node"><title>Node5</title>
<g id="a_Node000005"><a xlink:href="testbench_8c.html#a2fa1559684d267665b1c2433208511d3" target="_top" xlink:title="Provedení všech testů zadaného testovacího plánu na předaném ADT.">
<polygon fill="white" stroke="#666666" points="152,-57 74,-57 74,-38 152,-38 152,-57"/>
<text text-anchor="middle" x="113" y="-45" font-family="Helvetica,sans-Serif" font-size="10.00">testbench_run</text>
</a>
</g>
</g>
<!-- Node4&#45;&gt;Node5 -->
<g id="edge4_Node000004_Node000005" class="edge"><title>Node4&#45;&gt;Node5</title>
<g id="a_edge4_Node000004_Node000005"><a xlink:title=" ">
<path fill="none" stroke="#63b8ff" d="M199.894,-47.5C184.87,-47.5 167.356,-47.5 152.076,-47.5"/>
<polygon fill="#63b8ff" stroke="#63b8ff" points="200.325,-51.0001 210.325,-47.5 200.325,-44.0001 200.325,-51.0001"/>
</a>
</g>
</g>
<!-- Node6 -->
<g id="Node000006" class="node"><title>Node6</title>
<g id="a_Node000006"><a xlink:href="group___main_program.html#ga0ddf1224851353fc92bfbff6f499fa97" target="_top" xlink:title=" ">
<polygon fill="white" stroke="#666666" points="38,-38 0,-38 0,-19 38,-19 38,-38"/>
<text text-anchor="middle" x="19" y="-26" font-family="Helvetica,sans-Serif" font-size="10.00">main</text>
</a>
</g>
</g>
<!-- Node5&#45;&gt;Node6 -->
<g id="edge5_Node000005_Node000006" class="edge"><title>Node5&#45;&gt;Node6</title>
<g id="a_edge5_Node000005_Node000006"><a xlink:title=" ">
<path fill="none" stroke="#63b8ff" d="M63.9337,-37.5733C54.8336,-35.6939 45.8417,-33.8369 38.3861,-32.2971"/>
<polygon fill="#63b8ff" stroke="#63b8ff" points="63.2817,-41.0124 73.783,-39.6074 64.6976,-34.1571 63.2817,-41.0124"/>
</a>
</g>
</g>
<!-- Node7&#45;&gt;Node6 -->
<g id="edge7_Node000007_Node000006" class="edge"><title>Node7&#45;&gt;Node6</title>
<g id="a_edge7_Node000007_Node000006"><a xlink:title=" ">
<path fill="none" stroke="#63b8ff" d="M177.957,-14.5734C131.328,-18.6845 68.5434,-24.2201 38.0818,-26.9058"/>
<polygon fill="#63b8ff" stroke="#63b8ff" points="178.287,-18.058 187.941,-13.6932 177.672,-11.085 178.287,-18.058"/>
</a>
</g>
</g>
</g>
</svg>
