<?xml version="1.0" encoding="UTF-8" standalone="no"?>
<!DOCTYPE svg PUBLIC "-//W3C//DTD SVG 1.1//EN"
 "http://www.w3.org/Graphics/SVG/1.1/DTD/svg11.dtd">
<!-- Generated by graphviz version 2.38.0 (20140413.2041)
 -->
<!-- Title: set_hash_table_erase Pages: 1 -->
<svg width="433pt" height="113pt"
 viewBox="0.00 0.00 433.00 112.50" xmlns="http://www.w3.org/2000/svg" xmlns:xlink="http://www.w3.org/1999/xlink">
<g id="graph0" class="graph" transform="scale(1 1) rotate(0) translate(4 108.5)">
<title>set_hash_table_erase</title>
<!-- Node1 -->
<g id="Node000001" class="node"><title>Node1</title>
<g id="a_Node000001"><a xlink:title="Odstranění elementu z hašovací tabulky.">
<polygon fill="#999999" stroke="#666666" points="112,-77 7.10543e-015,-77 7.10543e-015,-58 112,-58 112,-77"/>
<text text-anchor="middle" x="56" y="-65" font-family="Helvetica,sans-Serif" font-size="10.00">set_hash_table_erase</text>
</a>
</g>
</g>
<!-- Node2 -->
<g id="Node000002" class="node"><title>Node2</title>
<g id="a_Node000002"><a xlink:href="_t_set_hash_table_open_addr_8c.html#aa4a90f23bbdbe5bb71a49d7df2ee5fc1" target="_top" xlink:title="Funkce vracející hodnotu reprezentující smazanou přihrádku.">
<polygon fill="white" stroke="#666666" points="415,-104.5 311,-104.5 311,-74.5 415,-74.5 415,-104.5"/>
<text text-anchor="start" x="319" y="-92.5" font-family="Helvetica,sans-Serif" font-size="10.00">calc_erased_bucket</text>
<text text-anchor="middle" x="363" y="-81.5" font-family="Helvetica,sans-Serif" font-size="10.00">_marker</text>
</a>
</g>
</g>
<!-- Node1&#45;&gt;Node2 -->
<g id="edge1_Node000001_Node000002" class="edge"><title>Node1&#45;&gt;Node2</title>
<g id="a_edge1_Node000001_Node000002"><a xlink:title=" ">
<path fill="none" stroke="#63b8ff" d="M112.233,-71.484C165.483,-75.325 245.887,-81.1246 300.998,-85.0998"/>
<polygon fill="#63b8ff" stroke="#63b8ff" points="300.755,-88.5914 310.981,-85.82 301.259,-81.6095 300.755,-88.5914"/>
</a>
</g>
</g>
<!-- Node3 -->
<g id="Node000003" class="node"><title>Node3</title>
<g id="a_Node000003"><a xlink:href="group___t_set_hash_table.html#ga69c2697abdd49b443ea76077058df6b0" target="_top" xlink:title="Vyhledání elementu o zadané hodnotě v hašovací tabulce využívající otevřené adresování">
<polygon fill="white" stroke="#666666" points="265,-57 148,-57 148,-38 265,-38 265,-57"/>
<text text-anchor="middle" x="206.5" y="-45" font-family="Helvetica,sans-Serif" font-size="10.00">set_hash_table_search</text>
</a>
</g>
</g>
<!-- Node1&#45;&gt;Node3 -->
<g id="edge2_Node000001_Node000003" class="edge"><title>Node1&#45;&gt;Node3</title>
<g id="a_edge2_Node000001_Node000003"><a xlink:title=" ">
<path fill="none" stroke="#63b8ff" d="M112.296,-60.0527C120.594,-58.9352 129.23,-57.7721 137.751,-56.6244"/>
<polygon fill="#63b8ff" stroke="#63b8ff" points="138.231,-60.0915 147.674,-55.288 137.296,-53.1542 138.231,-60.0915"/>
</a>
</g>
</g>
<!-- Node3&#45;&gt;Node2 -->
<g id="edge3_Node000003_Node000002" class="edge"><title>Node3&#45;&gt;Node2</title>
<g id="a_edge3_Node000003_Node000002"><a xlink:title=" ">
<path fill="none" stroke="#63b8ff" d="M242.558,-57.0305C259.848,-61.7304 281.204,-67.536 301.055,-72.9325"/>
<polygon fill="#63b8ff" stroke="#63b8ff" points="300.393,-76.3794 310.961,-75.6253 302.229,-69.6246 300.393,-76.3794"/>
</a>
</g>
</g>
<!-- Node4 -->
<g id="Node000004" class="node"><title>Node4</title>
<g id="a_Node000004"><a xlink:href="group___t_set_element_hashable.html#gad8cfc9a36f36c44c10b660c5b370f67e" target="_top" xlink:title="Porovnání dvou elementů">
<polygon fill="white" stroke="#666666" points="425,-56 301,-56 301,-37 425,-37 425,-56"/>
<text text-anchor="middle" x="363" y="-44" font-family="Helvetica,sans-Serif" font-size="10.00">set_element_comparator</text>
</a>
</g>
</g>
<!-- Node3&#45;&gt;Node4 -->
<g id="edge4_Node000003_Node000004" class="edge"><title>Node3&#45;&gt;Node4</title>
<g id="a_edge4_Node000003_Node000004"><a xlink:title=" ">
<path fill="none" stroke="#63b8ff" d="M265.03,-47.1276C273.416,-47.0734 282.135,-47.0169 290.754,-46.9611"/>
<polygon fill="#63b8ff" stroke="#63b8ff" points="290.822,-50.4609 300.799,-46.8961 290.776,-43.461 290.822,-50.4609"/>
</a>
</g>
</g>
<!-- Node5 -->
<g id="Node000005" class="node"><title>Node5</title>
<g id="a_Node000005"><a xlink:href="group___t_set_element_hashable.html#ga4a88e3b3d94aa8fa572cf07764d843e0" target="_top" xlink:title="Výpočet hash hodnoty elementu.">
<polygon fill="white" stroke="#666666" points="424.5,-19 301.5,-19 301.5,-0 424.5,-0 424.5,-19"/>
<text text-anchor="middle" x="363" y="-7" font-family="Helvetica,sans-Serif" font-size="10.00">set_element_hash_value</text>
</a>
</g>
</g>
<!-- Node3&#45;&gt;Node5 -->
<g id="edge5_Node000003_Node000005" class="edge"><title>Node3&#45;&gt;Node5</title>
<g id="a_edge5_Node000003_Node000005"><a xlink:title=" ">
<path fill="none" stroke="#63b8ff" d="M246.487,-37.911C266.783,-32.9191 291.793,-26.7676 313.346,-21.4666"/>
<polygon fill="#63b8ff" stroke="#63b8ff" points="314.419,-24.8072 323.293,-19.0201 312.747,-18.0098 314.419,-24.8072"/>
</a>
</g>
</g>
</g>
</svg>
