<?xml version="1.0" encoding="UTF-8" standalone="no"?>
<!DOCTYPE svg PUBLIC "-//W3C//DTD SVG 1.1//EN"
 "http://www.w3.org/Graphics/SVG/1.1/DTD/svg11.dtd">
<!-- Generated by graphviz version 2.38.0 (20140413.2041)
 -->
<!-- Title: main Pages: 1 -->
<svg width="1082pt" height="564pt"
 viewBox="0.00 0.00 1082.00 563.70" xmlns="http://www.w3.org/2000/svg" xmlns:xlink="http://www.w3.org/1999/xlink">
<g id="graph0" class="graph" transform="scale(1 1) rotate(0) translate(4 559.7)">
<title>main</title>
<!-- Node1 -->
<g id="Node000001" class="node"><title>Node1</title>
<g id="a_Node000001"><a xlink:title=" ">
<polygon fill="#999999" stroke="#666666" points="38,-247 0,-247 0,-228 38,-228 38,-247"/>
<text text-anchor="middle" x="19" y="-235" font-family="Helvetica,sans-Serif" font-size="10.00">main</text>
</a>
</g>
</g>
<!-- Node2 -->
<g id="Node000002" class="node"><title>Node2</title>
<g id="a_Node000002"><a xlink:href="group___t_set.html#ga8094d1ab68434b8413cd905895ff37ae" target="_top" xlink:title="Deinicializace množiny.">
<polygon fill="white" stroke="#666666" points="411.5,-509 343.5,-509 343.5,-490 411.5,-490 411.5,-509"/>
<text text-anchor="middle" x="377.5" y="-497" font-family="Helvetica,sans-Serif" font-size="10.00">set_destroy</text>
</a>
</g>
</g>
<!-- Node1&#45;&gt;Node2 -->
<g id="edge1_Node000001_Node000002" class="edge"><title>Node1&#45;&gt;Node2</title>
<g id="a_edge1_Node000001_Node000002"><a xlink:title=" ">
<path fill="none" stroke="#63b8ff" d="M29.4085,-247.407C64.4665,-283.788 192.122,-411.527 321,-481.5 325.014,-483.679 329.336,-485.65 333.733,-487.417"/>
<polygon fill="#63b8ff" stroke="#63b8ff" points="332.794,-490.8 343.388,-490.963 335.208,-484.23 332.794,-490.8"/>
</a>
</g>
</g>
<!-- Node5 -->
<g id="Node000005" class="node"><title>Node5</title>
<g id="a_Node000005"><a xlink:href="group___t_set.html#ga674fb4a9d4cac982bca65b8b264b04b5" target="_top" xlink:title="Inicializace prázdné množiny.">
<polygon fill="white" stroke="#666666" points="401.5,-19 353.5,-19 353.5,-0 401.5,-0 401.5,-19"/>
<text text-anchor="middle" x="377.5" y="-7" font-family="Helvetica,sans-Serif" font-size="10.00">set_init</text>
</a>
</g>
</g>
<!-- Node1&#45;&gt;Node5 -->
<g id="edge4_Node000001_Node000005" class="edge"><title>Node1&#45;&gt;Node5</title>
<g id="a_edge4_Node000001_Node000005"><a xlink:title=" ">
<path fill="none" stroke="#63b8ff" d="M26.4015,-227.617C35.6778,-213.833 53.9542,-188.606 74,-171.5 170.66,-89.0136 205.01,-79.3984 321,-27.5 328.2,-24.2782 336.156,-21.3509 343.741,-18.8371"/>
<polygon fill="#63b8ff" stroke="#63b8ff" points="344.925,-22.1335 353.404,-15.7805 342.814,-15.4594 344.925,-22.1335"/>
</a>
</g>
</g>
<!-- Node6 -->
<g id="Node000006" class="node"><title>Node6</title>
<g id="a_Node000006"><a xlink:href="testbench_8c.html#a2fa1559684d267665b1c2433208511d3" target="_top" xlink:title="Provedení všech testů zadaného testovacího plánu na předaném ADT.">
<polygon fill="white" stroke="#666666" points="152,-200 74,-200 74,-181 152,-181 152,-200"/>
<text text-anchor="middle" x="113" y="-188" font-family="Helvetica,sans-Serif" font-size="10.00">testbench_run</text>
</a>
</g>
</g>
<!-- Node1&#45;&gt;Node6 -->
<g id="edge5_Node000001_Node000006" class="edge"><title>Node1&#45;&gt;Node6</title>
<g id="a_edge5_Node000001_Node000006"><a xlink:title=" ">
<path fill="none" stroke="#63b8ff" d="M38.1762,-228.214C51.2351,-221.543 69.0861,-212.423 83.9632,-204.823"/>
<polygon fill="#63b8ff" stroke="#63b8ff" points="85.917,-207.755 93.2299,-200.089 82.7324,-201.522 85.917,-207.755"/>
</a>
</g>
</g>
<!-- Node20 -->
<g id="Node000020" class="node"><title>Node20</title>
<g id="a_Node000020"><a xlink:href="group___main_program.html#ga2762b0417283abc168151cbffee8216c" target="_top" xlink:title=" ">
<polygon fill="white" stroke="#666666" points="285,-283 188,-283 188,-264 285,-264 285,-283"/>
<text text-anchor="middle" x="236.5" y="-271" font-family="Helvetica,sans-Serif" font-size="10.00">testset_hardcoded</text>
</a>
</g>
</g>
<!-- Node1&#45;&gt;Node20 -->
<g id="edge27_Node000001_Node000020" class="edge"><title>Node1&#45;&gt;Node20</title>
<g id="a_edge27_Node000001_Node000020"><a xlink:title=" ">
<path fill="none" stroke="#63b8ff" d="M38.0027,-240.507C68.4434,-245.593 131.324,-256.097 177.997,-263.894"/>
<polygon fill="#63b8ff" stroke="#63b8ff" points="177.55,-267.368 187.99,-265.563 178.703,-260.463 177.55,-267.368"/>
</a>
</g>
</g>
<!-- Node3 -->
<g id="Node000003" class="node"><title>Node3</title>
<g id="a_Node000003"><a xlink:href="group___t_set_hash_table.html#ga1562a195e21d46896e078ba7e555042b" target="_top" xlink:title="Deinicializace hašovací tabulky.">
<polygon fill="white" stroke="#666666" points="590,-543 470,-543 470,-524 590,-524 590,-543"/>
<text text-anchor="middle" x="530" y="-531" font-family="Helvetica,sans-Serif" font-size="10.00">set_hash_table_destroy</text>
</a>
</g>
</g>
<!-- Node2&#45;&gt;Node3 -->
<g id="edge2_Node000002_Node000003" class="edge"><title>Node2&#45;&gt;Node3</title>
<g id="a_edge2_Node000002_Node000003"><a xlink:title=" ">
<path fill="none" stroke="#63b8ff" d="M411.528,-506.961C430.737,-511.301 455.373,-516.867 477.119,-521.779"/>
<polygon fill="#63b8ff" stroke="#63b8ff" points="476.352,-525.194 486.877,-523.984 477.894,-518.366 476.352,-525.194"/>
</a>
</g>
</g>
<!-- Node4 -->
<g id="Node000004" class="node"><title>Node4</title>
<g id="a_Node000004"><a xlink:href="_t_set_hash_table_open_addr_8c.html#aa4a90f23bbdbe5bb71a49d7df2ee5fc1" target="_top" xlink:title="Funkce vracející hodnotu reprezentující smazanou přihrádku.">
<polygon fill="white" stroke="#666666" points="1074,-359.5 970,-359.5 970,-329.5 1074,-329.5 1074,-359.5"/>
<text text-anchor="start" x="978" y="-347.5" font-family="Helvetica,sans-Serif" font-size="10.00">calc_erased_bucket</text>
<text text-anchor="middle" x="1022" y="-336.5" font-family="Helvetica,sans-Serif" font-size="10.00">_marker</text>
</a>
</g>
</g>
<!-- Node3&#45;&gt;Node4 -->
<g id="edge3_Node000003_Node000004" class="edge"><title>Node3&#45;&gt;Node4</title>
<g id="a_edge3_Node000003_Node000004"><a xlink:title=" ">
<path fill="none" stroke="#63b8ff" d="M576.766,-543.052C656.416,-557.028 822.642,-574.21 934,-502.5 981.445,-471.947 1005.2,-406.114 1015.11,-369.811"/>
<polygon fill="#63b8ff" stroke="#63b8ff" points="1018.54,-370.544 1017.65,-359.986 1011.76,-368.792 1018.54,-370.544"/>
</a>
</g>
</g>
<!-- Node7 -->
<g id="Node000007" class="node"><title>Node7</title>
<g id="a_Node000007"><a xlink:href="testbench_8c.html#a068734a4e1d6209769e0c6b1675ca02b" target="_top" xlink:title="Provedení jednoho test z testovacího plánu na předaném ADT.">
<polygon fill="white" stroke="#666666" points="262.5,-144 210.5,-144 210.5,-125 262.5,-125 262.5,-144"/>
<text text-anchor="middle" x="236.5" y="-132" font-family="Helvetica,sans-Serif" font-size="10.00">test_run</text>
</a>
</g>
</g>
<!-- Node6&#45;&gt;Node7 -->
<g id="edge6_Node000006_Node000007" class="edge"><title>Node6&#45;&gt;Node7</title>
<g id="a_edge6_Node000006_Node000007"><a xlink:title=" ">
<path fill="none" stroke="#63b8ff" d="M134.887,-180.873C154.391,-171.884 183.709,-158.371 205.674,-148.247"/>
<polygon fill="#63b8ff" stroke="#63b8ff" points="207.269,-151.366 214.886,-144.001 204.339,-145.008 207.269,-151.366"/>
</a>
</g>
</g>
<!-- Node8 -->
<g id="Node000008" class="node"><title>Node8</title>
<g id="a_Node000008"><a xlink:href="testbench_8c.html#aa291195ad453d2b1e29004cc2e043c01" target="_top" xlink:title=" ">
<polygon fill="white" stroke="#666666" points="411.5,-56 343.5,-56 343.5,-37 411.5,-37 411.5,-56"/>
<text text-anchor="middle" x="377.5" y="-44" font-family="Helvetica,sans-Serif" font-size="10.00">difftimespec</text>
</a>
</g>
</g>
<!-- Node7&#45;&gt;Node8 -->
<g id="edge7_Node000007_Node000008" class="edge"><title>Node7&#45;&gt;Node8</title>
<g id="a_edge7_Node000007_Node000008"><a xlink:title=" ">
<path fill="none" stroke="#63b8ff" d="M248.224,-124.882C263.548,-111.475 292.966,-86.9652 321,-70.5 327.41,-66.7353 334.52,-63.2169 341.453,-60.0967"/>
<polygon fill="#63b8ff" stroke="#63b8ff" points="342.918,-63.2768 350.714,-56.103 340.146,-56.8489 342.918,-63.2768"/>
</a>
</g>
</g>
<!-- Node9 -->
<g id="Node000009" class="node"><title>Node9</title>
<g id="a_Node000009"><a xlink:href="testbench_8c.html#ae7a610c069c6000940838c6a1e11bb42" target="_top" xlink:title="Vytisknutí hodnoty v ADT pomocí iterátoru.">
<polygon fill="white" stroke="#666666" points="434,-132 321,-132 321,-113 434,-113 434,-132"/>
<text text-anchor="middle" x="377.5" y="-120" font-family="Helvetica,sans-Serif" font-size="10.00">print_value_by_iterator</text>
</a>
</g>
</g>
<!-- Node7&#45;&gt;Node9 -->
<g id="edge8_Node000007_Node000009" class="edge"><title>Node7&#45;&gt;Node9</title>
<g id="a_edge8_Node000007_Node000009"><a xlink:title=" ">
<path fill="none" stroke="#63b8ff" d="M262.672,-132.327C276.275,-131.153 293.766,-129.642 310.936,-128.16"/>
<polygon fill="#63b8ff" stroke="#63b8ff" points="311.315,-131.641 320.977,-127.293 310.713,-124.667 311.315,-131.641"/>
</a>
</g>
</g>
<!-- Node10 -->
<g id="Node000010" class="node"><title>Node10</title>
<g id="a_Node000010"><a xlink:href="group___t_set_element_hashable.html#ga3473fca967dede884b1c910838f2d8df" target="_top" xlink:title="Uložení elementu do souboru.">
<polygon fill="white" stroke="#666666" points="587,-112 473,-112 473,-93 587,-93 587,-112"/>
<text text-anchor="middle" x="530" y="-100" font-family="Helvetica,sans-Serif" font-size="10.00">set_element_store_file</text>
</a>
</g>
</g>
<!-- Node7&#45;&gt;Node10 -->
<g id="edge16_Node000007_Node000010" class="edge"><title>Node7&#45;&gt;Node10</title>
<g id="a_edge16_Node000007_Node000010"><a xlink:title=" ">
<path fill="none" stroke="#63b8ff" d="M257.188,-124.944C273.765,-117.453 298.332,-107.628 321,-103.5 367.835,-94.9704 421.591,-94.9603 462.721,-96.9573"/>
<polygon fill="#63b8ff" stroke="#63b8ff" points="462.72,-100.462 472.893,-97.5043 463.096,-93.4723 462.72,-100.462"/>
</a>
</g>
</g>
<!-- Node15 -->
<g id="Node000015" class="node"><title>Node15</title>
<g id="a_Node000015"><a xlink:href="group___iterator_algorithms.html#gab8ba369b42eda61d010f35df73be73db" target="_top" xlink:title="Zavolání zvolené funkce na každý element množiny od pozice určené iterátorem až do posledního element...">
<polygon fill="white" stroke="#666666" points="413.5,-245 341.5,-245 341.5,-226 413.5,-226 413.5,-245"/>
<text text-anchor="middle" x="377.5" y="-233" font-family="Helvetica,sans-Serif" font-size="10.00">set_for_each</text>
</a>
</g>
</g>
<!-- Node7&#45;&gt;Node15 -->
<g id="edge17_Node000007_Node000015" class="edge"><title>Node7&#45;&gt;Node15</title>
<g id="a_edge17_Node000007_Node000015"><a xlink:title=" ">
<path fill="none" stroke="#63b8ff" d="M250.577,-144.002C274.585,-161.447 325.9,-198.733 355.07,-219.928"/>
<polygon fill="#63b8ff" stroke="#63b8ff" points="353.209,-222.903 363.357,-225.95 357.324,-217.24 353.209,-222.903"/>
</a>
</g>
</g>
<!-- Node18 -->
<g id="Node000018" class="node"><title>Node18</title>
<g id="a_Node000018"><a xlink:href="group___t_set_iterator.html#gab11bafbe7585e4bb0bd9ff2353d77765" target="_top" xlink:title="Vytvoření nového iterátoru ukazujícího na první element množiny.">
<polygon fill="white" stroke="#666666" points="424.5,-169 330.5,-169 330.5,-150 424.5,-150 424.5,-169"/>
<text text-anchor="middle" x="377.5" y="-157" font-family="Helvetica,sans-Serif" font-size="10.00">set_iterator_begin</text>
</a>
</g>
</g>
<!-- Node7&#45;&gt;Node18 -->
<g id="edge24_Node000007_Node000018" class="edge"><title>Node7&#45;&gt;Node18</title>
<g id="a_edge24_Node000007_Node000018"><a xlink:title=" ">
<path fill="none" stroke="#63b8ff" d="M262.672,-139.027C278.801,-141.928 300.398,-145.813 320.443,-149.418"/>
<polygon fill="#63b8ff" stroke="#63b8ff" points="319.974,-152.89 330.436,-151.215 321.213,-146 319.974,-152.89"/>
</a>
</g>
</g>
<!-- Node9&#45;&gt;Node10 -->
<g id="edge9_Node000009_Node000010" class="edge"><title>Node9&#45;&gt;Node10</title>
<g id="a_edge9_Node000009_Node000010"><a xlink:title=" ">
<path fill="none" stroke="#63b8ff" d="M434.113,-115.11C443.497,-113.863 453.319,-112.557 462.938,-111.279"/>
<polygon fill="#63b8ff" stroke="#63b8ff" points="463.41,-114.747 472.862,-109.96 462.488,-107.808 463.41,-114.747"/>
</a>
</g>
</g>
<!-- Node11 -->
<g id="Node000011" class="node"><title>Node11</title>
<g id="a_Node000011"><a xlink:href="group___t_set_iterator.html#ga3928a980e2759ba130ce333e77f15fab" target="_top" xlink:title="Přečtení hodnoty elementu z množiny pomocí iterátoru.">
<polygon fill="white" stroke="#666666" points="576,-207 484,-207 484,-188 576,-188 576,-207"/>
<text text-anchor="middle" x="530" y="-195" font-family="Helvetica,sans-Serif" font-size="10.00">set_iterator_value</text>
</a>
</g>
</g>
<!-- Node9&#45;&gt;Node11 -->
<g id="edge10_Node000009_Node000011" class="edge"><title>Node9&#45;&gt;Node11</title>
<g id="a_edge10_Node000009_Node000011"><a xlink:title=" ">
<path fill="none" stroke="#63b8ff" d="M412.13,-132.052C419.458,-134.506 427.085,-137.354 434,-140.5 460.178,-152.412 488.187,-169.855 506.956,-182.304"/>
<polygon fill="#63b8ff" stroke="#63b8ff" points="505.128,-185.293 515.379,-187.968 509.034,-179.484 505.128,-185.293"/>
</a>
</g>
</g>
<!-- Node12 -->
<g id="Node000012" class="node"><title>Node12</title>
<g id="a_Node000012"><a xlink:href="group___t_set_hash_table.html#gaf6b548ed4295b1a4789d073b8a43db58" target="_top" xlink:title="Přečtení hodnoty elementu z platné přihrádky v hašovací tabulce.">
<polygon fill="white" stroke="#666666" points="919,-265.5 809,-265.5 809,-235.5 919,-235.5 919,-265.5"/>
<text text-anchor="start" x="817" y="-253.5" font-family="Helvetica,sans-Serif" font-size="10.00">set_hash_table_value</text>
<text text-anchor="middle" x="864" y="-242.5" font-family="Helvetica,sans-Serif" font-size="10.00">_at_pos</text>
</a>
</g>
</g>
<!-- Node11&#45;&gt;Node12 -->
<g id="edge11_Node000011_Node000012" class="edge"><title>Node11&#45;&gt;Node12</title>
<g id="a_edge11_Node000011_Node000012"><a xlink:title=" ">
<path fill="none" stroke="#63b8ff" d="M576.121,-204.703C633.592,-213.878 733.284,-229.792 798.698,-240.235"/>
<polygon fill="#63b8ff" stroke="#63b8ff" points="798.464,-243.742 808.891,-241.862 799.568,-236.829 798.464,-243.742"/>
</a>
</g>
</g>
<!-- Node13 -->
<g id="Node000013" class="node"><title>Node13</title>
<g id="a_Node000013"><a xlink:href="group___t_set_iterator.html#ga089f24c81ac3da7d1ac7ca24cc078dd8" target="_top" xlink:title="Zjištění platnosti iterátoru.">
<polygon fill="white" stroke="#666666" points="743,-278 641,-278 641,-259 743,-259 743,-278"/>
<text text-anchor="middle" x="692" y="-266" font-family="Helvetica,sans-Serif" font-size="10.00">set_iterator_is_valid</text>
</a>
</g>
</g>
<!-- Node11&#45;&gt;Node13 -->
<g id="edge13_Node000011_Node000013" class="edge"><title>Node11&#45;&gt;Node13</title>
<g id="a_edge13_Node000011_Node000013"><a xlink:title=" ">
<path fill="none" stroke="#63b8ff" d="M555.225,-207.042C565.934,-211.34 578.646,-216.553 590,-221.5 614.379,-232.123 641.707,-244.894 661.783,-254.44"/>
<polygon fill="#63b8ff" stroke="#63b8ff" points="660.478,-257.696 671.011,-258.844 663.493,-251.378 660.478,-257.696"/>
</a>
</g>
</g>
<!-- Node12&#45;&gt;Node4 -->
<g id="edge12_Node000012_Node000004" class="edge"><title>Node12&#45;&gt;Node4</title>
<g id="a_edge12_Node000012_Node000004"><a xlink:title=" ">
<path fill="none" stroke="#63b8ff" d="M893.447,-265.598C905.993,-272.402 920.844,-280.656 934,-288.5 952.745,-299.677 973.294,-312.859 989.713,-323.625"/>
<polygon fill="#63b8ff" stroke="#63b8ff" points="988.095,-326.75 998.371,-329.329 991.946,-320.905 988.095,-326.75"/>
</a>
</g>
</g>
<!-- Node14 -->
<g id="Node000014" class="node"><title>Node14</title>
<g id="a_Node000014"><a xlink:href="group___t_set_hash_table.html#ga891b531cc6373331e55101f2dd75ac4a" target="_top" xlink:title="Zjištění platnosti pozice v hašovací tabulce.">
<polygon fill="white" stroke="#666666" points="934,-316 794,-316 794,-297 934,-297 934,-316"/>
<text text-anchor="middle" x="864" y="-304" font-family="Helvetica,sans-Serif" font-size="10.00">set_hash_table_is_valid_pos</text>
</a>
</g>
</g>
<!-- Node13&#45;&gt;Node14 -->
<g id="edge14_Node000013_Node000014" class="edge"><title>Node13&#45;&gt;Node14</title>
<g id="a_edge14_Node000013_Node000014"><a xlink:title=" ">
<path fill="none" stroke="#63b8ff" d="M735.898,-278.089C758.534,-283.149 786.498,-289.4 810.429,-294.749"/>
<polygon fill="#63b8ff" stroke="#63b8ff" points="809.888,-298.214 820.41,-296.98 811.415,-291.383 809.888,-298.214"/>
</a>
</g>
</g>
<!-- Node14&#45;&gt;Node4 -->
<g id="edge15_Node000014_Node000004" class="edge"><title>Node14&#45;&gt;Node4</title>
<g id="a_edge15_Node000014_Node000004"><a xlink:title=" ">
<path fill="none" stroke="#63b8ff" d="M904.365,-316.089C921.198,-320.189 941.241,-325.072 959.924,-329.623"/>
<polygon fill="#63b8ff" stroke="#63b8ff" points="959.294,-333.071 969.839,-332.038 960.951,-326.27 959.294,-333.071"/>
</a>
</g>
</g>
<!-- Node15&#45;&gt;Node13 -->
<g id="edge18_Node000015_Node000013" class="edge"><title>Node15&#45;&gt;Node13</title>
<g id="a_edge18_Node000015_Node000013"><a xlink:title=" ">
<path fill="none" stroke="#63b8ff" d="M413.74,-239.221C466.468,-244.789 566.567,-255.36 630.965,-262.16"/>
<polygon fill="#63b8ff" stroke="#63b8ff" points="630.669,-265.648 640.981,-263.218 631.404,-258.687 630.669,-265.648"/>
</a>
</g>
</g>
<!-- Node16 -->
<g id="Node000016" class="node"><title>Node16</title>
<g id="a_Node000016"><a xlink:href="group___t_set_iterator.html#ga6723a05c864198597ff49718020bd0d6" target="_top" xlink:title="Posunutí iterátoru vpřed.">
<polygon fill="white" stroke="#666666" points="581.5,-321 478.5,-321 478.5,-302 581.5,-302 581.5,-321"/>
<text text-anchor="middle" x="530" y="-309" font-family="Helvetica,sans-Serif" font-size="10.00">set_iterator_to_next</text>
</a>
</g>
</g>
<!-- Node15&#45;&gt;Node16 -->
<g id="edge19_Node000015_Node000016" class="edge"><title>Node15&#45;&gt;Node16</title>
<g id="a_edge19_Node000015_Node000016"><a xlink:title=" ">
<path fill="none" stroke="#63b8ff" d="M397.561,-245.125C423.683,-258.317 470.794,-282.107 500.948,-297.334"/>
<polygon fill="#63b8ff" stroke="#63b8ff" points="499.59,-300.569 510.094,-301.953 502.745,-294.321 499.59,-300.569"/>
</a>
</g>
</g>
<!-- Node16&#45;&gt;Node13 -->
<g id="edge23_Node000016_Node000013" class="edge"><title>Node16&#45;&gt;Node13</title>
<g id="a_edge23_Node000016_Node000013"><a xlink:title=" ">
<path fill="none" stroke="#63b8ff" d="M566.509,-301.957C589.917,-295.666 620.775,-287.373 645.913,-280.617"/>
<polygon fill="#63b8ff" stroke="#63b8ff" points="646.841,-283.992 655.59,-278.016 645.024,-277.232 646.841,-283.992"/>
</a>
</g>
</g>
<!-- Node16&#45;&gt;Node14 -->
<g id="edge20_Node000016_Node000014" class="edge"><title>Node16&#45;&gt;Node14</title>
<g id="a_edge20_Node000016_Node000014"><a xlink:title=" ">
<path fill="none" stroke="#63b8ff" d="M581.785,-310.735C635.47,-309.927 720.879,-308.64 783.5,-307.697"/>
<polygon fill="#63b8ff" stroke="#63b8ff" points="783.791,-311.193 793.737,-307.543 783.685,-304.194 783.791,-311.193"/>
</a>
</g>
</g>
<!-- Node17 -->
<g id="Node000017" class="node"><title>Node17</title>
<g id="a_Node000017"><a xlink:href="group___t_set_hash_table.html#ga9218e24d2cc5a61596c4a45ef76f4c75" target="_top" xlink:title="Výpočet následující pozice platné přihrádky v hašovací tabulce.">
<polygon fill="white" stroke="#666666" points="756,-354 628,-354 628,-335 756,-335 756,-354"/>
<text text-anchor="middle" x="692" y="-342" font-family="Helvetica,sans-Serif" font-size="10.00">set_hash_table_next_pos</text>
</a>
</g>
</g>
<!-- Node16&#45;&gt;Node17 -->
<g id="edge21_Node000016_Node000017" class="edge"><title>Node16&#45;&gt;Node17</title>
<g id="a_edge21_Node000016_Node000017"><a xlink:title=" ">
<path fill="none" stroke="#63b8ff" d="M577.279,-321.045C595.272,-324.756 616.052,-329.042 634.886,-332.927"/>
<polygon fill="#63b8ff" stroke="#63b8ff" points="634.324,-336.384 644.825,-334.976 635.739,-329.529 634.324,-336.384"/>
</a>
</g>
</g>
<!-- Node17&#45;&gt;Node4 -->
<g id="edge22_Node000017_Node000004" class="edge"><title>Node17&#45;&gt;Node4</title>
<g id="a_edge22_Node000017_Node000004"><a xlink:title=" ">
<path fill="none" stroke="#63b8ff" d="M756.242,-344.5C814.897,-344.5 901.627,-344.5 959.664,-344.5"/>
<polygon fill="#63b8ff" stroke="#63b8ff" points="959.795,-348 969.795,-344.5 959.795,-341 959.795,-348"/>
</a>
</g>
</g>
<!-- Node19 -->
<g id="Node000019" class="node"><title>Node19</title>
<g id="a_Node000019"><a xlink:href="group___t_set_hash_table.html#ga6ae8410d0c50fb9f3104838bafdbc906" target="_top" xlink:title="Výpočet první platné pozice v hašovací tabulce.">
<polygon fill="white" stroke="#666666" points="758,-178 626,-178 626,-159 758,-159 758,-178"/>
<text text-anchor="middle" x="692" y="-166" font-family="Helvetica,sans-Serif" font-size="10.00">set_hash_table_begin_pos</text>
</a>
</g>
</g>
<!-- Node18&#45;&gt;Node19 -->
<g id="edge25_Node000018_Node000019" class="edge"><title>Node18&#45;&gt;Node19</title>
<g id="a_edge25_Node000018_Node000019"><a xlink:title=" ">
<path fill="none" stroke="#63b8ff" d="M424.61,-160.828C474.926,-162.277 556.243,-164.619 615.816,-166.335"/>
<polygon fill="#63b8ff" stroke="#63b8ff" points="615.83,-169.836 625.927,-166.626 616.031,-162.839 615.83,-169.836"/>
</a>
</g>
</g>
<!-- Node19&#45;&gt;Node4 -->
<g id="edge26_Node000019_Node000004" class="edge"><title>Node19&#45;&gt;Node4</title>
<g id="a_edge26_Node000019_Node000004"><a xlink:title=" ">
<path fill="none" stroke="#63b8ff" d="M758.198,-172.068C809.647,-177.591 881.287,-191.524 934,-226.5 969.322,-249.937 995.507,-292.822 1009.49,-319.931"/>
<polygon fill="#63b8ff" stroke="#63b8ff" points="1006.49,-321.754 1014.09,-329.139 1012.76,-318.629 1006.49,-321.754"/>
</a>
</g>
</g>
<!-- Node20&#45;&gt;Node2 -->
<g id="edge29_Node000020_Node000002" class="edge"><title>Node20&#45;&gt;Node2</title>
<g id="a_edge29_Node000020_Node000002"><a xlink:title=" ">
<path fill="none" stroke="#63b8ff" d="M241.448,-283.288C249.6,-303.501 268.881,-351.33 285,-391.5 301.044,-431.482 289.535,-452.073 321,-481.5 324.787,-485.042 329.278,-487.887 334.041,-490.172"/>
<polygon fill="#63b8ff" stroke="#63b8ff" points="332.836,-493.459 343.421,-493.913 335.429,-486.957 332.836,-493.459"/>
</a>
</g>
</g>
<!-- Node20&#45;&gt;Node5 -->
<g id="edge40_Node000020_Node000005" class="edge"><title>Node20&#45;&gt;Node5</title>
<g id="a_edge40_Node000020_Node000005"><a xlink:title=" ">
<path fill="none" stroke="#63b8ff" d="M241.629,-263.89C250.285,-243.559 270.71,-194.599 285,-152.5 303.583,-97.7544 280.804,-69.0536 321,-27.5 327.008,-21.2888 335.176,-17.2183 343.396,-14.5516"/>
<polygon fill="#63b8ff" stroke="#63b8ff" points="344.526,-17.8735 353.307,-11.9455 342.746,-11.1036 344.526,-17.8735"/>
</a>
</g>
</g>
<!-- Node20&#45;&gt;Node9 -->
<g id="edge28_Node000020_Node000009" class="edge"><title>Node20&#45;&gt;Node9</title>
<g id="a_edge28_Node000020_Node000009"><a xlink:title=" ">
<path fill="none" stroke="#63b8ff" d="M240.872,-263.858C249.889,-239.473 276.912,-174.851 321,-140.5 322.785,-139.109 324.682,-137.824 326.656,-136.636"/>
<polygon fill="#63b8ff" stroke="#63b8ff" points="328.384,-139.684 335.712,-132.032 325.212,-133.444 328.384,-139.684"/>
</a>
</g>
</g>
<!-- Node20&#45;&gt;Node11 -->
<g id="edge52_Node000020_Node000011" class="edge"><title>Node20&#45;&gt;Node11</title>
<g id="a_edge52_Node000020_Node000011"><a xlink:title=" ">
<path fill="none" stroke="#63b8ff" d="M247.883,-263.984C262.803,-250.947 291.743,-227.958 321,-217.5 370.547,-199.789 430.718,-195.727 473.57,-195.533"/>
<polygon fill="#63b8ff" stroke="#63b8ff" points="473.793,-199.033 483.801,-195.558 473.81,-192.033 473.793,-199.033"/>
</a>
</g>
</g>
<!-- Node20&#45;&gt;Node13 -->
<g id="edge50_Node000020_Node000013" class="edge"><title>Node20&#45;&gt;Node13</title>
<g id="a_edge50_Node000020_Node000013"><a xlink:title=" ">
<path fill="none" stroke="#63b8ff" d="M285.175,-272.974C368.275,-272.058 539.474,-270.171 630.69,-269.165"/>
<polygon fill="#63b8ff" stroke="#63b8ff" points="630.909,-272.663 640.87,-269.053 630.832,-265.663 630.909,-272.663"/>
</a>
</g>
</g>
<!-- Node20&#45;&gt;Node15 -->
<g id="edge39_Node000020_Node000015" class="edge"><title>Node20&#45;&gt;Node15</title>
<g id="a_edge39_Node000020_Node000015"><a xlink:title=" ">
<path fill="none" stroke="#63b8ff" d="M272.576,-263.911C290.519,-259.006 312.558,-252.98 331.717,-247.743"/>
<polygon fill="#63b8ff" stroke="#63b8ff" points="332.713,-251.099 341.436,-245.086 330.867,-244.347 332.713,-251.099"/>
</a>
</g>
</g>
<!-- Node20&#45;&gt;Node16 -->
<g id="edge51_Node000020_Node000016" class="edge"><title>Node20&#45;&gt;Node16</title>
<g id="a_edge51_Node000020_Node000016"><a xlink:title=" ">
<path fill="none" stroke="#63b8ff" d="M285.124,-281.918C296.836,-283.869 309.357,-285.853 321,-287.5 370.544,-294.507 426.945,-300.918 468.505,-305.347"/>
<polygon fill="#63b8ff" stroke="#63b8ff" points="468.158,-308.83 478.471,-306.402 468.895,-301.869 468.158,-308.83"/>
</a>
</g>
</g>
<!-- Node20&#45;&gt;Node18 -->
<g id="edge49_Node000020_Node000018" class="edge"><title>Node20&#45;&gt;Node18</title>
<g id="a_edge49_Node000020_Node000018"><a xlink:title=" ">
<path fill="none" stroke="#63b8ff" d="M244.282,-263.868C257.325,-245.939 287.587,-207.127 321,-183.5 326.4,-179.682 332.503,-176.289 338.637,-173.344"/>
<polygon fill="#63b8ff" stroke="#63b8ff" points="340.49,-176.351 348.203,-169.088 337.644,-169.955 340.49,-176.351"/>
</a>
</g>
</g>
<!-- Node21 -->
<g id="Node000021" class="node"><title>Node21</title>
<g id="a_Node000021"><a xlink:href="group___t_set.html#ga2a711b02282ff309c0d6a4fdcfbac738" target="_top" xlink:title="Odstranění elementu z množiny.">
<polygon fill="white" stroke="#666666" points="407,-472 348,-472 348,-453 407,-453 407,-472"/>
<text text-anchor="middle" x="377.5" y="-460" font-family="Helvetica,sans-Serif" font-size="10.00">set_erase</text>
</a>
</g>
</g>
<!-- Node20&#45;&gt;Node21 -->
<g id="edge30_Node000020_Node000021" class="edge"><title>Node20&#45;&gt;Node21</title>
<g id="a_edge30_Node000020_Node000021"><a xlink:title=" ">
<path fill="none" stroke="#63b8ff" d="M241.005,-283.006C253.136,-315.452 294.06,-421.105 321,-444.5 325.919,-448.771 331.869,-452.033 338.022,-454.522"/>
<polygon fill="#63b8ff" stroke="#63b8ff" points="337.144,-457.92 347.738,-457.832 339.401,-451.294 337.144,-457.92"/>
</a>
</g>
</g>
<!-- Node27 -->
<g id="Node000027" class="node"><title>Node27</title>
<g id="a_Node000027"><a xlink:href="group___t_set.html#ga0d1464cea78691ff9ad3dd1e32b55c60" target="_top" xlink:title="Vložení elementu do množiny.">
<polygon fill="white" stroke="#666666" points="407,-359 348,-359 348,-340 407,-340 407,-359"/>
<text text-anchor="middle" x="377.5" y="-347" font-family="Helvetica,sans-Serif" font-size="10.00">set_insert</text>
</a>
</g>
</g>
<!-- Node20&#45;&gt;Node27 -->
<g id="edge41_Node000020_Node000027" class="edge"><title>Node20&#45;&gt;Node27</title>
<g id="a_edge41_Node000020_Node000027"><a xlink:title=" ">
<path fill="none" stroke="#63b8ff" d="M251.599,-283.186C267.901,-294.169 295.737,-312.265 321,-325.5 327.904,-329.117 335.473,-332.655 342.739,-335.855"/>
<polygon fill="#63b8ff" stroke="#63b8ff" points="341.799,-339.26 352.369,-339.986 344.558,-332.827 341.799,-339.26"/>
</a>
</g>
</g>
<!-- Node30 -->
<g id="Node000030" class="node"><title>Node30</title>
<g id="a_Node000030"><a xlink:href="group___t_set.html#ga768d36614713a921e88985484ac63cc1" target="_top" xlink:title="Zjištění, zda množina obsahuje zadanou hodnotu elementu.">
<polygon fill="white" stroke="#666666" points="577.5,-432 482.5,-432 482.5,-413 577.5,-413 577.5,-432"/>
<text text-anchor="middle" x="530" y="-420" font-family="Helvetica,sans-Serif" font-size="10.00">set_is_element_of</text>
</a>
</g>
</g>
<!-- Node20&#45;&gt;Node30 -->
<g id="edge45_Node000020_Node000030" class="edge"><title>Node20&#45;&gt;Node30</title>
<g id="a_edge45_Node000020_Node000030"><a xlink:title=" ">
<path fill="none" stroke="#63b8ff" d="M243.253,-283.287C255.176,-302.681 284.538,-346.051 321,-368.5 346.145,-383.982 419.724,-400.964 472.224,-411.672"/>
<polygon fill="#63b8ff" stroke="#63b8ff" points="471.598,-415.117 482.093,-413.662 472.982,-408.255 471.598,-415.117"/>
</a>
</g>
</g>
<!-- Node31 -->
<g id="Node000031" class="node"><title>Node31</title>
<g id="a_Node000031"><a xlink:href="group___t_set.html#ga2f7fd9486a5c300158d70dc79c6c6c8f" target="_top" xlink:title="Zjištění, zda je množina prázdná">
<polygon fill="white" stroke="#666666" points="415,-435 340,-435 340,-416 415,-416 415,-435"/>
<text text-anchor="middle" x="377.5" y="-423" font-family="Helvetica,sans-Serif" font-size="10.00">set_is_empty</text>
</a>
</g>
</g>
<!-- Node20&#45;&gt;Node31 -->
<g id="edge47_Node000020_Node000031" class="edge"><title>Node20&#45;&gt;Node31</title>
<g id="a_edge47_Node000020_Node000031"><a xlink:title=" ">
<path fill="none" stroke="#63b8ff" d="M241.46,-283.223C251.444,-306.639 279.821,-366.783 321,-401.5 325.627,-405.401 330.986,-408.763 336.511,-411.629"/>
<polygon fill="#63b8ff" stroke="#63b8ff" points="335.325,-414.938 345.867,-415.995 338.285,-408.595 335.325,-414.938"/>
</a>
</g>
</g>
<!-- Node21&#45;&gt;Node3 -->
<g id="edge31_Node000021_Node000003" class="edge"><title>Node21&#45;&gt;Node3</title>
<g id="a_edge31_Node000021_Node000003"><a xlink:title=" ">
<path fill="none" stroke="#63b8ff" d="M407.202,-469.75C416.146,-472.674 425.805,-476.551 434,-481.5 452.838,-492.878 450.972,-504.441 470,-515.5 472.87,-517.168 475.911,-518.696 479.038,-520.094"/>
<polygon fill="#63b8ff" stroke="#63b8ff" points="478.01,-523.452 488.596,-523.904 480.603,-516.95 478.01,-523.452"/>
</a>
</g>
</g>
<!-- Node22 -->
<g id="Node000022" class="node"><title>Node22</title>
<g id="a_Node000022"><a xlink:href="group___t_set_hash_table.html#gaee3600d3134fc51a78e4142bbdc0ba2b" target="_top" xlink:title="Odstranění elementu z hašovací tabulky.">
<polygon fill="white" stroke="#666666" points="586,-506 474,-506 474,-487 586,-487 586,-506"/>
<text text-anchor="middle" x="530" y="-494" font-family="Helvetica,sans-Serif" font-size="10.00">set_hash_table_erase</text>
</a>
</g>
</g>
<!-- Node21&#45;&gt;Node22 -->
<g id="edge32_Node000021_Node000022" class="edge"><title>Node21&#45;&gt;Node22</title>
<g id="a_edge32_Node000021_Node000022"><a xlink:title=" ">
<path fill="none" stroke="#63b8ff" d="M407.162,-468.975C426.863,-473.426 453.588,-479.463 476.988,-484.75"/>
<polygon fill="#63b8ff" stroke="#63b8ff" points="476.258,-488.173 486.783,-486.963 477.8,-481.345 476.258,-488.173"/>
</a>
</g>
</g>
<!-- Node26 -->
<g id="Node000026" class="node"><title>Node26</title>
<g id="a_Node000026"><a xlink:href="group___t_set.html#ga213cfb714cece49d955fc452b2aeb186" target="_top" xlink:title="Přečtení počtu elementů množiny.">
<polygon fill="white" stroke="#666666" points="556.5,-469 503.5,-469 503.5,-450 556.5,-450 556.5,-469"/>
<text text-anchor="middle" x="530" y="-457" font-family="Helvetica,sans-Serif" font-size="10.00">set_size</text>
</a>
</g>
</g>
<!-- Node21&#45;&gt;Node26 -->
<g id="edge38_Node000021_Node000026" class="edge"><title>Node21&#45;&gt;Node26</title>
<g id="a_edge38_Node000021_Node000026"><a xlink:title=" ">
<path fill="none" stroke="#63b8ff" d="M407.162,-461.929C431.598,-461.442 466.841,-460.739 493.142,-460.215"/>
<polygon fill="#63b8ff" stroke="#63b8ff" points="493.524,-463.708 503.452,-460.009 493.385,-456.709 493.524,-463.708"/>
</a>
</g>
</g>
<!-- Node22&#45;&gt;Node4 -->
<g id="edge33_Node000022_Node000004" class="edge"><title>Node22&#45;&gt;Node4</title>
<g id="a_edge33_Node000022_Node000004"><a xlink:title=" ">
<path fill="none" stroke="#63b8ff" d="M586.024,-499.777C682.212,-504.532 876.209,-509.499 934,-476.5 975.329,-452.901 1000.58,-400.711 1012.58,-369.489"/>
<polygon fill="#63b8ff" stroke="#63b8ff" points="1015.99,-370.369 1016.14,-359.776 1009.41,-367.958 1015.99,-370.369"/>
</a>
</g>
</g>
<!-- Node23 -->
<g id="Node000023" class="node"><title>Node23</title>
<g id="a_Node000023"><a xlink:href="group___t_set_hash_table.html#ga69c2697abdd49b443ea76077058df6b0" target="_top" xlink:title="Vyhledání elementu o zadané hodnotě v hašovací tabulce využívající otevřené adresování">
<polygon fill="white" stroke="#666666" points="750.5,-431 633.5,-431 633.5,-412 750.5,-412 750.5,-431"/>
<text text-anchor="middle" x="692" y="-419" font-family="Helvetica,sans-Serif" font-size="10.00">set_hash_table_search</text>
</a>
</g>
</g>
<!-- Node22&#45;&gt;Node23 -->
<g id="edge34_Node000022_Node000023" class="edge"><title>Node22&#45;&gt;Node23</title>
<g id="a_edge34_Node000022_Node000023"><a xlink:title=" ">
<path fill="none" stroke="#63b8ff" d="M566.704,-486.975C574.497,-484.52 582.618,-481.664 590,-478.5 617.798,-466.584 647.748,-449.028 667.753,-436.552"/>
<polygon fill="#63b8ff" stroke="#63b8ff" points="669.878,-439.35 676.462,-431.05 666.138,-433.432 669.878,-439.35"/>
</a>
</g>
</g>
<!-- Node23&#45;&gt;Node4 -->
<g id="edge35_Node000023_Node000004" class="edge"><title>Node23&#45;&gt;Node4</title>
<g id="a_edge35_Node000023_Node000004"><a xlink:title=" ">
<path fill="none" stroke="#63b8ff" d="M733.548,-411.981C790.283,-398.662 893.804,-374.36 959.903,-358.843"/>
<polygon fill="#63b8ff" stroke="#63b8ff" points="960.84,-362.218 969.775,-356.525 959.24,-355.403 960.84,-362.218"/>
</a>
</g>
</g>
<!-- Node24 -->
<g id="Node000024" class="node"><title>Node24</title>
<g id="a_Node000024"><a xlink:href="group___t_set_element_hashable.html#gad8cfc9a36f36c44c10b660c5b370f67e" target="_top" xlink:title="Porovnání dvou elementů">
<polygon fill="white" stroke="#666666" points="926,-430 802,-430 802,-411 926,-411 926,-430"/>
<text text-anchor="middle" x="864" y="-418" font-family="Helvetica,sans-Serif" font-size="10.00">set_element_comparator</text>
</a>
</g>
</g>
<!-- Node23&#45;&gt;Node24 -->
<g id="edge36_Node000023_Node000024" class="edge"><title>Node23&#45;&gt;Node24</title>
<g id="a_edge36_Node000023_Node000024"><a xlink:title=" ">
<path fill="none" stroke="#63b8ff" d="M750.554,-421.161C763.68,-421.084 777.784,-421.001 791.416,-420.921"/>
<polygon fill="#63b8ff" stroke="#63b8ff" points="791.744,-424.419 801.724,-420.86 791.703,-417.419 791.744,-424.419"/>
</a>
</g>
</g>
<!-- Node25 -->
<g id="Node000025" class="node"><title>Node25</title>
<g id="a_Node000025"><a xlink:href="group___t_set_element_hashable.html#ga4a88e3b3d94aa8fa572cf07764d843e0" target="_top" xlink:title="Výpočet hash hodnoty elementu.">
<polygon fill="white" stroke="#666666" points="925.5,-467 802.5,-467 802.5,-448 925.5,-448 925.5,-467"/>
<text text-anchor="middle" x="864" y="-455" font-family="Helvetica,sans-Serif" font-size="10.00">set_element_hash_value</text>
</a>
</g>
</g>
<!-- Node23&#45;&gt;Node25 -->
<g id="edge37_Node000023_Node000025" class="edge"><title>Node23&#45;&gt;Node25</title>
<g id="a_edge37_Node000023_Node000025"><a xlink:title=" ">
<path fill="none" stroke="#63b8ff" d="M738.111,-431.053C759.618,-435.607 785.531,-441.095 808.166,-445.888"/>
<polygon fill="#63b8ff" stroke="#63b8ff" points="807.466,-449.317 817.974,-447.965 808.916,-442.469 807.466,-449.317"/>
</a>
</g>
</g>
<!-- Node28 -->
<g id="Node000028" class="node"><title>Node28</title>
<g id="a_Node000028"><a xlink:href="group___t_set_hash_table.html#gaa2a0e99e7960542538a8d251c488b808" target="_top" xlink:title="Inicializace hašovací tabulky.">
<polygon fill="white" stroke="#666666" points="580.5,-395 479.5,-395 479.5,-376 580.5,-376 580.5,-395"/>
<text text-anchor="middle" x="530" y="-383" font-family="Helvetica,sans-Serif" font-size="10.00">set_hash_table_init</text>
</a>
</g>
</g>
<!-- Node27&#45;&gt;Node28 -->
<g id="edge42_Node000027_Node000028" class="edge"><title>Node27&#45;&gt;Node28</title>
<g id="a_edge42_Node000027_Node000028"><a xlink:title=" ">
<path fill="none" stroke="#63b8ff" d="M407.162,-356.356C427.46,-361.211 455.214,-367.85 479.106,-373.565"/>
<polygon fill="#63b8ff" stroke="#63b8ff" points="478.536,-377.028 489.076,-375.95 480.165,-370.22 478.536,-377.028"/>
</a>
</g>
</g>
<!-- Node29 -->
<g id="Node000029" class="node"><title>Node29</title>
<g id="a_Node000029"><a xlink:href="group___t_set_hash_table.html#gaa4327c29b178abf7b79112463e1f9fb0" target="_top" xlink:title="Vložení elementu do hašovací tabulky.">
<polygon fill="white" stroke="#666666" points="586,-358 474,-358 474,-339 586,-339 586,-358"/>
<text text-anchor="middle" x="530" y="-346" font-family="Helvetica,sans-Serif" font-size="10.00">set_hash_table_insert</text>
</a>
</g>
</g>
<!-- Node27&#45;&gt;Node29 -->
<g id="edge43_Node000027_Node000029" class="edge"><title>Node27&#45;&gt;Node29</title>
<g id="a_edge43_Node000027_Node000029"><a xlink:title=" ">
<path fill="none" stroke="#63b8ff" d="M407.162,-349.31C423.212,-349.203 443.925,-349.065 463.703,-348.934"/>
<polygon fill="#63b8ff" stroke="#63b8ff" points="463.955,-352.432 473.931,-348.866 463.908,-345.433 463.955,-352.432"/>
</a>
</g>
</g>
<!-- Node29&#45;&gt;Node23 -->
<g id="edge44_Node000029_Node000023" class="edge"><title>Node29&#45;&gt;Node23</title>
<g id="a_edge44_Node000029_Node000023"><a xlink:title=" ">
<path fill="none" stroke="#63b8ff" d="M564.151,-358.024C572.685,-360.788 581.778,-364.011 590,-367.5 617.021,-378.965 646.463,-395.163 666.55,-406.824"/>
<polygon fill="#63b8ff" stroke="#63b8ff" points="664.946,-409.941 675.342,-411.986 668.49,-403.905 664.946,-409.941"/>
</a>
</g>
</g>
<!-- Node30&#45;&gt;Node23 -->
<g id="edge46_Node000030_Node000023" class="edge"><title>Node30&#45;&gt;Node23</title>
<g id="a_edge46_Node000030_Node000023"><a xlink:title=" ">
<path fill="none" stroke="#63b8ff" d="M577.709,-422.208C592.009,-422.119 608.037,-422.019 623.435,-421.922"/>
<polygon fill="#63b8ff" stroke="#63b8ff" points="623.461,-425.422 633.439,-421.86 623.417,-418.422 623.461,-425.422"/>
</a>
</g>
</g>
<!-- Node31&#45;&gt;Node26 -->
<g id="edge48_Node000031_Node000026" class="edge"><title>Node31&#45;&gt;Node26</title>
<g id="a_edge48_Node000031_Node000026"><a xlink:title=" ">
<path fill="none" stroke="#63b8ff" d="M415.316,-433.817C439.119,-439.195 469.935,-446.156 493.477,-451.475"/>
<polygon fill="#63b8ff" stroke="#63b8ff" points="492.879,-454.928 503.404,-453.718 494.422,-448.1 492.879,-454.928"/>
</a>
</g>
</g>
</g>
</svg>
