<?xml version="1.0" encoding="UTF-8" standalone="no"?>
<!DOCTYPE svg PUBLIC "-//W3C//DTD SVG 1.1//EN"
 "http://www.w3.org/Graphics/SVG/1.1/DTD/svg11.dtd">
<!-- Generated by graphviz version 2.38.0 (20140413.2041)
 -->
<!-- Title: set_erase Pages: 1 -->
<svg width="531pt" height="140pt"
 viewBox="0.00 0.00 531.00 140.00" xmlns="http://www.w3.org/2000/svg" xmlns:xlink="http://www.w3.org/1999/xlink">
<g id="graph0" class="graph" transform="scale(1 1) rotate(0) translate(4 136)">
<title>set_erase</title>
<!-- Node1 -->
<g id="Node000001" class="node"><title>Node1</title>
<g id="a_Node000001"><a xlink:title="Odstranění elementu z množiny.">
<polygon fill="#999999" stroke="#666666" points="59,-94 0,-94 0,-75 59,-75 59,-94"/>
<text text-anchor="middle" x="29.5" y="-82" font-family="Helvetica,sans-Serif" font-size="10.00">set_erase</text>
</a>
</g>
</g>
<!-- Node2 -->
<g id="Node000002" class="node"><title>Node2</title>
<g id="a_Node000002"><a xlink:href="group___t_set_hash_table.html#ga1562a195e21d46896e078ba7e555042b" target="_top" xlink:title="Deinicializace hašovací tabulky.">
<polygon fill="white" stroke="#666666" points="363,-132 243,-132 243,-113 363,-113 363,-132"/>
<text text-anchor="middle" x="303" y="-120" font-family="Helvetica,sans-Serif" font-size="10.00">set_hash_table_destroy</text>
</a>
</g>
</g>
<!-- Node1&#45;&gt;Node2 -->
<g id="edge1_Node000001_Node000002" class="edge"><title>Node1&#45;&gt;Node2</title>
<g id="a_edge1_Node000001_Node000002"><a xlink:title=" ">
<path fill="none" stroke="#63b8ff" d="M58.4646,-94.0306C69.699,-97.5181 82.8463,-101.175 95,-103.5 140.421,-112.188 192.234,-116.939 232.661,-119.518"/>
<polygon fill="#63b8ff" stroke="#63b8ff" points="232.489,-123.013 242.683,-120.127 232.914,-116.026 232.489,-123.013"/>
</a>
</g>
</g>
<!-- Node4 -->
<g id="Node000004" class="node"><title>Node4</title>
<g id="a_Node000004"><a xlink:href="group___t_set_hash_table.html#gaee3600d3134fc51a78e4142bbdc0ba2b" target="_top" xlink:title="Odstranění elementu z hašovací tabulky.">
<polygon fill="white" stroke="#666666" points="207,-94 95,-94 95,-75 207,-75 207,-94"/>
<text text-anchor="middle" x="151" y="-82" font-family="Helvetica,sans-Serif" font-size="10.00">set_hash_table_erase</text>
</a>
</g>
</g>
<!-- Node1&#45;&gt;Node4 -->
<g id="edge3_Node000001_Node000004" class="edge"><title>Node1&#45;&gt;Node4</title>
<g id="a_edge3_Node000001_Node000004"><a xlink:title=" ">
<path fill="none" stroke="#63b8ff" d="M59.1232,-84.5C66.9495,-84.5 75.7642,-84.5 84.7463,-84.5"/>
<polygon fill="#63b8ff" stroke="#63b8ff" points="84.9147,-88.0001 94.9147,-84.5 84.9146,-81.0001 84.9147,-88.0001"/>
</a>
</g>
</g>
<!-- Node8 -->
<g id="Node000008" class="node"><title>Node8</title>
<g id="a_Node000008"><a xlink:href="group___t_set.html#ga213cfb714cece49d955fc452b2aeb186" target="_top" xlink:title="Přečtení počtu elementů množiny.">
<polygon fill="white" stroke="#666666" points="177.5,-57 124.5,-57 124.5,-38 177.5,-38 177.5,-57"/>
<text text-anchor="middle" x="151" y="-45" font-family="Helvetica,sans-Serif" font-size="10.00">set_size</text>
</a>
</g>
</g>
<!-- Node1&#45;&gt;Node8 -->
<g id="edge9_Node000001_Node000008" class="edge"><title>Node1&#45;&gt;Node8</title>
<g id="a_edge9_Node000001_Node000008"><a xlink:title=" ">
<path fill="none" stroke="#63b8ff" d="M59.1232,-75.6376C75.7467,-70.4905 96.83,-63.9627 114.504,-58.4905"/>
<polygon fill="#63b8ff" stroke="#63b8ff" points="115.939,-61.7102 124.456,-55.4091 113.868,-55.0234 115.939,-61.7102"/>
</a>
</g>
</g>
<!-- Node3 -->
<g id="Node000003" class="node"><title>Node3</title>
<g id="a_Node000003"><a xlink:href="_t_set_hash_table_open_addr_8c.html#aa4a90f23bbdbe5bb71a49d7df2ee5fc1" target="_top" xlink:title="Funkce vracející hodnotu reprezentující smazanou přihrádku.">
<polygon fill="white" stroke="#666666" points="513,-104.5 409,-104.5 409,-74.5 513,-74.5 513,-104.5"/>
<text text-anchor="start" x="417" y="-92.5" font-family="Helvetica,sans-Serif" font-size="10.00">calc_erased_bucket</text>
<text text-anchor="middle" x="461" y="-81.5" font-family="Helvetica,sans-Serif" font-size="10.00">_marker</text>
</a>
</g>
</g>
<!-- Node2&#45;&gt;Node3 -->
<g id="edge2_Node000002_Node000003" class="edge"><title>Node2&#45;&gt;Node3</title>
<g id="a_edge2_Node000002_Node000003"><a xlink:title=" ">
<path fill="none" stroke="#63b8ff" d="M349.122,-112.955C364.622,-109.676 382.242,-105.949 398.802,-102.446"/>
<polygon fill="#63b8ff" stroke="#63b8ff" points="399.888,-105.794 408.947,-100.3 398.439,-98.9452 399.888,-105.794"/>
</a>
</g>
</g>
<!-- Node4&#45;&gt;Node3 -->
<g id="edge4_Node000004_Node000003" class="edge"><title>Node4&#45;&gt;Node3</title>
<g id="a_edge4_Node000004_Node000003"><a xlink:title=" ">
<path fill="none" stroke="#63b8ff" d="M207.064,-85.3939C260.982,-86.2692 342.957,-87.6 398.868,-88.5076"/>
<polygon fill="#63b8ff" stroke="#63b8ff" points="398.936,-92.0091 408.992,-88.6719 399.05,-85.01 398.936,-92.0091"/>
</a>
</g>
</g>
<!-- Node5 -->
<g id="Node000005" class="node"><title>Node5</title>
<g id="a_Node000005"><a xlink:href="group___t_set_hash_table.html#ga69c2697abdd49b443ea76077058df6b0" target="_top" xlink:title="Vyhledání elementu o zadané hodnotě v hašovací tabulce využívající otevřené adresování">
<polygon fill="white" stroke="#666666" points="361.5,-56 244.5,-56 244.5,-37 361.5,-37 361.5,-56"/>
<text text-anchor="middle" x="303" y="-44" font-family="Helvetica,sans-Serif" font-size="10.00">set_hash_table_search</text>
</a>
</g>
</g>
<!-- Node4&#45;&gt;Node5 -->
<g id="edge5_Node000004_Node000005" class="edge"><title>Node4&#45;&gt;Node5</title>
<g id="a_edge5_Node000004_Node000005"><a xlink:title=" ">
<path fill="none" stroke="#63b8ff" d="M189.851,-74.911C209.467,-69.9417 233.619,-63.8233 254.479,-58.5387"/>
<polygon fill="#63b8ff" stroke="#63b8ff" points="255.587,-61.8687 264.421,-56.0201 253.868,-55.0831 255.587,-61.8687"/>
</a>
</g>
</g>
<!-- Node5&#45;&gt;Node3 -->
<g id="edge6_Node000005_Node000003" class="edge"><title>Node5&#45;&gt;Node3</title>
<g id="a_edge6_Node000005_Node000003"><a xlink:title=" ">
<path fill="none" stroke="#63b8ff" d="M338.621,-56.0431C356.364,-60.9336 378.497,-67.0343 398.986,-72.6821"/>
<polygon fill="#63b8ff" stroke="#63b8ff" points="398.315,-76.1277 408.886,-75.4109 400.176,-69.3793 398.315,-76.1277"/>
</a>
</g>
</g>
<!-- Node6 -->
<g id="Node000006" class="node"><title>Node6</title>
<g id="a_Node000006"><a xlink:href="group___t_set_element_hashable.html#gad8cfc9a36f36c44c10b660c5b370f67e" target="_top" xlink:title="Porovnání dvou elementů">
<polygon fill="white" stroke="#666666" points="523,-56 399,-56 399,-37 523,-37 523,-56"/>
<text text-anchor="middle" x="461" y="-44" font-family="Helvetica,sans-Serif" font-size="10.00">set_element_comparator</text>
</a>
</g>
</g>
<!-- Node5&#45;&gt;Node6 -->
<g id="edge7_Node000005_Node000006" class="edge"><title>Node5&#45;&gt;Node6</title>
<g id="a_edge7_Node000005_Node000006"><a xlink:title=" ">
<path fill="none" stroke="#63b8ff" d="M361.645,-46.5C370.474,-46.5 379.677,-46.5 388.756,-46.5"/>
<polygon fill="#63b8ff" stroke="#63b8ff" points="388.929,-50.0001 398.929,-46.5 388.929,-43.0001 388.929,-50.0001"/>
</a>
</g>
</g>
<!-- Node7 -->
<g id="Node000007" class="node"><title>Node7</title>
<g id="a_Node000007"><a xlink:href="group___t_set_element_hashable.html#ga4a88e3b3d94aa8fa572cf07764d843e0" target="_top" xlink:title="Výpočet hash hodnoty elementu.">
<polygon fill="white" stroke="#666666" points="522.5,-19 399.5,-19 399.5,-0 522.5,-0 522.5,-19"/>
<text text-anchor="middle" x="461" y="-7" font-family="Helvetica,sans-Serif" font-size="10.00">set_element_hash_value</text>
</a>
</g>
</g>
<!-- Node5&#45;&gt;Node7 -->
<g id="edge8_Node000005_Node000007" class="edge"><title>Node5&#45;&gt;Node7</title>
<g id="a_edge8_Node000005_Node000007"><a xlink:title=" ">
<path fill="none" stroke="#63b8ff" d="M344.174,-36.9716C364.203,-32.2211 388.623,-26.4292 409.867,-21.3905"/>
<polygon fill="#63b8ff" stroke="#63b8ff" points="410.769,-24.7737 419.691,-19.0604 409.154,-17.9627 410.769,-24.7737"/>
</a>
</g>
</g>
</g>
</svg>
