<?xml version="1.0" encoding="UTF-8" standalone="no"?>
<!DOCTYPE svg PUBLIC "-//W3C//DTD SVG 1.1//EN"
 "http://www.w3.org/Graphics/SVG/1.1/DTD/svg11.dtd">
<!-- Generated by graphviz version 2.38.0 (20140413.2041)
 -->
<!-- Title: set_iterator_value Pages: 1 -->
<svg width="554pt" height="76pt"
 viewBox="0.00 0.00 554.00 75.50" xmlns="http://www.w3.org/2000/svg" xmlns:xlink="http://www.w3.org/1999/xlink">
<g id="graph0" class="graph" transform="scale(1 1) rotate(0) translate(4 71.5)">
<title>set_iterator_value</title>
<!-- Node1 -->
<g id="Node000001" class="node"><title>Node1</title>
<g id="a_Node000001"><a xlink:title="Přečtení hodnoty elementu z množiny pomocí iterátoru.">
<polygon fill="#999999" stroke="#666666" points="92,-40 0,-40 0,-21 92,-21 92,-40"/>
<text text-anchor="middle" x="46" y="-28" font-family="Helvetica,sans-Serif" font-size="10.00">set_iterator_value</text>
</a>
</g>
</g>
<!-- Node2 -->
<g id="Node000002" class="node"><title>Node2</title>
<g id="a_Node000002"><a xlink:href="group___t_set_hash_table.html#gaf6b548ed4295b1a4789d073b8a43db58" target="_top" xlink:title="Přečtení hodnoty elementu z platné přihrádky v hašovací tabulce.">
<polygon fill="white" stroke="#666666" points="391,-67.5 281,-67.5 281,-37.5 391,-37.5 391,-67.5"/>
<text text-anchor="start" x="289" y="-55.5" font-family="Helvetica,sans-Serif" font-size="10.00">set_hash_table_value</text>
<text text-anchor="middle" x="336" y="-44.5" font-family="Helvetica,sans-Serif" font-size="10.00">_at_pos</text>
</a>
</g>
</g>
<!-- Node1&#45;&gt;Node2 -->
<g id="edge1_Node000001_Node000002" class="edge"><title>Node1&#45;&gt;Node2</title>
<g id="a_edge1_Node000001_Node000002"><a xlink:title=" ">
<path fill="none" stroke="#63b8ff" d="M92.3168,-33.9617C140.31,-37.6279 216.482,-43.4466 270.679,-47.5866"/>
<polygon fill="#63b8ff" stroke="#63b8ff" points="270.632,-51.0931 280.87,-48.3651 271.166,-44.1135 270.632,-51.0931"/>
</a>
</g>
</g>
<!-- Node4 -->
<g id="Node000004" class="node"><title>Node4</title>
<g id="a_Node000004"><a xlink:href="group___t_set_iterator.html#ga089f24c81ac3da7d1ac7ca24cc078dd8" target="_top" xlink:title="Zjištění platnosti iterátoru.">
<polygon fill="white" stroke="#666666" points="230,-21 128,-21 128,-2 230,-2 230,-21"/>
<text text-anchor="middle" x="179" y="-9" font-family="Helvetica,sans-Serif" font-size="10.00">set_iterator_is_valid</text>
</a>
</g>
</g>
<!-- Node1&#45;&gt;Node4 -->
<g id="edge3_Node000001_Node000004" class="edge"><title>Node1&#45;&gt;Node4</title>
<g id="a_edge3_Node000001_Node000004"><a xlink:title=" ">
<path fill="none" stroke="#63b8ff" d="M92.0828,-23.9613C100.381,-22.7577 109.166,-21.4836 117.825,-20.2277"/>
<polygon fill="#63b8ff" stroke="#63b8ff" points="118.502,-23.6662 127.896,-18.767 117.497,-16.7386 118.502,-23.6662"/>
</a>
</g>
</g>
<!-- Node3 -->
<g id="Node000003" class="node"><title>Node3</title>
<g id="a_Node000003"><a xlink:href="_t_set_hash_table_open_addr_8c.html#aa4a90f23bbdbe5bb71a49d7df2ee5fc1" target="_top" xlink:title="Funkce vracející hodnotu reprezentující smazanou přihrádku.">
<polygon fill="white" stroke="#666666" points="546,-45.5 442,-45.5 442,-15.5 546,-15.5 546,-45.5"/>
<text text-anchor="start" x="450" y="-33.5" font-family="Helvetica,sans-Serif" font-size="10.00">calc_erased_bucket</text>
<text text-anchor="middle" x="494" y="-22.5" font-family="Helvetica,sans-Serif" font-size="10.00">_marker</text>
</a>
</g>
</g>
<!-- Node2&#45;&gt;Node3 -->
<g id="edge2_Node000002_Node000003" class="edge"><title>Node2&#45;&gt;Node3</title>
<g id="a_edge2_Node000002_Node000003"><a xlink:title=" ">
<path fill="none" stroke="#63b8ff" d="M391.123,-44.8672C404.237,-43.0179 418.347,-41.028 431.763,-39.1361"/>
<polygon fill="#63b8ff" stroke="#63b8ff" points="432.445,-42.5745 441.858,-37.7123 431.467,-35.6431 432.445,-42.5745"/>
</a>
</g>
</g>
<!-- Node5 -->
<g id="Node000005" class="node"><title>Node5</title>
<g id="a_Node000005"><a xlink:href="group___t_set_hash_table.html#ga891b531cc6373331e55101f2dd75ac4a" target="_top" xlink:title="Zjištění platnosti pozice v hašovací tabulce.">
<polygon fill="white" stroke="#666666" points="406,-19 266,-19 266,-0 406,-0 406,-19"/>
<text text-anchor="middle" x="336" y="-7" font-family="Helvetica,sans-Serif" font-size="10.00">set_hash_table_is_valid_pos</text>
</a>
</g>
</g>
<!-- Node4&#45;&gt;Node5 -->
<g id="edge4_Node000004_Node000005" class="edge"><title>Node4&#45;&gt;Node5</title>
<g id="a_edge4_Node000004_Node000005"><a xlink:title=" ">
<path fill="none" stroke="#63b8ff" d="M230.324,-10.8507C238.457,-10.7457 247.046,-10.6349 255.666,-10.5237"/>
<polygon fill="#63b8ff" stroke="#63b8ff" points="255.819,-14.0221 265.773,-10.3932 255.729,-7.02266 255.819,-14.0221"/>
</a>
</g>
</g>
<!-- Node5&#45;&gt;Node3 -->
<g id="edge5_Node000005_Node000003" class="edge"><title>Node5&#45;&gt;Node3</title>
<g id="a_edge5_Node000005_Node000003"><a xlink:title=" ">
<path fill="none" stroke="#63b8ff" d="M406.332,-18.8332C414.779,-19.9702 423.362,-21.1257 431.681,-22.2455"/>
<polygon fill="#63b8ff" stroke="#63b8ff" points="431.291,-25.7245 441.668,-23.59 432.225,-18.787 431.291,-25.7245"/>
</a>
</g>
</g>
</g>
</svg>
