<?xml version="1.0" encoding="UTF-8" standalone="no"?>
<!DOCTYPE svg PUBLIC "-//W3C//DTD SVG 1.1//EN"
 "http://www.w3.org/Graphics/SVG/1.1/DTD/svg11.dtd">
<!-- Generated by graphviz version 2.38.0 (20140413.2041)
 -->
<!-- Title: set_hash_table_next_pos Pages: 1 -->
<svg width="711pt" height="177pt"
 viewBox="0.00 0.00 711.00 177.00" xmlns="http://www.w3.org/2000/svg" xmlns:xlink="http://www.w3.org/1999/xlink">
<g id="graph0" class="graph" transform="scale(1 1) rotate(0) translate(4 173)">
<title>set_hash_table_next_pos</title>
<!-- Node1 -->
<g id="Node000001" class="node"><title>Node1</title>
<g id="a_Node000001"><a xlink:title="Výpočet následující pozice platné přihrádky v hašovací tabulce.">
<polygon fill="#999999" stroke="#666666" points="703,-95 575,-95 575,-76 703,-76 703,-95"/>
<text text-anchor="middle" x="639" y="-83" font-family="Helvetica,sans-Serif" font-size="10.00">set_hash_table_next_pos</text>
</a>
</g>
</g>
<!-- Node2 -->
<g id="Node000002" class="node"><title>Node2</title>
<g id="a_Node000002"><a xlink:href="group___t_set_iterator.html#ga6723a05c864198597ff49718020bd0d6" target="_top" xlink:title="Posunutí iterátoru vpřed.">
<polygon fill="white" stroke="#666666" points="539,-95 436,-95 436,-76 539,-76 539,-95"/>
<text text-anchor="middle" x="487.5" y="-83" font-family="Helvetica,sans-Serif" font-size="10.00">set_iterator_to_next</text>
</a>
</g>
</g>
<!-- Node1&#45;&gt;Node2 -->
<g id="edge1_Node000001_Node000002" class="edge"><title>Node1&#45;&gt;Node2</title>
<g id="a_edge1_Node000001_Node000002"><a xlink:title=" ">
<path fill="none" stroke="#63b8ff" d="M564.596,-85.5C556.044,-85.5 547.468,-85.5 539.316,-85.5"/>
<polygon fill="#63b8ff" stroke="#63b8ff" points="564.599,-89.0001 574.599,-85.5 564.599,-82.0001 564.599,-89.0001"/>
</a>
</g>
</g>
<!-- Node3 -->
<g id="Node000003" class="node"><title>Node3</title>
<g id="a_Node000003"><a xlink:href="group___iterator_algorithms.html#ga1785c6060679dcab5e6781b66659dbf3" target="_top" xlink:title="Vyhledání prvního elementu množiny splňujícího zadaný predikát.">
<polygon fill="white" stroke="#666666" points="390.5,-169 330.5,-169 330.5,-150 390.5,-150 390.5,-169"/>
<text text-anchor="middle" x="360.5" y="-157" font-family="Helvetica,sans-Serif" font-size="10.00">set_find_if</text>
</a>
</g>
</g>
<!-- Node2&#45;&gt;Node3 -->
<g id="edge2_Node000002_Node000003" class="edge"><title>Node2&#45;&gt;Node3</title>
<g id="a_edge2_Node000002_Node000003"><a xlink:title=" ">
<path fill="none" stroke="#63b8ff" d="M464.832,-100.714C447.638,-112.494 422.787,-128.875 400,-141.5 394.708,-144.432 388.856,-147.333 383.345,-149.921"/>
<polygon fill="#63b8ff" stroke="#63b8ff" points="466.838,-103.583 473.074,-95.0181 462.858,-97.8243 466.838,-103.583"/>
</a>
</g>
</g>
<!-- Node4 -->
<g id="Node000004" class="node"><title>Node4</title>
<g id="a_Node000004"><a xlink:href="group___iterator_algorithms.html#ga8ca52ed8ac7c0be83a19c7ed10f813cd" target="_top" xlink:title="Vyhledání prvního elementu množiny nesplňujícího zadaný predikát.">
<polygon fill="white" stroke="#666666" points="400,-132 321,-132 321,-113 400,-113 400,-132"/>
<text text-anchor="middle" x="360.5" y="-120" font-family="Helvetica,sans-Serif" font-size="10.00">set_find_if_not</text>
</a>
</g>
</g>
<!-- Node2&#45;&gt;Node4 -->
<g id="edge3_Node000002_Node000004" class="edge"><title>Node2&#45;&gt;Node4</title>
<g id="a_edge3_Node000002_Node000004"><a xlink:title=" ">
<path fill="none" stroke="#63b8ff" d="M444.393,-97.9637C427.952,-102.83 409.397,-108.323 394.016,-112.875"/>
<polygon fill="#63b8ff" stroke="#63b8ff" points="445.714,-101.223 454.309,-95.0284 443.727,-94.5107 445.714,-101.223"/>
</a>
</g>
</g>
<!-- Node5 -->
<g id="Node000005" class="node"><title>Node5</title>
<g id="a_Node000005"><a xlink:href="group___iterator_algorithms.html#gab8ba369b42eda61d010f35df73be73db" target="_top" xlink:title="Zavolání zvolené funkce na každý element množiny od pozice určené iterátorem až do posledního element...">
<polygon fill="white" stroke="#666666" points="396.5,-95 324.5,-95 324.5,-76 396.5,-76 396.5,-95"/>
<text text-anchor="middle" x="360.5" y="-83" font-family="Helvetica,sans-Serif" font-size="10.00">set_for_each</text>
</a>
</g>
</g>
<!-- Node2&#45;&gt;Node5 -->
<g id="edge4_Node000002_Node000005" class="edge"><title>Node2&#45;&gt;Node5</title>
<g id="a_edge4_Node000002_Node000005"><a xlink:title=" ">
<path fill="none" stroke="#63b8ff" d="M425.416,-85.5C415.531,-85.5 405.6,-85.5 396.61,-85.5"/>
<polygon fill="#63b8ff" stroke="#63b8ff" points="425.658,-89.0001 435.658,-85.5 425.658,-82.0001 425.658,-89.0001"/>
</a>
</g>
</g>
<!-- Node9 -->
<g id="Node000009" class="node"><title>Node9</title>
<g id="a_Node000009"><a xlink:href="group___main_program.html#ga2762b0417283abc168151cbffee8216c" target="_top" xlink:title=" ">
<polygon fill="white" stroke="#666666" points="285,-57 188,-57 188,-38 285,-38 285,-57"/>
<text text-anchor="middle" x="236.5" y="-45" font-family="Helvetica,sans-Serif" font-size="10.00">testset_hardcoded</text>
</a>
</g>
</g>
<!-- Node2&#45;&gt;Node9 -->
<g id="edge11_Node000002_Node000009" class="edge"><title>Node2&#45;&gt;Node9</title>
<g id="a_edge11_Node000002_Node000009"><a xlink:title=" ">
<path fill="none" stroke="#63b8ff" d="M433.903,-73.8307C422.743,-71.5581 411.007,-69.3195 400,-67.5 361.58,-61.1493 317.742,-55.868 285.289,-52.3303"/>
<polygon fill="#63b8ff" stroke="#63b8ff" points="433.452,-77.3115 443.954,-75.9164 434.874,-70.4575 433.452,-77.3115"/>
</a>
</g>
</g>
<!-- Node10 -->
<g id="Node000010" class="node"><title>Node10</title>
<g id="a_Node000010"><a xlink:href="group___iterator_algorithms.html#gadbab6630263afa4c69e0c78118fa56df" target="_top" xlink:title="Zavolání zvolené funkce na prvních N elementů množiny od pozice určené iterátorem.">
<polygon fill="white" stroke="#666666" points="388.5,-19 332.5,-19 332.5,-0 388.5,-0 388.5,-19"/>
<text text-anchor="middle" x="360.5" y="-7" font-family="Helvetica,sans-Serif" font-size="10.00">set_for_n</text>
</a>
</g>
</g>
<!-- Node2&#45;&gt;Node10 -->
<g id="edge10_Node000002_Node000010" class="edge"><title>Node2&#45;&gt;Node10</title>
<g id="a_edge10_Node000002_Node000010"><a xlink:title=" ">
<path fill="none" stroke="#63b8ff" d="M462.067,-70.6447C436.938,-55.3665 398.549,-32.0258 377.203,-19.0473"/>
<polygon fill="#63b8ff" stroke="#63b8ff" points="460.306,-73.67 470.669,-75.8745 463.942,-67.6887 460.306,-73.67"/>
</a>
</g>
</g>
<!-- Node6 -->
<g id="Node000006" class="node"><title>Node6</title>
<g id="a_Node000006"><a xlink:href="testbench_8c.html#a068734a4e1d6209769e0c6b1675ca02b" target="_top" xlink:title="Provedení jednoho test z testovacího plánu na předaném ADT.">
<polygon fill="white" stroke="#666666" points="262.5,-95 210.5,-95 210.5,-76 262.5,-76 262.5,-95"/>
<text text-anchor="middle" x="236.5" y="-83" font-family="Helvetica,sans-Serif" font-size="10.00">test_run</text>
</a>
</g>
</g>
<!-- Node5&#45;&gt;Node6 -->
<g id="edge5_Node000005_Node000006" class="edge"><title>Node5&#45;&gt;Node6</title>
<g id="a_edge5_Node000005_Node000006"><a xlink:title=" ">
<path fill="none" stroke="#63b8ff" d="M314.208,-85.5C296.774,-85.5 277.505,-85.5 262.64,-85.5"/>
<polygon fill="#63b8ff" stroke="#63b8ff" points="314.213,-89.0001 324.213,-85.5 314.213,-82.0001 314.213,-89.0001"/>
</a>
</g>
</g>
<!-- Node5&#45;&gt;Node9 -->
<g id="edge8_Node000005_Node000009" class="edge"><title>Node5&#45;&gt;Node9</title>
<g id="a_edge8_Node000005_Node000009"><a xlink:title=" ">
<path fill="none" stroke="#63b8ff" d="M318.789,-72.8196C302.305,-67.6852 283.59,-61.8559 268.276,-57.0859"/>
<polygon fill="#63b8ff" stroke="#63b8ff" points="318.126,-76.2787 328.714,-75.911 320.208,-69.5954 318.126,-76.2787"/>
</a>
</g>
</g>
<!-- Node7 -->
<g id="Node000007" class="node"><title>Node7</title>
<g id="a_Node000007"><a xlink:href="testbench_8c.html#a2fa1559684d267665b1c2433208511d3" target="_top" xlink:title="Provedení všech testů zadaného testovacího plánu na předaném ADT.">
<polygon fill="white" stroke="#666666" points="152,-95 74,-95 74,-76 152,-76 152,-95"/>
<text text-anchor="middle" x="113" y="-83" font-family="Helvetica,sans-Serif" font-size="10.00">testbench_run</text>
</a>
</g>
</g>
<!-- Node6&#45;&gt;Node7 -->
<g id="edge6_Node000006_Node000007" class="edge"><title>Node6&#45;&gt;Node7</title>
<g id="a_edge6_Node000006_Node000007"><a xlink:title=" ">
<path fill="none" stroke="#63b8ff" d="M199.894,-85.5C184.87,-85.5 167.356,-85.5 152.076,-85.5"/>
<polygon fill="#63b8ff" stroke="#63b8ff" points="200.325,-89.0001 210.325,-85.5 200.325,-82.0001 200.325,-89.0001"/>
</a>
</g>
</g>
<!-- Node8 -->
<g id="Node000008" class="node"><title>Node8</title>
<g id="a_Node000008"><a xlink:href="group___main_program.html#ga0ddf1224851353fc92bfbff6f499fa97" target="_top" xlink:title=" ">
<polygon fill="white" stroke="#666666" points="38,-76 0,-76 0,-57 38,-57 38,-76"/>
<text text-anchor="middle" x="19" y="-64" font-family="Helvetica,sans-Serif" font-size="10.00">main</text>
</a>
</g>
</g>
<!-- Node7&#45;&gt;Node8 -->
<g id="edge7_Node000007_Node000008" class="edge"><title>Node7&#45;&gt;Node8</title>
<g id="a_edge7_Node000007_Node000008"><a xlink:title=" ">
<path fill="none" stroke="#63b8ff" d="M63.9337,-75.5733C54.8336,-73.6939 45.8417,-71.8369 38.3861,-70.2971"/>
<polygon fill="#63b8ff" stroke="#63b8ff" points="63.2817,-79.0124 73.783,-77.6074 64.6976,-72.1571 63.2817,-79.0124"/>
</a>
</g>
</g>
<!-- Node9&#45;&gt;Node8 -->
<g id="edge9_Node000009_Node000008" class="edge"><title>Node9&#45;&gt;Node8</title>
<g id="a_edge9_Node000009_Node000008"><a xlink:title=" ">
<path fill="none" stroke="#63b8ff" d="M177.957,-52.5734C131.328,-56.6845 68.5434,-62.2201 38.0818,-64.9058"/>
<polygon fill="#63b8ff" stroke="#63b8ff" points="178.287,-56.058 187.941,-51.6932 177.672,-49.085 178.287,-56.058"/>
</a>
</g>
</g>
</g>
</svg>
