<?xml version="1.0" encoding="UTF-8" standalone="no"?>
<!DOCTYPE svg PUBLIC "-//W3C//DTD SVG 1.1//EN"
 "http://www.w3.org/Graphics/SVG/1.1/DTD/svg11.dtd">
<!-- Generated by graphviz version 2.38.0 (20140413.2041)
 -->
<!-- Title: set_hash_table_is_valid_pos Pages: 1 -->
<svg width="895pt" height="249pt"
 viewBox="0.00 0.00 895.00 249.16" xmlns="http://www.w3.org/2000/svg" xmlns:xlink="http://www.w3.org/1999/xlink">
<g id="graph0" class="graph" transform="scale(1 1) rotate(0) translate(4 245.164)">
<title>set_hash_table_is_valid_pos</title>
<!-- Node1 -->
<g id="Node000001" class="node"><title>Node1</title>
<g id="a_Node000001"><a xlink:title="Zjištění platnosti pozice v hašovací tabulce.">
<polygon fill="#999999" stroke="#666666" points="887,-147.164 747,-147.164 747,-128.164 887,-128.164 887,-147.164"/>
<text text-anchor="middle" x="817" y="-135.164" font-family="Helvetica,sans-Serif" font-size="10.00">set_hash_table_is_valid_pos</text>
</a>
</g>
</g>
<!-- Node2 -->
<g id="Node000002" class="node"><title>Node2</title>
<g id="a_Node000002"><a xlink:href="group___t_set_iterator.html#ga089f24c81ac3da7d1ac7ca24cc078dd8" target="_top" xlink:title="Zjištění platnosti iterátoru.">
<polygon fill="white" stroke="#666666" points="711,-128.164 609,-128.164 609,-109.164 711,-109.164 711,-128.164"/>
<text text-anchor="middle" x="660" y="-116.164" font-family="Helvetica,sans-Serif" font-size="10.00">set_iterator_is_valid</text>
</a>
</g>
</g>
<!-- Node1&#45;&gt;Node2 -->
<g id="edge1_Node000001_Node000002" class="edge"><title>Node1&#45;&gt;Node2</title>
<g id="a_edge1_Node000001_Node000002"><a xlink:title=" ">
<path fill="none" stroke="#63b8ff" d="M736.558,-127.926C727.944,-126.87 719.361,-125.818 711.237,-124.822"/>
<polygon fill="#63b8ff" stroke="#63b8ff" points="736.309,-131.422 746.66,-129.165 737.161,-124.474 736.309,-131.422"/>
</a>
</g>
</g>
<!-- Node11 -->
<g id="Node000011" class="node"><title>Node11</title>
<g id="a_Node000011"><a xlink:href="group___t_set_iterator.html#ga6723a05c864198597ff49718020bd0d6" target="_top" xlink:title="Posunutí iterátoru vpřed.">
<polygon fill="white" stroke="#666666" points="573,-166.164 470,-166.164 470,-147.164 573,-147.164 573,-166.164"/>
<text text-anchor="middle" x="521.5" y="-154.164" font-family="Helvetica,sans-Serif" font-size="10.00">set_iterator_to_next</text>
</a>
</g>
</g>
<!-- Node1&#45;&gt;Node11 -->
<g id="edge23_Node000001_Node000011" class="edge"><title>Node1&#45;&gt;Node11</title>
<g id="a_edge23_Node000001_Node000011"><a xlink:title=" ">
<path fill="none" stroke="#63b8ff" d="M736.625,-142.803C684.657,-146.167 618.291,-150.463 573.319,-153.374"/>
<polygon fill="#63b8ff" stroke="#63b8ff" points="737.063,-146.282 746.816,-142.143 736.611,-139.296 737.063,-146.282"/>
</a>
</g>
</g>
<!-- Node3 -->
<g id="Node000003" class="node"><title>Node3</title>
<g id="a_Node000003"><a xlink:href="group___iterator_algorithms.html#ga1785c6060679dcab5e6781b66659dbf3" target="_top" xlink:title="Vyhledání prvního elementu množiny splňujícího zadaný predikát.">
<polygon fill="white" stroke="#666666" points="407.5,-241.164 347.5,-241.164 347.5,-222.164 407.5,-222.164 407.5,-241.164"/>
<text text-anchor="middle" x="377.5" y="-229.164" font-family="Helvetica,sans-Serif" font-size="10.00">set_find_if</text>
</a>
</g>
</g>
<!-- Node2&#45;&gt;Node3 -->
<g id="edge2_Node000002_Node000003" class="edge"><title>Node2&#45;&gt;Node3</title>
<g id="a_edge2_Node000002_Node000003"><a xlink:title=" ">
<path fill="none" stroke="#63b8ff" d="M645.53,-136.195C630.137,-154.879 603.148,-183.777 573,-198.664 518.95,-225.353 447.287,-230.943 407.776,-231.83"/>
<polygon fill="#63b8ff" stroke="#63b8ff" points="648.425,-138.178 651.937,-128.182 642.958,-133.807 648.425,-138.178"/>
</a>
</g>
</g>
<!-- Node4 -->
<g id="Node000004" class="node"><title>Node4</title>
<g id="a_Node000004"><a xlink:href="group___iterator_algorithms.html#ga8ca52ed8ac7c0be83a19c7ed10f813cd" target="_top" xlink:title="Vyhledání prvního elementu množiny nesplňujícího zadaný predikát.">
<polygon fill="white" stroke="#666666" points="417,-128.164 338,-128.164 338,-109.164 417,-109.164 417,-128.164"/>
<text text-anchor="middle" x="377.5" y="-116.164" font-family="Helvetica,sans-Serif" font-size="10.00">set_find_if_not</text>
</a>
</g>
</g>
<!-- Node2&#45;&gt;Node4 -->
<g id="edge3_Node000002_Node000004" class="edge"><title>Node2&#45;&gt;Node4</title>
<g id="a_edge3_Node000002_Node000004"><a xlink:title=" ">
<path fill="none" stroke="#63b8ff" d="M598.556,-118.664C543.649,-118.664 464.282,-118.664 417.383,-118.664"/>
<polygon fill="#63b8ff" stroke="#63b8ff" points="598.852,-122.164 608.852,-118.664 598.852,-115.164 598.852,-122.164"/>
</a>
</g>
</g>
<!-- Node5 -->
<g id="Node000005" class="node"><title>Node5</title>
<g id="a_Node000005"><a xlink:href="group___iterator_algorithms.html#gab8ba369b42eda61d010f35df73be73db" target="_top" xlink:title="Zavolání zvolené funkce na každý element množiny od pozice určené iterátorem až do posledního element...">
<polygon fill="white" stroke="#666666" points="413.5,-204.164 341.5,-204.164 341.5,-185.164 413.5,-185.164 413.5,-204.164"/>
<text text-anchor="middle" x="377.5" y="-192.164" font-family="Helvetica,sans-Serif" font-size="10.00">set_for_each</text>
</a>
</g>
</g>
<!-- Node2&#45;&gt;Node5 -->
<g id="edge4_Node000002_Node000005" class="edge"><title>Node2&#45;&gt;Node5</title>
<g id="a_edge4_Node000002_Node000005"><a xlink:title=" ">
<path fill="none" stroke="#63b8ff" d="M640.176,-134.744C623.636,-147.889 598.319,-165.713 573,-174.664 519.713,-193.504 453.466,-196.297 413.657,-195.948"/>
<polygon fill="#63b8ff" stroke="#63b8ff" points="642.45,-137.406 647.98,-128.368 638.021,-131.985 642.45,-137.406"/>
</a>
</g>
</g>
<!-- Node9 -->
<g id="Node000009" class="node"><title>Node9</title>
<g id="a_Node000009"><a xlink:href="group___main_program.html#ga2762b0417283abc168151cbffee8216c" target="_top" xlink:title=" ">
<polygon fill="white" stroke="#666666" points="285,-54.1643 188,-54.1643 188,-35.1643 285,-35.1643 285,-54.1643"/>
<text text-anchor="middle" x="236.5" y="-42.1643" font-family="Helvetica,sans-Serif" font-size="10.00">testset_hardcoded</text>
</a>
</g>
</g>
<!-- Node2&#45;&gt;Node9 -->
<g id="edge22_Node000002_Node000009" class="edge"><title>Node2&#45;&gt;Node9</title>
<g id="a_edge22_Node000002_Node000009"><a xlink:title=" ">
<path fill="none" stroke="#63b8ff" d="M648.806,-100.4C634.98,-77.6867 607.945,-39.925 573,-23.6643 467.175,25.5781 321.928,-14.9381 263.447,-35.0203"/>
<polygon fill="#63b8ff" stroke="#63b8ff" points="645.832,-102.248 653.907,-109.106 651.871,-98.709 645.832,-102.248"/>
</a>
</g>
</g>
<!-- Node10 -->
<g id="Node000010" class="node"><title>Node10</title>
<g id="a_Node000010"><a xlink:href="group___iterator_algorithms.html#gadbab6630263afa4c69e0c78118fa56df" target="_top" xlink:title="Zavolání zvolené funkce na prvních N elementů množiny od pozice určené iterátorem.">
<polygon fill="white" stroke="#666666" points="405.5,-91.1643 349.5,-91.1643 349.5,-72.1643 405.5,-72.1643 405.5,-91.1643"/>
<text text-anchor="middle" x="377.5" y="-79.1643" font-family="Helvetica,sans-Serif" font-size="10.00">set_for_n</text>
</a>
</g>
</g>
<!-- Node2&#45;&gt;Node10 -->
<g id="edge10_Node000002_Node000010" class="edge"><title>Node2&#45;&gt;Node10</title>
<g id="a_edge10_Node000002_Node000010"><a xlink:title=" ">
<path fill="none" stroke="#63b8ff" d="M598.784,-110.721C539.004,-102.836 450.065,-91.1043 405.708,-85.2532"/>
<polygon fill="#63b8ff" stroke="#63b8ff" points="598.48,-114.212 608.852,-112.049 599.396,-107.272 598.48,-114.212"/>
</a>
</g>
</g>
<!-- Node2&#45;&gt;Node11 -->
<g id="edge11_Node000002_Node000011" class="edge"><title>Node2&#45;&gt;Node11</title>
<g id="a_edge11_Node000002_Node000011"><a xlink:title=" ">
<path fill="none" stroke="#63b8ff" d="M614.751,-130.983C595.997,-136.204 574.472,-142.196 556.934,-147.078"/>
<polygon fill="#63b8ff" stroke="#63b8ff" points="615.86,-134.307 624.555,-128.253 613.983,-127.563 615.86,-134.307"/>
</a>
</g>
</g>
<!-- Node12 -->
<g id="Node000012" class="node"><title>Node12</title>
<g id="a_Node000012"><a xlink:href="group___t_set_iterator.html#ga3928a980e2759ba130ce333e77f15fab" target="_top" xlink:title="Přečtení hodnoty elementu z množiny pomocí iterátoru.">
<polygon fill="white" stroke="#666666" points="567.5,-52.1643 475.5,-52.1643 475.5,-33.1643 567.5,-33.1643 567.5,-52.1643"/>
<text text-anchor="middle" x="521.5" y="-40.1643" font-family="Helvetica,sans-Serif" font-size="10.00">set_iterator_value</text>
</a>
</g>
</g>
<!-- Node2&#45;&gt;Node12 -->
<g id="edge17_Node000002_Node000012" class="edge"><title>Node2&#45;&gt;Node12</title>
<g id="a_edge17_Node000002_Node000012"><a xlink:title=" ">
<path fill="none" stroke="#63b8ff" d="M635.301,-103.455C618.234,-92.7201 594.519,-78.2459 573,-66.6643 563.597,-61.6038 552.951,-56.461 543.866,-52.241"/>
<polygon fill="#63b8ff" stroke="#63b8ff" points="633.722,-106.598 644.042,-108.992 637.467,-100.684 633.722,-106.598"/>
</a>
</g>
</g>
<!-- Node6 -->
<g id="Node000006" class="node"><title>Node6</title>
<g id="a_Node000006"><a xlink:href="testbench_8c.html#a068734a4e1d6209769e0c6b1675ca02b" target="_top" xlink:title="Provedení jednoho test z testovacího plánu na předaném ADT.">
<polygon fill="white" stroke="#666666" points="262.5,-92.1643 210.5,-92.1643 210.5,-73.1643 262.5,-73.1643 262.5,-92.1643"/>
<text text-anchor="middle" x="236.5" y="-80.1643" font-family="Helvetica,sans-Serif" font-size="10.00">test_run</text>
</a>
</g>
</g>
<!-- Node5&#45;&gt;Node6 -->
<g id="edge5_Node000005_Node000006" class="edge"><title>Node5&#45;&gt;Node6</title>
<g id="a_edge5_Node000005_Node000006"><a xlink:title=" ">
<path fill="none" stroke="#63b8ff" d="M339.308,-181.071C332.958,-178.062 326.608,-174.583 321,-170.664 288.026,-147.624 257.775,-109.978 244.538,-92.3468"/>
<polygon fill="#63b8ff" stroke="#63b8ff" points="337.964,-184.303 348.526,-185.14 340.791,-177.9 337.964,-184.303"/>
</a>
</g>
</g>
<!-- Node5&#45;&gt;Node9 -->
<g id="edge8_Node000005_Node000009" class="edge"><title>Node5&#45;&gt;Node9</title>
<g id="a_edge8_Node000005_Node000009"><a xlink:title=" ">
<path fill="none" stroke="#63b8ff" d="M333.25,-180.452C328.726,-177.714 324.508,-174.478 321,-170.664 287.034,-133.734 319.473,-100.122 285,-63.6643 281.339,-59.7921 276.784,-56.6913 271.957,-54.213"/>
<polygon fill="#63b8ff" stroke="#63b8ff" points="331.737,-183.609 342.222,-185.126 334.971,-177.401 331.737,-183.609"/>
</a>
</g>
</g>
<!-- Node7 -->
<g id="Node000007" class="node"><title>Node7</title>
<g id="a_Node000007"><a xlink:href="testbench_8c.html#a2fa1559684d267665b1c2433208511d3" target="_top" xlink:title="Provedení všech testů zadaného testovacího plánu na předaném ADT.">
<polygon fill="white" stroke="#666666" points="152,-92.1643 74,-92.1643 74,-73.1643 152,-73.1643 152,-92.1643"/>
<text text-anchor="middle" x="113" y="-80.1643" font-family="Helvetica,sans-Serif" font-size="10.00">testbench_run</text>
</a>
</g>
</g>
<!-- Node6&#45;&gt;Node7 -->
<g id="edge6_Node000006_Node000007" class="edge"><title>Node6&#45;&gt;Node7</title>
<g id="a_edge6_Node000006_Node000007"><a xlink:title=" ">
<path fill="none" stroke="#63b8ff" d="M199.894,-82.6643C184.87,-82.6643 167.356,-82.6643 152.076,-82.6643"/>
<polygon fill="#63b8ff" stroke="#63b8ff" points="200.325,-86.1644 210.325,-82.6643 200.325,-79.1644 200.325,-86.1644"/>
</a>
</g>
</g>
<!-- Node8 -->
<g id="Node000008" class="node"><title>Node8</title>
<g id="a_Node000008"><a xlink:href="group___main_program.html#ga0ddf1224851353fc92bfbff6f499fa97" target="_top" xlink:title=" ">
<polygon fill="white" stroke="#666666" points="38,-73.1643 0,-73.1643 0,-54.1643 38,-54.1643 38,-73.1643"/>
<text text-anchor="middle" x="19" y="-61.1643" font-family="Helvetica,sans-Serif" font-size="10.00">main</text>
</a>
</g>
</g>
<!-- Node7&#45;&gt;Node8 -->
<g id="edge7_Node000007_Node000008" class="edge"><title>Node7&#45;&gt;Node8</title>
<g id="a_edge7_Node000007_Node000008"><a xlink:title=" ">
<path fill="none" stroke="#63b8ff" d="M63.9337,-72.7375C54.8336,-70.8582 45.8417,-69.0011 38.3861,-67.4614"/>
<polygon fill="#63b8ff" stroke="#63b8ff" points="63.2817,-76.1767 73.783,-74.7716 64.6976,-69.3213 63.2817,-76.1767"/>
</a>
</g>
</g>
<!-- Node9&#45;&gt;Node8 -->
<g id="edge9_Node000009_Node000008" class="edge"><title>Node9&#45;&gt;Node8</title>
<g id="a_edge9_Node000009_Node000008"><a xlink:title=" ">
<path fill="none" stroke="#63b8ff" d="M177.957,-49.7377C131.328,-53.8488 68.5434,-59.3843 38.0818,-62.0701"/>
<polygon fill="#63b8ff" stroke="#63b8ff" points="178.287,-53.2222 187.941,-48.8574 177.672,-46.2493 178.287,-53.2222"/>
</a>
</g>
</g>
<!-- Node11&#45;&gt;Node3 -->
<g id="edge12_Node000011_Node000003" class="edge"><title>Node11&#45;&gt;Node3</title>
<g id="a_edge12_Node000011_Node000003"><a xlink:title=" ">
<path fill="none" stroke="#63b8ff" d="M499.785,-172.147C482.774,-184.342 457.706,-201.149 434,-212.664 425.664,-216.714 416.241,-220.285 407.558,-223.207"/>
<polygon fill="#63b8ff" stroke="#63b8ff" points="501.872,-174.957 507.897,-166.242 497.752,-169.298 501.872,-174.957"/>
</a>
</g>
</g>
<!-- Node11&#45;&gt;Node4 -->
<g id="edge13_Node000011_Node000004" class="edge"><title>Node11&#45;&gt;Node4</title>
<g id="a_edge13_Node000011_Node000004"><a xlink:title=" ">
<path fill="none" stroke="#63b8ff" d="M475.007,-144.49C455.372,-139.236 432.734,-133.178 414.321,-128.25"/>
<polygon fill="#63b8ff" stroke="#63b8ff" points="474.103,-147.871 484.667,-147.075 475.912,-141.109 474.103,-147.871"/>
</a>
</g>
</g>
<!-- Node11&#45;&gt;Node5 -->
<g id="edge14_Node000011_Node000005" class="edge"><title>Node11&#45;&gt;Node5</title>
<g id="a_edge14_Node000011_Node000005"><a xlink:title=" ">
<path fill="none" stroke="#63b8ff" d="M474.931,-168.859C455.138,-174.156 432.306,-180.265 413.829,-185.21"/>
<polygon fill="#63b8ff" stroke="#63b8ff" points="475.912,-172.219 484.667,-166.253 474.103,-165.457 475.912,-172.219"/>
</a>
</g>
</g>
<!-- Node11&#45;&gt;Node9 -->
<g id="edge16_Node000011_Node000009" class="edge"><title>Node11&#45;&gt;Node9</title>
<g id="a_edge16_Node000011_Node000009"><a xlink:title=" ">
<path fill="none" stroke="#63b8ff" d="M459.368,-165.173C416.926,-167.809 361.036,-164.425 321,-136.664 291.272,-116.051 311.553,-88.2318 285,-63.6643 280.828,-59.8039 275.773,-56.6862 270.537,-54.1811"/>
<polygon fill="#63b8ff" stroke="#63b8ff" points="459.865,-168.646 469.575,-164.409 459.342,-161.665 459.865,-168.646"/>
</a>
</g>
</g>
<!-- Node11&#45;&gt;Node10 -->
<g id="edge15_Node000011_Node000010" class="edge"><title>Node11&#45;&gt;Node10</title>
<g id="a_edge15_Node000011_Node000010"><a xlink:title=" ">
<path fill="none" stroke="#63b8ff" d="M500.172,-140.991C483.21,-128.486 458.017,-111.211 434,-99.6643 425.053,-95.3631 414.823,-91.7172 405.603,-88.8552"/>
<polygon fill="#63b8ff" stroke="#63b8ff" points="498.141,-143.843 508.242,-147.04 502.339,-138.241 498.141,-143.843"/>
</a>
</g>
</g>
<!-- Node12&#45;&gt;Node9 -->
<g id="edge21_Node000012_Node000009" class="edge"><title>Node12&#45;&gt;Node9</title>
<g id="a_edge21_Node000012_Node000009"><a xlink:title=" ">
<path fill="none" stroke="#63b8ff" d="M470.843,-31.1935C458.847,-28.898 446.02,-26.8342 434,-25.6643 384.014,-20.7989 370.908,-20.0577 321,-25.6643 304.453,-27.5231 286.402,-31.3922 271.331,-35.1567"/>
<polygon fill="#63b8ff" stroke="#63b8ff" points="470.196,-34.6333 480.688,-33.1616 471.569,-27.7691 470.196,-34.6333"/>
</a>
</g>
</g>
<!-- Node13 -->
<g id="Node000013" class="node"><title>Node13</title>
<g id="a_Node000013"><a xlink:href="testbench_8c.html#ae7a610c069c6000940838c6a1e11bb42" target="_top" xlink:title="Vytisknutí hodnoty v ADT pomocí iterátoru.">
<polygon fill="white" stroke="#666666" points="434,-54.1643 321,-54.1643 321,-35.1643 434,-35.1643 434,-54.1643"/>
<text text-anchor="middle" x="377.5" y="-42.1643" font-family="Helvetica,sans-Serif" font-size="10.00">print_value_by_iterator</text>
</a>
</g>
</g>
<!-- Node12&#45;&gt;Node13 -->
<g id="edge18_Node000012_Node000013" class="edge"><title>Node12&#45;&gt;Node13</title>
<g id="a_edge18_Node000012_Node000013"><a xlink:title=" ">
<path fill="none" stroke="#63b8ff" d="M465.161,-43.4437C454.957,-43.5874 444.299,-43.7375 434.088,-43.8813"/>
<polygon fill="#63b8ff" stroke="#63b8ff" points="465.23,-46.9432 475.18,-43.3026 465.132,-39.9439 465.23,-46.9432"/>
</a>
</g>
</g>
<!-- Node13&#45;&gt;Node6 -->
<g id="edge19_Node000013_Node000006" class="edge"><title>Node13&#45;&gt;Node6</title>
<g id="a_edge19_Node000013_Node000006"><a xlink:title=" ">
<path fill="none" stroke="#63b8ff" d="M331.628,-56.9314C308.878,-63.1507 282.085,-70.4755 262.914,-75.7166"/>
<polygon fill="#63b8ff" stroke="#63b8ff" points="332.701,-60.2665 341.424,-54.2533 330.855,-53.5143 332.701,-60.2665"/>
</a>
</g>
</g>
<!-- Node13&#45;&gt;Node9 -->
<g id="edge20_Node000013_Node000009" class="edge"><title>Node13&#45;&gt;Node9</title>
<g id="a_edge20_Node000013_Node000009"><a xlink:title=" ">
<path fill="none" stroke="#63b8ff" d="M310.724,-44.6643C302.114,-44.6643 293.428,-44.6643 285.196,-44.6643"/>
<polygon fill="#63b8ff" stroke="#63b8ff" points="310.764,-48.1644 320.764,-44.6643 310.764,-41.1644 310.764,-48.1644"/>
</a>
</g>
</g>
</g>
</svg>
