<?xml version="1.0" encoding="UTF-8" standalone="no"?>
<!DOCTYPE svg PUBLIC "-//W3C//DTD SVG 1.1//EN"
 "http://www.w3.org/Graphics/SVG/1.1/DTD/svg11.dtd">
<!-- Generated by graphviz version 2.38.0 (20140413.2041)
 -->
<!-- Title: set_hash_table_destroy Pages: 1 -->
<svg width="439pt" height="64pt"
 viewBox="0.00 0.00 439.00 64.00" xmlns="http://www.w3.org/2000/svg" xmlns:xlink="http://www.w3.org/1999/xlink">
<g id="graph0" class="graph" transform="scale(1 1) rotate(0) translate(4 60)">
<title>set_hash_table_destroy</title>
<!-- Node1 -->
<g id="Node000001" class="node"><title>Node1</title>
<g id="a_Node000001"><a xlink:title="Deinicializace hašovací tabulky.">
<polygon fill="#999999" stroke="#666666" points="431,-37 311,-37 311,-18 431,-18 431,-37"/>
<text text-anchor="middle" x="371" y="-25" font-family="Helvetica,sans-Serif" font-size="10.00">set_hash_table_destroy</text>
</a>
</g>
</g>
<!-- Node2 -->
<g id="Node000002" class="node"><title>Node2</title>
<g id="a_Node000002"><a xlink:href="group___t_set.html#ga8094d1ab68434b8413cd905895ff37ae" target="_top" xlink:title="Deinicializace množiny.">
<polygon fill="white" stroke="#666666" points="275,-56 207,-56 207,-37 275,-37 275,-56"/>
<text text-anchor="middle" x="241" y="-44" font-family="Helvetica,sans-Serif" font-size="10.00">set_destroy</text>
</a>
</g>
</g>
<!-- Node1&#45;&gt;Node2 -->
<g id="edge1_Node000001_Node000002" class="edge"><title>Node1&#45;&gt;Node2</title>
<g id="a_edge1_Node000001_Node000002"><a xlink:title=" ">
<path fill="none" stroke="#63b8ff" d="M300.752,-37.779C291.808,-39.1066 283.002,-40.4137 275.039,-41.5958"/>
<polygon fill="#63b8ff" stroke="#63b8ff" points="301.493,-41.2074 310.871,-36.277 300.465,-34.2833 301.493,-41.2074"/>
</a>
</g>
</g>
<!-- Node5 -->
<g id="Node000005" class="node"><title>Node5</title>
<g id="a_Node000005"><a xlink:href="group___t_set.html#ga2a711b02282ff309c0d6a4fdcfbac738" target="_top" xlink:title="Odstranění elementu z množiny.">
<polygon fill="white" stroke="#666666" points="270.5,-19 211.5,-19 211.5,-0 270.5,-0 270.5,-19"/>
<text text-anchor="middle" x="241" y="-7" font-family="Helvetica,sans-Serif" font-size="10.00">set_erase</text>
</a>
</g>
</g>
<!-- Node1&#45;&gt;Node5 -->
<g id="edge5_Node000001_Node000005" class="edge"><title>Node1&#45;&gt;Node5</title>
<g id="a_edge5_Node000001_Node000005"><a xlink:title=" ">
<path fill="none" stroke="#63b8ff" d="M300.669,-17.7504C290.052,-16.2573 279.631,-14.7919 270.588,-13.5201"/>
<polygon fill="#63b8ff" stroke="#63b8ff" points="300.481,-21.2582 310.871,-19.185 301.456,-14.3264 300.481,-21.2582"/>
</a>
</g>
</g>
<!-- Node3 -->
<g id="Node000003" class="node"><title>Node3</title>
<g id="a_Node000003"><a xlink:href="group___main_program.html#ga0ddf1224851353fc92bfbff6f499fa97" target="_top" xlink:title=" ">
<polygon fill="white" stroke="#666666" points="38,-38 0,-38 0,-19 38,-19 38,-38"/>
<text text-anchor="middle" x="19" y="-26" font-family="Helvetica,sans-Serif" font-size="10.00">main</text>
</a>
</g>
</g>
<!-- Node2&#45;&gt;Node3 -->
<g id="edge2_Node000002_Node000003" class="edge"><title>Node2&#45;&gt;Node3</title>
<g id="a_edge2_Node000002_Node000003"><a xlink:title=" ">
<path fill="none" stroke="#63b8ff" d="M196.429,-42.9351C148.157,-38.9856 72.5999,-32.8036 38.179,-29.9874"/>
<polygon fill="#63b8ff" stroke="#63b8ff" points="196.335,-46.439 206.587,-43.7662 196.905,-39.4623 196.335,-46.439"/>
</a>
</g>
</g>
<!-- Node4 -->
<g id="Node000004" class="node"><title>Node4</title>
<g id="a_Node000004"><a xlink:href="group___main_program.html#ga2762b0417283abc168151cbffee8216c" target="_top" xlink:title=" ">
<polygon fill="white" stroke="#666666" points="171,-19 74,-19 74,-0 171,-0 171,-19"/>
<text text-anchor="middle" x="122.5" y="-7" font-family="Helvetica,sans-Serif" font-size="10.00">testset_hardcoded</text>
</a>
</g>
</g>
<!-- Node2&#45;&gt;Node4 -->
<g id="edge3_Node000002_Node000004" class="edge"><title>Node2&#45;&gt;Node4</title>
<g id="a_edge3_Node000002_Node000004"><a xlink:title=" ">
<path fill="none" stroke="#63b8ff" d="M200.322,-33.8984C185.107,-29.0663 168.004,-23.6344 153.805,-19.1247"/>
<polygon fill="#63b8ff" stroke="#63b8ff" points="199.408,-37.2803 209.998,-36.9716 201.527,-30.6087 199.408,-37.2803"/>
</a>
</g>
</g>
<!-- Node4&#45;&gt;Node3 -->
<g id="edge4_Node000004_Node000003" class="edge"><title>Node4&#45;&gt;Node3</title>
<g id="a_edge4_Node000004_Node000003"><a xlink:title=" ">
<path fill="none" stroke="#63b8ff" d="M63.7308,-20.3139C54.5822,-22.0265 45.7439,-23.681 38.4361,-25.0489"/>
<polygon fill="#63b8ff" stroke="#63b8ff" points="64.5369,-23.7239 73.7221,-18.4436 63.2488,-16.8434 64.5369,-23.7239"/>
</a>
</g>
</g>
<!-- Node5&#45;&gt;Node4 -->
<g id="edge6_Node000005_Node000004" class="edge"><title>Node5&#45;&gt;Node4</title>
<g id="a_edge6_Node000005_Node000004"><a xlink:title=" ">
<path fill="none" stroke="#63b8ff" d="M201.107,-9.5C191.46,-9.5 181.014,-9.5 171.006,-9.5"/>
<polygon fill="#63b8ff" stroke="#63b8ff" points="201.202,-13.0001 211.202,-9.5 201.202,-6.0001 201.202,-13.0001"/>
</a>
</g>
</g>
</g>
</svg>
