<?xml version="1.0" encoding="UTF-8" standalone="no"?>
<!DOCTYPE svg PUBLIC "-//W3C//DTD SVG 1.1//EN"
 "http://www.w3.org/Graphics/SVG/1.1/DTD/svg11.dtd">
<!-- Generated by graphviz version 2.38.0 (20140413.2041)
 -->
<!-- Title: set_iterator_to_next Pages: 1 -->
<svg width="565pt" height="78pt"
 viewBox="0.00 0.00 565.00 77.96" xmlns="http://www.w3.org/2000/svg" xmlns:xlink="http://www.w3.org/1999/xlink">
<g id="graph0" class="graph" transform="scale(1 1) rotate(0) translate(4 73.9588)">
<title>set_iterator_to_next</title>
<!-- Node1 -->
<g id="Node000001" class="node"><title>Node1</title>
<g id="a_Node000001"><a xlink:title="Posunutí iterátoru vpřed.">
<polygon fill="#999999" stroke="#666666" points="103,-57 0,-57 0,-38 103,-38 103,-57"/>
<text text-anchor="middle" x="51.5" y="-45" font-family="Helvetica,sans-Serif" font-size="10.00">set_iterator_to_next</text>
</a>
</g>
</g>
<!-- Node2 -->
<g id="Node000002" class="node"><title>Node2</title>
<g id="a_Node000002"><a xlink:href="group___t_set_hash_table.html#ga891b531cc6373331e55101f2dd75ac4a" target="_top" xlink:title="Zjištění platnosti pozice v hašovací tabulce.">
<polygon fill="white" stroke="#666666" points="417,-57 277,-57 277,-38 417,-38 417,-57"/>
<text text-anchor="middle" x="347" y="-45" font-family="Helvetica,sans-Serif" font-size="10.00">set_hash_table_is_valid_pos</text>
</a>
</g>
</g>
<!-- Node1&#45;&gt;Node2 -->
<g id="edge1_Node000001_Node000002" class="edge"><title>Node1&#45;&gt;Node2</title>
<g id="a_edge1_Node000001_Node000002"><a xlink:title=" ">
<path fill="none" stroke="#63b8ff" d="M87.5666,-57.0083C103.183,-60.773 121.88,-64.6419 139,-66.5 184.069,-71.3914 195.848,-70.5523 241,-66.5 258.113,-64.9641 276.609,-62.0471 293.239,-58.9514"/>
<polygon fill="#63b8ff" stroke="#63b8ff" points="294.165,-62.3376 303.323,-57.0115 292.842,-55.4636 294.165,-62.3376"/>
</a>
</g>
</g>
<!-- Node4 -->
<g id="Node000004" class="node"><title>Node4</title>
<g id="a_Node000004"><a xlink:href="group___t_set_hash_table.html#ga9218e24d2cc5a61596c4a45ef76f4c75" target="_top" xlink:title="Výpočet následující pozice platné přihrádky v hašovací tabulce.">
<polygon fill="white" stroke="#666666" points="411,-19 283,-19 283,-0 411,-0 411,-19"/>
<text text-anchor="middle" x="347" y="-7" font-family="Helvetica,sans-Serif" font-size="10.00">set_hash_table_next_pos</text>
</a>
</g>
</g>
<!-- Node1&#45;&gt;Node4 -->
<g id="edge3_Node000001_Node000004" class="edge"><title>Node1&#45;&gt;Node4</title>
<g id="a_edge3_Node000001_Node000004"><a xlink:title=" ">
<path fill="none" stroke="#63b8ff" d="M91.0596,-37.9515C105.96,-34.5461 123.199,-30.9508 139,-28.5 183.125,-21.6562 232.951,-16.9895 272.661,-13.9942"/>
<polygon fill="#63b8ff" stroke="#63b8ff" points="273.074,-17.4734 282.79,-13.2496 272.561,-10.4922 273.074,-17.4734"/>
</a>
</g>
</g>
<!-- Node5 -->
<g id="Node000005" class="node"><title>Node5</title>
<g id="a_Node000005"><a xlink:href="group___t_set_iterator.html#ga089f24c81ac3da7d1ac7ca24cc078dd8" target="_top" xlink:title="Zjištění platnosti iterátoru.">
<polygon fill="white" stroke="#666666" points="241,-57 139,-57 139,-38 241,-38 241,-57"/>
<text text-anchor="middle" x="190" y="-45" font-family="Helvetica,sans-Serif" font-size="10.00">set_iterator_is_valid</text>
</a>
</g>
</g>
<!-- Node1&#45;&gt;Node5 -->
<g id="edge5_Node000001_Node000005" class="edge"><title>Node1&#45;&gt;Node5</title>
<g id="a_edge5_Node000001_Node000005"><a xlink:title=" ">
<path fill="none" stroke="#63b8ff" d="M103.328,-47.5C111.519,-47.5 120.068,-47.5 128.461,-47.5"/>
<polygon fill="#63b8ff" stroke="#63b8ff" points="128.585,-51.0001 138.584,-47.5 128.584,-44.0001 128.585,-51.0001"/>
</a>
</g>
</g>
<!-- Node3 -->
<g id="Node000003" class="node"><title>Node3</title>
<g id="a_Node000003"><a xlink:href="_t_set_hash_table_open_addr_8c.html#aa4a90f23bbdbe5bb71a49d7df2ee5fc1" target="_top" xlink:title="Funkce vracející hodnotu reprezentující smazanou přihrádku.">
<polygon fill="white" stroke="#666666" points="557,-43.5 453,-43.5 453,-13.5 557,-13.5 557,-43.5"/>
<text text-anchor="start" x="461" y="-31.5" font-family="Helvetica,sans-Serif" font-size="10.00">calc_erased_bucket</text>
<text text-anchor="middle" x="505" y="-20.5" font-family="Helvetica,sans-Serif" font-size="10.00">_marker</text>
</a>
</g>
</g>
<!-- Node2&#45;&gt;Node3 -->
<g id="edge2_Node000002_Node000003" class="edge"><title>Node2&#45;&gt;Node3</title>
<g id="a_edge2_Node000002_Node000003"><a xlink:title=" ">
<path fill="none" stroke="#63b8ff" d="M417.332,-39.0557C425.779,-38.0269 434.362,-36.9815 442.681,-35.9684"/>
<polygon fill="#63b8ff" stroke="#63b8ff" points="443.165,-39.4354 452.668,-34.7519 442.318,-32.4867 443.165,-39.4354"/>
</a>
</g>
</g>
<!-- Node4&#45;&gt;Node3 -->
<g id="edge4_Node000004_Node000003" class="edge"><title>Node4&#45;&gt;Node3</title>
<g id="a_edge4_Node000004_Node000003"><a xlink:title=" ">
<path fill="none" stroke="#63b8ff" d="M411.002,-17.1733C421.403,-18.4401 432.174,-19.7519 442.536,-21.014"/>
<polygon fill="#63b8ff" stroke="#63b8ff" points="442.384,-24.5213 452.734,-22.2561 443.231,-17.5726 442.384,-24.5213"/>
</a>
</g>
</g>
<!-- Node5&#45;&gt;Node2 -->
<g id="edge6_Node000005_Node000002" class="edge"><title>Node5&#45;&gt;Node2</title>
<g id="a_edge6_Node000005_Node000002"><a xlink:title=" ">
<path fill="none" stroke="#63b8ff" d="M241.324,-47.5C249.457,-47.5 258.046,-47.5 266.666,-47.5"/>
<polygon fill="#63b8ff" stroke="#63b8ff" points="266.773,-51.0001 276.773,-47.5 266.773,-44.0001 266.773,-51.0001"/>
</a>
</g>
</g>
</g>
</svg>
