<?xml version="1.0" encoding="UTF-8" standalone="no"?>
<!DOCTYPE svg PUBLIC "-//W3C//DTD SVG 1.1//EN"
 "http://www.w3.org/Graphics/SVG/1.1/DTD/svg11.dtd">
<!-- Generated by graphviz version 2.38.0 (20140413.2041)
 -->
<!-- Title: set_hash_table_insert Pages: 1 -->
<svg width="433pt" height="113pt"
 viewBox="0.00 0.00 433.00 112.50" xmlns="http://www.w3.org/2000/svg" xmlns:xlink="http://www.w3.org/1999/xlink">
<g id="graph0" class="graph" transform="scale(1 1) rotate(0) translate(4 108.5)">
<title>set_hash_table_insert</title>
<!-- Node1 -->
<g id="Node000001" class="node"><title>Node1</title>
<g id="a_Node000001"><a xlink:title="Vložení elementu do hašovací tabulky.">
<polygon fill="#999999" stroke="#666666" points="112,-56 7.10543e-015,-56 7.10543e-015,-37 112,-37 112,-56"/>
<text text-anchor="middle" x="56" y="-44" font-family="Helvetica,sans-Serif" font-size="10.00">set_hash_table_insert</text>
</a>
</g>
</g>
<!-- Node2 -->
<g id="Node000002" class="node"><title>Node2</title>
<g id="a_Node000002"><a xlink:href="group___t_set_hash_table.html#ga69c2697abdd49b443ea76077058df6b0" target="_top" xlink:title="Vyhledání elementu o zadané hodnotě v hašovací tabulce využívající otevřené adresování">
<polygon fill="white" stroke="#666666" points="265,-56 148,-56 148,-37 265,-37 265,-56"/>
<text text-anchor="middle" x="206.5" y="-44" font-family="Helvetica,sans-Serif" font-size="10.00">set_hash_table_search</text>
</a>
</g>
</g>
<!-- Node1&#45;&gt;Node2 -->
<g id="edge1_Node000001_Node000002" class="edge"><title>Node1&#45;&gt;Node2</title>
<g id="a_edge1_Node000001_Node000002"><a xlink:title=" ">
<path fill="none" stroke="#63b8ff" d="M112.296,-46.5C120.503,-46.5 129.042,-46.5 137.473,-46.5"/>
<polygon fill="#63b8ff" stroke="#63b8ff" points="137.674,-50.0001 147.674,-46.5 137.674,-43.0001 137.674,-50.0001"/>
</a>
</g>
</g>
<!-- Node3 -->
<g id="Node000003" class="node"><title>Node3</title>
<g id="a_Node000003"><a xlink:href="_t_set_hash_table_open_addr_8c.html#aa4a90f23bbdbe5bb71a49d7df2ee5fc1" target="_top" xlink:title="Funkce vracející hodnotu reprezentující smazanou přihrádku.">
<polygon fill="white" stroke="#666666" points="415,-104.5 311,-104.5 311,-74.5 415,-74.5 415,-104.5"/>
<text text-anchor="start" x="319" y="-92.5" font-family="Helvetica,sans-Serif" font-size="10.00">calc_erased_bucket</text>
<text text-anchor="middle" x="363" y="-81.5" font-family="Helvetica,sans-Serif" font-size="10.00">_marker</text>
</a>
</g>
</g>
<!-- Node2&#45;&gt;Node3 -->
<g id="edge2_Node000002_Node000003" class="edge"><title>Node2&#45;&gt;Node3</title>
<g id="a_edge2_Node000002_Node000003"><a xlink:title=" ">
<path fill="none" stroke="#63b8ff" d="M241.789,-56.0431C259.207,-60.8911 280.899,-66.9283 301.043,-72.5346"/>
<polygon fill="#63b8ff" stroke="#63b8ff" points="300.209,-75.9356 310.782,-75.2451 302.086,-69.1919 300.209,-75.9356"/>
</a>
</g>
</g>
<!-- Node4 -->
<g id="Node000004" class="node"><title>Node4</title>
<g id="a_Node000004"><a xlink:href="group___t_set_element_hashable.html#gad8cfc9a36f36c44c10b660c5b370f67e" target="_top" xlink:title="Porovnání dvou elementů">
<polygon fill="white" stroke="#666666" points="425,-56 301,-56 301,-37 425,-37 425,-56"/>
<text text-anchor="middle" x="363" y="-44" font-family="Helvetica,sans-Serif" font-size="10.00">set_element_comparator</text>
</a>
</g>
</g>
<!-- Node2&#45;&gt;Node4 -->
<g id="edge3_Node000002_Node000004" class="edge"><title>Node2&#45;&gt;Node4</title>
<g id="a_edge3_Node000002_Node000004"><a xlink:title=" ">
<path fill="none" stroke="#63b8ff" d="M265.03,-46.5C273.416,-46.5 282.135,-46.5 290.754,-46.5"/>
<polygon fill="#63b8ff" stroke="#63b8ff" points="290.799,-50.0001 300.799,-46.5 290.799,-43.0001 290.799,-50.0001"/>
</a>
</g>
</g>
<!-- Node5 -->
<g id="Node000005" class="node"><title>Node5</title>
<g id="a_Node000005"><a xlink:href="group___t_set_element_hashable.html#ga4a88e3b3d94aa8fa572cf07764d843e0" target="_top" xlink:title="Výpočet hash hodnoty elementu.">
<polygon fill="white" stroke="#666666" points="424.5,-19 301.5,-19 301.5,-0 424.5,-0 424.5,-19"/>
<text text-anchor="middle" x="363" y="-7" font-family="Helvetica,sans-Serif" font-size="10.00">set_element_hash_value</text>
</a>
</g>
</g>
<!-- Node2&#45;&gt;Node5 -->
<g id="edge4_Node000002_Node000005" class="edge"><title>Node2&#45;&gt;Node5</title>
<g id="a_edge4_Node000002_Node000005"><a xlink:title=" ">
<path fill="none" stroke="#63b8ff" d="M247.288,-36.9716C267.124,-32.2211 291.309,-26.4292 312.349,-21.3905"/>
<polygon fill="#63b8ff" stroke="#63b8ff" points="313.169,-24.7932 322.079,-19.0604 311.539,-17.9857 313.169,-24.7932"/>
</a>
</g>
</g>
</g>
</svg>
