<?xml version="1.0" encoding="UTF-8" standalone="no"?>
<!DOCTYPE svg PUBLIC "-//W3C//DTD SVG 1.1//EN"
 "http://www.w3.org/Graphics/SVG/1.1/DTD/svg11.dtd">
<!-- Generated by graphviz version 2.38.0 (20140413.2041)
 -->
<!-- Title: set_size Pages: 1 -->
<svg width="379pt" height="64pt"
 viewBox="0.00 0.00 379.00 64.00" xmlns="http://www.w3.org/2000/svg" xmlns:xlink="http://www.w3.org/1999/xlink">
<g id="graph0" class="graph" transform="scale(1 1) rotate(0) translate(4 60)">
<title>set_size</title>
<!-- Node1 -->
<g id="Node000001" class="node"><title>Node1</title>
<g id="a_Node000001"><a xlink:title="Přečtení počtu elementů množiny.">
<polygon fill="#999999" stroke="#666666" points="371,-37 318,-37 318,-18 371,-18 371,-37"/>
<text text-anchor="middle" x="344.5" y="-25" font-family="Helvetica,sans-Serif" font-size="10.00">set_size</text>
</a>
</g>
</g>
<!-- Node2 -->
<g id="Node000002" class="node"><title>Node2</title>
<g id="a_Node000002"><a xlink:href="group___t_set.html#ga2a711b02282ff309c0d6a4fdcfbac738" target="_top" xlink:title="Odstranění elementu z množiny.">
<polygon fill="white" stroke="#666666" points="274,-56 215,-56 215,-37 274,-37 274,-56"/>
<text text-anchor="middle" x="244.5" y="-44" font-family="Helvetica,sans-Serif" font-size="10.00">set_erase</text>
</a>
</g>
</g>
<!-- Node1&#45;&gt;Node2 -->
<g id="edge1_Node000001_Node000002" class="edge"><title>Node1&#45;&gt;Node2</title>
<g id="a_edge1_Node000001_Node000002"><a xlink:title=" ">
<path fill="none" stroke="#63b8ff" d="M307.917,-34.3987C296.825,-36.5491 284.74,-38.8923 274.183,-40.9389"/>
<polygon fill="#63b8ff" stroke="#63b8ff" points="308.601,-37.8315 317.752,-32.492 307.268,-30.9594 308.601,-37.8315"/>
</a>
</g>
</g>
<!-- Node5 -->
<g id="Node000005" class="node"><title>Node5</title>
<g id="a_Node000005"><a xlink:href="group___t_set.html#ga2f7fd9486a5c300158d70dc79c6c6c8f" target="_top" xlink:title="Zjištění, zda je množina prázdná">
<polygon fill="white" stroke="#666666" points="282,-19 207,-19 207,-0 282,-0 282,-19"/>
<text text-anchor="middle" x="244.5" y="-7" font-family="Helvetica,sans-Serif" font-size="10.00">set_is_empty</text>
</a>
</g>
</g>
<!-- Node1&#45;&gt;Node5 -->
<g id="edge4_Node000001_Node000005" class="edge"><title>Node1&#45;&gt;Node5</title>
<g id="a_edge4_Node000001_Node000005"><a xlink:title=" ">
<path fill="none" stroke="#63b8ff" d="M307.883,-20.958C299.502,-19.4187 290.555,-17.7755 282.131,-16.2281"/>
<polygon fill="#63b8ff" stroke="#63b8ff" points="307.284,-24.4065 317.752,-22.7707 308.548,-17.5217 307.284,-24.4065"/>
</a>
</g>
</g>
<!-- Node3 -->
<g id="Node000003" class="node"><title>Node3</title>
<g id="a_Node000003"><a xlink:href="group___main_program.html#ga2762b0417283abc168151cbffee8216c" target="_top" xlink:title=" ">
<polygon fill="white" stroke="#666666" points="171,-37 74,-37 74,-18 171,-18 171,-37"/>
<text text-anchor="middle" x="122.5" y="-25" font-family="Helvetica,sans-Serif" font-size="10.00">testset_hardcoded</text>
</a>
</g>
</g>
<!-- Node2&#45;&gt;Node3 -->
<g id="edge2_Node000002_Node000003" class="edge"><title>Node2&#45;&gt;Node3</title>
<g id="a_edge2_Node000002_Node000003"><a xlink:title=" ">
<path fill="none" stroke="#63b8ff" d="M204.859,-40.3818C194.145,-38.6855 182.387,-36.8237 171.221,-35.0558"/>
<polygon fill="#63b8ff" stroke="#63b8ff" points="204.333,-43.842 214.757,-41.949 205.427,-36.9282 204.333,-43.842"/>
</a>
</g>
</g>
<!-- Node4 -->
<g id="Node000004" class="node"><title>Node4</title>
<g id="a_Node000004"><a xlink:href="group___main_program.html#ga0ddf1224851353fc92bfbff6f499fa97" target="_top" xlink:title=" ">
<polygon fill="white" stroke="#666666" points="38,-37 0,-37 0,-18 38,-18 38,-37"/>
<text text-anchor="middle" x="19" y="-25" font-family="Helvetica,sans-Serif" font-size="10.00">main</text>
</a>
</g>
</g>
<!-- Node3&#45;&gt;Node4 -->
<g id="edge3_Node000003_Node000004" class="edge"><title>Node3&#45;&gt;Node4</title>
<g id="a_edge3_Node000003_Node000004"><a xlink:title=" ">
<path fill="none" stroke="#63b8ff" d="M63.439,-27.5C54.3943,-27.5 45.6661,-27.5 38.4361,-27.5"/>
<polygon fill="#63b8ff" stroke="#63b8ff" points="63.7222,-31.0001 73.7221,-27.5 63.7221,-24.0001 63.7222,-31.0001"/>
</a>
</g>
</g>
<!-- Node5&#45;&gt;Node3 -->
<g id="edge5_Node000005_Node000003" class="edge"><title>Node5&#45;&gt;Node3</title>
<g id="a_edge5_Node000005_Node000003"><a xlink:title=" ">
<path fill="none" stroke="#63b8ff" d="M196.762,-16.5108C188.306,-17.7791 179.48,-19.103 171.003,-20.3746"/>
<polygon fill="#63b8ff" stroke="#63b8ff" points="197.474,-19.9432 206.844,-14.9984 196.435,-13.0206 197.474,-19.9432"/>
</a>
</g>
</g>
</g>
</svg>
