<?xml version="1.0" encoding="UTF-8" standalone="no"?>
<!DOCTYPE svg PUBLIC "-//W3C//DTD SVG 1.1//EN"
 "http://www.w3.org/Graphics/SVG/1.1/DTD/svg11.dtd">
<!-- Generated by graphviz version 2.38.0 (20140413.2041)
 -->
<!-- Title: set_hash_table_insert Pages: 1 -->
<svg width="422pt" height="27pt"
 viewBox="0.00 0.00 422.00 27.00" xmlns="http://www.w3.org/2000/svg" xmlns:xlink="http://www.w3.org/1999/xlink">
<g id="graph0" class="graph" transform="scale(1 1) rotate(0) translate(4 23)">
<title>set_hash_table_insert</title>
<!-- Node1 -->
<g id="Node000001" class="node"><title>Node1</title>
<g id="a_Node000001"><a xlink:title="Vložení elementu do hašovací tabulky.">
<polygon fill="#999999" stroke="#666666" points="414,-19 302,-19 302,-0 414,-0 414,-19"/>
<text text-anchor="middle" x="358" y="-7" font-family="Helvetica,sans-Serif" font-size="10.00">set_hash_table_insert</text>
</a>
</g>
</g>
<!-- Node2 -->
<g id="Node000002" class="node"><title>Node2</title>
<g id="a_Node000002"><a xlink:href="group___t_set.html#ga0d1464cea78691ff9ad3dd1e32b55c60" target="_top" xlink:title="Vložení elementu do množiny.">
<polygon fill="white" stroke="#666666" points="266,-19 207,-19 207,-0 266,-0 266,-19"/>
<text text-anchor="middle" x="236.5" y="-7" font-family="Helvetica,sans-Serif" font-size="10.00">set_insert</text>
</a>
</g>
</g>
<!-- Node1&#45;&gt;Node2 -->
<g id="edge1_Node000001_Node000002" class="edge"><title>Node1&#45;&gt;Node2</title>
<g id="a_edge1_Node000001_Node000002"><a xlink:title=" ">
<path fill="none" stroke="#63b8ff" d="M291.649,-9.5C282.686,-9.5 273.892,-9.5 266.084,-9.5"/>
<polygon fill="#63b8ff" stroke="#63b8ff" points="291.797,-13.0001 301.797,-9.5 291.797,-6.0001 291.797,-13.0001"/>
</a>
</g>
</g>
<!-- Node3 -->
<g id="Node000003" class="node"><title>Node3</title>
<g id="a_Node000003"><a xlink:href="group___main_program.html#ga2762b0417283abc168151cbffee8216c" target="_top" xlink:title=" ">
<polygon fill="white" stroke="#666666" points="171,-19 74,-19 74,-0 171,-0 171,-19"/>
<text text-anchor="middle" x="122.5" y="-7" font-family="Helvetica,sans-Serif" font-size="10.00">testset_hardcoded</text>
</a>
</g>
</g>
<!-- Node2&#45;&gt;Node3 -->
<g id="edge2_Node000002_Node000003" class="edge"><title>Node2&#45;&gt;Node3</title>
<g id="a_edge2_Node000002_Node000003"><a xlink:title=" ">
<path fill="none" stroke="#63b8ff" d="M196.827,-9.5C188.551,-9.5 179.714,-9.5 171.145,-9.5"/>
<polygon fill="#63b8ff" stroke="#63b8ff" points="196.948,-13.0001 206.948,-9.5 196.948,-6.0001 196.948,-13.0001"/>
</a>
</g>
</g>
<!-- Node4 -->
<g id="Node000004" class="node"><title>Node4</title>
<g id="a_Node000004"><a xlink:href="group___main_program.html#ga0ddf1224851353fc92bfbff6f499fa97" target="_top" xlink:title=" ">
<polygon fill="white" stroke="#666666" points="38,-19 0,-19 0,-0 38,-0 38,-19"/>
<text text-anchor="middle" x="19" y="-7" font-family="Helvetica,sans-Serif" font-size="10.00">main</text>
</a>
</g>
</g>
<!-- Node3&#45;&gt;Node4 -->
<g id="edge3_Node000003_Node000004" class="edge"><title>Node3&#45;&gt;Node4</title>
<g id="a_edge3_Node000003_Node000004"><a xlink:title=" ">
<path fill="none" stroke="#63b8ff" d="M63.439,-9.5C54.3943,-9.5 45.6661,-9.5 38.4361,-9.5"/>
<polygon fill="#63b8ff" stroke="#63b8ff" points="63.7222,-13.0001 73.7221,-9.5 63.7221,-6.0001 63.7222,-13.0001"/>
</a>
</g>
</g>
</g>
</svg>
