<?xml version="1.0" encoding="UTF-8" standalone="no"?>
<!DOCTYPE svg PUBLIC "-//W3C//DTD SVG 1.1//EN"
 "http://www.w3.org/Graphics/SVG/1.1/DTD/svg11.dtd">
<!-- Generated by graphviz version 2.38.0 (20140413.2041)
 -->
<!-- Title: set_find_if Pages: 1 -->
<svg width="661pt" height="103pt"
 viewBox="0.00 0.00 661.00 103.00" xmlns="http://www.w3.org/2000/svg" xmlns:xlink="http://www.w3.org/1999/xlink">
<g id="graph0" class="graph" transform="scale(1 1) rotate(0) translate(4 99)">
<title>set_find_if</title>
<!-- Node1 -->
<g id="Node000001" class="node"><title>Node1</title>
<g id="a_Node000001"><a xlink:title="Vyhledání prvního elementu množiny splňujícího zadaný predikát.">
<polygon fill="#999999" stroke="#666666" points="60,-76 0,-76 0,-57 60,-57 60,-76"/>
<text text-anchor="middle" x="30" y="-64" font-family="Helvetica,sans-Serif" font-size="10.00">set_find_if</text>
</a>
</g>
</g>
<!-- Node2 -->
<g id="Node000002" class="node"><title>Node2</title>
<g id="a_Node000002"><a xlink:href="group___t_set_iterator.html#ga089f24c81ac3da7d1ac7ca24cc078dd8" target="_top" xlink:title="Zjištění platnosti iterátoru.">
<polygon fill="white" stroke="#666666" points="337,-95 235,-95 235,-76 337,-76 337,-95"/>
<text text-anchor="middle" x="286" y="-83" font-family="Helvetica,sans-Serif" font-size="10.00">set_iterator_is_valid</text>
</a>
</g>
</g>
<!-- Node1&#45;&gt;Node2 -->
<g id="edge1_Node000001_Node000002" class="edge"><title>Node1&#45;&gt;Node2</title>
<g id="a_edge1_Node000001_Node000002"><a xlink:title=" ">
<path fill="none" stroke="#63b8ff" d="M60.137,-68.6795C100.085,-71.6677 172.81,-77.1078 224.739,-80.9923"/>
<polygon fill="#63b8ff" stroke="#63b8ff" points="224.599,-84.4915 234.832,-81.7473 225.121,-77.511 224.599,-84.4915"/>
</a>
</g>
</g>
<!-- Node5 -->
<g id="Node000005" class="node"><title>Node5</title>
<g id="a_Node000005"><a xlink:href="group___t_set_iterator.html#ga6723a05c864198597ff49718020bd0d6" target="_top" xlink:title="Posunutí iterátoru vpřed.">
<polygon fill="white" stroke="#666666" points="199,-57 96,-57 96,-38 199,-38 199,-57"/>
<text text-anchor="middle" x="147.5" y="-45" font-family="Helvetica,sans-Serif" font-size="10.00">set_iterator_to_next</text>
</a>
</g>
</g>
<!-- Node1&#45;&gt;Node5 -->
<g id="edge4_Node000001_Node000005" class="edge"><title>Node1&#45;&gt;Node5</title>
<g id="a_edge4_Node000001_Node000005"><a xlink:title=" ">
<path fill="none" stroke="#63b8ff" d="M60.1455,-61.7055C68.0114,-60.4115 76.8244,-58.9618 85.7335,-57.4962"/>
<polygon fill="#63b8ff" stroke="#63b8ff" points="86.4883,-60.9192 95.7875,-55.8423 85.352,-54.012 86.4883,-60.9192"/>
</a>
</g>
</g>
<!-- Node3 -->
<g id="Node000003" class="node"><title>Node3</title>
<g id="a_Node000003"><a xlink:href="group___t_set_hash_table.html#ga891b531cc6373331e55101f2dd75ac4a" target="_top" xlink:title="Zjištění platnosti pozice v hašovací tabulce.">
<polygon fill="white" stroke="#666666" points="513,-57 373,-57 373,-38 513,-38 513,-57"/>
<text text-anchor="middle" x="443" y="-45" font-family="Helvetica,sans-Serif" font-size="10.00">set_hash_table_is_valid_pos</text>
</a>
</g>
</g>
<!-- Node2&#45;&gt;Node3 -->
<g id="edge2_Node000002_Node000003" class="edge"><title>Node2&#45;&gt;Node3</title>
<g id="a_edge2_Node000002_Node000003"><a xlink:title=" ">
<path fill="none" stroke="#63b8ff" d="M326.113,-75.911C346.475,-70.9191 371.566,-64.7676 393.189,-59.4666"/>
<polygon fill="#63b8ff" stroke="#63b8ff" points="394.289,-62.8006 403.168,-57.0201 392.622,-56.0019 394.289,-62.8006"/>
</a>
</g>
</g>
<!-- Node4 -->
<g id="Node000004" class="node"><title>Node4</title>
<g id="a_Node000004"><a xlink:href="_t_set_hash_table_open_addr_8c.html#aa4a90f23bbdbe5bb71a49d7df2ee5fc1" target="_top" xlink:title="Funkce vracející hodnotu reprezentující smazanou přihrádku.">
<polygon fill="white" stroke="#666666" points="653,-43.5 549,-43.5 549,-13.5 653,-13.5 653,-43.5"/>
<text text-anchor="start" x="557" y="-31.5" font-family="Helvetica,sans-Serif" font-size="10.00">calc_erased_bucket</text>
<text text-anchor="middle" x="601" y="-20.5" font-family="Helvetica,sans-Serif" font-size="10.00">_marker</text>
</a>
</g>
</g>
<!-- Node3&#45;&gt;Node4 -->
<g id="edge3_Node000003_Node000004" class="edge"><title>Node3&#45;&gt;Node4</title>
<g id="a_edge3_Node000003_Node000004"><a xlink:title=" ">
<path fill="none" stroke="#63b8ff" d="M513.332,-39.0557C521.779,-38.0269 530.362,-36.9815 538.681,-35.9684"/>
<polygon fill="#63b8ff" stroke="#63b8ff" points="539.165,-39.4354 548.668,-34.7519 538.318,-32.4867 539.165,-39.4354"/>
</a>
</g>
</g>
<!-- Node5&#45;&gt;Node2 -->
<g id="edge8_Node000005_Node000002" class="edge"><title>Node5&#45;&gt;Node2</title>
<g id="a_edge8_Node000005_Node000002"><a xlink:title=" ">
<path fill="none" stroke="#63b8ff" d="M182.945,-57.089C200.485,-61.9719 222.01,-67.9643 240.763,-73.185"/>
<polygon fill="#63b8ff" stroke="#63b8ff" points="239.994,-76.6039 250.566,-75.9141 241.871,-69.8603 239.994,-76.6039"/>
</a>
</g>
</g>
<!-- Node5&#45;&gt;Node3 -->
<g id="edge5_Node000005_Node000003" class="edge"><title>Node5&#45;&gt;Node3</title>
<g id="a_edge5_Node000005_Node000003"><a xlink:title=" ">
<path fill="none" stroke="#63b8ff" d="M199.289,-47.5C244.28,-47.5 310.699,-47.5 362.689,-47.5"/>
<polygon fill="#63b8ff" stroke="#63b8ff" points="362.883,-51.0001 372.883,-47.5 362.883,-44.0001 362.883,-51.0001"/>
</a>
</g>
</g>
<!-- Node6 -->
<g id="Node000006" class="node"><title>Node6</title>
<g id="a_Node000006"><a xlink:href="group___t_set_hash_table.html#ga9218e24d2cc5a61596c4a45ef76f4c75" target="_top" xlink:title="Výpočet následující pozice platné přihrádky v hašovací tabulce.">
<polygon fill="white" stroke="#666666" points="507,-19 379,-19 379,-0 507,-0 507,-19"/>
<text text-anchor="middle" x="443" y="-7" font-family="Helvetica,sans-Serif" font-size="10.00">set_hash_table_next_pos</text>
</a>
</g>
</g>
<!-- Node5&#45;&gt;Node6 -->
<g id="edge6_Node000005_Node000006" class="edge"><title>Node5&#45;&gt;Node6</title>
<g id="a_edge6_Node000005_Node000006"><a xlink:title=" ">
<path fill="none" stroke="#63b8ff" d="M199.289,-40.9243C246.069,-34.8676 316.016,-25.8114 368.82,-18.9747"/>
<polygon fill="#63b8ff" stroke="#63b8ff" points="369.338,-22.437 378.806,-17.6819 368.439,-15.495 369.338,-22.437"/>
</a>
</g>
</g>
<!-- Node6&#45;&gt;Node4 -->
<g id="edge7_Node000006_Node000004" class="edge"><title>Node6&#45;&gt;Node4</title>
<g id="a_edge7_Node000006_Node000004"><a xlink:title=" ">
<path fill="none" stroke="#63b8ff" d="M507.002,-17.1733C517.403,-18.4401 528.174,-19.7519 538.536,-21.014"/>
<polygon fill="#63b8ff" stroke="#63b8ff" points="538.384,-24.5213 548.734,-22.2561 539.231,-17.5726 538.384,-24.5213"/>
</a>
</g>
</g>
</g>
</svg>
