<?xml version="1.0" encoding="UTF-8" standalone="no"?>
<!DOCTYPE svg PUBLIC "-//W3C//DTD SVG 1.1//EN"
 "http://www.w3.org/Graphics/SVG/1.1/DTD/svg11.dtd">
<!-- Generated by graphviz version 2.38.0 (20140413.2041)
 -->
<!-- Title: set_iterator_is_valid Pages: 1 -->
<svg width="719pt" height="249pt"
 viewBox="0.00 0.00 719.00 249.16" xmlns="http://www.w3.org/2000/svg" xmlns:xlink="http://www.w3.org/1999/xlink">
<g id="graph0" class="graph" transform="scale(1 1) rotate(0) translate(4 245.164)">
<title>set_iterator_is_valid</title>
<!-- Node1 -->
<g id="Node000001" class="node"><title>Node1</title>
<g id="a_Node000001"><a xlink:title="Zjištění platnosti iterátoru.">
<polygon fill="#999999" stroke="#666666" points="711,-128.164 609,-128.164 609,-109.164 711,-109.164 711,-128.164"/>
<text text-anchor="middle" x="660" y="-116.164" font-family="Helvetica,sans-Serif" font-size="10.00">set_iterator_is_valid</text>
</a>
</g>
</g>
<!-- Node2 -->
<g id="Node000002" class="node"><title>Node2</title>
<g id="a_Node000002"><a xlink:href="group___iterator_algorithms.html#ga1785c6060679dcab5e6781b66659dbf3" target="_top" xlink:title="Vyhledání prvního elementu množiny splňujícího zadaný predikát.">
<polygon fill="white" stroke="#666666" points="407.5,-241.164 347.5,-241.164 347.5,-222.164 407.5,-222.164 407.5,-241.164"/>
<text text-anchor="middle" x="377.5" y="-229.164" font-family="Helvetica,sans-Serif" font-size="10.00">set_find_if</text>
</a>
</g>
</g>
<!-- Node1&#45;&gt;Node2 -->
<g id="edge1_Node000001_Node000002" class="edge"><title>Node1&#45;&gt;Node2</title>
<g id="a_edge1_Node000001_Node000002"><a xlink:title=" ">
<path fill="none" stroke="#63b8ff" d="M645.53,-136.195C630.137,-154.879 603.148,-183.777 573,-198.664 518.95,-225.353 447.287,-230.943 407.776,-231.83"/>
<polygon fill="#63b8ff" stroke="#63b8ff" points="648.425,-138.178 651.937,-128.182 642.958,-133.807 648.425,-138.178"/>
</a>
</g>
</g>
<!-- Node3 -->
<g id="Node000003" class="node"><title>Node3</title>
<g id="a_Node000003"><a xlink:href="group___iterator_algorithms.html#ga8ca52ed8ac7c0be83a19c7ed10f813cd" target="_top" xlink:title="Vyhledání prvního elementu množiny nesplňujícího zadaný predikát.">
<polygon fill="white" stroke="#666666" points="417,-204.164 338,-204.164 338,-185.164 417,-185.164 417,-204.164"/>
<text text-anchor="middle" x="377.5" y="-192.164" font-family="Helvetica,sans-Serif" font-size="10.00">set_find_if_not</text>
</a>
</g>
</g>
<!-- Node1&#45;&gt;Node3 -->
<g id="edge2_Node000001_Node000003" class="edge"><title>Node1&#45;&gt;Node3</title>
<g id="a_edge2_Node000001_Node000003"><a xlink:title=" ">
<path fill="none" stroke="#63b8ff" d="M640.176,-134.744C623.636,-147.889 598.319,-165.713 573,-174.664 521.313,-192.938 457.433,-196.115 417.314,-195.971"/>
<polygon fill="#63b8ff" stroke="#63b8ff" points="642.45,-137.406 647.98,-128.368 638.021,-131.985 642.45,-137.406"/>
</a>
</g>
</g>
<!-- Node4 -->
<g id="Node000004" class="node"><title>Node4</title>
<g id="a_Node000004"><a xlink:href="group___iterator_algorithms.html#gab8ba369b42eda61d010f35df73be73db" target="_top" xlink:title="Zavolání zvolené funkce na každý element množiny od pozice určené iterátorem až do posledního element...">
<polygon fill="white" stroke="#666666" points="413.5,-167.164 341.5,-167.164 341.5,-148.164 413.5,-148.164 413.5,-167.164"/>
<text text-anchor="middle" x="377.5" y="-155.164" font-family="Helvetica,sans-Serif" font-size="10.00">set_for_each</text>
</a>
</g>
</g>
<!-- Node1&#45;&gt;Node4 -->
<g id="edge3_Node000001_Node000004" class="edge"><title>Node1&#45;&gt;Node4</title>
<g id="a_edge3_Node000001_Node000004"><a xlink:title=" ">
<path fill="none" stroke="#63b8ff" d="M598.481,-122.966C561.28,-126.051 512.72,-130.871 470,-137.664 451.211,-140.652 430.484,-145.086 413.515,-149.021"/>
<polygon fill="#63b8ff" stroke="#63b8ff" points="598.973,-126.438 608.658,-122.142 598.408,-119.46 598.973,-126.438"/>
</a>
</g>
</g>
<!-- Node8 -->
<g id="Node000008" class="node"><title>Node8</title>
<g id="a_Node000008"><a xlink:href="group___main_program.html#ga2762b0417283abc168151cbffee8216c" target="_top" xlink:title=" ">
<polygon fill="white" stroke="#666666" points="285,-54.1643 188,-54.1643 188,-35.1643 285,-35.1643 285,-54.1643"/>
<text text-anchor="middle" x="236.5" y="-42.1643" font-family="Helvetica,sans-Serif" font-size="10.00">testset_hardcoded</text>
</a>
</g>
</g>
<!-- Node1&#45;&gt;Node8 -->
<g id="edge21_Node000001_Node000008" class="edge"><title>Node1&#45;&gt;Node8</title>
<g id="a_edge21_Node000001_Node000008"><a xlink:title=" ">
<path fill="none" stroke="#63b8ff" d="M648.806,-100.4C634.98,-77.6867 607.945,-39.925 573,-23.6643 467.175,25.5781 321.928,-14.9381 263.447,-35.0203"/>
<polygon fill="#63b8ff" stroke="#63b8ff" points="645.832,-102.248 653.907,-109.106 651.871,-98.709 645.832,-102.248"/>
</a>
</g>
</g>
<!-- Node9 -->
<g id="Node000009" class="node"><title>Node9</title>
<g id="a_Node000009"><a xlink:href="group___iterator_algorithms.html#gadbab6630263afa4c69e0c78118fa56df" target="_top" xlink:title="Zavolání zvolené funkce na prvních N elementů množiny od pozice určené iterátorem.">
<polygon fill="white" stroke="#666666" points="405.5,-91.1643 349.5,-91.1643 349.5,-72.1643 405.5,-72.1643 405.5,-91.1643"/>
<text text-anchor="middle" x="377.5" y="-79.1643" font-family="Helvetica,sans-Serif" font-size="10.00">set_for_n</text>
</a>
</g>
</g>
<!-- Node1&#45;&gt;Node9 -->
<g id="edge9_Node000001_Node000009" class="edge"><title>Node1&#45;&gt;Node9</title>
<g id="a_edge9_Node000001_Node000009"><a xlink:title=" ">
<path fill="none" stroke="#63b8ff" d="M598.6,-108.49C590.016,-107.144 581.291,-105.829 573,-104.664 513.4,-96.2933 443.237,-88.5028 405.608,-84.4918"/>
<polygon fill="#63b8ff" stroke="#63b8ff" points="598.153,-111.963 608.579,-110.078 599.253,-105.05 598.153,-111.963"/>
</a>
</g>
</g>
<!-- Node10 -->
<g id="Node000010" class="node"><title>Node10</title>
<g id="a_Node000010"><a xlink:href="group___t_set_iterator.html#ga6723a05c864198597ff49718020bd0d6" target="_top" xlink:title="Posunutí iterátoru vpřed.">
<polygon fill="white" stroke="#666666" points="573,-166.164 470,-166.164 470,-147.164 573,-147.164 573,-166.164"/>
<text text-anchor="middle" x="521.5" y="-154.164" font-family="Helvetica,sans-Serif" font-size="10.00">set_iterator_to_next</text>
</a>
</g>
</g>
<!-- Node1&#45;&gt;Node10 -->
<g id="edge10_Node000001_Node000010" class="edge"><title>Node1&#45;&gt;Node10</title>
<g id="a_edge10_Node000001_Node000010"><a xlink:title=" ">
<path fill="none" stroke="#63b8ff" d="M614.751,-130.983C595.997,-136.204 574.472,-142.196 556.934,-147.078"/>
<polygon fill="#63b8ff" stroke="#63b8ff" points="615.86,-134.307 624.555,-128.253 613.983,-127.563 615.86,-134.307"/>
</a>
</g>
</g>
<!-- Node11 -->
<g id="Node000011" class="node"><title>Node11</title>
<g id="a_Node000011"><a xlink:href="group___t_set_iterator.html#ga3928a980e2759ba130ce333e77f15fab" target="_top" xlink:title="Přečtení hodnoty elementu z množiny pomocí iterátoru.">
<polygon fill="white" stroke="#666666" points="567.5,-52.1643 475.5,-52.1643 475.5,-33.1643 567.5,-33.1643 567.5,-52.1643"/>
<text text-anchor="middle" x="521.5" y="-40.1643" font-family="Helvetica,sans-Serif" font-size="10.00">set_iterator_value</text>
</a>
</g>
</g>
<!-- Node1&#45;&gt;Node11 -->
<g id="edge16_Node000001_Node000011" class="edge"><title>Node1&#45;&gt;Node11</title>
<g id="a_edge16_Node000001_Node000011"><a xlink:title=" ">
<path fill="none" stroke="#63b8ff" d="M635.301,-103.455C618.234,-92.7201 594.519,-78.2459 573,-66.6643 563.597,-61.6038 552.951,-56.461 543.866,-52.241"/>
<polygon fill="#63b8ff" stroke="#63b8ff" points="633.722,-106.598 644.042,-108.992 637.467,-100.684 633.722,-106.598"/>
</a>
</g>
</g>
<!-- Node5 -->
<g id="Node000005" class="node"><title>Node5</title>
<g id="a_Node000005"><a xlink:href="testbench_8c.html#a068734a4e1d6209769e0c6b1675ca02b" target="_top" xlink:title="Provedení jednoho test z testovacího plánu na předaném ADT.">
<polygon fill="white" stroke="#666666" points="262.5,-92.1643 210.5,-92.1643 210.5,-73.1643 262.5,-73.1643 262.5,-92.1643"/>
<text text-anchor="middle" x="236.5" y="-80.1643" font-family="Helvetica,sans-Serif" font-size="10.00">test_run</text>
</a>
</g>
</g>
<!-- Node4&#45;&gt;Node5 -->
<g id="edge4_Node000004_Node000005" class="edge"><title>Node4&#45;&gt;Node5</title>
<g id="a_edge4_Node000004_Node000005"><a xlink:title=" ">
<path fill="none" stroke="#63b8ff" d="M342.762,-143.974C335.495,-140.777 327.92,-137.251 321,-133.664 295.966,-120.687 268.288,-103.096 251.922,-92.3307"/>
<polygon fill="#63b8ff" stroke="#63b8ff" points="341.822,-147.379 352.392,-148.106 344.582,-140.946 341.822,-147.379"/>
</a>
</g>
</g>
<!-- Node4&#45;&gt;Node8 -->
<g id="edge7_Node000004_Node000008" class="edge"><title>Node4&#45;&gt;Node8</title>
<g id="a_edge7_Node000004_Node000008"><a xlink:title=" ">
<path fill="none" stroke="#63b8ff" d="M335.029,-143.611C329.958,-140.812 325.121,-137.519 321,-133.664 295.449,-109.767 310.878,-87.2058 285,-63.6643 280.795,-59.8392 275.724,-56.7391 270.483,-54.2407"/>
<polygon fill="#63b8ff" stroke="#63b8ff" points="333.782,-146.897 344.305,-148.128 336.847,-140.603 333.782,-146.897"/>
</a>
</g>
</g>
<!-- Node6 -->
<g id="Node000006" class="node"><title>Node6</title>
<g id="a_Node000006"><a xlink:href="testbench_8c.html#a2fa1559684d267665b1c2433208511d3" target="_top" xlink:title="Provedení všech testů zadaného testovacího plánu na předaném ADT.">
<polygon fill="white" stroke="#666666" points="152,-92.1643 74,-92.1643 74,-73.1643 152,-73.1643 152,-92.1643"/>
<text text-anchor="middle" x="113" y="-80.1643" font-family="Helvetica,sans-Serif" font-size="10.00">testbench_run</text>
</a>
</g>
</g>
<!-- Node5&#45;&gt;Node6 -->
<g id="edge5_Node000005_Node000006" class="edge"><title>Node5&#45;&gt;Node6</title>
<g id="a_edge5_Node000005_Node000006"><a xlink:title=" ">
<path fill="none" stroke="#63b8ff" d="M199.894,-82.6643C184.87,-82.6643 167.356,-82.6643 152.076,-82.6643"/>
<polygon fill="#63b8ff" stroke="#63b8ff" points="200.325,-86.1644 210.325,-82.6643 200.325,-79.1644 200.325,-86.1644"/>
</a>
</g>
</g>
<!-- Node7 -->
<g id="Node000007" class="node"><title>Node7</title>
<g id="a_Node000007"><a xlink:href="group___main_program.html#ga0ddf1224851353fc92bfbff6f499fa97" target="_top" xlink:title=" ">
<polygon fill="white" stroke="#666666" points="38,-73.1643 0,-73.1643 0,-54.1643 38,-54.1643 38,-73.1643"/>
<text text-anchor="middle" x="19" y="-61.1643" font-family="Helvetica,sans-Serif" font-size="10.00">main</text>
</a>
</g>
</g>
<!-- Node6&#45;&gt;Node7 -->
<g id="edge6_Node000006_Node000007" class="edge"><title>Node6&#45;&gt;Node7</title>
<g id="a_edge6_Node000006_Node000007"><a xlink:title=" ">
<path fill="none" stroke="#63b8ff" d="M63.9337,-72.7375C54.8336,-70.8582 45.8417,-69.0011 38.3861,-67.4614"/>
<polygon fill="#63b8ff" stroke="#63b8ff" points="63.2817,-76.1767 73.783,-74.7716 64.6976,-69.3213 63.2817,-76.1767"/>
</a>
</g>
</g>
<!-- Node8&#45;&gt;Node7 -->
<g id="edge8_Node000008_Node000007" class="edge"><title>Node8&#45;&gt;Node7</title>
<g id="a_edge8_Node000008_Node000007"><a xlink:title=" ">
<path fill="none" stroke="#63b8ff" d="M177.957,-49.7377C131.328,-53.8488 68.5434,-59.3843 38.0818,-62.0701"/>
<polygon fill="#63b8ff" stroke="#63b8ff" points="178.287,-53.2222 187.941,-48.8574 177.672,-46.2493 178.287,-53.2222"/>
</a>
</g>
</g>
<!-- Node10&#45;&gt;Node2 -->
<g id="edge11_Node000010_Node000002" class="edge"><title>Node10&#45;&gt;Node2</title>
<g id="a_edge11_Node000010_Node000002"><a xlink:title=" ">
<path fill="none" stroke="#63b8ff" d="M499.785,-172.147C482.774,-184.342 457.706,-201.149 434,-212.664 425.664,-216.714 416.241,-220.285 407.558,-223.207"/>
<polygon fill="#63b8ff" stroke="#63b8ff" points="501.872,-174.957 507.897,-166.242 497.752,-169.298 501.872,-174.957"/>
</a>
</g>
</g>
<!-- Node10&#45;&gt;Node3 -->
<g id="edge12_Node000010_Node000003" class="edge"><title>Node10&#45;&gt;Node3</title>
<g id="a_edge12_Node000010_Node000003"><a xlink:title=" ">
<path fill="none" stroke="#63b8ff" d="M475.007,-168.838C455.372,-174.093 432.734,-180.151 414.321,-185.078"/>
<polygon fill="#63b8ff" stroke="#63b8ff" points="475.912,-172.219 484.667,-166.253 474.103,-165.457 475.912,-172.219"/>
</a>
</g>
</g>
<!-- Node10&#45;&gt;Node4 -->
<g id="edge13_Node000010_Node000004" class="edge"><title>Node10&#45;&gt;Node4</title>
<g id="a_edge13_Node000010_Node000004"><a xlink:title=" ">
<path fill="none" stroke="#63b8ff" d="M459.524,-157.094C443.943,-157.203 427.704,-157.318 413.892,-157.415"/>
<polygon fill="#63b8ff" stroke="#63b8ff" points="459.661,-160.593 469.636,-157.022 459.611,-153.593 459.661,-160.593"/>
</a>
</g>
</g>
<!-- Node10&#45;&gt;Node8 -->
<g id="edge15_Node000010_Node000008" class="edge"><title>Node10&#45;&gt;Node8</title>
<g id="a_edge15_Node000010_Node000008"><a xlink:title=" ">
<path fill="none" stroke="#63b8ff" d="M468.149,-144.864C417.837,-132.963 345.885,-114.307 321,-99.6643 301.498,-88.1893 303.89,-76.1205 285,-63.6643 279.513,-60.0462 273.229,-56.9322 267.068,-54.3332"/>
<polygon fill="#63b8ff" stroke="#63b8ff" points="467.368,-148.276 477.903,-147.151 468.966,-141.46 467.368,-148.276"/>
</a>
</g>
</g>
<!-- Node10&#45;&gt;Node9 -->
<g id="edge14_Node000010_Node000009" class="edge"><title>Node10&#45;&gt;Node9</title>
<g id="a_edge14_Node000010_Node000009"><a xlink:title=" ">
<path fill="none" stroke="#63b8ff" d="M496.738,-141.568C479.607,-130.955 455.765,-116.732 434,-105.664 423.8,-100.478 412.225,-95.3568 402.294,-91.186"/>
<polygon fill="#63b8ff" stroke="#63b8ff" points="495.174,-144.718 505.509,-147.05 498.883,-138.782 495.174,-144.718"/>
</a>
</g>
</g>
<!-- Node11&#45;&gt;Node8 -->
<g id="edge20_Node000011_Node000008" class="edge"><title>Node11&#45;&gt;Node8</title>
<g id="a_edge20_Node000011_Node000008"><a xlink:title=" ">
<path fill="none" stroke="#63b8ff" d="M470.843,-31.1935C458.847,-28.898 446.02,-26.8342 434,-25.6643 384.014,-20.7989 370.908,-20.0577 321,-25.6643 304.453,-27.5231 286.402,-31.3922 271.331,-35.1567"/>
<polygon fill="#63b8ff" stroke="#63b8ff" points="470.196,-34.6333 480.688,-33.1616 471.569,-27.7691 470.196,-34.6333"/>
</a>
</g>
</g>
<!-- Node12 -->
<g id="Node000012" class="node"><title>Node12</title>
<g id="a_Node000012"><a xlink:href="testbench_8c.html#ae7a610c069c6000940838c6a1e11bb42" target="_top" xlink:title="Vytisknutí hodnoty v ADT pomocí iterátoru.">
<polygon fill="white" stroke="#666666" points="434,-54.1643 321,-54.1643 321,-35.1643 434,-35.1643 434,-54.1643"/>
<text text-anchor="middle" x="377.5" y="-42.1643" font-family="Helvetica,sans-Serif" font-size="10.00">print_value_by_iterator</text>
</a>
</g>
</g>
<!-- Node11&#45;&gt;Node12 -->
<g id="edge17_Node000011_Node000012" class="edge"><title>Node11&#45;&gt;Node12</title>
<g id="a_edge17_Node000011_Node000012"><a xlink:title=" ">
<path fill="none" stroke="#63b8ff" d="M465.161,-43.4437C454.957,-43.5874 444.299,-43.7375 434.088,-43.8813"/>
<polygon fill="#63b8ff" stroke="#63b8ff" points="465.23,-46.9432 475.18,-43.3026 465.132,-39.9439 465.23,-46.9432"/>
</a>
</g>
</g>
<!-- Node12&#45;&gt;Node5 -->
<g id="edge18_Node000012_Node000005" class="edge"><title>Node12&#45;&gt;Node5</title>
<g id="a_edge18_Node000012_Node000005"><a xlink:title=" ">
<path fill="none" stroke="#63b8ff" d="M331.628,-56.9314C308.878,-63.1507 282.085,-70.4755 262.914,-75.7166"/>
<polygon fill="#63b8ff" stroke="#63b8ff" points="332.701,-60.2665 341.424,-54.2533 330.855,-53.5143 332.701,-60.2665"/>
</a>
</g>
</g>
<!-- Node12&#45;&gt;Node8 -->
<g id="edge19_Node000012_Node000008" class="edge"><title>Node12&#45;&gt;Node8</title>
<g id="a_edge19_Node000012_Node000008"><a xlink:title=" ">
<path fill="none" stroke="#63b8ff" d="M310.724,-44.6643C302.114,-44.6643 293.428,-44.6643 285.196,-44.6643"/>
<polygon fill="#63b8ff" stroke="#63b8ff" points="310.764,-48.1644 320.764,-44.6643 310.764,-41.1644 310.764,-48.1644"/>
</a>
</g>
</g>
</g>
</svg>
