<?xml version="1.0" encoding="UTF-8" standalone="no"?>
<!DOCTYPE svg PUBLIC "-//W3C//DTD SVG 1.1//EN"
 "http://www.w3.org/Graphics/SVG/1.1/DTD/svg11.dtd">
<!-- Generated by graphviz version 2.38.0 (20140413.2041)
 -->
<!-- Title: set_for_n Pages: 1 -->
<svg width="657pt" height="103pt"
 viewBox="0.00 0.00 657.00 103.00" xmlns="http://www.w3.org/2000/svg" xmlns:xlink="http://www.w3.org/1999/xlink">
<g id="graph0" class="graph" transform="scale(1 1) rotate(0) translate(4 99)">
<title>set_for_n</title>
<!-- Node1 -->
<g id="Node000001" class="node"><title>Node1</title>
<g id="a_Node000001"><a xlink:title="Zavolání zvolené funkce na prvních N elementů množiny od pozice určené iterátorem.">
<polygon fill="#999999" stroke="#666666" points="56,-76 3.55271e-015,-76 3.55271e-015,-57 56,-57 56,-76"/>
<text text-anchor="middle" x="28" y="-64" font-family="Helvetica,sans-Serif" font-size="10.00">set_for_n</text>
</a>
</g>
</g>
<!-- Node2 -->
<g id="Node000002" class="node"><title>Node2</title>
<g id="a_Node000002"><a xlink:href="group___t_set_iterator.html#ga089f24c81ac3da7d1ac7ca24cc078dd8" target="_top" xlink:title="Zjištění platnosti iterátoru.">
<polygon fill="white" stroke="#666666" points="333,-95 231,-95 231,-76 333,-76 333,-95"/>
<text text-anchor="middle" x="282" y="-83" font-family="Helvetica,sans-Serif" font-size="10.00">set_iterator_is_valid</text>
</a>
</g>
</g>
<!-- Node1&#45;&gt;Node2 -->
<g id="edge1_Node000001_Node000002" class="edge"><title>Node1&#45;&gt;Node2</title>
<g id="a_edge1_Node000001_Node000002"><a xlink:title=" ">
<path fill="none" stroke="#63b8ff" d="M56.4481,-68.5695C95.5545,-71.518 168.334,-77.0054 220.443,-80.9342"/>
<polygon fill="#63b8ff" stroke="#63b8ff" points="220.338,-84.4361 230.573,-81.698 220.865,-77.456 220.338,-84.4361"/>
</a>
</g>
</g>
<!-- Node5 -->
<g id="Node000005" class="node"><title>Node5</title>
<g id="a_Node000005"><a xlink:href="group___t_set_iterator.html#ga6723a05c864198597ff49718020bd0d6" target="_top" xlink:title="Posunutí iterátoru vpřed.">
<polygon fill="white" stroke="#666666" points="195,-57 92,-57 92,-38 195,-38 195,-57"/>
<text text-anchor="middle" x="143.5" y="-45" font-family="Helvetica,sans-Serif" font-size="10.00">set_iterator_to_next</text>
</a>
</g>
</g>
<!-- Node1&#45;&gt;Node5 -->
<g id="edge4_Node000001_Node000005" class="edge"><title>Node1&#45;&gt;Node5</title>
<g id="a_edge4_Node000001_Node000005"><a xlink:title=" ">
<path fill="none" stroke="#63b8ff" d="M56.1861,-61.949C64.0006,-60.6409 72.8527,-59.159 81.8363,-57.6552"/>
<polygon fill="#63b8ff" stroke="#63b8ff" points="82.7016,-61.0591 91.9865,-55.956 81.5459,-54.1552 82.7016,-61.0591"/>
</a>
</g>
</g>
<!-- Node3 -->
<g id="Node000003" class="node"><title>Node3</title>
<g id="a_Node000003"><a xlink:href="group___t_set_hash_table.html#ga891b531cc6373331e55101f2dd75ac4a" target="_top" xlink:title="Zjištění platnosti pozice v hašovací tabulce.">
<polygon fill="white" stroke="#666666" points="509,-57 369,-57 369,-38 509,-38 509,-57"/>
<text text-anchor="middle" x="439" y="-45" font-family="Helvetica,sans-Serif" font-size="10.00">set_hash_table_is_valid_pos</text>
</a>
</g>
</g>
<!-- Node2&#45;&gt;Node3 -->
<g id="edge2_Node000002_Node000003" class="edge"><title>Node2&#45;&gt;Node3</title>
<g id="a_edge2_Node000002_Node000003"><a xlink:title=" ">
<path fill="none" stroke="#63b8ff" d="M322.113,-75.911C342.475,-70.9191 367.566,-64.7676 389.189,-59.4666"/>
<polygon fill="#63b8ff" stroke="#63b8ff" points="390.289,-62.8006 399.168,-57.0201 388.622,-56.0019 390.289,-62.8006"/>
</a>
</g>
</g>
<!-- Node4 -->
<g id="Node000004" class="node"><title>Node4</title>
<g id="a_Node000004"><a xlink:href="_t_set_hash_table_open_addr_8c.html#aa4a90f23bbdbe5bb71a49d7df2ee5fc1" target="_top" xlink:title="Funkce vracející hodnotu reprezentující smazanou přihrádku.">
<polygon fill="white" stroke="#666666" points="649,-43.5 545,-43.5 545,-13.5 649,-13.5 649,-43.5"/>
<text text-anchor="start" x="553" y="-31.5" font-family="Helvetica,sans-Serif" font-size="10.00">calc_erased_bucket</text>
<text text-anchor="middle" x="597" y="-20.5" font-family="Helvetica,sans-Serif" font-size="10.00">_marker</text>
</a>
</g>
</g>
<!-- Node3&#45;&gt;Node4 -->
<g id="edge3_Node000003_Node000004" class="edge"><title>Node3&#45;&gt;Node4</title>
<g id="a_edge3_Node000003_Node000004"><a xlink:title=" ">
<path fill="none" stroke="#63b8ff" d="M509.332,-39.0557C517.779,-38.0269 526.362,-36.9815 534.681,-35.9684"/>
<polygon fill="#63b8ff" stroke="#63b8ff" points="535.165,-39.4354 544.668,-34.7519 534.318,-32.4867 535.165,-39.4354"/>
</a>
</g>
</g>
<!-- Node5&#45;&gt;Node2 -->
<g id="edge8_Node000005_Node000002" class="edge"><title>Node5&#45;&gt;Node2</title>
<g id="a_edge8_Node000005_Node000002"><a xlink:title=" ">
<path fill="none" stroke="#63b8ff" d="M178.945,-57.089C196.485,-61.9719 218.01,-67.9643 236.763,-73.185"/>
<polygon fill="#63b8ff" stroke="#63b8ff" points="235.994,-76.6039 246.566,-75.9141 237.871,-69.8603 235.994,-76.6039"/>
</a>
</g>
</g>
<!-- Node5&#45;&gt;Node3 -->
<g id="edge5_Node000005_Node000003" class="edge"><title>Node5&#45;&gt;Node3</title>
<g id="a_edge5_Node000005_Node000003"><a xlink:title=" ">
<path fill="none" stroke="#63b8ff" d="M195.289,-47.5C240.28,-47.5 306.699,-47.5 358.689,-47.5"/>
<polygon fill="#63b8ff" stroke="#63b8ff" points="358.883,-51.0001 368.883,-47.5 358.883,-44.0001 358.883,-51.0001"/>
</a>
</g>
</g>
<!-- Node6 -->
<g id="Node000006" class="node"><title>Node6</title>
<g id="a_Node000006"><a xlink:href="group___t_set_hash_table.html#ga9218e24d2cc5a61596c4a45ef76f4c75" target="_top" xlink:title="Výpočet následující pozice platné přihrádky v hašovací tabulce.">
<polygon fill="white" stroke="#666666" points="503,-19 375,-19 375,-0 503,-0 503,-19"/>
<text text-anchor="middle" x="439" y="-7" font-family="Helvetica,sans-Serif" font-size="10.00">set_hash_table_next_pos</text>
</a>
</g>
</g>
<!-- Node5&#45;&gt;Node6 -->
<g id="edge6_Node000005_Node000006" class="edge"><title>Node5&#45;&gt;Node6</title>
<g id="a_edge6_Node000005_Node000006"><a xlink:title=" ">
<path fill="none" stroke="#63b8ff" d="M195.289,-40.9243C242.069,-34.8676 312.016,-25.8114 364.82,-18.9747"/>
<polygon fill="#63b8ff" stroke="#63b8ff" points="365.338,-22.437 374.806,-17.6819 364.439,-15.495 365.338,-22.437"/>
</a>
</g>
</g>
<!-- Node6&#45;&gt;Node4 -->
<g id="edge7_Node000006_Node000004" class="edge"><title>Node6&#45;&gt;Node4</title>
<g id="a_edge7_Node000006_Node000004"><a xlink:title=" ">
<path fill="none" stroke="#63b8ff" d="M503.002,-17.1733C513.403,-18.4401 524.174,-19.7519 534.536,-21.014"/>
<polygon fill="#63b8ff" stroke="#63b8ff" points="534.384,-24.5213 544.734,-22.2561 535.231,-17.5726 534.384,-24.5213"/>
</a>
</g>
</g>
</g>
</svg>
