<?xml version="1.0" encoding="UTF-8" standalone="no"?>
<!DOCTYPE svg PUBLIC "-//W3C//DTD SVG 1.1//EN"
 "http://www.w3.org/Graphics/SVG/1.1/DTD/svg11.dtd">
<!-- Generated by graphviz version 2.38.0 (20140413.2041)
 -->
<!-- Title: set_insert Pages: 1 -->
<svg width="528pt" height="113pt"
 viewBox="0.00 0.00 528.00 112.50" xmlns="http://www.w3.org/2000/svg" xmlns:xlink="http://www.w3.org/1999/xlink">
<g id="graph0" class="graph" transform="scale(1 1) rotate(0) translate(4 108.5)">
<title>set_insert</title>
<!-- Node1 -->
<g id="Node000001" class="node"><title>Node1</title>
<g id="a_Node000001"><a xlink:title="Vložení elementu do množiny.">
<polygon fill="#999999" stroke="#666666" points="59,-74 0,-74 0,-55 59,-55 59,-74"/>
<text text-anchor="middle" x="29.5" y="-62" font-family="Helvetica,sans-Serif" font-size="10.00">set_insert</text>
</a>
</g>
</g>
<!-- Node2 -->
<g id="Node000002" class="node"><title>Node2</title>
<g id="a_Node000002"><a xlink:href="group___t_set_hash_table.html#gaa2a0e99e7960542538a8d251c488b808" target="_top" xlink:title="Inicializace hašovací tabulky.">
<polygon fill="white" stroke="#666666" points="201.5,-93 100.5,-93 100.5,-74 201.5,-74 201.5,-93"/>
<text text-anchor="middle" x="151" y="-81" font-family="Helvetica,sans-Serif" font-size="10.00">set_hash_table_init</text>
</a>
</g>
</g>
<!-- Node1&#45;&gt;Node2 -->
<g id="edge1_Node000001_Node000002" class="edge"><title>Node1&#45;&gt;Node2</title>
<g id="a_edge1_Node000001_Node000002"><a xlink:title=" ">
<path fill="none" stroke="#63b8ff" d="M59.1232,-69.051C68.5333,-70.5471 79.3724,-72.2705 90.2132,-73.9941"/>
<polygon fill="#63b8ff" stroke="#63b8ff" points="89.7029,-77.4569 100.128,-75.5706 90.8021,-70.5437 89.7029,-77.4569"/>
</a>
</g>
</g>
<!-- Node3 -->
<g id="Node000003" class="node"><title>Node3</title>
<g id="a_Node000003"><a xlink:href="group___t_set_hash_table.html#gaa4327c29b178abf7b79112463e1f9fb0" target="_top" xlink:title="Vložení elementu do hašovací tabulky.">
<polygon fill="white" stroke="#666666" points="207,-56 95,-56 95,-37 207,-37 207,-56"/>
<text text-anchor="middle" x="151" y="-44" font-family="Helvetica,sans-Serif" font-size="10.00">set_hash_table_insert</text>
</a>
</g>
</g>
<!-- Node1&#45;&gt;Node3 -->
<g id="edge2_Node000001_Node000003" class="edge"><title>Node1&#45;&gt;Node3</title>
<g id="a_edge2_Node000001_Node000003"><a xlink:title=" ">
<path fill="none" stroke="#63b8ff" d="M59.1232,-60.1886C66.9495,-59.0097 75.7642,-57.682 84.7463,-56.329"/>
<polygon fill="#63b8ff" stroke="#63b8ff" points="85.5475,-59.7479 94.9147,-54.7974 84.5049,-52.826 85.5475,-59.7479"/>
</a>
</g>
</g>
<!-- Node4 -->
<g id="Node000004" class="node"><title>Node4</title>
<g id="a_Node000004"><a xlink:href="group___t_set_hash_table.html#ga69c2697abdd49b443ea76077058df6b0" target="_top" xlink:title="Vyhledání elementu o zadané hodnotě v hašovací tabulce využívající otevřené adresování">
<polygon fill="white" stroke="#666666" points="360,-56 243,-56 243,-37 360,-37 360,-56"/>
<text text-anchor="middle" x="301.5" y="-44" font-family="Helvetica,sans-Serif" font-size="10.00">set_hash_table_search</text>
</a>
</g>
</g>
<!-- Node3&#45;&gt;Node4 -->
<g id="edge3_Node000003_Node000004" class="edge"><title>Node3&#45;&gt;Node4</title>
<g id="a_edge3_Node000003_Node000004"><a xlink:title=" ">
<path fill="none" stroke="#63b8ff" d="M207.296,-46.5C215.503,-46.5 224.042,-46.5 232.473,-46.5"/>
<polygon fill="#63b8ff" stroke="#63b8ff" points="232.674,-50.0001 242.674,-46.5 232.674,-43.0001 232.674,-50.0001"/>
</a>
</g>
</g>
<!-- Node5 -->
<g id="Node000005" class="node"><title>Node5</title>
<g id="a_Node000005"><a xlink:href="_t_set_hash_table_open_addr_8c.html#aa4a90f23bbdbe5bb71a49d7df2ee5fc1" target="_top" xlink:title="Funkce vracející hodnotu reprezentující smazanou přihrádku.">
<polygon fill="white" stroke="#666666" points="510,-104.5 406,-104.5 406,-74.5 510,-74.5 510,-104.5"/>
<text text-anchor="start" x="414" y="-92.5" font-family="Helvetica,sans-Serif" font-size="10.00">calc_erased_bucket</text>
<text text-anchor="middle" x="458" y="-81.5" font-family="Helvetica,sans-Serif" font-size="10.00">_marker</text>
</a>
</g>
</g>
<!-- Node4&#45;&gt;Node5 -->
<g id="edge4_Node000004_Node000005" class="edge"><title>Node4&#45;&gt;Node5</title>
<g id="a_edge4_Node000004_Node000005"><a xlink:title=" ">
<path fill="none" stroke="#63b8ff" d="M336.789,-56.0431C354.207,-60.8911 375.899,-66.9283 396.043,-72.5346"/>
<polygon fill="#63b8ff" stroke="#63b8ff" points="395.209,-75.9356 405.782,-75.2451 397.086,-69.1919 395.209,-75.9356"/>
</a>
</g>
</g>
<!-- Node6 -->
<g id="Node000006" class="node"><title>Node6</title>
<g id="a_Node000006"><a xlink:href="group___t_set_element_hashable.html#gad8cfc9a36f36c44c10b660c5b370f67e" target="_top" xlink:title="Porovnání dvou elementů">
<polygon fill="white" stroke="#666666" points="520,-56 396,-56 396,-37 520,-37 520,-56"/>
<text text-anchor="middle" x="458" y="-44" font-family="Helvetica,sans-Serif" font-size="10.00">set_element_comparator</text>
</a>
</g>
</g>
<!-- Node4&#45;&gt;Node6 -->
<g id="edge5_Node000004_Node000006" class="edge"><title>Node4&#45;&gt;Node6</title>
<g id="a_edge5_Node000004_Node000006"><a xlink:title=" ">
<path fill="none" stroke="#63b8ff" d="M360.03,-46.5C368.416,-46.5 377.135,-46.5 385.754,-46.5"/>
<polygon fill="#63b8ff" stroke="#63b8ff" points="385.799,-50.0001 395.799,-46.5 385.799,-43.0001 385.799,-50.0001"/>
</a>
</g>
</g>
<!-- Node7 -->
<g id="Node000007" class="node"><title>Node7</title>
<g id="a_Node000007"><a xlink:href="group___t_set_element_hashable.html#ga4a88e3b3d94aa8fa572cf07764d843e0" target="_top" xlink:title="Výpočet hash hodnoty elementu.">
<polygon fill="white" stroke="#666666" points="519.5,-19 396.5,-19 396.5,-0 519.5,-0 519.5,-19"/>
<text text-anchor="middle" x="458" y="-7" font-family="Helvetica,sans-Serif" font-size="10.00">set_element_hash_value</text>
</a>
</g>
</g>
<!-- Node4&#45;&gt;Node7 -->
<g id="edge6_Node000004_Node000007" class="edge"><title>Node4&#45;&gt;Node7</title>
<g id="a_edge6_Node000004_Node000007"><a xlink:title=" ">
<path fill="none" stroke="#63b8ff" d="M342.288,-36.9716C362.124,-32.2211 386.309,-26.4292 407.349,-21.3905"/>
<polygon fill="#63b8ff" stroke="#63b8ff" points="408.169,-24.7932 417.079,-19.0604 406.539,-17.9857 408.169,-24.7932"/>
</a>
</g>
</g>
</g>
</svg>
