<?xml version="1.0" encoding="UTF-8" standalone="no"?>
<!DOCTYPE svg PUBLIC "-//W3C//DTD SVG 1.1//EN"
 "http://www.w3.org/Graphics/SVG/1.1/DTD/svg11.dtd">
<!-- Generated by graphviz version 2.38.0 (20140413.2041)
 -->
<!-- Title: set_element_hash_value Pages: 1 -->
<svg width="770pt" height="138pt"
 viewBox="0.00 0.00 770.00 138.00" xmlns="http://www.w3.org/2000/svg" xmlns:xlink="http://www.w3.org/1999/xlink">
<g id="graph0" class="graph" transform="scale(1 1) rotate(0) translate(4 134)">
<title>set_element_hash_value</title>
<!-- Node1 -->
<g id="Node000001" class="node"><title>Node1</title>
<g id="a_Node000001"><a xlink:title="Výpočet hash hodnoty elementu.">
<polygon fill="#999999" stroke="#666666" points="762,-74 639,-74 639,-55 762,-55 762,-74"/>
<text text-anchor="middle" x="700.5" y="-62" font-family="Helvetica,sans-Serif" font-size="10.00">set_element_hash_value</text>
</a>
</g>
</g>
<!-- Node2 -->
<g id="Node000002" class="node"><title>Node2</title>
<g id="a_Node000002"><a xlink:href="group___t_set_hash_table.html#ga69c2697abdd49b443ea76077058df6b0" target="_top" xlink:title="Vyhledání elementu o zadané hodnotě v hašovací tabulce využívající otevřené adresování">
<polygon fill="white" stroke="#666666" points="603,-74 486,-74 486,-55 603,-55 603,-74"/>
<text text-anchor="middle" x="544.5" y="-62" font-family="Helvetica,sans-Serif" font-size="10.00">set_hash_table_search</text>
</a>
</g>
</g>
<!-- Node1&#45;&gt;Node2 -->
<g id="edge1_Node000001_Node000002" class="edge"><title>Node1&#45;&gt;Node2</title>
<g id="a_edge1_Node000001_Node000002"><a xlink:title=" ">
<path fill="none" stroke="#63b8ff" d="M628.473,-64.5C620.08,-64.5 611.593,-64.5 603.412,-64.5"/>
<polygon fill="#63b8ff" stroke="#63b8ff" points="628.635,-68.0001 638.635,-64.5 628.635,-61.0001 628.635,-68.0001"/>
</a>
</g>
</g>
<!-- Node3 -->
<g id="Node000003" class="node"><title>Node3</title>
<g id="a_Node000003"><a xlink:href="group___t_set.html#ga1dab52afdffe1147063314f7cdc5a7c8" target="_top" xlink:title="Získání nového iterátoru ukazujícího na první element se zadanou hodnotou v množině nalezen,...">
<polygon fill="white" stroke="#666666" points="419,-130 369,-130 369,-111 419,-111 419,-130"/>
<text text-anchor="middle" x="394" y="-118" font-family="Helvetica,sans-Serif" font-size="10.00">set_find</text>
</a>
</g>
</g>
<!-- Node2&#45;&gt;Node3 -->
<g id="edge2_Node000002_Node000003" class="edge"><title>Node2&#45;&gt;Node3</title>
<g id="a_edge2_Node000002_Node000003"><a xlink:title=" ">
<path fill="none" stroke="#63b8ff" d="M511.571,-78.1204C493.602,-85.6231 470.684,-94.9226 450,-102.5 440,-106.163 428.852,-109.879 419.22,-112.976"/>
<polygon fill="#63b8ff" stroke="#63b8ff" points="513.136,-81.2596 521,-74.1595 510.425,-74.806 513.136,-81.2596"/>
</a>
</g>
</g>
<!-- Node4 -->
<g id="Node000004" class="node"><title>Node4</title>
<g id="a_Node000004"><a xlink:href="group___t_set_hash_table.html#gaee3600d3134fc51a78e4142bbdc0ba2b" target="_top" xlink:title="Odstranění elementu z hašovací tabulky.">
<polygon fill="white" stroke="#666666" points="450,-93 338,-93 338,-74 450,-74 450,-93"/>
<text text-anchor="middle" x="394" y="-81" font-family="Helvetica,sans-Serif" font-size="10.00">set_hash_table_erase</text>
</a>
</g>
</g>
<!-- Node2&#45;&gt;Node4 -->
<g id="edge3_Node000002_Node000004" class="edge"><title>Node2&#45;&gt;Node4</title>
<g id="a_edge3_Node000002_Node000004"><a xlink:title=" ">
<path fill="none" stroke="#63b8ff" d="M475.657,-73.1802C467.067,-74.2793 458.362,-75.3931 450.006,-76.4622"/>
<polygon fill="#63b8ff" stroke="#63b8ff" points="476.186,-76.6412 485.661,-71.9003 475.297,-69.6978 476.186,-76.6412"/>
</a>
</g>
</g>
<!-- Node8 -->
<g id="Node000008" class="node"><title>Node8</title>
<g id="a_Node000008"><a xlink:href="group___t_set_hash_table.html#gaa4327c29b178abf7b79112463e1f9fb0" target="_top" xlink:title="Vložení elementu do hašovací tabulky.">
<polygon fill="white" stroke="#666666" points="450,-56 338,-56 338,-37 450,-37 450,-56"/>
<text text-anchor="middle" x="394" y="-44" font-family="Helvetica,sans-Serif" font-size="10.00">set_hash_table_insert</text>
</a>
</g>
</g>
<!-- Node2&#45;&gt;Node8 -->
<g id="edge7_Node000002_Node000008" class="edge"><title>Node2&#45;&gt;Node8</title>
<g id="a_edge7_Node000002_Node000008"><a xlink:title=" ">
<path fill="none" stroke="#63b8ff" d="M475.657,-56.2767C467.067,-55.2354 458.362,-54.1802 450.006,-53.1674"/>
<polygon fill="#63b8ff" stroke="#63b8ff" points="475.312,-59.7604 485.661,-57.4892 476.155,-52.8112 475.312,-59.7604"/>
</a>
</g>
</g>
<!-- Node10 -->
<g id="Node000010" class="node"><title>Node10</title>
<g id="a_Node000010"><a xlink:href="group___t_set.html#ga768d36614713a921e88985484ac63cc1" target="_top" xlink:title="Zjištění, zda množina obsahuje zadanou hodnotu elementu.">
<polygon fill="white" stroke="#666666" points="302,-19 207,-19 207,-0 302,-0 302,-19"/>
<text text-anchor="middle" x="254.5" y="-7" font-family="Helvetica,sans-Serif" font-size="10.00">set_is_element_of</text>
</a>
</g>
</g>
<!-- Node2&#45;&gt;Node10 -->
<g id="edge10_Node000002_Node000010" class="edge"><title>Node2&#45;&gt;Node10</title>
<g id="a_edge10_Node000002_Node000010"><a xlink:title=" ">
<path fill="none" stroke="#63b8ff" d="M514.561,-50.5672C496.434,-42.4703 472.349,-32.8402 450,-27.5 400.36,-15.6388 341.864,-11.5027 302.081,-10.1081"/>
<polygon fill="#63b8ff" stroke="#63b8ff" points="513.421,-53.8941 523.97,-54.8707 516.332,-47.5284 513.421,-53.8941"/>
</a>
</g>
</g>
<!-- Node5 -->
<g id="Node000005" class="node"><title>Node5</title>
<g id="a_Node000005"><a xlink:href="group___t_set.html#ga2a711b02282ff309c0d6a4fdcfbac738" target="_top" xlink:title="Odstranění elementu z množiny.">
<polygon fill="white" stroke="#666666" points="284,-93 225,-93 225,-74 284,-74 284,-93"/>
<text text-anchor="middle" x="254.5" y="-81" font-family="Helvetica,sans-Serif" font-size="10.00">set_erase</text>
</a>
</g>
</g>
<!-- Node4&#45;&gt;Node5 -->
<g id="edge4_Node000004_Node000005" class="edge"><title>Node4&#45;&gt;Node5</title>
<g id="a_edge4_Node000004_Node000005"><a xlink:title=" ">
<path fill="none" stroke="#63b8ff" d="M327.859,-83.5C312.53,-83.5 296.961,-83.5 284.212,-83.5"/>
<polygon fill="#63b8ff" stroke="#63b8ff" points="327.866,-87.0001 337.866,-83.5 327.866,-80.0001 327.866,-87.0001"/>
</a>
</g>
</g>
<!-- Node6 -->
<g id="Node000006" class="node"><title>Node6</title>
<g id="a_Node000006"><a xlink:href="group___main_program.html#ga2762b0417283abc168151cbffee8216c" target="_top" xlink:title=" ">
<polygon fill="white" stroke="#666666" points="171,-56 74,-56 74,-37 171,-37 171,-56"/>
<text text-anchor="middle" x="122.5" y="-44" font-family="Helvetica,sans-Serif" font-size="10.00">testset_hardcoded</text>
</a>
</g>
</g>
<!-- Node5&#45;&gt;Node6 -->
<g id="edge5_Node000005_Node000006" class="edge"><title>Node5&#45;&gt;Node6</title>
<g id="a_edge5_Node000005_Node000006"><a xlink:title=" ">
<path fill="none" stroke="#63b8ff" d="M215.129,-72.5791C196.687,-67.3303 174.788,-61.0973 157.023,-56.0412"/>
<polygon fill="#63b8ff" stroke="#63b8ff" points="214.395,-76.009 224.971,-75.3802 216.311,-69.2764 214.395,-76.009"/>
</a>
</g>
</g>
<!-- Node7 -->
<g id="Node000007" class="node"><title>Node7</title>
<g id="a_Node000007"><a xlink:href="group___main_program.html#ga0ddf1224851353fc92bfbff6f499fa97" target="_top" xlink:title=" ">
<polygon fill="white" stroke="#666666" points="38,-56 0,-56 0,-37 38,-37 38,-56"/>
<text text-anchor="middle" x="19" y="-44" font-family="Helvetica,sans-Serif" font-size="10.00">main</text>
</a>
</g>
</g>
<!-- Node6&#45;&gt;Node7 -->
<g id="edge6_Node000006_Node000007" class="edge"><title>Node6&#45;&gt;Node7</title>
<g id="a_edge6_Node000006_Node000007"><a xlink:title=" ">
<path fill="none" stroke="#63b8ff" d="M63.439,-46.5C54.3943,-46.5 45.6661,-46.5 38.4361,-46.5"/>
<polygon fill="#63b8ff" stroke="#63b8ff" points="63.7222,-50.0001 73.7221,-46.5 63.7221,-43.0001 63.7222,-50.0001"/>
</a>
</g>
</g>
<!-- Node9 -->
<g id="Node000009" class="node"><title>Node9</title>
<g id="a_Node000009"><a xlink:href="group___t_set.html#ga0d1464cea78691ff9ad3dd1e32b55c60" target="_top" xlink:title="Vložení elementu do množiny.">
<polygon fill="white" stroke="#666666" points="284,-56 225,-56 225,-37 284,-37 284,-56"/>
<text text-anchor="middle" x="254.5" y="-44" font-family="Helvetica,sans-Serif" font-size="10.00">set_insert</text>
</a>
</g>
</g>
<!-- Node8&#45;&gt;Node9 -->
<g id="edge8_Node000008_Node000009" class="edge"><title>Node8&#45;&gt;Node9</title>
<g id="a_edge8_Node000008_Node000009"><a xlink:title=" ">
<path fill="none" stroke="#63b8ff" d="M327.859,-46.5C312.53,-46.5 296.961,-46.5 284.212,-46.5"/>
<polygon fill="#63b8ff" stroke="#63b8ff" points="327.866,-50.0001 337.866,-46.5 327.866,-43.0001 327.866,-50.0001"/>
</a>
</g>
</g>
<!-- Node9&#45;&gt;Node6 -->
<g id="edge9_Node000009_Node000006" class="edge"><title>Node9&#45;&gt;Node6</title>
<g id="a_edge9_Node000009_Node000006"><a xlink:title=" ">
<path fill="none" stroke="#63b8ff" d="M214.888,-46.5C201.153,-46.5 185.524,-46.5 171.124,-46.5"/>
<polygon fill="#63b8ff" stroke="#63b8ff" points="214.971,-50.0001 224.971,-46.5 214.971,-43.0001 214.971,-50.0001"/>
</a>
</g>
</g>
<!-- Node10&#45;&gt;Node6 -->
<g id="edge11_Node000010_Node000006" class="edge"><title>Node10&#45;&gt;Node6</title>
<g id="a_edge11_Node000010_Node000006"><a xlink:title=" ">
<path fill="none" stroke="#63b8ff" d="M210.192,-21.8261C192.975,-26.7265 173.463,-32.2797 157.317,-36.8753"/>
<polygon fill="#63b8ff" stroke="#63b8ff" points="211.362,-25.1322 220.022,-19.0284 209.446,-18.3996 211.362,-25.1322"/>
</a>
</g>
</g>
</g>
</svg>
