<?xml version="1.0" encoding="UTF-8" standalone="no"?>
<!DOCTYPE svg PUBLIC "-//W3C//DTD SVG 1.1//EN"
 "http://www.w3.org/Graphics/SVG/1.1/DTD/svg11.dtd">
<!-- Generated by graphviz version 2.38.0 (20140413.2041)
 -->
<!-- Title: main.c Pages: 1 -->
<svg width="402pt" height="302pt"
 viewBox="0.00 0.00 402.00 302.00" xmlns="http://www.w3.org/2000/svg" xmlns:xlink="http://www.w3.org/1999/xlink">
<g id="graph0" class="graph" transform="scale(1 1) rotate(0) translate(4 298)">
<title>main.c</title>
<!-- Node1 -->
<g id="Node000001" class="node"><title>Node1</title>
<g id="a_Node000001"><a xlink:title="Hlavní program pro testování ADT TSet &#45; (realizace unordered množiny pomocí hašovací tabulky)">
<polygon fill="#999999" stroke="#666666" points="122,-294 76,-294 76,-275 122,-275 122,-294"/>
<text text-anchor="middle" x="99" y="-282" font-family="Helvetica,sans-Serif" font-size="10.00">main.c</text>
</a>
</g>
</g>
<!-- Node2 -->
<g id="Node000002" class="node"><title>Node2</title>
<g id="a_Node000002"><a xlink:title=" ">
<polygon fill="#e0e0e0" stroke="#999999" points="46,-19 0,-19 0,-0 46,-0 46,-19"/>
<text text-anchor="middle" x="23" y="-7" font-family="Helvetica,sans-Serif" font-size="10.00">stdio.h</text>
</a>
</g>
</g>
<!-- Node1&#45;&gt;Node2 -->
<g id="edge1_Node000001_Node000002" class="edge"><title>Node1&#45;&gt;Node2</title>
<g id="a_edge1_Node000001_Node000002"><a xlink:title=" ">
<path fill="none" stroke="#63b8ff" d="M87.4375,-274.807C66.625,-258.07 25,-219.14 25,-175.5 25,-175.5 25,-175.5 25,-118.5 25,-87.1843 24.149,-50.7697 23.5572,-29.2329"/>
<polygon fill="#63b8ff" stroke="#63b8ff" points="27.0542,-29.0743 23.2697,-19.1785 20.0571,-29.2744 27.0542,-29.0743"/>
</a>
</g>
</g>
<!-- Node3 -->
<g id="Node000003" class="node"><title>Node3</title>
<g id="a_Node000003"><a xlink:href="testbench_8h.html" target="_top" xlink:title="Definice testbench API pro testování operací zvoleného ADT.">
<polygon fill="white" stroke="#666666" points="164,-239 96,-239 96,-220 164,-220 164,-239"/>
<text text-anchor="middle" x="130" y="-227" font-family="Helvetica,sans-Serif" font-size="10.00">testbench.h</text>
</a>
</g>
</g>
<!-- Node1&#45;&gt;Node3 -->
<g id="edge2_Node000001_Node000003" class="edge"><title>Node1&#45;&gt;Node3</title>
<g id="a_edge2_Node000001_Node000003"><a xlink:title=" ">
<path fill="none" stroke="#63b8ff" d="M104.119,-274.748C108.362,-267.493 114.527,-256.954 119.775,-247.981"/>
<polygon fill="#63b8ff" stroke="#63b8ff" points="122.949,-249.488 124.976,-239.089 116.906,-245.954 122.949,-249.488"/>
</a>
</g>
</g>
<!-- Node5 -->
<g id="Node000005" class="node"><title>Node5</title>
<g id="a_Node000005"><a xlink:href="_t_set_8h.html" target="_top" xlink:title="Definice typu Set &#45; (realizace unordered množiny pomocí hašovací tabulky)">
<polygon fill="white" stroke="#666666" points="151.5,-184 106.5,-184 106.5,-165 151.5,-165 151.5,-184"/>
<text text-anchor="middle" x="129" y="-172" font-family="Helvetica,sans-Serif" font-size="10.00">TSet.h</text>
</a>
</g>
</g>
<!-- Node1&#45;&gt;Node5 -->
<g id="edge18_Node000001_Node000005" class="edge"><title>Node1&#45;&gt;Node5</title>
<g id="a_edge18_Node000001_Node000005"><a xlink:title=" ">
<path fill="none" stroke="#63b8ff" d="M94.4832,-274.995C88.5045,-262.537 79.5421,-238.767 87,-220 91.519,-208.628 100.474,-198.481 108.959,-190.758"/>
<polygon fill="#63b8ff" stroke="#63b8ff" points="111.414,-193.266 116.79,-184.136 106.894,-187.921 111.414,-193.266"/>
</a>
</g>
</g>
<!-- Node13 -->
<g id="Node000013" class="node"><title>Node13</title>
<g id="a_Node000013"><a xlink:href="testplan__set1_8h.html" target="_top" xlink:title=" ">
<polygon fill="white" stroke="#666666" points="265.5,-239 182.5,-239 182.5,-220 265.5,-220 265.5,-239"/>
<text text-anchor="middle" x="224" y="-227" font-family="Helvetica,sans-Serif" font-size="10.00">testplan_set1.h</text>
</a>
</g>
</g>
<!-- Node1&#45;&gt;Node13 -->
<g id="edge19_Node000001_Node000013" class="edge"><title>Node1&#45;&gt;Node13</title>
<g id="a_edge19_Node000001_Node000013"><a xlink:title=" ">
<path fill="none" stroke="#63b8ff" d="M119.083,-274.985C139.373,-266.382 170.955,-252.991 194.171,-243.147"/>
<polygon fill="#63b8ff" stroke="#63b8ff" points="195.711,-246.296 203.551,-239.17 192.978,-239.852 195.711,-246.296"/>
</a>
</g>
</g>
<!-- Node4 -->
<g id="Node000004" class="node"><title>Node4</title>
<g id="a_Node000004"><a xlink:title=" ">
<polygon fill="#e0e0e0" stroke="#999999" points="394,-19 338,-19 338,-0 394,-0 394,-19"/>
<text text-anchor="middle" x="366" y="-7" font-family="Helvetica,sans-Serif" font-size="10.00">stdbool.h</text>
</a>
</g>
</g>
<!-- Node3&#45;&gt;Node4 -->
<g id="edge3_Node000003_Node000004" class="edge"><title>Node3&#45;&gt;Node4</title>
<g id="a_edge3_Node000003_Node000004"><a xlink:title=" ">
<path fill="none" stroke="#63b8ff" d="M156.156,-219.981C196.092,-205.986 273.092,-175.008 325,-129 347.047,-109.459 352.522,-101.895 362,-74 366.893,-59.6011 367.68,-42.3244 367.362,-29.4294"/>
<polygon fill="#63b8ff" stroke="#63b8ff" points="370.856,-29.2257 366.874,-19.4079 363.865,-29.5663 370.856,-29.2257"/>
</a>
</g>
</g>
<!-- Node3&#45;&gt;Node5 -->
<g id="edge4_Node000003_Node000005" class="edge"><title>Node3&#45;&gt;Node5</title>
<g id="a_edge4_Node000003_Node000005"><a xlink:title=" ">
<path fill="none" stroke="#63b8ff" d="M129.835,-219.748C129.704,-212.802 129.516,-202.845 129.352,-194.135"/>
<polygon fill="#63b8ff" stroke="#63b8ff" points="132.85,-194.021 129.162,-184.089 125.851,-194.153 132.85,-194.021"/>
</a>
</g>
</g>
<!-- Node5&#45;&gt;Node4 -->
<g id="edge5_Node000005_Node000004" class="edge"><title>Node5&#45;&gt;Node4</title>
<g id="a_edge5_Node000005_Node000004"><a xlink:title=" ">
<path fill="none" stroke="#63b8ff" d="M151.533,-173.189C186.947,-171.59 256.204,-163.847 301,-129 334.221,-103.157 352.8,-55.3508 360.945,-29.048"/>
<polygon fill="#63b8ff" stroke="#63b8ff" points="364.372,-29.7985 363.809,-19.2186 357.651,-27.8401 364.372,-29.7985"/>
</a>
</g>
</g>
<!-- Node6 -->
<g id="Node000006" class="node"><title>Node6</title>
<g id="a_Node000006"><a xlink:title=" ">
<polygon fill="#e0e0e0" stroke="#999999" points="148.5,-74 97.5,-74 97.5,-55 148.5,-55 148.5,-74"/>
<text text-anchor="middle" x="123" y="-62" font-family="Helvetica,sans-Serif" font-size="10.00">stddef.h</text>
</a>
</g>
</g>
<!-- Node5&#45;&gt;Node6 -->
<g id="edge6_Node000005_Node000006" class="edge"><title>Node5&#45;&gt;Node6</title>
<g id="a_edge6_Node000005_Node000006"><a xlink:title=" ">
<path fill="none" stroke="#63b8ff" d="M128.509,-164.662C127.537,-147.171 125.35,-107.805 124.043,-84.2731"/>
<polygon fill="#63b8ff" stroke="#63b8ff" points="127.53,-83.9488 123.481,-74.1584 120.541,-84.3372 127.53,-83.9488"/>
</a>
</g>
</g>
<!-- Node7 -->
<g id="Node000007" class="node"><title>Node7</title>
<g id="a_Node000007"><a xlink:href="_t_set_hash_table_open_addr_8h.html" target="_top" xlink:title="Implementace typu SetHashTable &#45; (hašovací tabulka využívající otevřené adresování)">
<polygon fill="white" stroke="#666666" points="292,-129 158,-129 158,-110 292,-110 292,-129"/>
<text text-anchor="middle" x="225" y="-117" font-family="Helvetica,sans-Serif" font-size="10.00">TSetHashTableOpenAddr.h</text>
</a>
</g>
</g>
<!-- Node5&#45;&gt;Node7 -->
<g id="edge7_Node000005_Node000007" class="edge"><title>Node5&#45;&gt;Node7</title>
<g id="a_edge7_Node000005_Node000007"><a xlink:title=" ">
<path fill="none" stroke="#63b8ff" d="M144.424,-164.985C159.45,-156.689 182.54,-143.941 200.157,-134.215"/>
<polygon fill="#63b8ff" stroke="#63b8ff" points="202.232,-137.068 209.295,-129.17 198.849,-130.939 202.232,-137.068"/>
</a>
</g>
</g>
<!-- Node12 -->
<g id="Node000012" class="node"><title>Node12</title>
<g id="a_Node000012"><a xlink:title=" ">
<polygon fill="#e0e0e0" stroke="#999999" points="115.5,-19 64.5,-19 64.5,-0 115.5,-0 115.5,-19"/>
<text text-anchor="middle" x="90" y="-7" font-family="Helvetica,sans-Serif" font-size="10.00">check.h</text>
</a>
</g>
</g>
<!-- Node5&#45;&gt;Node12 -->
<g id="edge17_Node000005_Node000012" class="edge"><title>Node5&#45;&gt;Node12</title>
<g id="a_edge17_Node000005_Node000012"><a xlink:title=" ">
<path fill="none" stroke="#63b8ff" d="M124.045,-164.815C114.75,-147.963 95.0022,-109.372 88,-74 86.3602,-65.7163 87.8104,-63.4423 88,-55 88.1912,-46.4868 88.5879,-37.0645 88.978,-29.09"/>
<polygon fill="#63b8ff" stroke="#63b8ff" points="92.4772,-29.1959 89.5029,-19.0271 85.4867,-28.8312 92.4772,-29.1959"/>
</a>
</g>
</g>
<!-- Node7&#45;&gt;Node4 -->
<g id="edge8_Node000007_Node000004" class="edge"><title>Node7&#45;&gt;Node4</title>
<g id="a_edge8_Node000007_Node000004"><a xlink:title=" ">
<path fill="none" stroke="#63b8ff" d="M241.272,-109.843C256.484,-101.462 279.557,-88.0003 298,-74 317.178,-59.4418 337.077,-40.308 350.355,-26.863"/>
<polygon fill="#63b8ff" stroke="#63b8ff" points="353.233,-28.9248 357.702,-19.3186 348.218,-24.0413 353.233,-28.9248"/>
</a>
</g>
</g>
<!-- Node7&#45;&gt;Node6 -->
<g id="edge9_Node000007_Node000006" class="edge"><title>Node7&#45;&gt;Node6</title>
<g id="a_edge9_Node000007_Node000006"><a xlink:title=" ">
<path fill="none" stroke="#63b8ff" d="M208.612,-109.985C192.425,-101.574 167.43,-88.5864 148.619,-78.8118"/>
<polygon fill="#63b8ff" stroke="#63b8ff" points="150.174,-75.6754 139.686,-74.1703 146.946,-81.8869 150.174,-75.6754"/>
</a>
</g>
</g>
<!-- Node8 -->
<g id="Node000008" class="node"><title>Node8</title>
<g id="a_Node000008"><a xlink:href="_t_set_element_hashable_8h.html" target="_top" xlink:title="Definice typu Hashable Basic SetElement a implementace API.">
<polygon fill="white" stroke="#666666" points="289,-74 167,-74 167,-55 289,-55 289,-74"/>
<text text-anchor="middle" x="228" y="-62" font-family="Helvetica,sans-Serif" font-size="10.00">TSetElementHashable.h</text>
</a>
</g>
</g>
<!-- Node7&#45;&gt;Node8 -->
<g id="edge10_Node000007_Node000008" class="edge"><title>Node7&#45;&gt;Node8</title>
<g id="a_edge10_Node000007_Node000008"><a xlink:title=" ">
<path fill="none" stroke="#63b8ff" d="M225.495,-109.748C225.889,-102.802 226.452,-92.8451 226.945,-84.1349"/>
<polygon fill="#63b8ff" stroke="#63b8ff" points="230.443,-84.2709 227.514,-74.089 223.454,-83.8752 230.443,-84.2709"/>
</a>
</g>
</g>
<!-- Node8&#45;&gt;Node2 -->
<g id="edge11_Node000008_Node000002" class="edge"><title>Node8&#45;&gt;Node2</title>
<g id="a_edge11_Node000008_Node000002"><a xlink:title=" ">
<path fill="none" stroke="#63b8ff" d="M194.491,-54.9639C161.601,-46.5667 109.751,-33.2806 55.8028,-19.1951"/>
<polygon fill="#63b8ff" stroke="#63b8ff" points="56.6264,-15.7928 46.0663,-16.6502 54.8562,-22.5653 56.6264,-15.7928"/>
</a>
</g>
</g>
<!-- Node8&#45;&gt;Node4 -->
<g id="edge13_Node000008_Node000004" class="edge"><title>Node8&#45;&gt;Node4</title>
<g id="a_edge13_Node000008_Node000004"><a xlink:title=" ">
<path fill="none" stroke="#63b8ff" d="M250.172,-54.9846C272.772,-46.305 308.062,-32.7515 333.753,-22.8847"/>
<polygon fill="#63b8ff" stroke="#63b8ff" points="335.344,-26.0229 343.424,-19.1703 332.834,-19.4883 335.344,-26.0229"/>
</a>
</g>
</g>
<!-- Node9 -->
<g id="Node000009" class="node"><title>Node9</title>
<g id="a_Node000009"><a xlink:title=" ">
<polygon fill="#e0e0e0" stroke="#999999" points="252,-19 204,-19 204,-0 252,-0 252,-19"/>
<text text-anchor="middle" x="228" y="-7" font-family="Helvetica,sans-Serif" font-size="10.00">stdlib.h</text>
</a>
</g>
</g>
<!-- Node8&#45;&gt;Node9 -->
<g id="edge12_Node000008_Node000009" class="edge"><title>Node8&#45;&gt;Node9</title>
<g id="a_edge12_Node000008_Node000009"><a xlink:title=" ">
<path fill="none" stroke="#63b8ff" d="M228,-54.7481C228,-47.8021 228,-37.8451 228,-29.1349"/>
<polygon fill="#63b8ff" stroke="#63b8ff" points="231.5,-29.089 228,-19.089 224.5,-29.0891 231.5,-29.089"/>
</a>
</g>
</g>
<!-- Node10 -->
<g id="Node000010" class="node"><title>Node10</title>
<g id="a_Node000010"><a xlink:title=" ">
<polygon fill="#e0e0e0" stroke="#999999" points="319.5,-19 270.5,-19 270.5,-0 319.5,-0 319.5,-19"/>
<text text-anchor="middle" x="295" y="-7" font-family="Helvetica,sans-Serif" font-size="10.00">stdint.h</text>
</a>
</g>
</g>
<!-- Node8&#45;&gt;Node10 -->
<g id="edge14_Node000008_Node000010" class="edge"><title>Node8&#45;&gt;Node10</title>
<g id="a_edge14_Node000008_Node000010"><a xlink:title=" ">
<path fill="none" stroke="#63b8ff" d="M238.765,-54.9846C248.766,-47.0731 263.887,-35.1121 275.93,-25.5848"/>
<polygon fill="#63b8ff" stroke="#63b8ff" points="278.368,-28.1194 284.039,-19.1703 274.025,-22.6294 278.368,-28.1194"/>
</a>
</g>
</g>
<!-- Node11 -->
<g id="Node000011" class="node"><title>Node11</title>
<g id="a_Node000011"><a xlink:title=" ">
<polygon fill="#e0e0e0" stroke="#999999" points="186,-19 134,-19 134,-0 186,-0 186,-19"/>
<text text-anchor="middle" x="160" y="-7" font-family="Helvetica,sans-Serif" font-size="10.00">assert.h</text>
</a>
</g>
</g>
<!-- Node8&#45;&gt;Node11 -->
<g id="edge15_Node000008_Node000011" class="edge"><title>Node8&#45;&gt;Node11</title>
<g id="a_edge15_Node000008_Node000011"><a xlink:title=" ">
<path fill="none" stroke="#63b8ff" d="M217.075,-54.9846C206.924,-47.0731 191.578,-35.1121 179.354,-25.5848"/>
<polygon fill="#63b8ff" stroke="#63b8ff" points="181.163,-22.5572 171.124,-19.1703 176.86,-28.0783 181.163,-22.5572"/>
</a>
</g>
</g>
<!-- Node8&#45;&gt;Node12 -->
<g id="edge16_Node000008_Node000012" class="edge"><title>Node8&#45;&gt;Node12</title>
<g id="a_edge16_Node000008_Node000012"><a xlink:title=" ">
<path fill="none" stroke="#63b8ff" d="M205.828,-54.9846C183.228,-46.305 147.938,-32.7515 122.247,-22.8847"/>
<polygon fill="#63b8ff" stroke="#63b8ff" points="123.166,-19.4883 112.576,-19.1703 120.656,-26.0229 123.166,-19.4883"/>
</a>
</g>
</g>
</g>
</svg>
