<?xml version="1.0" encoding="UTF-8" standalone="no"?>
<!DOCTYPE svg PUBLIC "-//W3C//DTD SVG 1.1//EN"
 "http://www.w3.org/Graphics/SVG/1.1/DTD/svg11.dtd">
<!-- Generated by graphviz version 2.38.0 (20140413.2041)
 -->
<!-- Title: TSetIterator Pages: 1 -->
<svg width="143pt" height="288pt"
 viewBox="0.00 0.00 143.00 288.00" xmlns="http://www.w3.org/2000/svg" xmlns:xlink="http://www.w3.org/1999/xlink">
<g id="graph0" class="graph" transform="scale(1 1) rotate(0) translate(4 284)">
<title>TSetIterator</title>
<!-- Node1 -->
<g id="Node000001" class="node"><title>Node1</title>
<g id="a_Node000001"><a xlink:title="Definice typu SetIterator.">
<polygon fill="#999999" stroke="#666666" points="109.5,-57 25.5,-57 25.5,-0 109.5,-0 109.5,-57"/>
<text text-anchor="start" x="42" y="-40.5" font-family="Helvetica,sans-Serif" font-size="10.00">TSetIterator</text>
<text text-anchor="start" x="37.5" y="-25.5" font-family="Helvetica,sans-Serif" font-size="10.00">+</text>
<text text-anchor="start" x="48.5" y="-25.5" font-family="Helvetica,sans-Serif" font-size="10.00">size_t iPos</text>
<text text-anchor="start" x="65.5" y="-10.5" font-family="Helvetica,sans-Serif" font-size="10.00"> </text>
<polygon fill="#666666" stroke="#666666" points="33.5,-35.5 33.5,-35.5 101.5,-35.5 101.5,-35.5 33.5,-35.5"/>
<polygon fill="#666666" stroke="#666666" points="33.5,-20.5 33.5,-20.5 46.5,-20.5 46.5,-20.5 33.5,-20.5"/>
<polygon fill="#666666" stroke="#666666" points="46.5,-20.5 46.5,-20.5 101.5,-20.5 101.5,-20.5 46.5,-20.5"/>
<polygon fill="none" stroke="#666666" points="33.5,-4 33.5,-53 101.5,-53 101.5,-4 33.5,-4"/>
</a>
</g>
</g>
<!-- Node2 -->
<g id="Node000002" class="node"><title>Node2</title>
<g id="a_Node000002"><a xlink:href="group___t_set.html#struct_t_set" target="_top" xlink:title="Definice typu Set.">
<polygon fill="white" stroke="#666666" points="111,-161 24,-161 24,-104 111,-104 111,-161"/>
<text text-anchor="start" x="57.5" y="-144.5" font-family="Helvetica,sans-Serif" font-size="10.00">TSet</text>
<text text-anchor="start" x="36.5" y="-129.5" font-family="Helvetica,sans-Serif" font-size="10.00">+</text>
<text text-anchor="start" x="47.5" y="-129.5" font-family="Helvetica,sans-Serif" font-size="10.00">size_t iSize</text>
<text text-anchor="start" x="66" y="-114.5" font-family="Helvetica,sans-Serif" font-size="10.00"> </text>
<polygon fill="#666666" stroke="#666666" points="32.5,-139.5 32.5,-139.5 103.5,-139.5 103.5,-139.5 32.5,-139.5"/>
<polygon fill="#666666" stroke="#666666" points="32.5,-124.5 32.5,-124.5 45.5,-124.5 45.5,-124.5 32.5,-124.5"/>
<polygon fill="#666666" stroke="#666666" points="45.5,-124.5 45.5,-124.5 103.5,-124.5 103.5,-124.5 45.5,-124.5"/>
<polygon fill="none" stroke="#666666" points="32,-108 32,-157 103,-157 103,-108 32,-108"/>
</a>
</g>
</g>
<!-- Node2&#45;&gt;Node1 -->
<g id="edge1_Node000001_Node000002" class="edge"><title>Node2&#45;&gt;Node1</title>
<g id="a_edge1_Node000001_Node000002"><a xlink:title=" ">
<path fill="none" stroke="#63b8ff" d="M67.5,-103.897C67.5,-93.2387 67.5,-80.8394 67.5,-69.2547"/>
<polygon fill="none" stroke="#63b8ff" points="67.5001,-69.1247 63.5,-63.1248 67.5,-57.1247 71.5,-63.1247 67.5001,-69.1247"/>
</a>
</g>
<text text-anchor="middle" x="81" y="-78" font-family="Helvetica,sans-Serif" font-size="10.00" fill="grey"> +iSet</text>
</g>
<!-- Node3 -->
<g id="Node000003" class="node"><title>Node3</title>
<g id="a_Node000003"><a xlink:href="struct_t_set_hash_table.html" target="_top" xlink:title="Úplná definice typu SetHashTable.">
<polygon fill="white" stroke="#666666" points="135,-280 0,-280 0,-208 135,-208 135,-280"/>
<text text-anchor="start" x="34.5" y="-264" font-family="Helvetica,sans-Serif" font-size="10.00">TSetHashTable</text>
<text text-anchor="start" x="12.5" y="-249" font-family="Helvetica,sans-Serif" font-size="10.00">+</text>
<text text-anchor="start" x="23.5" y="-249" font-family="Helvetica,sans-Serif" font-size="10.00">size_t iCapacity</text>
<text text-anchor="start" x="12.5" y="-234" font-family="Helvetica,sans-Serif" font-size="10.00">+</text>
<text text-anchor="start" x="23.5" y="-234" font-family="Helvetica,sans-Serif" font-size="10.00">TSetElement * iBucket</text>
<text text-anchor="start" x="66" y="-219" font-family="Helvetica,sans-Serif" font-size="10.00"> </text>
<polygon fill="#666666" stroke="#666666" points="8.5,-259 8.5,-259 127.5,-259 127.5,-259 8.5,-259"/>
<polygon fill="#666666" stroke="#666666" points="8.5,-229 8.5,-229 21.5,-229 21.5,-229 8.5,-229"/>
<polygon fill="#666666" stroke="#666666" points="21.5,-229 21.5,-229 127.5,-229 127.5,-229 21.5,-229"/>
<polygon fill="none" stroke="#666666" points="8,-212 8,-276 127,-276 127,-212 8,-212"/>
</a>
</g>
</g>
<!-- Node3&#45;&gt;Node2 -->
<g id="edge2_Node000002_Node000003" class="edge"><title>Node3&#45;&gt;Node2</title>
<g id="a_edge2_Node000002_Node000003"><a xlink:title=" ">
<path fill="none" stroke="#63b8ff" d="M67.5,-207.751C67.5,-196.758 67.5,-184.559 67.5,-173.278"/>
<polygon fill="none" stroke="#63b8ff" points="67.5001,-173.045 63.5,-167.045 67.5,-161.045 71.5,-167.045 67.5001,-173.045"/>
</a>
</g>
<text text-anchor="middle" x="96.5" y="-182" font-family="Helvetica,sans-Serif" font-size="10.00" fill="grey"> +iHashTable</text>
</g>
</g>
</svg>
