<?xml version="1.0" encoding="UTF-8" standalone="no"?>
<!DOCTYPE svg PUBLIC "-//W3C//DTD SVG 1.1//EN"
 "http://www.w3.org/Graphics/SVG/1.1/DTD/svg11.dtd">
<!-- Generated by graphviz version 2.38.0 (20140413.2041)
 -->
<!-- Title: TSet Pages: 1 -->
<svg width="143pt" height="184pt"
 viewBox="0.00 0.00 143.00 184.00" xmlns="http://www.w3.org/2000/svg" xmlns:xlink="http://www.w3.org/1999/xlink">
<g id="graph0" class="graph" transform="scale(1 1) rotate(0) translate(4 180)">
<title>TSet</title>
<!-- Node1 -->
<g id="Node000001" class="node"><title>Node1</title>
<g id="a_Node000001"><a xlink:title="Definice typu Set.">
<polygon fill="#999999" stroke="#666666" points="111,-57 24,-57 24,-0 111,-0 111,-57"/>
<text text-anchor="start" x="57.5" y="-40.5" font-family="Helvetica,sans-Serif" font-size="10.00">TSet</text>
<text text-anchor="start" x="36.5" y="-25.5" font-family="Helvetica,sans-Serif" font-size="10.00">+</text>
<text text-anchor="start" x="47.5" y="-25.5" font-family="Helvetica,sans-Serif" font-size="10.00">size_t iSize</text>
<text text-anchor="start" x="66" y="-10.5" font-family="Helvetica,sans-Serif" font-size="10.00"> </text>
<polygon fill="#666666" stroke="#666666" points="32.5,-35.5 32.5,-35.5 103.5,-35.5 103.5,-35.5 32.5,-35.5"/>
<polygon fill="#666666" stroke="#666666" points="32.5,-20.5 32.5,-20.5 45.5,-20.5 45.5,-20.5 32.5,-20.5"/>
<polygon fill="#666666" stroke="#666666" points="45.5,-20.5 45.5,-20.5 103.5,-20.5 103.5,-20.5 45.5,-20.5"/>
<polygon fill="none" stroke="#666666" points="32,-4 32,-53 103,-53 103,-4 32,-4"/>
</a>
</g>
</g>
<!-- Node2 -->
<g id="Node000002" class="node"><title>Node2</title>
<g id="a_Node000002"><a xlink:href="struct_t_set_hash_table.html" target="_top" xlink:title="Úplná definice typu SetHashTable.">
<polygon fill="white" stroke="#666666" points="135,-176 0,-176 0,-104 135,-104 135,-176"/>
<text text-anchor="start" x="34.5" y="-160" font-family="Helvetica,sans-Serif" font-size="10.00">TSetHashTable</text>
<text text-anchor="start" x="12.5" y="-145" font-family="Helvetica,sans-Serif" font-size="10.00">+</text>
<text text-anchor="start" x="23.5" y="-145" font-family="Helvetica,sans-Serif" font-size="10.00">size_t iCapacity</text>
<text text-anchor="start" x="12.5" y="-130" font-family="Helvetica,sans-Serif" font-size="10.00">+</text>
<text text-anchor="start" x="23.5" y="-130" font-family="Helvetica,sans-Serif" font-size="10.00">TSetElement * iBucket</text>
<text text-anchor="start" x="66" y="-115" font-family="Helvetica,sans-Serif" font-size="10.00"> </text>
<polygon fill="#666666" stroke="#666666" points="8.5,-155 8.5,-155 127.5,-155 127.5,-155 8.5,-155"/>
<polygon fill="#666666" stroke="#666666" points="8.5,-125 8.5,-125 21.5,-125 21.5,-125 8.5,-125"/>
<polygon fill="#666666" stroke="#666666" points="21.5,-125 21.5,-125 127.5,-125 127.5,-125 21.5,-125"/>
<polygon fill="none" stroke="#666666" points="8,-108 8,-172 127,-172 127,-108 8,-108"/>
</a>
</g>
</g>
<!-- Node2&#45;&gt;Node1 -->
<g id="edge1_Node000001_Node000002" class="edge"><title>Node2&#45;&gt;Node1</title>
<g id="a_edge1_Node000001_Node000002"><a xlink:title=" ">
<path fill="none" stroke="#63b8ff" d="M67.5,-103.751C67.5,-92.758 67.5,-80.5587 67.5,-69.278"/>
<polygon fill="none" stroke="#63b8ff" points="67.5001,-69.0453 63.5,-63.0454 67.5,-57.0453 71.5,-63.0453 67.5001,-69.0453"/>
</a>
</g>
<text text-anchor="middle" x="96.5" y="-78" font-family="Helvetica,sans-Serif" font-size="10.00" fill="grey"> +iHashTable</text>
</g>
</g>
</svg>
