<?xml version="1.0" encoding="UTF-8" standalone="no"?>
<!DOCTYPE svg PUBLIC "-//W3C//DTD SVG 1.1//EN"
 "http://www.w3.org/Graphics/SVG/1.1/DTD/svg11.dtd">
<!-- Generated by graphviz version 2.38.0 (20140413.2041)
 -->
<!-- Title: testbench.h Pages: 1 -->
<svg width="406pt" height="247pt"
 viewBox="0.00 0.00 405.50 247.00" xmlns="http://www.w3.org/2000/svg" xmlns:xlink="http://www.w3.org/1999/xlink">
<g id="graph0" class="graph" transform="scale(1 1) rotate(0) translate(4 243)">
<title>testbench.h</title>
<!-- Node1 -->
<g id="Node000001" class="node"><title>Node1</title>
<g id="a_Node000001"><a xlink:title="Definice testbench API pro testování operací zvoleného ADT.">
<polygon fill="#999999" stroke="#666666" points="68,-239 0,-239 0,-220 68,-220 68,-239"/>
<text text-anchor="middle" x="34" y="-227" font-family="Helvetica,sans-Serif" font-size="10.00">testbench.h</text>
</a>
</g>
</g>
<!-- Node2 -->
<g id="Node000002" class="node"><title>Node2</title>
<g id="a_Node000002"><a xlink:title=" ">
<polygon fill="#e0e0e0" stroke="#999999" points="60,-19 4,-19 4,-0 60,-0 60,-19"/>
<text text-anchor="middle" x="32" y="-7" font-family="Helvetica,sans-Serif" font-size="10.00">stdbool.h</text>
</a>
</g>
</g>
<!-- Node1&#45;&gt;Node2 -->
<g id="edge1_Node000001_Node000002" class="edge"><title>Node1&#45;&gt;Node2</title>
<g id="a_edge1_Node000001_Node000002"><a xlink:title=" ">
<path fill="none" stroke="#63b8ff" d="M33.9216,-219.954C33.6279,-187.946 32.5888,-74.6786 32.1734,-29.4031"/>
<polygon fill="#63b8ff" stroke="#63b8ff" points="35.6717,-29.1911 32.08,-19.2237 28.672,-29.2554 35.6717,-29.1911"/>
</a>
</g>
</g>
<!-- Node3 -->
<g id="Node000003" class="node"><title>Node3</title>
<g id="a_Node000003"><a xlink:href="_t_set_8h.html" target="_top" xlink:title="Definice typu Set &#45; (realizace unordered množiny pomocí hašovací tabulky)">
<polygon fill="white" stroke="#666666" points="94.5,-184 49.5,-184 49.5,-165 94.5,-165 94.5,-184"/>
<text text-anchor="middle" x="72" y="-172" font-family="Helvetica,sans-Serif" font-size="10.00">TSet.h</text>
</a>
</g>
</g>
<!-- Node1&#45;&gt;Node3 -->
<g id="edge2_Node000001_Node000003" class="edge"><title>Node1&#45;&gt;Node3</title>
<g id="a_edge2_Node000001_Node000003"><a xlink:title=" ">
<path fill="none" stroke="#63b8ff" d="M40.2749,-219.748C45.5871,-212.339 53.3555,-201.504 59.8754,-192.411"/>
<polygon fill="#63b8ff" stroke="#63b8ff" points="62.8594,-194.255 65.8418,-184.089 57.1705,-190.177 62.8594,-194.255"/>
</a>
</g>
</g>
<!-- Node3&#45;&gt;Node2 -->
<g id="edge3_Node000003_Node000002" class="edge"><title>Node3&#45;&gt;Node2</title>
<g id="a_edge3_Node000003_Node000002"><a xlink:title=" ">
<path fill="none" stroke="#63b8ff" d="M69.8494,-164.736C63.5824,-139.198 45.2345,-64.4307 36.5968,-29.2321"/>
<polygon fill="#63b8ff" stroke="#63b8ff" points="39.9437,-28.1846 34.1612,-19.3069 33.1454,-29.8529 39.9437,-28.1846"/>
</a>
</g>
</g>
<!-- Node4 -->
<g id="Node000004" class="node"><title>Node4</title>
<g id="a_Node000004"><a xlink:title=" ">
<polygon fill="#e0e0e0" stroke="#999999" points="113.5,-74 62.5,-74 62.5,-55 113.5,-55 113.5,-74"/>
<text text-anchor="middle" x="88" y="-62" font-family="Helvetica,sans-Serif" font-size="10.00">stddef.h</text>
</a>
</g>
</g>
<!-- Node3&#45;&gt;Node4 -->
<g id="edge4_Node000003_Node000004" class="edge"><title>Node3&#45;&gt;Node4</title>
<g id="a_edge4_Node000003_Node000004"><a xlink:title=" ">
<path fill="none" stroke="#63b8ff" d="M73.3093,-164.662C75.9006,-147.171 81.7326,-107.805 85.2188,-84.2731"/>
<polygon fill="#63b8ff" stroke="#63b8ff" points="88.7139,-84.5634 86.7173,-74.1584 81.7895,-83.5375 88.7139,-84.5634"/>
</a>
</g>
</g>
<!-- Node5 -->
<g id="Node000005" class="node"><title>Node5</title>
<g id="a_Node000005"><a xlink:href="_t_set_hash_table_open_addr_8h.html" target="_top" xlink:title="Implementace typu SetHashTable &#45; (hašovací tabulka využívající otevřené adresování)">
<polygon fill="white" stroke="#666666" points="234,-129 100,-129 100,-110 234,-110 234,-129"/>
<text text-anchor="middle" x="167" y="-117" font-family="Helvetica,sans-Serif" font-size="10.00">TSetHashTableOpenAddr.h</text>
</a>
</g>
</g>
<!-- Node3&#45;&gt;Node5 -->
<g id="edge5_Node000003_Node000005" class="edge"><title>Node3&#45;&gt;Node5</title>
<g id="a_edge5_Node000003_Node000005"><a xlink:title=" ">
<path fill="none" stroke="#63b8ff" d="M87.2634,-164.985C102.133,-156.689 124.983,-143.941 142.416,-134.215"/>
<polygon fill="#63b8ff" stroke="#63b8ff" points="144.431,-137.099 151.459,-129.17 141.021,-130.986 144.431,-137.099"/>
</a>
</g>
</g>
<!-- Node11 -->
<g id="Node000011" class="node"><title>Node11</title>
<g id="a_Node000011"><a xlink:title=" ">
<polygon fill="#e0e0e0" stroke="#999999" points="397.5,-19 346.5,-19 346.5,-0 397.5,-0 397.5,-19"/>
<text text-anchor="middle" x="372" y="-7" font-family="Helvetica,sans-Serif" font-size="10.00">check.h</text>
</a>
</g>
</g>
<!-- Node3&#45;&gt;Node11 -->
<g id="edge15_Node000003_Node000011" class="edge"><title>Node3&#45;&gt;Node11</title>
<g id="a_edge15_Node000003_Node000011"><a xlink:title=" ">
<path fill="none" stroke="#63b8ff" d="M94.5946,-171.154C128.588,-166.87 194.106,-155.634 243,-129 292.186,-102.206 337.37,-52.6293 358.851,-26.9206"/>
<polygon fill="#63b8ff" stroke="#63b8ff" points="361.561,-29.1353 365.199,-19.1845 356.15,-24.695 361.561,-29.1353"/>
</a>
</g>
</g>
<!-- Node5&#45;&gt;Node2 -->
<g id="edge6_Node000005_Node000002" class="edge"><title>Node5&#45;&gt;Node2</title>
<g id="a_edge6_Node000005_Node000002"><a xlink:title=" ">
<path fill="none" stroke="#63b8ff" d="M162.582,-109.653C155.556,-96.3268 140.702,-70.9687 122,-55 105.782,-41.1523 84.5104,-30.3769 66.719,-22.8999"/>
<polygon fill="#63b8ff" stroke="#63b8ff" points="67.8307,-19.5746 57.2471,-19.0869 65.2166,-26.0681 67.8307,-19.5746"/>
</a>
</g>
</g>
<!-- Node5&#45;&gt;Node4 -->
<g id="edge7_Node000005_Node000004" class="edge"><title>Node5&#45;&gt;Node4</title>
<g id="a_edge7_Node000005_Node000004"><a xlink:title=" ">
<path fill="none" stroke="#63b8ff" d="M154.307,-109.985C142.171,-101.843 123.642,-89.4119 109.254,-79.7587"/>
<polygon fill="#63b8ff" stroke="#63b8ff" points="111.178,-76.8351 100.924,-74.1703 107.278,-82.6481 111.178,-76.8351"/>
</a>
</g>
</g>
<!-- Node6 -->
<g id="Node000006" class="node"><title>Node6</title>
<g id="a_Node000006"><a xlink:href="_t_set_element_hashable_8h.html" target="_top" xlink:title="Definice typu Hashable Basic SetElement a implementace API.">
<polygon fill="white" stroke="#666666" points="292,-74 170,-74 170,-55 292,-55 292,-74"/>
<text text-anchor="middle" x="231" y="-62" font-family="Helvetica,sans-Serif" font-size="10.00">TSetElementHashable.h</text>
</a>
</g>
</g>
<!-- Node5&#45;&gt;Node6 -->
<g id="edge8_Node000005_Node000006" class="edge"><title>Node5&#45;&gt;Node6</title>
<g id="a_edge8_Node000005_Node000006"><a xlink:title=" ">
<path fill="none" stroke="#63b8ff" d="M177.283,-109.985C186.836,-102.073 201.28,-90.1121 212.784,-80.5848"/>
<polygon fill="#63b8ff" stroke="#63b8ff" points="215.061,-83.2442 220.53,-74.1703 210.596,-77.8528 215.061,-83.2442"/>
</a>
</g>
</g>
<!-- Node6&#45;&gt;Node2 -->
<g id="edge11_Node000006_Node000002" class="edge"><title>Node6&#45;&gt;Node2</title>
<g id="a_edge11_Node000006_Node000002"><a xlink:title=" ">
<path fill="none" stroke="#63b8ff" d="M199.027,-54.9846C163.878,-45.6232 107.441,-30.5924 70.0436,-20.6322"/>
<polygon fill="#63b8ff" stroke="#63b8ff" points="70.5978,-17.1579 60.0339,-17.9663 68.7963,-23.9221 70.5978,-17.1579"/>
</a>
</g>
</g>
<!-- Node7 -->
<g id="Node000007" class="node"><title>Node7</title>
<g id="a_Node000007"><a xlink:title=" ">
<polygon fill="#e0e0e0" stroke="#999999" points="124,-19 78,-19 78,-0 124,-0 124,-19"/>
<text text-anchor="middle" x="101" y="-7" font-family="Helvetica,sans-Serif" font-size="10.00">stdio.h</text>
</a>
</g>
</g>
<!-- Node6&#45;&gt;Node7 -->
<g id="edge9_Node000006_Node000007" class="edge"><title>Node6&#45;&gt;Node7</title>
<g id="a_edge9_Node000006_Node000007"><a xlink:title=" ">
<path fill="none" stroke="#63b8ff" d="M210.113,-54.9846C188.918,-46.3434 155.873,-32.8713 131.699,-23.0158"/>
<polygon fill="#63b8ff" stroke="#63b8ff" points="132.848,-19.7046 122.267,-19.1703 130.205,-26.1866 132.848,-19.7046"/>
</a>
</g>
</g>
<!-- Node8 -->
<g id="Node000008" class="node"><title>Node8</title>
<g id="a_Node000008"><a xlink:title=" ">
<polygon fill="#e0e0e0" stroke="#999999" points="190,-19 142,-19 142,-0 190,-0 190,-19"/>
<text text-anchor="middle" x="166" y="-7" font-family="Helvetica,sans-Serif" font-size="10.00">stdlib.h</text>
</a>
</g>
</g>
<!-- Node6&#45;&gt;Node8 -->
<g id="edge10_Node000006_Node000008" class="edge"><title>Node6&#45;&gt;Node8</title>
<g id="a_edge10_Node000006_Node000008"><a xlink:title=" ">
<path fill="none" stroke="#63b8ff" d="M220.557,-54.9846C210.854,-47.0731 196.185,-35.1121 184.5,-25.5848"/>
<polygon fill="#63b8ff" stroke="#63b8ff" points="186.595,-22.7772 176.633,-19.1703 182.172,-28.2023 186.595,-22.7772"/>
</a>
</g>
</g>
<!-- Node9 -->
<g id="Node000009" class="node"><title>Node9</title>
<g id="a_Node000009"><a xlink:title=" ">
<polygon fill="#e0e0e0" stroke="#999999" points="257.5,-19 208.5,-19 208.5,-0 257.5,-0 257.5,-19"/>
<text text-anchor="middle" x="233" y="-7" font-family="Helvetica,sans-Serif" font-size="10.00">stdint.h</text>
</a>
</g>
</g>
<!-- Node6&#45;&gt;Node9 -->
<g id="edge12_Node000006_Node000009" class="edge"><title>Node6&#45;&gt;Node9</title>
<g id="a_edge12_Node000006_Node000009"><a xlink:title=" ">
<path fill="none" stroke="#63b8ff" d="M231.33,-54.7481C231.592,-47.8021 231.968,-37.8451 232.297,-29.1349"/>
<polygon fill="#63b8ff" stroke="#63b8ff" points="235.796,-29.2139 232.676,-19.089 228.801,-28.9499 235.796,-29.2139"/>
</a>
</g>
</g>
<!-- Node10 -->
<g id="Node000010" class="node"><title>Node10</title>
<g id="a_Node000010"><a xlink:title=" ">
<polygon fill="#e0e0e0" stroke="#999999" points="328,-19 276,-19 276,-0 328,-0 328,-19"/>
<text text-anchor="middle" x="302" y="-7" font-family="Helvetica,sans-Serif" font-size="10.00">assert.h</text>
</a>
</g>
</g>
<!-- Node6&#45;&gt;Node10 -->
<g id="edge13_Node000006_Node000010" class="edge"><title>Node6&#45;&gt;Node10</title>
<g id="a_edge13_Node000006_Node000010"><a xlink:title=" ">
<path fill="none" stroke="#63b8ff" d="M242.407,-54.9846C253.109,-46.9963 269.341,-34.8795 282.163,-25.308"/>
<polygon fill="#63b8ff" stroke="#63b8ff" points="284.465,-27.957 290.385,-19.1703 280.278,-22.3475 284.465,-27.957"/>
</a>
</g>
</g>
<!-- Node6&#45;&gt;Node11 -->
<g id="edge14_Node000006_Node000011" class="edge"><title>Node6&#45;&gt;Node11</title>
<g id="a_edge14_Node000006_Node000011"><a xlink:title=" ">
<path fill="none" stroke="#63b8ff" d="M253.654,-54.9846C276.847,-46.2665 313.122,-32.6314 339.4,-22.7539"/>
<polygon fill="#63b8ff" stroke="#63b8ff" points="340.805,-25.9651 348.934,-19.1703 338.342,-19.4127 340.805,-25.9651"/>
</a>
</g>
</g>
</g>
</svg>
