<?xml version="1.0" encoding="UTF-8" standalone="no"?>
<!DOCTYPE svg PUBLIC "-//W3C//DTD SVG 1.1//EN"
 "http://www.w3.org/Graphics/SVG/1.1/DTD/svg11.dtd">
<!-- Generated by graphviz version 2.38.0 (20140413.2041)
 -->
<!-- Title: test_run Pages: 1 -->
<svg width="843pt" height="253pt"
 viewBox="0.00 0.00 843.00 253.00" xmlns="http://www.w3.org/2000/svg" xmlns:xlink="http://www.w3.org/1999/xlink">
<g id="graph0" class="graph" transform="scale(1 1) rotate(0) translate(4 249)">
<title>test_run</title>
<!-- Node1 -->
<g id="Node000001" class="node"><title>Node1</title>
<g id="a_Node000001"><a xlink:title="Provedení jednoho test z testovacího plánu na předaném ADT.">
<polygon fill="#999999" stroke="#666666" points="52,-169 0,-169 0,-150 52,-150 52,-169"/>
<text text-anchor="middle" x="26" y="-157" font-family="Helvetica,sans-Serif" font-size="10.00">test_run</text>
</a>
</g>
</g>
<!-- Node2 -->
<g id="Node000002" class="node"><title>Node2</title>
<g id="a_Node000002"><a xlink:href="testbench_8c.html#aa291195ad453d2b1e29004cc2e043c01" target="_top" xlink:title=" ">
<polygon fill="white" stroke="#666666" points="178.5,-245 110.5,-245 110.5,-226 178.5,-226 178.5,-245"/>
<text text-anchor="middle" x="144.5" y="-233" font-family="Helvetica,sans-Serif" font-size="10.00">difftimespec</text>
</a>
</g>
</g>
<!-- Node1&#45;&gt;Node2 -->
<g id="edge1_Node000001_Node000002" class="edge"><title>Node1&#45;&gt;Node2</title>
<g id="a_edge1_Node000001_Node000002"><a xlink:title=" ">
<path fill="none" stroke="#63b8ff" d="M36.6338,-169.328C48.0863,-180.608 68.1554,-199.14 88,-211.5 94.0468,-215.266 100.788,-218.722 107.43,-221.767"/>
<polygon fill="#63b8ff" stroke="#63b8ff" points="106.431,-225.15 116.998,-225.924 109.22,-218.729 106.431,-225.15"/>
</a>
</g>
</g>
<!-- Node3 -->
<g id="Node000003" class="node"><title>Node3</title>
<g id="a_Node000003"><a xlink:href="testbench_8c.html#ae7a610c069c6000940838c6a1e11bb42" target="_top" xlink:title="Vytisknutí hodnoty v ADT pomocí iterátoru.">
<polygon fill="white" stroke="#666666" points="201,-169 88,-169 88,-150 201,-150 201,-169"/>
<text text-anchor="middle" x="144.5" y="-157" font-family="Helvetica,sans-Serif" font-size="10.00">print_value_by_iterator</text>
</a>
</g>
</g>
<!-- Node1&#45;&gt;Node3 -->
<g id="edge2_Node000001_Node000003" class="edge"><title>Node1&#45;&gt;Node3</title>
<g id="a_edge2_Node000001_Node000003"><a xlink:title=" ">
<path fill="none" stroke="#63b8ff" d="M52.2788,-159.5C59.8638,-159.5 68.5611,-159.5 77.5064,-159.5"/>
<polygon fill="#63b8ff" stroke="#63b8ff" points="77.6652,-163 87.6652,-159.5 77.6652,-156 77.6652,-163"/>
</a>
</g>
</g>
<!-- Node4 -->
<g id="Node000004" class="node"><title>Node4</title>
<g id="a_Node000004"><a xlink:href="group___t_set_element_hashable.html#ga3473fca967dede884b1c910838f2d8df" target="_top" xlink:title="Uložení elementu do souboru.">
<polygon fill="white" stroke="#666666" points="351,-207 237,-207 237,-188 351,-188 351,-207"/>
<text text-anchor="middle" x="294" y="-195" font-family="Helvetica,sans-Serif" font-size="10.00">set_element_store_file</text>
</a>
</g>
</g>
<!-- Node1&#45;&gt;Node4 -->
<g id="edge10_Node000001_Node000004" class="edge"><title>Node1&#45;&gt;Node4</title>
<g id="a_edge10_Node000001_Node000004"><a xlink:title=" ">
<path fill="none" stroke="#63b8ff" d="M52.2162,-168.658C63.09,-172.266 76.0351,-176.11 88,-178.5 133.883,-187.667 186.445,-192.427 226.858,-194.89"/>
<polygon fill="#63b8ff" stroke="#63b8ff" points="226.673,-198.385 236.859,-195.468 227.077,-191.397 226.673,-198.385"/>
</a>
</g>
</g>
<!-- Node10 -->
<g id="Node000010" class="node"><title>Node10</title>
<g id="a_Node000010"><a xlink:href="group___iterator_algorithms.html#gab8ba369b42eda61d010f35df73be73db" target="_top" xlink:title="Zavolání zvolené funkce na každý element množiny od pozice určené iterátorem až do posledního element...">
<polygon fill="white" stroke="#666666" points="180.5,-132 108.5,-132 108.5,-113 180.5,-113 180.5,-132"/>
<text text-anchor="middle" x="144.5" y="-120" font-family="Helvetica,sans-Serif" font-size="10.00">set_for_each</text>
</a>
</g>
</g>
<!-- Node1&#45;&gt;Node10 -->
<g id="edge11_Node000001_Node000010" class="edge"><title>Node1&#45;&gt;Node10</title>
<g id="a_edge11_Node000001_Node000010"><a xlink:title=" ">
<path fill="none" stroke="#63b8ff" d="M52.2788,-151.472C67.2712,-146.71 86.6086,-140.569 103.618,-135.166"/>
<polygon fill="#63b8ff" stroke="#63b8ff" points="104.842,-138.45 113.314,-132.087 102.723,-131.778 104.842,-138.45"/>
</a>
</g>
</g>
<!-- Node13 -->
<g id="Node000013" class="node"><title>Node13</title>
<g id="a_Node000013"><a xlink:href="group___t_set_iterator.html#gab11bafbe7585e4bb0bd9ff2353d77765" target="_top" xlink:title="Vytvoření nového iterátoru ukazujícího na první element množiny.">
<polygon fill="white" stroke="#666666" points="341,-38 247,-38 247,-19 341,-19 341,-38"/>
<text text-anchor="middle" x="294" y="-26" font-family="Helvetica,sans-Serif" font-size="10.00">set_iterator_begin</text>
</a>
</g>
</g>
<!-- Node1&#45;&gt;Node13 -->
<g id="edge18_Node000001_Node000013" class="edge"><title>Node1&#45;&gt;Node13</title>
<g id="a_edge18_Node000001_Node000013"><a xlink:title=" ">
<path fill="none" stroke="#63b8ff" d="M35.1892,-149.947C46.1303,-137.702 66.6315,-116.505 88,-103.5 137.256,-73.5237 200.375,-52.6869 243.48,-40.7143"/>
<polygon fill="#63b8ff" stroke="#63b8ff" points="244.442,-44.0799 253.173,-38.0778 242.605,-37.3254 244.442,-44.0799"/>
</a>
</g>
</g>
<!-- Node3&#45;&gt;Node4 -->
<g id="edge3_Node000003_Node000004" class="edge"><title>Node3&#45;&gt;Node4</title>
<g id="a_edge3_Node000003_Node000004"><a xlink:title=" ">
<path fill="none" stroke="#63b8ff" d="M182.72,-169.089C202.009,-174.058 225.758,-180.177 246.271,-185.461"/>
<polygon fill="#63b8ff" stroke="#63b8ff" points="245.49,-188.874 256.047,-187.98 247.237,-182.096 245.49,-188.874"/>
</a>
</g>
</g>
<!-- Node5 -->
<g id="Node000005" class="node"><title>Node5</title>
<g id="a_Node000005"><a xlink:href="group___t_set_iterator.html#ga3928a980e2759ba130ce333e77f15fab" target="_top" xlink:title="Přečtení hodnoty elementu z množiny pomocí iterátoru.">
<polygon fill="white" stroke="#666666" points="340,-170 248,-170 248,-151 340,-151 340,-170"/>
<text text-anchor="middle" x="294" y="-158" font-family="Helvetica,sans-Serif" font-size="10.00">set_iterator_value</text>
</a>
</g>
</g>
<!-- Node3&#45;&gt;Node5 -->
<g id="edge4_Node000003_Node000005" class="edge"><title>Node3&#45;&gt;Node5</title>
<g id="a_edge4_Node000003_Node000005"><a xlink:title=" ">
<path fill="none" stroke="#63b8ff" d="M201.263,-159.878C213.126,-159.958 225.649,-160.043 237.502,-160.124"/>
<polygon fill="#63b8ff" stroke="#63b8ff" points="237.688,-163.625 247.711,-160.193 237.735,-156.625 237.688,-163.625"/>
</a>
</g>
</g>
<!-- Node6 -->
<g id="Node000006" class="node"><title>Node6</title>
<g id="a_Node000006"><a xlink:href="group___t_set_hash_table.html#gaf6b548ed4295b1a4789d073b8a43db58" target="_top" xlink:title="Přečtení hodnoty elementu z platné přihrádky v hašovací tabulce.">
<polygon fill="white" stroke="#666666" points="680,-159.5 570,-159.5 570,-129.5 680,-129.5 680,-159.5"/>
<text text-anchor="start" x="578" y="-147.5" font-family="Helvetica,sans-Serif" font-size="10.00">set_hash_table_value</text>
<text text-anchor="middle" x="625" y="-136.5" font-family="Helvetica,sans-Serif" font-size="10.00">_at_pos</text>
</a>
</g>
</g>
<!-- Node5&#45;&gt;Node6 -->
<g id="edge5_Node000005_Node000006" class="edge"><title>Node5&#45;&gt;Node6</title>
<g id="a_edge5_Node000005_Node000006"><a xlink:title=" ">
<path fill="none" stroke="#63b8ff" d="M340.056,-158.309C396.936,-155.543 495.155,-150.766 559.853,-147.62"/>
<polygon fill="#63b8ff" stroke="#63b8ff" points="560.12,-151.111 569.938,-147.129 559.78,-144.119 560.12,-151.111"/>
</a>
</g>
</g>
<!-- Node8 -->
<g id="Node000008" class="node"><title>Node8</title>
<g id="a_Node000008"><a xlink:href="group___t_set_iterator.html#ga089f24c81ac3da7d1ac7ca24cc078dd8" target="_top" xlink:title="Zjištění platnosti iterátoru.">
<polygon fill="white" stroke="#666666" points="504,-132 402,-132 402,-113 504,-113 504,-132"/>
<text text-anchor="middle" x="453" y="-120" font-family="Helvetica,sans-Serif" font-size="10.00">set_iterator_is_valid</text>
</a>
</g>
</g>
<!-- Node5&#45;&gt;Node8 -->
<g id="edge7_Node000005_Node000008" class="edge"><title>Node5&#45;&gt;Node8</title>
<g id="a_edge7_Node000005_Node000008"><a xlink:title=" ">
<path fill="none" stroke="#63b8ff" d="M334.618,-150.911C355.336,-145.896 380.888,-139.712 402.856,-134.395"/>
<polygon fill="#63b8ff" stroke="#63b8ff" points="403.771,-137.774 412.667,-132.02 402.124,-130.971 403.771,-137.774"/>
</a>
</g>
</g>
<!-- Node7 -->
<g id="Node000007" class="node"><title>Node7</title>
<g id="a_Node000007"><a xlink:href="_t_set_hash_table_open_addr_8c.html#aa4a90f23bbdbe5bb71a49d7df2ee5fc1" target="_top" xlink:title="Funkce vracející hodnotu reprezentující smazanou přihrádku.">
<polygon fill="white" stroke="#666666" points="835,-81.5 731,-81.5 731,-51.5 835,-51.5 835,-81.5"/>
<text text-anchor="start" x="739" y="-69.5" font-family="Helvetica,sans-Serif" font-size="10.00">calc_erased_bucket</text>
<text text-anchor="middle" x="783" y="-58.5" font-family="Helvetica,sans-Serif" font-size="10.00">_marker</text>
</a>
</g>
</g>
<!-- Node6&#45;&gt;Node7 -->
<g id="edge6_Node000006_Node000007" class="edge"><title>Node6&#45;&gt;Node7</title>
<g id="a_edge6_Node000006_Node000007"><a xlink:title=" ">
<path fill="none" stroke="#63b8ff" d="M656.078,-129.461C680.71,-117.145 715.751,-99.6247 742.617,-86.1916"/>
<polygon fill="#63b8ff" stroke="#63b8ff" points="744.369,-89.2286 751.748,-81.6259 741.239,-82.9676 744.369,-89.2286"/>
</a>
</g>
</g>
<!-- Node9 -->
<g id="Node000009" class="node"><title>Node9</title>
<g id="a_Node000009"><a xlink:href="group___t_set_hash_table.html#ga891b531cc6373331e55101f2dd75ac4a" target="_top" xlink:title="Zjištění platnosti pozice v hašovací tabulce.">
<polygon fill="white" stroke="#666666" points="695,-95 555,-95 555,-76 695,-76 695,-95"/>
<text text-anchor="middle" x="625" y="-83" font-family="Helvetica,sans-Serif" font-size="10.00">set_hash_table_is_valid_pos</text>
</a>
</g>
</g>
<!-- Node8&#45;&gt;Node9 -->
<g id="edge8_Node000008_Node000009" class="edge"><title>Node8&#45;&gt;Node9</title>
<g id="a_edge8_Node000008_Node000009"><a xlink:title=" ">
<path fill="none" stroke="#63b8ff" d="M497.779,-112.972C519.803,-108.178 546.699,-102.324 569.996,-97.2539"/>
<polygon fill="#63b8ff" stroke="#63b8ff" points="571.047,-100.607 580.074,-95.0604 569.558,-93.7672 571.047,-100.607"/>
</a>
</g>
</g>
<!-- Node9&#45;&gt;Node7 -->
<g id="edge9_Node000009_Node000007" class="edge"><title>Node9&#45;&gt;Node7</title>
<g id="a_edge9_Node000009_Node000007"><a xlink:title=" ">
<path fill="none" stroke="#63b8ff" d="M695.332,-77.0557C703.779,-76.0269 712.362,-74.9815 720.681,-73.9684"/>
<polygon fill="#63b8ff" stroke="#63b8ff" points="721.165,-77.4354 730.668,-72.7519 720.318,-70.4867 721.165,-77.4354"/>
</a>
</g>
</g>
<!-- Node10&#45;&gt;Node8 -->
<g id="edge12_Node000010_Node000008" class="edge"><title>Node10&#45;&gt;Node8</title>
<g id="a_edge12_Node000010_Node000008"><a xlink:title=" ">
<path fill="none" stroke="#63b8ff" d="M180.659,-122.5C232.121,-122.5 328.663,-122.5 391.624,-122.5"/>
<polygon fill="#63b8ff" stroke="#63b8ff" points="391.814,-126 401.814,-122.5 391.814,-119 391.814,-126"/>
</a>
</g>
</g>
<!-- Node11 -->
<g id="Node000011" class="node"><title>Node11</title>
<g id="a_Node000011"><a xlink:href="group___t_set_iterator.html#ga6723a05c864198597ff49718020bd0d6" target="_top" xlink:title="Posunutí iterátoru vpřed.">
<polygon fill="white" stroke="#666666" points="345.5,-94 242.5,-94 242.5,-75 345.5,-75 345.5,-94"/>
<text text-anchor="middle" x="294" y="-82" font-family="Helvetica,sans-Serif" font-size="10.00">set_iterator_to_next</text>
</a>
</g>
</g>
<!-- Node10&#45;&gt;Node11 -->
<g id="edge13_Node000010_Node000011" class="edge"><title>Node10&#45;&gt;Node11</title>
<g id="a_edge13_Node000010_Node000011"><a xlink:title=" ">
<path fill="none" stroke="#63b8ff" d="M180.83,-113.398C200.401,-108.356 224.98,-102.024 246.138,-96.5728"/>
<polygon fill="#63b8ff" stroke="#63b8ff" points="247.089,-99.9422 255.9,-94.058 245.343,-93.1635 247.089,-99.9422"/>
</a>
</g>
</g>
<!-- Node11&#45;&gt;Node8 -->
<g id="edge17_Node000011_Node000008" class="edge"><title>Node11&#45;&gt;Node8</title>
<g id="a_edge17_Node000011_Node000008"><a xlink:title=" ">
<path fill="none" stroke="#63b8ff" d="M334.618,-94.089C355.336,-99.1035 380.888,-105.288 402.856,-110.605"/>
<polygon fill="#63b8ff" stroke="#63b8ff" points="402.124,-114.029 412.667,-112.98 403.771,-107.226 402.124,-114.029"/>
</a>
</g>
</g>
<!-- Node11&#45;&gt;Node9 -->
<g id="edge14_Node000011_Node000009" class="edge"><title>Node11&#45;&gt;Node9</title>
<g id="a_edge14_Node000011_Node000009"><a xlink:title=" ">
<path fill="none" stroke="#63b8ff" d="M345.685,-84.6541C398.786,-84.8155 482.922,-85.0712 544.799,-85.2593"/>
<polygon fill="#63b8ff" stroke="#63b8ff" points="544.906,-88.7595 554.916,-85.29 544.927,-81.7595 544.906,-88.7595"/>
</a>
</g>
</g>
<!-- Node12 -->
<g id="Node000012" class="node"><title>Node12</title>
<g id="a_Node000012"><a xlink:href="group___t_set_hash_table.html#ga9218e24d2cc5a61596c4a45ef76f4c75" target="_top" xlink:title="Výpočet následující pozice platné přihrádky v hašovací tabulce.">
<polygon fill="white" stroke="#666666" points="517,-56 389,-56 389,-37 517,-37 517,-56"/>
<text text-anchor="middle" x="453" y="-44" font-family="Helvetica,sans-Serif" font-size="10.00">set_hash_table_next_pos</text>
</a>
</g>
</g>
<!-- Node11&#45;&gt;Node12 -->
<g id="edge15_Node000011_Node000012" class="edge"><title>Node11&#45;&gt;Node12</title>
<g id="a_edge15_Node000011_Node000012"><a xlink:title=" ">
<path fill="none" stroke="#63b8ff" d="M334.618,-74.911C355.336,-69.8965 380.888,-63.7119 402.856,-58.3947"/>
<polygon fill="#63b8ff" stroke="#63b8ff" points="403.771,-61.7744 412.667,-56.0201 402.124,-54.9708 403.771,-61.7744"/>
</a>
</g>
</g>
<!-- Node12&#45;&gt;Node7 -->
<g id="edge16_Node000012_Node000007" class="edge"><title>Node12&#45;&gt;Node7</title>
<g id="a_edge16_Node000012_Node000007"><a xlink:title=" ">
<path fill="none" stroke="#63b8ff" d="M517.242,-50.3562C575.897,-53.9327 662.627,-59.2211 720.664,-62.76"/>
<polygon fill="#63b8ff" stroke="#63b8ff" points="720.601,-66.2625 730.795,-63.3777 721.027,-59.2755 720.601,-66.2625"/>
</a>
</g>
</g>
<!-- Node14 -->
<g id="Node000014" class="node"><title>Node14</title>
<g id="a_Node000014"><a xlink:href="group___t_set_hash_table.html#ga6ae8410d0c50fb9f3104838bafdbc906" target="_top" xlink:title="Výpočet první platné pozice v hašovací tabulce.">
<polygon fill="white" stroke="#666666" points="519,-19 387,-19 387,-0 519,-0 519,-19"/>
<text text-anchor="middle" x="453" y="-7" font-family="Helvetica,sans-Serif" font-size="10.00">set_hash_table_begin_pos</text>
</a>
</g>
</g>
<!-- Node13&#45;&gt;Node14 -->
<g id="edge19_Node000013_Node000014" class="edge"><title>Node13&#45;&gt;Node14</title>
<g id="a_edge19_Node000013_Node000014"><a xlink:title=" ">
<path fill="none" stroke="#63b8ff" d="M341.256,-22.9021C352.421,-21.5509 364.64,-20.0723 376.754,-18.6062"/>
<polygon fill="#63b8ff" stroke="#63b8ff" points="377.374,-22.0568 386.881,-17.3806 376.533,-15.1075 377.374,-22.0568"/>
</a>
</g>
</g>
<!-- Node14&#45;&gt;Node7 -->
<g id="edge20_Node000014_Node000007" class="edge"><title>Node14&#45;&gt;Node7</title>
<g id="a_edge20_Node000014_Node000007"><a xlink:title=" ">
<path fill="none" stroke="#63b8ff" d="M514.499,-19.0516C563.289,-26.8726 633.646,-38.4164 695,-49.5 703.382,-51.0141 712.205,-52.6681 720.888,-54.3308"/>
<polygon fill="#63b8ff" stroke="#63b8ff" points="720.5,-57.8203 730.982,-56.2786 721.826,-50.9471 720.5,-57.8203"/>
</a>
</g>
</g>
</g>
</svg>
