<?xml version="1.0" encoding="UTF-8" standalone="no"?>
<!DOCTYPE svg PUBLIC "-//W3C//DTD SVG 1.1//EN"
 "http://www.w3.org/Graphics/SVG/1.1/DTD/svg11.dtd">
<!-- Generated by graphviz version 2.38.0 (20140413.2041)
 -->
<!-- Title: testbench.c Pages: 1 -->
<svg width="402pt" height="302pt"
 viewBox="0.00 0.00 402.00 302.00" xmlns="http://www.w3.org/2000/svg" xmlns:xlink="http://www.w3.org/1999/xlink">
<g id="graph0" class="graph" transform="scale(1 1) rotate(0) translate(4 298)">
<title>testbench.c</title>
<!-- Node1 -->
<g id="Node000001" class="node"><title>Node1</title>
<g id="a_Node000001"><a xlink:title="Implementace testbench API pro testování operací zvoleného ADT.">
<polygon fill="#999999" stroke="#666666" points="306,-294 238,-294 238,-275 306,-275 306,-294"/>
<text text-anchor="middle" x="272" y="-282" font-family="Helvetica,sans-Serif" font-size="10.00">testbench.c</text>
</a>
</g>
</g>
<!-- Node2 -->
<g id="Node000002" class="node"><title>Node2</title>
<g id="a_Node000002"><a xlink:title=" ">
<polygon fill="#e0e0e0" stroke="#999999" points="46,-19 0,-19 0,-0 46,-0 46,-19"/>
<text text-anchor="middle" x="23" y="-7" font-family="Helvetica,sans-Serif" font-size="10.00">stdio.h</text>
</a>
</g>
</g>
<!-- Node1&#45;&gt;Node2 -->
<g id="edge1_Node000001_Node000002" class="edge"><title>Node1&#45;&gt;Node2</title>
<g id="a_edge1_Node000001_Node000002"><a xlink:title=" ">
<path fill="none" stroke="#63b8ff" d="M237.757,-283.15C171.671,-280.477 33,-264.289 33,-175.5 33,-175.5 33,-175.5 33,-118.5 33,-87.0558 28.7451,-50.6803 25.7862,-29.1862"/>
<polygon fill="#63b8ff" stroke="#63b8ff" points="29.2318,-28.5567 24.3486,-19.1543 22.3026,-29.5497 29.2318,-28.5567"/>
</a>
</g>
</g>
<!-- Node3 -->
<g id="Node000003" class="node"><title>Node3</title>
<g id="a_Node000003"><a xlink:title=" ">
<polygon fill="#e0e0e0" stroke="#999999" points="368,-239 324,-239 324,-220 368,-220 368,-239"/>
<text text-anchor="middle" x="346" y="-227" font-family="Helvetica,sans-Serif" font-size="10.00">time.h</text>
</a>
</g>
</g>
<!-- Node1&#45;&gt;Node3 -->
<g id="edge2_Node000001_Node000003" class="edge"><title>Node1&#45;&gt;Node3</title>
<g id="a_edge2_Node000001_Node000003"><a xlink:title=" ">
<path fill="none" stroke="#63b8ff" d="M283.889,-274.985C295.15,-266.919 312.287,-254.646 325.709,-245.033"/>
<polygon fill="#63b8ff" stroke="#63b8ff" points="327.802,-247.839 333.894,-239.17 323.726,-242.148 327.802,-247.839"/>
</a>
</g>
</g>
<!-- Node4 -->
<g id="Node000004" class="node"><title>Node4</title>
<g id="a_Node000004"><a xlink:href="testbench_8h.html" target="_top" xlink:title="Definice testbench API pro testování operací zvoleného ADT.">
<polygon fill="white" stroke="#666666" points="306,-239 238,-239 238,-220 306,-220 306,-239"/>
<text text-anchor="middle" x="272" y="-227" font-family="Helvetica,sans-Serif" font-size="10.00">testbench.h</text>
</a>
</g>
</g>
<!-- Node1&#45;&gt;Node4 -->
<g id="edge3_Node000001_Node000004" class="edge"><title>Node1&#45;&gt;Node4</title>
<g id="a_edge3_Node000001_Node000004"><a xlink:title=" ">
<path fill="none" stroke="#63b8ff" d="M272,-274.748C272,-267.802 272,-257.845 272,-249.135"/>
<polygon fill="#63b8ff" stroke="#63b8ff" points="275.5,-249.089 272,-239.089 268.5,-249.089 275.5,-249.089"/>
</a>
</g>
</g>
<!-- Node5 -->
<g id="Node000005" class="node"><title>Node5</title>
<g id="a_Node000005"><a xlink:title=" ">
<polygon fill="#e0e0e0" stroke="#999999" points="394,-19 338,-19 338,-0 394,-0 394,-19"/>
<text text-anchor="middle" x="366" y="-7" font-family="Helvetica,sans-Serif" font-size="10.00">stdbool.h</text>
</a>
</g>
</g>
<!-- Node4&#45;&gt;Node5 -->
<g id="edge4_Node000004_Node000005" class="edge"><title>Node4&#45;&gt;Node5</title>
<g id="a_edge4_Node000004_Node000005"><a xlink:title=" ">
<path fill="none" stroke="#63b8ff" d="M279.87,-219.99C299.567,-197.979 350.451,-136.51 365,-74 368.406,-59.3652 368.469,-42.3165 367.783,-29.5713"/>
<polygon fill="#63b8ff" stroke="#63b8ff" points="371.249,-28.982 367.017,-19.2692 364.268,-29.5012 371.249,-28.982"/>
</a>
</g>
</g>
<!-- Node6 -->
<g id="Node000006" class="node"><title>Node6</title>
<g id="a_Node000006"><a xlink:href="_t_set_8h.html" target="_top" xlink:title="Definice typu Set &#45; (realizace unordered množiny pomocí hašovací tabulky)">
<polygon fill="white" stroke="#666666" points="294.5,-184 249.5,-184 249.5,-165 294.5,-165 294.5,-184"/>
<text text-anchor="middle" x="272" y="-172" font-family="Helvetica,sans-Serif" font-size="10.00">TSet.h</text>
</a>
</g>
</g>
<!-- Node4&#45;&gt;Node6 -->
<g id="edge5_Node000004_Node000006" class="edge"><title>Node4&#45;&gt;Node6</title>
<g id="a_edge5_Node000004_Node000006"><a xlink:title=" ">
<path fill="none" stroke="#63b8ff" d="M272,-219.748C272,-212.802 272,-202.845 272,-194.135"/>
<polygon fill="#63b8ff" stroke="#63b8ff" points="275.5,-194.089 272,-184.089 268.5,-194.089 275.5,-194.089"/>
</a>
</g>
</g>
<!-- Node6&#45;&gt;Node5 -->
<g id="edge6_Node000006_Node000005" class="edge"><title>Node6&#45;&gt;Node5</title>
<g id="a_edge6_Node000006_Node000005"><a xlink:title=" ">
<path fill="none" stroke="#63b8ff" d="M282.858,-164.816C292.87,-156.415 307.698,-142.94 318,-129 341.109,-97.7301 355.067,-53.7701 361.578,-29.1279"/>
<polygon fill="#63b8ff" stroke="#63b8ff" points="365.009,-29.8315 364.051,-19.2802 358.22,-28.1263 365.009,-29.8315"/>
</a>
</g>
</g>
<!-- Node7 -->
<g id="Node000007" class="node"><title>Node7</title>
<g id="a_Node000007"><a xlink:title=" ">
<polygon fill="#e0e0e0" stroke="#999999" points="337.5,-74 286.5,-74 286.5,-55 337.5,-55 337.5,-74"/>
<text text-anchor="middle" x="312" y="-62" font-family="Helvetica,sans-Serif" font-size="10.00">stddef.h</text>
</a>
</g>
</g>
<!-- Node6&#45;&gt;Node7 -->
<g id="edge7_Node000006_Node000007" class="edge"><title>Node6&#45;&gt;Node7</title>
<g id="a_edge7_Node000006_Node000007"><a xlink:title=" ">
<path fill="none" stroke="#63b8ff" d="M279.152,-164.89C285.872,-156.333 295.67,-142.56 301,-129 306.699,-114.503 309.452,-96.9942 310.779,-84.0364"/>
<polygon fill="#63b8ff" stroke="#63b8ff" points="314.272,-84.2674 311.615,-74.011 307.296,-83.6853 314.272,-84.2674"/>
</a>
</g>
</g>
<!-- Node8 -->
<g id="Node000008" class="node"><title>Node8</title>
<g id="a_Node000008"><a xlink:href="_t_set_hash_table_open_addr_8h.html" target="_top" xlink:title="Implementace typu SetHashTable &#45; (hašovací tabulka využívající otevřené adresování)">
<polygon fill="white" stroke="#666666" points="292,-129 158,-129 158,-110 292,-110 292,-129"/>
<text text-anchor="middle" x="225" y="-117" font-family="Helvetica,sans-Serif" font-size="10.00">TSetHashTableOpenAddr.h</text>
</a>
</g>
</g>
<!-- Node6&#45;&gt;Node8 -->
<g id="edge8_Node000006_Node000008" class="edge"><title>Node6&#45;&gt;Node8</title>
<g id="a_edge8_Node000006_Node000008"><a xlink:title=" ">
<path fill="none" stroke="#63b8ff" d="M264.239,-164.748C257.532,-157.185 247.659,-146.051 239.494,-136.845"/>
<polygon fill="#63b8ff" stroke="#63b8ff" points="241.87,-134.249 232.617,-129.089 236.633,-138.893 241.87,-134.249"/>
</a>
</g>
</g>
<!-- Node13 -->
<g id="Node000013" class="node"><title>Node13</title>
<g id="a_Node000013"><a xlink:title=" ">
<polygon fill="#e0e0e0" stroke="#999999" points="115.5,-19 64.5,-19 64.5,-0 115.5,-0 115.5,-19"/>
<text text-anchor="middle" x="90" y="-7" font-family="Helvetica,sans-Serif" font-size="10.00">check.h</text>
</a>
</g>
</g>
<!-- Node6&#45;&gt;Node13 -->
<g id="edge18_Node000006_Node000013" class="edge"><title>Node6&#45;&gt;Node13</title>
<g id="a_edge18_Node000006_Node000013"><a xlink:title=" ">
<path fill="none" stroke="#63b8ff" d="M249.163,-168.755C223.253,-162.609 180.511,-150.101 149,-129 121.55,-110.619 113.05,-103.899 99,-74 92.4071,-59.9706 90.3233,-42.4205 89.794,-29.3281"/>
<polygon fill="#63b8ff" stroke="#63b8ff" points="93.2916,-29.1218 89.6549,-19.1707 86.2923,-29.2177 93.2916,-29.1218"/>
</a>
</g>
</g>
<!-- Node8&#45;&gt;Node5 -->
<g id="edge9_Node000008_Node000005" class="edge"><title>Node8&#45;&gt;Node5</title>
<g id="a_edge9_Node000008_Node000005"><a xlink:title=" ">
<path fill="none" stroke="#63b8ff" d="M230.444,-109.708C239.005,-96.4538 256.74,-71.1883 277,-55 293.853,-41.5339 315.442,-30.6167 333.135,-22.9659"/>
<polygon fill="#63b8ff" stroke="#63b8ff" points="334.628,-26.1358 342.51,-19.0561 331.933,-19.6752 334.628,-26.1358"/>
</a>
</g>
</g>
<!-- Node8&#45;&gt;Node7 -->
<g id="edge10_Node000008_Node000007" class="edge"><title>Node8&#45;&gt;Node7</title>
<g id="a_edge10_Node000008_Node000007"><a xlink:title=" ">
<path fill="none" stroke="#63b8ff" d="M238.978,-109.985C252.469,-101.766 273.134,-89.177 289.041,-79.4863"/>
<polygon fill="#63b8ff" stroke="#63b8ff" points="291.048,-82.362 297.768,-74.1703 287.407,-76.3839 291.048,-82.362"/>
</a>
</g>
</g>
<!-- Node9 -->
<g id="Node000009" class="node"><title>Node9</title>
<g id="a_Node000009"><a xlink:href="_t_set_element_hashable_8h.html" target="_top" xlink:title="Definice typu Hashable Basic SetElement a implementace API.">
<polygon fill="white" stroke="#666666" points="230,-74 108,-74 108,-55 230,-55 230,-74"/>
<text text-anchor="middle" x="169" y="-62" font-family="Helvetica,sans-Serif" font-size="10.00">TSetElementHashable.h</text>
</a>
</g>
</g>
<!-- Node8&#45;&gt;Node9 -->
<g id="edge11_Node000008_Node000009" class="edge"><title>Node8&#45;&gt;Node9</title>
<g id="a_edge11_Node000008_Node000009"><a xlink:title=" ">
<path fill="none" stroke="#63b8ff" d="M216.003,-109.985C207.806,-102.227 195.494,-90.5751 185.528,-81.1425"/>
<polygon fill="#63b8ff" stroke="#63b8ff" points="187.83,-78.5021 178.161,-74.1703 183.018,-83.5862 187.83,-78.5021"/>
</a>
</g>
</g>
<!-- Node9&#45;&gt;Node2 -->
<g id="edge12_Node000009_Node000002" class="edge"><title>Node9&#45;&gt;Node2</title>
<g id="a_edge12_Node000009_Node000002"><a xlink:title=" ">
<path fill="none" stroke="#63b8ff" d="M145.543,-54.9846C121.277,-46.176 83.1843,-32.3477 55.9118,-22.4474"/>
<polygon fill="#63b8ff" stroke="#63b8ff" points="56.9933,-19.1166 46.3992,-18.9942 54.6047,-25.6965 56.9933,-19.1166"/>
</a>
</g>
</g>
<!-- Node9&#45;&gt;Node5 -->
<g id="edge14_Node000009_Node000005" class="edge"><title>Node9&#45;&gt;Node5</title>
<g id="a_edge14_Node000009_Node000005"><a xlink:title=" ">
<path fill="none" stroke="#63b8ff" d="M200.651,-54.9846C235.348,-45.65 290.998,-30.6783 328.021,-20.7177"/>
<polygon fill="#63b8ff" stroke="#63b8ff" points="329.189,-24.0279 337.937,-18.0501 327.371,-17.2683 329.189,-24.0279"/>
</a>
</g>
</g>
<!-- Node10 -->
<g id="Node000010" class="node"><title>Node10</title>
<g id="a_Node000010"><a xlink:title=" ">
<polygon fill="#e0e0e0" stroke="#999999" points="252,-19 204,-19 204,-0 252,-0 252,-19"/>
<text text-anchor="middle" x="228" y="-7" font-family="Helvetica,sans-Serif" font-size="10.00">stdlib.h</text>
</a>
</g>
</g>
<!-- Node9&#45;&gt;Node10 -->
<g id="edge13_Node000009_Node000010" class="edge"><title>Node9&#45;&gt;Node10</title>
<g id="a_edge13_Node000009_Node000010"><a xlink:title=" ">
<path fill="none" stroke="#63b8ff" d="M178.479,-54.9846C187.201,-47.1499 200.343,-35.344 210.898,-25.863"/>
<polygon fill="#63b8ff" stroke="#63b8ff" points="213.248,-28.4567 218.348,-19.1703 208.57,-23.2493 213.248,-28.4567"/>
</a>
</g>
</g>
<!-- Node11 -->
<g id="Node000011" class="node"><title>Node11</title>
<g id="a_Node000011"><a xlink:title=" ">
<polygon fill="#e0e0e0" stroke="#999999" points="319.5,-19 270.5,-19 270.5,-0 319.5,-0 319.5,-19"/>
<text text-anchor="middle" x="295" y="-7" font-family="Helvetica,sans-Serif" font-size="10.00">stdint.h</text>
</a>
</g>
</g>
<!-- Node9&#45;&gt;Node11 -->
<g id="edge15_Node000009_Node000011" class="edge"><title>Node9&#45;&gt;Node11</title>
<g id="a_edge15_Node000009_Node000011"><a xlink:title=" ">
<path fill="none" stroke="#63b8ff" d="M189.244,-54.9846C209.696,-46.3818 241.531,-32.991 264.932,-23.1475"/>
<polygon fill="#63b8ff" stroke="#63b8ff" points="266.527,-26.2739 274.388,-19.1703 263.813,-19.8215 266.527,-26.2739"/>
</a>
</g>
</g>
<!-- Node12 -->
<g id="Node000012" class="node"><title>Node12</title>
<g id="a_Node000012"><a xlink:title=" ">
<polygon fill="#e0e0e0" stroke="#999999" points="186,-19 134,-19 134,-0 186,-0 186,-19"/>
<text text-anchor="middle" x="160" y="-7" font-family="Helvetica,sans-Serif" font-size="10.00">assert.h</text>
</a>
</g>
</g>
<!-- Node9&#45;&gt;Node12 -->
<g id="edge16_Node000009_Node000012" class="edge"><title>Node9&#45;&gt;Node12</title>
<g id="a_edge16_Node000009_Node000012"><a xlink:title=" ">
<path fill="none" stroke="#63b8ff" d="M167.514,-54.7481C166.334,-47.8021 164.644,-37.8451 163.164,-29.1349"/>
<polygon fill="#63b8ff" stroke="#63b8ff" points="166.583,-28.3619 161.459,-19.089 159.682,-29.5339 166.583,-28.3619"/>
</a>
</g>
</g>
<!-- Node9&#45;&gt;Node13 -->
<g id="edge17_Node000009_Node000013" class="edge"><title>Node9&#45;&gt;Node13</title>
<g id="a_edge17_Node000009_Node000013"><a xlink:title=" ">
<path fill="none" stroke="#63b8ff" d="M156.307,-54.9846C144.171,-46.8426 125.642,-34.4119 111.254,-24.7587"/>
<polygon fill="#63b8ff" stroke="#63b8ff" points="113.178,-21.8351 102.924,-19.1703 109.278,-27.6481 113.178,-21.8351"/>
</a>
</g>
</g>
</g>
</svg>
