<?xml version="1.0" encoding="UTF-8" standalone="no"?>
<!DOCTYPE svg PUBLIC "-//W3C//DTD SVG 1.1//EN"
 "http://www.w3.org/Graphics/SVG/1.1/DTD/svg11.dtd">
<!-- Generated by graphviz version 2.38.0 (20140413.2041)
 -->
<!-- Title: print_value_by_iterator Pages: 1 -->
<svg width="725pt" height="85pt"
 viewBox="0.00 0.00 725.00 85.00" xmlns="http://www.w3.org/2000/svg" xmlns:xlink="http://www.w3.org/1999/xlink">
<g id="graph0" class="graph" transform="scale(1 1) rotate(0) translate(4 81)">
<title>print_value_by_iterator</title>
<!-- Node1 -->
<g id="Node000001" class="node"><title>Node1</title>
<g id="a_Node000001"><a xlink:title="Vytisknutí hodnoty v ADT pomocí iterátoru.">
<polygon fill="#999999" stroke="#666666" points="113,-58 0,-58 0,-39 113,-39 113,-58"/>
<text text-anchor="middle" x="56.5" y="-46" font-family="Helvetica,sans-Serif" font-size="10.00">print_value_by_iterator</text>
</a>
</g>
</g>
<!-- Node2 -->
<g id="Node000002" class="node"><title>Node2</title>
<g id="a_Node000002"><a xlink:href="group___t_set_element_hashable.html#ga3473fca967dede884b1c910838f2d8df" target="_top" xlink:title="Uložení elementu do souboru.">
<polygon fill="white" stroke="#666666" points="263,-77 149,-77 149,-58 263,-58 263,-77"/>
<text text-anchor="middle" x="206" y="-65" font-family="Helvetica,sans-Serif" font-size="10.00">set_element_store_file</text>
</a>
</g>
</g>
<!-- Node1&#45;&gt;Node2 -->
<g id="edge1_Node000001_Node000002" class="edge"><title>Node1&#45;&gt;Node2</title>
<g id="a_edge1_Node000001_Node000002"><a xlink:title=" ">
<path fill="none" stroke="#63b8ff" d="M113.263,-55.6831C121.499,-56.744 130.054,-57.8459 138.481,-58.9315"/>
<polygon fill="#63b8ff" stroke="#63b8ff" points="138.303,-62.4373 148.668,-60.2436 139.197,-55.4947 138.303,-62.4373"/>
</a>
</g>
</g>
<!-- Node3 -->
<g id="Node000003" class="node"><title>Node3</title>
<g id="a_Node000003"><a xlink:href="group___t_set_iterator.html#ga3928a980e2759ba130ce333e77f15fab" target="_top" xlink:title="Přečtení hodnoty elementu z množiny pomocí iterátoru.">
<polygon fill="white" stroke="#666666" points="252,-40 160,-40 160,-21 252,-21 252,-40"/>
<text text-anchor="middle" x="206" y="-28" font-family="Helvetica,sans-Serif" font-size="10.00">set_iterator_value</text>
</a>
</g>
</g>
<!-- Node1&#45;&gt;Node3 -->
<g id="edge2_Node000001_Node000003" class="edge"><title>Node1&#45;&gt;Node3</title>
<g id="a_edge2_Node000001_Node000003"><a xlink:title=" ">
<path fill="none" stroke="#63b8ff" d="M113.263,-41.695C125.126,-40.2474 137.649,-38.7191 149.502,-37.2727"/>
<polygon fill="#63b8ff" stroke="#63b8ff" points="150.209,-40.7124 159.711,-36.0268 149.361,-33.764 150.209,-40.7124"/>
</a>
</g>
</g>
<!-- Node4 -->
<g id="Node000004" class="node"><title>Node4</title>
<g id="a_Node000004"><a xlink:href="group___t_set_hash_table.html#gaf6b548ed4295b1a4789d073b8a43db58" target="_top" xlink:title="Přečtení hodnoty elementu z platné přihrádky v hašovací tabulce.">
<polygon fill="white" stroke="#666666" points="562,-67.5 452,-67.5 452,-37.5 562,-37.5 562,-67.5"/>
<text text-anchor="start" x="460" y="-55.5" font-family="Helvetica,sans-Serif" font-size="10.00">set_hash_table_value</text>
<text text-anchor="middle" x="507" y="-44.5" font-family="Helvetica,sans-Serif" font-size="10.00">_at_pos</text>
</a>
</g>
</g>
<!-- Node3&#45;&gt;Node4 -->
<g id="edge3_Node000003_Node000004" class="edge"><title>Node3&#45;&gt;Node4</title>
<g id="a_edge3_Node000003_Node000004"><a xlink:title=" ">
<path fill="none" stroke="#63b8ff" d="M252.087,-33.8174C302.567,-37.5317 384.768,-43.5799 441.914,-47.7846"/>
<polygon fill="#63b8ff" stroke="#63b8ff" points="441.694,-51.2778 451.924,-48.5211 442.208,-44.2967 441.694,-51.2778"/>
</a>
</g>
</g>
<!-- Node6 -->
<g id="Node000006" class="node"><title>Node6</title>
<g id="a_Node000006"><a xlink:href="group___t_set_iterator.html#ga089f24c81ac3da7d1ac7ca24cc078dd8" target="_top" xlink:title="Zjištění platnosti iterátoru.">
<polygon fill="white" stroke="#666666" points="401,-21 299,-21 299,-2 401,-2 401,-21"/>
<text text-anchor="middle" x="350" y="-9" font-family="Helvetica,sans-Serif" font-size="10.00">set_iterator_is_valid</text>
</a>
</g>
</g>
<!-- Node3&#45;&gt;Node6 -->
<g id="edge5_Node000003_Node000006" class="edge"><title>Node3&#45;&gt;Node6</title>
<g id="a_edge5_Node000003_Node000006"><a xlink:title=" ">
<path fill="none" stroke="#63b8ff" d="M252.32,-24.436C263.861,-22.8918 276.448,-21.2077 288.61,-19.5803"/>
<polygon fill="#63b8ff" stroke="#63b8ff" points="289.247,-23.0264 298.694,-18.2311 288.318,-16.0883 289.247,-23.0264"/>
</a>
</g>
</g>
<!-- Node5 -->
<g id="Node000005" class="node"><title>Node5</title>
<g id="a_Node000005"><a xlink:href="_t_set_hash_table_open_addr_8c.html#aa4a90f23bbdbe5bb71a49d7df2ee5fc1" target="_top" xlink:title="Funkce vracející hodnotu reprezentující smazanou přihrádku.">
<polygon fill="white" stroke="#666666" points="717,-45.5 613,-45.5 613,-15.5 717,-15.5 717,-45.5"/>
<text text-anchor="start" x="621" y="-33.5" font-family="Helvetica,sans-Serif" font-size="10.00">calc_erased_bucket</text>
<text text-anchor="middle" x="665" y="-22.5" font-family="Helvetica,sans-Serif" font-size="10.00">_marker</text>
</a>
</g>
</g>
<!-- Node4&#45;&gt;Node5 -->
<g id="edge4_Node000004_Node000005" class="edge"><title>Node4&#45;&gt;Node5</title>
<g id="a_edge4_Node000004_Node000005"><a xlink:title=" ">
<path fill="none" stroke="#63b8ff" d="M562.123,-44.8672C575.237,-43.0179 589.347,-41.028 602.763,-39.1361"/>
<polygon fill="#63b8ff" stroke="#63b8ff" points="603.445,-42.5745 612.858,-37.7123 602.467,-35.6431 603.445,-42.5745"/>
</a>
</g>
</g>
<!-- Node7 -->
<g id="Node000007" class="node"><title>Node7</title>
<g id="a_Node000007"><a xlink:href="group___t_set_hash_table.html#ga891b531cc6373331e55101f2dd75ac4a" target="_top" xlink:title="Zjištění platnosti pozice v hašovací tabulce.">
<polygon fill="white" stroke="#666666" points="577,-19 437,-19 437,-0 577,-0 577,-19"/>
<text text-anchor="middle" x="507" y="-7" font-family="Helvetica,sans-Serif" font-size="10.00">set_hash_table_is_valid_pos</text>
</a>
</g>
</g>
<!-- Node6&#45;&gt;Node7 -->
<g id="edge6_Node000006_Node000007" class="edge"><title>Node6&#45;&gt;Node7</title>
<g id="a_edge6_Node000006_Node000007"><a xlink:title=" ">
<path fill="none" stroke="#63b8ff" d="M401.324,-10.8507C409.457,-10.7457 418.046,-10.6349 426.666,-10.5237"/>
<polygon fill="#63b8ff" stroke="#63b8ff" points="426.819,-14.0221 436.773,-10.3932 426.729,-7.02266 426.819,-14.0221"/>
</a>
</g>
</g>
<!-- Node7&#45;&gt;Node5 -->
<g id="edge7_Node000007_Node000005" class="edge"><title>Node7&#45;&gt;Node5</title>
<g id="a_edge7_Node000007_Node000005"><a xlink:title=" ">
<path fill="none" stroke="#63b8ff" d="M577.332,-18.8332C585.779,-19.9702 594.362,-21.1257 602.681,-22.2455"/>
<polygon fill="#63b8ff" stroke="#63b8ff" points="602.291,-25.7245 612.668,-23.59 603.225,-18.787 602.291,-25.7245"/>
</a>
</g>
</g>
</g>
</svg>
