<?xml version="1.0" encoding="UTF-8" standalone="no"?>
<!DOCTYPE svg PUBLIC "-//W3C//DTD SVG 1.1//EN"
 "http://www.w3.org/Graphics/SVG/1.1/DTD/svg11.dtd">
<!-- Generated by graphviz version 2.38.0 (20140413.2041)
 -->
<!-- Title: testbench_run Pages: 1 -->
<svg width="957pt" height="253pt"
 viewBox="0.00 0.00 957.00 253.00" xmlns="http://www.w3.org/2000/svg" xmlns:xlink="http://www.w3.org/1999/xlink">
<g id="graph0" class="graph" transform="scale(1 1) rotate(0) translate(4 249)">
<title>testbench_run</title>
<!-- Node1 -->
<g id="Node000001" class="node"><title>Node1</title>
<g id="a_Node000001"><a xlink:title="Provedení všech testů zadaného testovacího plánu na předaném ADT.">
<polygon fill="#999999" stroke="#666666" points="78,-169 0,-169 0,-150 78,-150 78,-169"/>
<text text-anchor="middle" x="39" y="-157" font-family="Helvetica,sans-Serif" font-size="10.00">testbench_run</text>
</a>
</g>
</g>
<!-- Node2 -->
<g id="Node000002" class="node"><title>Node2</title>
<g id="a_Node000002"><a xlink:href="testbench_8c.html#a068734a4e1d6209769e0c6b1675ca02b" target="_top" xlink:title="Provedení jednoho test z testovacího plánu na předaném ADT.">
<polygon fill="white" stroke="#666666" points="166,-169 114,-169 114,-150 166,-150 166,-169"/>
<text text-anchor="middle" x="140" y="-157" font-family="Helvetica,sans-Serif" font-size="10.00">test_run</text>
</a>
</g>
</g>
<!-- Node1&#45;&gt;Node2 -->
<g id="edge1_Node000001_Node000002" class="edge"><title>Node1&#45;&gt;Node2</title>
<g id="a_edge1_Node000001_Node000002"><a xlink:title=" ">
<path fill="none" stroke="#63b8ff" d="M78.276,-159.5C86.6927,-159.5 95.5665,-159.5 103.853,-159.5"/>
<polygon fill="#63b8ff" stroke="#63b8ff" points="103.956,-163 113.956,-159.5 103.956,-156 103.956,-163"/>
</a>
</g>
</g>
<!-- Node3 -->
<g id="Node000003" class="node"><title>Node3</title>
<g id="a_Node000003"><a xlink:href="testbench_8c.html#aa291195ad453d2b1e29004cc2e043c01" target="_top" xlink:title=" ">
<polygon fill="white" stroke="#666666" points="292.5,-245 224.5,-245 224.5,-226 292.5,-226 292.5,-245"/>
<text text-anchor="middle" x="258.5" y="-233" font-family="Helvetica,sans-Serif" font-size="10.00">difftimespec</text>
</a>
</g>
</g>
<!-- Node2&#45;&gt;Node3 -->
<g id="edge2_Node000002_Node000003" class="edge"><title>Node2&#45;&gt;Node3</title>
<g id="a_edge2_Node000002_Node000003"><a xlink:title=" ">
<path fill="none" stroke="#63b8ff" d="M150.634,-169.328C162.086,-180.608 182.155,-199.14 202,-211.5 208.047,-215.266 214.788,-218.722 221.43,-221.767"/>
<polygon fill="#63b8ff" stroke="#63b8ff" points="220.431,-225.15 230.998,-225.924 223.22,-218.729 220.431,-225.15"/>
</a>
</g>
</g>
<!-- Node4 -->
<g id="Node000004" class="node"><title>Node4</title>
<g id="a_Node000004"><a xlink:href="testbench_8c.html#ae7a610c069c6000940838c6a1e11bb42" target="_top" xlink:title="Vytisknutí hodnoty v ADT pomocí iterátoru.">
<polygon fill="white" stroke="#666666" points="315,-169 202,-169 202,-150 315,-150 315,-169"/>
<text text-anchor="middle" x="258.5" y="-157" font-family="Helvetica,sans-Serif" font-size="10.00">print_value_by_iterator</text>
</a>
</g>
</g>
<!-- Node2&#45;&gt;Node4 -->
<g id="edge3_Node000002_Node000004" class="edge"><title>Node2&#45;&gt;Node4</title>
<g id="a_edge3_Node000002_Node000004"><a xlink:title=" ">
<path fill="none" stroke="#63b8ff" d="M166.279,-159.5C173.864,-159.5 182.561,-159.5 191.506,-159.5"/>
<polygon fill="#63b8ff" stroke="#63b8ff" points="191.665,-163 201.665,-159.5 191.665,-156 191.665,-163"/>
</a>
</g>
</g>
<!-- Node5 -->
<g id="Node000005" class="node"><title>Node5</title>
<g id="a_Node000005"><a xlink:href="group___t_set_element_hashable.html#ga3473fca967dede884b1c910838f2d8df" target="_top" xlink:title="Uložení elementu do souboru.">
<polygon fill="white" stroke="#666666" points="465,-207 351,-207 351,-188 465,-188 465,-207"/>
<text text-anchor="middle" x="408" y="-195" font-family="Helvetica,sans-Serif" font-size="10.00">set_element_store_file</text>
</a>
</g>
</g>
<!-- Node2&#45;&gt;Node5 -->
<g id="edge11_Node000002_Node000005" class="edge"><title>Node2&#45;&gt;Node5</title>
<g id="a_edge11_Node000002_Node000005"><a xlink:title=" ">
<path fill="none" stroke="#63b8ff" d="M166.216,-168.658C177.09,-172.266 190.035,-176.11 202,-178.5 247.883,-187.667 300.445,-192.427 340.858,-194.89"/>
<polygon fill="#63b8ff" stroke="#63b8ff" points="340.673,-198.385 350.859,-195.468 341.077,-191.397 340.673,-198.385"/>
</a>
</g>
</g>
<!-- Node11 -->
<g id="Node000011" class="node"><title>Node11</title>
<g id="a_Node000011"><a xlink:href="group___iterator_algorithms.html#gab8ba369b42eda61d010f35df73be73db" target="_top" xlink:title="Zavolání zvolené funkce na každý element množiny od pozice určené iterátorem až do posledního element...">
<polygon fill="white" stroke="#666666" points="294.5,-132 222.5,-132 222.5,-113 294.5,-113 294.5,-132"/>
<text text-anchor="middle" x="258.5" y="-120" font-family="Helvetica,sans-Serif" font-size="10.00">set_for_each</text>
</a>
</g>
</g>
<!-- Node2&#45;&gt;Node11 -->
<g id="edge12_Node000002_Node000011" class="edge"><title>Node2&#45;&gt;Node11</title>
<g id="a_edge12_Node000002_Node000011"><a xlink:title=" ">
<path fill="none" stroke="#63b8ff" d="M166.279,-151.472C181.271,-146.71 200.609,-140.569 217.618,-135.166"/>
<polygon fill="#63b8ff" stroke="#63b8ff" points="218.842,-138.45 227.314,-132.087 216.723,-131.778 218.842,-138.45"/>
</a>
</g>
</g>
<!-- Node14 -->
<g id="Node000014" class="node"><title>Node14</title>
<g id="a_Node000014"><a xlink:href="group___t_set_iterator.html#gab11bafbe7585e4bb0bd9ff2353d77765" target="_top" xlink:title="Vytvoření nového iterátoru ukazujícího na první element množiny.">
<polygon fill="white" stroke="#666666" points="455,-38 361,-38 361,-19 455,-19 455,-38"/>
<text text-anchor="middle" x="408" y="-26" font-family="Helvetica,sans-Serif" font-size="10.00">set_iterator_begin</text>
</a>
</g>
</g>
<!-- Node2&#45;&gt;Node14 -->
<g id="edge19_Node000002_Node000014" class="edge"><title>Node2&#45;&gt;Node14</title>
<g id="a_edge19_Node000002_Node000014"><a xlink:title=" ">
<path fill="none" stroke="#63b8ff" d="M149.189,-149.947C160.13,-137.702 180.632,-116.505 202,-103.5 251.256,-73.5237 314.375,-52.6869 357.48,-40.7143"/>
<polygon fill="#63b8ff" stroke="#63b8ff" points="358.442,-44.0799 367.173,-38.0778 356.605,-37.3254 358.442,-44.0799"/>
</a>
</g>
</g>
<!-- Node4&#45;&gt;Node5 -->
<g id="edge4_Node000004_Node000005" class="edge"><title>Node4&#45;&gt;Node5</title>
<g id="a_edge4_Node000004_Node000005"><a xlink:title=" ">
<path fill="none" stroke="#63b8ff" d="M296.72,-169.089C316.009,-174.058 339.758,-180.177 360.271,-185.461"/>
<polygon fill="#63b8ff" stroke="#63b8ff" points="359.49,-188.874 370.047,-187.98 361.237,-182.096 359.49,-188.874"/>
</a>
</g>
</g>
<!-- Node6 -->
<g id="Node000006" class="node"><title>Node6</title>
<g id="a_Node000006"><a xlink:href="group___t_set_iterator.html#ga3928a980e2759ba130ce333e77f15fab" target="_top" xlink:title="Přečtení hodnoty elementu z množiny pomocí iterátoru.">
<polygon fill="white" stroke="#666666" points="454,-170 362,-170 362,-151 454,-151 454,-170"/>
<text text-anchor="middle" x="408" y="-158" font-family="Helvetica,sans-Serif" font-size="10.00">set_iterator_value</text>
</a>
</g>
</g>
<!-- Node4&#45;&gt;Node6 -->
<g id="edge5_Node000004_Node000006" class="edge"><title>Node4&#45;&gt;Node6</title>
<g id="a_edge5_Node000004_Node000006"><a xlink:title=" ">
<path fill="none" stroke="#63b8ff" d="M315.263,-159.878C327.126,-159.958 339.649,-160.043 351.502,-160.124"/>
<polygon fill="#63b8ff" stroke="#63b8ff" points="351.688,-163.625 361.711,-160.193 351.735,-156.625 351.688,-163.625"/>
</a>
</g>
</g>
<!-- Node7 -->
<g id="Node000007" class="node"><title>Node7</title>
<g id="a_Node000007"><a xlink:href="group___t_set_hash_table.html#gaf6b548ed4295b1a4789d073b8a43db58" target="_top" xlink:title="Přečtení hodnoty elementu z platné přihrádky v hašovací tabulce.">
<polygon fill="white" stroke="#666666" points="794,-159.5 684,-159.5 684,-129.5 794,-129.5 794,-159.5"/>
<text text-anchor="start" x="692" y="-147.5" font-family="Helvetica,sans-Serif" font-size="10.00">set_hash_table_value</text>
<text text-anchor="middle" x="739" y="-136.5" font-family="Helvetica,sans-Serif" font-size="10.00">_at_pos</text>
</a>
</g>
</g>
<!-- Node6&#45;&gt;Node7 -->
<g id="edge6_Node000006_Node000007" class="edge"><title>Node6&#45;&gt;Node7</title>
<g id="a_edge6_Node000006_Node000007"><a xlink:title=" ">
<path fill="none" stroke="#63b8ff" d="M454.056,-158.309C510.936,-155.543 609.155,-150.766 673.853,-147.62"/>
<polygon fill="#63b8ff" stroke="#63b8ff" points="674.12,-151.111 683.938,-147.129 673.78,-144.119 674.12,-151.111"/>
</a>
</g>
</g>
<!-- Node9 -->
<g id="Node000009" class="node"><title>Node9</title>
<g id="a_Node000009"><a xlink:href="group___t_set_iterator.html#ga089f24c81ac3da7d1ac7ca24cc078dd8" target="_top" xlink:title="Zjištění platnosti iterátoru.">
<polygon fill="white" stroke="#666666" points="618,-132 516,-132 516,-113 618,-113 618,-132"/>
<text text-anchor="middle" x="567" y="-120" font-family="Helvetica,sans-Serif" font-size="10.00">set_iterator_is_valid</text>
</a>
</g>
</g>
<!-- Node6&#45;&gt;Node9 -->
<g id="edge8_Node000006_Node000009" class="edge"><title>Node6&#45;&gt;Node9</title>
<g id="a_edge8_Node000006_Node000009"><a xlink:title=" ">
<path fill="none" stroke="#63b8ff" d="M448.618,-150.911C469.336,-145.896 494.888,-139.712 516.856,-134.395"/>
<polygon fill="#63b8ff" stroke="#63b8ff" points="517.771,-137.774 526.667,-132.02 516.124,-130.971 517.771,-137.774"/>
</a>
</g>
</g>
<!-- Node8 -->
<g id="Node000008" class="node"><title>Node8</title>
<g id="a_Node000008"><a xlink:href="_t_set_hash_table_open_addr_8c.html#aa4a90f23bbdbe5bb71a49d7df2ee5fc1" target="_top" xlink:title="Funkce vracející hodnotu reprezentující smazanou přihrádku.">
<polygon fill="white" stroke="#666666" points="949,-81.5 845,-81.5 845,-51.5 949,-51.5 949,-81.5"/>
<text text-anchor="start" x="853" y="-69.5" font-family="Helvetica,sans-Serif" font-size="10.00">calc_erased_bucket</text>
<text text-anchor="middle" x="897" y="-58.5" font-family="Helvetica,sans-Serif" font-size="10.00">_marker</text>
</a>
</g>
</g>
<!-- Node7&#45;&gt;Node8 -->
<g id="edge7_Node000007_Node000008" class="edge"><title>Node7&#45;&gt;Node8</title>
<g id="a_edge7_Node000007_Node000008"><a xlink:title=" ">
<path fill="none" stroke="#63b8ff" d="M770.078,-129.461C794.71,-117.145 829.751,-99.6247 856.617,-86.1916"/>
<polygon fill="#63b8ff" stroke="#63b8ff" points="858.369,-89.2286 865.748,-81.6259 855.239,-82.9676 858.369,-89.2286"/>
</a>
</g>
</g>
<!-- Node10 -->
<g id="Node000010" class="node"><title>Node10</title>
<g id="a_Node000010"><a xlink:href="group___t_set_hash_table.html#ga891b531cc6373331e55101f2dd75ac4a" target="_top" xlink:title="Zjištění platnosti pozice v hašovací tabulce.">
<polygon fill="white" stroke="#666666" points="809,-95 669,-95 669,-76 809,-76 809,-95"/>
<text text-anchor="middle" x="739" y="-83" font-family="Helvetica,sans-Serif" font-size="10.00">set_hash_table_is_valid_pos</text>
</a>
</g>
</g>
<!-- Node9&#45;&gt;Node10 -->
<g id="edge9_Node000009_Node000010" class="edge"><title>Node9&#45;&gt;Node10</title>
<g id="a_edge9_Node000009_Node000010"><a xlink:title=" ">
<path fill="none" stroke="#63b8ff" d="M611.779,-112.972C633.803,-108.178 660.699,-102.324 683.996,-97.2539"/>
<polygon fill="#63b8ff" stroke="#63b8ff" points="685.047,-100.607 694.074,-95.0604 683.558,-93.7672 685.047,-100.607"/>
</a>
</g>
</g>
<!-- Node10&#45;&gt;Node8 -->
<g id="edge10_Node000010_Node000008" class="edge"><title>Node10&#45;&gt;Node8</title>
<g id="a_edge10_Node000010_Node000008"><a xlink:title=" ">
<path fill="none" stroke="#63b8ff" d="M809.332,-77.0557C817.779,-76.0269 826.362,-74.9815 834.681,-73.9684"/>
<polygon fill="#63b8ff" stroke="#63b8ff" points="835.165,-77.4354 844.668,-72.7519 834.318,-70.4867 835.165,-77.4354"/>
</a>
</g>
</g>
<!-- Node11&#45;&gt;Node9 -->
<g id="edge13_Node000011_Node000009" class="edge"><title>Node11&#45;&gt;Node9</title>
<g id="a_edge13_Node000011_Node000009"><a xlink:title=" ">
<path fill="none" stroke="#63b8ff" d="M294.659,-122.5C346.121,-122.5 442.663,-122.5 505.624,-122.5"/>
<polygon fill="#63b8ff" stroke="#63b8ff" points="505.814,-126 515.814,-122.5 505.814,-119 505.814,-126"/>
</a>
</g>
</g>
<!-- Node12 -->
<g id="Node000012" class="node"><title>Node12</title>
<g id="a_Node000012"><a xlink:href="group___t_set_iterator.html#ga6723a05c864198597ff49718020bd0d6" target="_top" xlink:title="Posunutí iterátoru vpřed.">
<polygon fill="white" stroke="#666666" points="459.5,-94 356.5,-94 356.5,-75 459.5,-75 459.5,-94"/>
<text text-anchor="middle" x="408" y="-82" font-family="Helvetica,sans-Serif" font-size="10.00">set_iterator_to_next</text>
</a>
</g>
</g>
<!-- Node11&#45;&gt;Node12 -->
<g id="edge14_Node000011_Node000012" class="edge"><title>Node11&#45;&gt;Node12</title>
<g id="a_edge14_Node000011_Node000012"><a xlink:title=" ">
<path fill="none" stroke="#63b8ff" d="M294.83,-113.398C314.401,-108.356 338.98,-102.024 360.138,-96.5728"/>
<polygon fill="#63b8ff" stroke="#63b8ff" points="361.089,-99.9422 369.9,-94.058 359.343,-93.1635 361.089,-99.9422"/>
</a>
</g>
</g>
<!-- Node12&#45;&gt;Node9 -->
<g id="edge18_Node000012_Node000009" class="edge"><title>Node12&#45;&gt;Node9</title>
<g id="a_edge18_Node000012_Node000009"><a xlink:title=" ">
<path fill="none" stroke="#63b8ff" d="M448.618,-94.089C469.336,-99.1035 494.888,-105.288 516.856,-110.605"/>
<polygon fill="#63b8ff" stroke="#63b8ff" points="516.124,-114.029 526.667,-112.98 517.771,-107.226 516.124,-114.029"/>
</a>
</g>
</g>
<!-- Node12&#45;&gt;Node10 -->
<g id="edge15_Node000012_Node000010" class="edge"><title>Node12&#45;&gt;Node10</title>
<g id="a_edge15_Node000012_Node000010"><a xlink:title=" ">
<path fill="none" stroke="#63b8ff" d="M459.685,-84.6541C512.786,-84.8155 596.922,-85.0712 658.799,-85.2593"/>
<polygon fill="#63b8ff" stroke="#63b8ff" points="658.906,-88.7595 668.916,-85.29 658.927,-81.7595 658.906,-88.7595"/>
</a>
</g>
</g>
<!-- Node13 -->
<g id="Node000013" class="node"><title>Node13</title>
<g id="a_Node000013"><a xlink:href="group___t_set_hash_table.html#ga9218e24d2cc5a61596c4a45ef76f4c75" target="_top" xlink:title="Výpočet následující pozice platné přihrádky v hašovací tabulce.">
<polygon fill="white" stroke="#666666" points="631,-56 503,-56 503,-37 631,-37 631,-56"/>
<text text-anchor="middle" x="567" y="-44" font-family="Helvetica,sans-Serif" font-size="10.00">set_hash_table_next_pos</text>
</a>
</g>
</g>
<!-- Node12&#45;&gt;Node13 -->
<g id="edge16_Node000012_Node000013" class="edge"><title>Node12&#45;&gt;Node13</title>
<g id="a_edge16_Node000012_Node000013"><a xlink:title=" ">
<path fill="none" stroke="#63b8ff" d="M448.618,-74.911C469.336,-69.8965 494.888,-63.7119 516.856,-58.3947"/>
<polygon fill="#63b8ff" stroke="#63b8ff" points="517.771,-61.7744 526.667,-56.0201 516.124,-54.9708 517.771,-61.7744"/>
</a>
</g>
</g>
<!-- Node13&#45;&gt;Node8 -->
<g id="edge17_Node000013_Node000008" class="edge"><title>Node13&#45;&gt;Node8</title>
<g id="a_edge17_Node000013_Node000008"><a xlink:title=" ">
<path fill="none" stroke="#63b8ff" d="M631.242,-50.3562C689.897,-53.9327 776.627,-59.2211 834.664,-62.76"/>
<polygon fill="#63b8ff" stroke="#63b8ff" points="834.601,-66.2625 844.795,-63.3777 835.027,-59.2755 834.601,-66.2625"/>
</a>
</g>
</g>
<!-- Node15 -->
<g id="Node000015" class="node"><title>Node15</title>
<g id="a_Node000015"><a xlink:href="group___t_set_hash_table.html#ga6ae8410d0c50fb9f3104838bafdbc906" target="_top" xlink:title="Výpočet první platné pozice v hašovací tabulce.">
<polygon fill="white" stroke="#666666" points="633,-19 501,-19 501,-0 633,-0 633,-19"/>
<text text-anchor="middle" x="567" y="-7" font-family="Helvetica,sans-Serif" font-size="10.00">set_hash_table_begin_pos</text>
</a>
</g>
</g>
<!-- Node14&#45;&gt;Node15 -->
<g id="edge20_Node000014_Node000015" class="edge"><title>Node14&#45;&gt;Node15</title>
<g id="a_edge20_Node000014_Node000015"><a xlink:title=" ">
<path fill="none" stroke="#63b8ff" d="M455.256,-22.9021C466.421,-21.5509 478.64,-20.0723 490.754,-18.6062"/>
<polygon fill="#63b8ff" stroke="#63b8ff" points="491.374,-22.0568 500.881,-17.3806 490.533,-15.1075 491.374,-22.0568"/>
</a>
</g>
</g>
<!-- Node15&#45;&gt;Node8 -->
<g id="edge21_Node000015_Node000008" class="edge"><title>Node15&#45;&gt;Node8</title>
<g id="a_edge21_Node000015_Node000008"><a xlink:title=" ">
<path fill="none" stroke="#63b8ff" d="M628.499,-19.0516C677.289,-26.8726 747.646,-38.4164 809,-49.5 817.382,-51.0141 826.205,-52.6681 834.888,-54.3308"/>
<polygon fill="#63b8ff" stroke="#63b8ff" points="834.5,-57.8203 844.982,-56.2786 835.826,-50.9471 834.5,-57.8203"/>
</a>
</g>
</g>
</g>
</svg>
